G04 ================== begin FILE IDENTIFICATION RECORD ==================*
G04 Layout Name:  dspeak-v1_00-0b.brd*
G04 Film Name:    dsPeak-v1_00-0b-Outline*
G04 File Format:  Gerber RS274X*
G04 File Origin:  Cadence Allegro 17.4-S015*
G04 Origin Date:  Thu Apr  1 20:56:04 2021*
G04 *
G04 Layer:  BOARD GEOMETRY/DESIGN_OUTLINE*
G04 *
G04 Offset:    (0.000 0.000)*
G04 Mirror:    No*
G04 Mode:      Positive*
G04 Rotation:  0*
G04 FullContactRelief:  No*
G04 UndefLineWidth:     6.000*
G04 ================== end FILE IDENTIFICATION RECORD ====================*
%FSLAX25Y25*MOIN*%
%IR0*IPPOS*OFA0.00000B0.00000*MIA0B0*SFA1.00000B1.00000*%
%ADD10C,.006*%
G75*
%LPD*%
G75*
G54D10*
G01X558500Y185500D02*
X579672Y206672D01*
G03X582500Y213500I-6829J6828D01*
G01Y236500D01*
G03X579672Y243328I-9657J0D01*
G01X558500Y264500D01*
G02X555500Y271743I7243J7243D01*
G01Y451000D01*
X538243D01*
G02X531000Y454000I0J10243D01*
G01X509828Y475172D01*
G03X503000Y478000I-6828J-6829D01*
G01X480000D01*
G03X473172Y475172I0J-9657D01*
G01X452000Y454000D01*
G02X444757Y451000I-7243J7243D01*
G01X324500D01*
G02X317000Y454000I-250J10250D01*
G01X295828Y475172D01*
G03X289000Y478000I-6828J-6829D01*
G01X266000D01*
G03X259172Y475172I0J-9657D01*
G01X238000Y454000D01*
G02X230757Y451000I-7243J7243D01*
G01X110243D01*
G02X103000Y454000I0J10243D01*
G01X81828Y475172D01*
G03X75000Y478000I-6828J-6829D01*
G01X52000D01*
G03X45172Y475172I0J-9657D01*
G01X24000Y454000D01*
G02X16757Y451000I-7243J7243D01*
G01X0D01*
Y271500D01*
G02X-2500Y264500I-8639J-861D01*
G01X-23672Y243328D01*
G03X-26500Y236500I6829J-6828D01*
G01Y213500D01*
G03X-23672Y206672I9657J0D01*
G01X-21000Y204000D01*
X0D01*
Y0D01*
X16757D01*
G02X24000Y-3000I0J-10243D01*
G01X45172Y-24172D01*
G03X52000Y-27000I6828J6829D01*
G01X75000D01*
G03X81828Y-24172I0J9657D01*
G01X103000Y-3000D01*
G02X110243Y0I7243J-7243D01*
G01X444757D01*
G02X452000Y-3000I0J-10243D01*
G01X473172Y-24172D01*
G03X480000Y-27000I6828J6829D01*
G01X503000D01*
G03X509828Y-24172I0J9657D01*
G01X531000Y-3000D01*
G02X538243Y0I7243J-7243D01*
G01X555500D01*
Y178257D01*
G02X558500Y185500I10243J0D01*
M02*
