G04 ================== begin FILE IDENTIFICATION RECORD ==================*
G04 Layout Name:  dspeak-v1_00-0b.brd*
G04 Film Name:    dsPeak-v1_00-0b-TOP*
G04 File Format:  Gerber RS274X*
G04 File Origin:  Cadence Allegro 17.4-S015*
G04 Origin Date:  Fri Mar 19 07:40:17 2021*
G04 *
G04 Layer:  ETCH/TOP*
G04 Layer:  PIN/TOP*
G04 Layer:  VIA CLASS/TOP*
G04 *
G04 Offset:    (0.000 0.000)*
G04 Mirror:    No*
G04 Mode:      Positive*
G04 Rotation:  0*
G04 FullContactRelief:  No*
G04 UndefLineWidth:     6.000*
G04 ================== end FILE IDENTIFICATION RECORD ====================*
%FSLAX25Y25*MOIN*%
%IR0*IPPOS*OFA0.00000B0.00000*MIA0B0*SFA1.00000B1.00000*%
%AMMACRO71*
4,1,44,-.004791,-.014764,
.004791,-.014764,
.005429,-.014708,
.006047,-.014543,
.006628,-.014272,
.007152,-.013905,
.007605,-.013452,
.007972,-.012928,
.008243,-.012348,
.008409,-.011729,
.008464,-.011091,
.008464,-.011091,
.008464,.011091,
.008409,.011729,
.008243,.012347,
.007972,.012927,
.007605,.013452,
.007152,.013905,
.006628,.014272,
.006048,.014542,
.005429,.014708,
.004792,.014764,
.004791,.014764,
-.004791,.014764,
-.005429,.014708,
-.006047,.014543,
-.006628,.014272,
-.007152,.013905,
-.007605,.013452,
-.007972,.012928,
-.008243,.012348,
-.008409,.011729,
-.008464,.011091,
-.008464,.011091,
-.008464,-.011091,
-.008409,-.011729,
-.008243,-.012347,
-.007972,-.012927,
-.007605,-.013452,
-.007152,-.013905,
-.006628,-.014272,
-.006048,-.014542,
-.005429,-.014708,
-.004792,-.014764,
-.004791,-.014764,
0.0*
%
%ADD71MACRO71*%
%AMMACRO59*
4,1,44,.014764,-.004791,
.014764,.004791,
.014708,.005429,
.014543,.006047,
.014272,.006628,
.013905,.007152,
.013452,.007605,
.012928,.007972,
.012348,.008243,
.011729,.008409,
.011091,.008464,
.011091,.008464,
-.011091,.008464,
-.011729,.008409,
-.012347,.008243,
-.012927,.007972,
-.013452,.007605,
-.013905,.007152,
-.014272,.006628,
-.014542,.006048,
-.014708,.005429,
-.014764,.004792,
-.014764,.004791,
-.014764,-.004791,
-.014708,-.005429,
-.014543,-.006047,
-.014272,-.006628,
-.013905,-.007152,
-.013452,-.007605,
-.012928,-.007972,
-.012348,-.008243,
-.011729,-.008409,
-.011091,-.008464,
-.011091,-.008464,
.011091,-.008464,
.011729,-.008409,
.012347,-.008243,
.012927,-.007972,
.013452,-.007605,
.013905,-.007152,
.014272,-.006628,
.014542,-.006048,
.014708,-.005429,
.014764,-.004792,
.014764,-.004791,
0.0*
%
%ADD59MACRO59*%
%AMMACRO31*
4,1,44,.023622,-.004594,
.023622,.004594,
.023483,.006189,
.023068,.007735,
.022392,.009187,
.021473,.010498,
.020341,.01163,
.01903,.012549,
.017579,.013225,
.016032,.01364,
.014437,.013779,
.014437,.013779,
-.014437,.013779,
-.016032,.01364,
-.017578,.013226,
-.019029,.012549,
-.020341,.011631,
-.021473,.010499,
-.022391,.009187,
-.023068,.007736,
-.023482,.006189,
-.023622,.004595,
-.023622,.004594,
-.023622,-.004594,
-.023483,-.006189,
-.023068,-.007735,
-.022392,-.009187,
-.021473,-.010498,
-.020341,-.01163,
-.01903,-.012549,
-.017579,-.013225,
-.016032,-.01364,
-.014437,-.013779,
-.014437,-.013779,
.014437,-.013779,
.016032,-.01364,
.017578,-.013226,
.019029,-.012549,
.020341,-.011631,
.021473,-.010499,
.022391,-.009187,
.023068,-.007736,
.023482,-.006189,
.023622,-.004595,
.023622,-.004594,
0.0*
%
%ADD31MACRO31*%
%AMMACRO30*
21,1,.062,.062,0.0,0.0,89.967*%
%ADD30MACRO30*%
%AMMACRO101*
4,1,44,.053149,.047244,
-.053149,.047244,
-.054516,.047124,
-.055842,.046769,
-.057086,.046189,
-.05821,.045402,
-.059181,.044432,
-.059968,.043307,
-.060548,.042064,
-.060904,.040738,
-.061023,.03937,
-.061023,.03937,
-.061023,-.03937,
-.060904,-.040737,
-.060549,-.042063,
-.059969,-.043307,
-.059181,-.044431,
-.058211,-.045402,
-.057087,-.046189,
-.055843,-.046769,
-.054517,-.047124,
-.05315,-.047244,
-.053149,-.047244,
.053149,-.047244,
.054516,-.047124,
.055842,-.046769,
.057086,-.046189,
.05821,-.045402,
.059181,-.044432,
.059968,-.043307,
.060548,-.042064,
.060904,-.040738,
.061023,-.03937,
.061023,-.03937,
.061023,.03937,
.060904,.040737,
.060549,.042063,
.059969,.043307,
.059181,.044431,
.058211,.045402,
.057087,.046189,
.055843,.046769,
.054517,.047124,
.05315,.047244,
.053149,.047244,
0.0*
%
%ADD101MACRO101*%
%AMMACRO50*
4,1,44,.001311,.013779,
-.001311,.013779,
-.001767,.01374,
-.002209,.013621,
-.002624,.013428,
-.002999,.013165,
-.003323,.012841,
-.003585,.012467,
-.003779,.012052,
-.003897,.01161,
-.003937,.011154,
-.003937,.011153,
-.003937,-.011153,
-.003897,-.011609,
-.003779,-.012051,
-.003585,-.012466,
-.003323,-.012841,
-.002999,-.013165,
-.002624,-.013427,
-.00221,-.013621,
-.001767,-.01374,
-.001311,-.013779,
-.001311,-.013779,
.001311,-.013779,
.001767,-.01374,
.002209,-.013621,
.002624,-.013428,
.002999,-.013165,
.003323,-.012841,
.003585,-.012467,
.003779,-.012052,
.003897,-.01161,
.003937,-.011154,
.003937,-.011153,
.003937,.011153,
.003897,.011609,
.003779,.012051,
.003585,.012466,
.003323,.012841,
.002999,.013165,
.002624,.013427,
.00221,.013621,
.001767,.01374,
.001311,.013779,
.001311,.013779,
0.0*
%
%ADD50MACRO50*%
%AMMACRO103*
4,1,44,-.004594,-.03937,
.004594,-.03937,
.006189,-.039231,
.007735,-.038816,
.009187,-.03814,
.010498,-.037221,
.01163,-.036089,
.012549,-.034778,
.013225,-.033327,
.01364,-.03178,
.013779,-.030185,
.013779,-.030185,
.013779,.030185,
.01364,.03178,
.013226,.033326,
.012549,.034778,
.011631,.036089,
.010499,.037221,
.009187,.038139,
.007736,.038816,
.006189,.03923,
.004595,.03937,
.004594,.03937,
-.004594,.03937,
-.006189,.039231,
-.007735,.038816,
-.009187,.03814,
-.010498,.037221,
-.01163,.036089,
-.012549,.034778,
-.013225,.033327,
-.01364,.03178,
-.013779,.030185,
-.013779,.030185,
-.013779,-.030185,
-.01364,-.03178,
-.013226,-.033326,
-.012549,-.034777,
-.011631,-.036089,
-.010499,-.037221,
-.009187,-.038139,
-.007736,-.038816,
-.006189,-.03923,
-.004595,-.03937,
-.004594,-.03937,
0.0*
%
%ADD103MACRO103*%
%AMMACRO85*
4,1,40,-.015,-.049,
.015,-.049,
.020209,-.048544,
.025261,-.047191,
.03,-.044981,
.034284,-.041981,
.037981,-.038284,
.040981,-.034,
.043191,-.029261,
.044544,-.024209,
.045,-.019,
.045,.019,
.044544,.024209,
.043191,.029261,
.040981,.034,
.037981,.038284,
.034284,.041981,
.03,.044981,
.025261,.047191,
.020209,.048544,
.015,.049,
-.015,.049,
-.020209,.048544,
-.025261,.047191,
-.03,.044981,
-.034284,.041981,
-.037981,.038284,
-.040981,.034,
-.043191,.029261,
-.044544,.024209,
-.045,.019,
-.045,-.019,
-.044544,-.024209,
-.043191,-.029261,
-.040981,-.034,
-.037981,-.038284,
-.034284,-.041981,
-.03,-.044981,
-.025261,-.047191,
-.020209,-.048544,
-.015,-.049,
0.0*
%
%ADD85MACRO85*%
%ADD10C,.155*%
%AMMACRO49*
4,1,44,-.045275,.033464,
-.045275,-.033464,
-.044947,-.037224,
-.04397,-.04087,
-.042374,-.044291,
-.040209,-.047383,
-.03754,-.050052,
-.034449,-.052217,
-.031028,-.053812,
-.027382,-.054789,
-.023622,-.055118,
-.023621,-.055118,
.023621,-.055118,
.027381,-.054789,
.031027,-.053812,
.034448,-.052217,
.03754,-.050052,
.040209,-.047383,
.042374,-.044291,
.043969,-.040871,
.044946,-.037225,
.045275,-.033464,
.045275,-.033464,
.045275,.033464,
.044947,.037224,
.04397,.04087,
.042374,.044291,
.040209,.047383,
.03754,.050052,
.034448,.052217,
.031028,.053812,
.027382,.054789,
.023622,.055118,
.023621,.055118,
-.023621,.055118,
-.027381,.054789,
-.031027,.053812,
-.034448,.052217,
-.03754,.050052,
-.040209,.047383,
-.042374,.044291,
-.043969,.040871,
-.044946,.037225,
-.045275,.033464,
-.045275,.033464,
0.0*
%
%ADD49MACRO49*%
%AMMACRO68*
4,1,40,-.036558,-.023545,
-.023545,-.036558,
-.021102,-.038609,
-.01834,-.040204,
-.015342,-.041294,
-.012201,-.041848,
-.009011,-.041848,
-.00587,-.041294,
-.002873,-.040203,
-.00011,-.038608,
.002332,-.036558,
.036558,-.002332,
.038609,.000111,
.040203,.002874,
.041294,.005871,
.041848,.009012,
.041848,.012202,
.041294,.015343,
.040203,.01834,
.038608,.021103,
.036558,.023545,
.023545,.036558,
.021102,.038609,
.01834,.040204,
.015342,.041294,
.012201,.041848,
.009011,.041848,
.00587,.041294,
.002873,.040203,
.00011,.038608,
-.002332,.036558,
-.036558,.002332,
-.038609,-.000111,
-.040203,-.002874,
-.041294,-.005871,
-.041848,-.009012,
-.041848,-.012202,
-.041294,-.015343,
-.040203,-.01834,
-.038608,-.021103,
-.036558,-.023545,
0.0*
%
%ADD68MACRO68*%
%ADD38R,.100394X.100394*%
%AMMACRO76*
4,1,44,-.051181,.012468,
-.051181,-.012468,
-.050802,-.016798,
-.049678,-.020996,
-.047841,-.024935,
-.045348,-.028495,
-.042275,-.031568,
-.038715,-.034061,
-.034776,-.035898,
-.030578,-.037023,
-.026248,-.037401,
-.026248,-.037401,
.026248,-.037401,
.030578,-.037023,
.034776,-.035898,
.038714,-.034061,
.042275,-.031568,
.045348,-.028495,
.047841,-.024935,
.049677,-.020996,
.050802,-.016798,
.051181,-.012469,
.051181,-.012468,
.051181,.012468,
.050802,.016798,
.049678,.020996,
.047841,.024935,
.045348,.028495,
.042275,.031568,
.038715,.034061,
.034776,.035898,
.030578,.037023,
.026248,.037401,
.026248,.037401,
-.026248,.037401,
-.030578,.037023,
-.034776,.035898,
-.038714,.034061,
-.042275,.031568,
-.045348,.028495,
-.047841,.024935,
-.049677,.020996,
-.050802,.016798,
-.051181,.012469,
-.051181,.012468,
0.0*
%
%ADD76MACRO76*%
%AMMACRO98*
4,1,44,.027559,-.008531,
.027559,.008531,
.0273,.011493,
.02653,.014366,
.025274,.017061,
.023568,.019496,
.021466,.021599,
.01903,.023305,
.016335,.024562,
.013463,.025331,
.0105,.02559,
.0105,.02559,
-.0105,.02559,
-.013462,.025331,
-.016335,.024562,
-.019029,.023305,
-.021465,.021599,
-.023568,.019497,
-.025274,.017061,
-.02653,.014366,
-.0273,.011494,
-.027559,.008532,
-.027559,.008531,
-.027559,-.008531,
-.0273,-.011493,
-.02653,-.014366,
-.025274,-.017061,
-.023568,-.019496,
-.021466,-.021599,
-.01903,-.023305,
-.016335,-.024562,
-.013463,-.025331,
-.0105,-.02559,
-.0105,-.02559,
.0105,-.02559,
.013462,-.025331,
.016335,-.024562,
.019029,-.023305,
.021465,-.021599,
.023568,-.019497,
.025274,-.017061,
.02653,-.014366,
.0273,-.011494,
.027559,-.008532,
.027559,-.008531,
0.0*
%
%ADD98MACRO98*%
%AMMACRO77*
4,1,40,-.007655,.018791,
-.018791,.007655,
-.019233,.00713,
-.019576,.006536,
-.01981,.005891,
-.01993,.005215,
-.019929,.004528,
-.01981,.003853,
-.019575,.003208,
-.019232,.002614,
-.018791,.002088,
.002088,-.018791,
.002614,-.019232,
.003208,-.019575,
.003853,-.01981,
.004529,-.019929,
.005215,-.01993,
.005891,-.01981,
.006536,-.019576,
.00713,-.019233,
.007655,-.018791,
.018791,-.007655,
.019233,-.00713,
.019576,-.006536,
.01981,-.005891,
.01993,-.005215,
.019929,-.004528,
.01981,-.003853,
.019575,-.003208,
.019232,-.002614,
.018791,-.002088,
-.002088,.018791,
-.002614,.019232,
-.003208,.019575,
-.003853,.01981,
-.004529,.019929,
-.005215,.01993,
-.005891,.01981,
-.006536,.019576,
-.00713,.019233,
-.007655,.018791,
0.0*
%
%ADD77MACRO77*%
%AMMACRO74*
4,1,44,-.031549,-.021344,
-.021344,-.031549,
-.019417,-.033167,
-.017237,-.034425,
-.014873,-.035286,
-.012394,-.035723,
-.009878,-.035723,
-.007399,-.035286,
-.005035,-.034426,
-.002855,-.033168,
-.000927,-.03155,
-.000927,-.031549,
.031549,.000927,
.033167,.002854,
.034425,.005034,
.035286,.007398,
.035723,.009877,
.035723,.012393,
.035286,.014872,
.034426,.017236,
.033168,.019416,
.03155,.021344,
.031549,.021344,
.021344,.031549,
.019417,.033167,
.017237,.034425,
.014873,.035286,
.012394,.035723,
.009878,.035723,
.007399,.035286,
.005035,.034426,
.002855,.033168,
.000927,.03155,
.000927,.031549,
-.031549,-.000927,
-.033167,-.002854,
-.034425,-.005034,
-.035286,-.007398,
-.035723,-.009877,
-.035723,-.012393,
-.035286,-.014872,
-.034426,-.017236,
-.033168,-.019416,
-.03155,-.021344,
-.031549,-.021344,
0.0*
%
%ADD74MACRO74*%
%AMMACRO62*
4,1,40,-.014764,.001839,
-.014764,-.001839,
-.014708,-.002477,
-.014542,-.003095,
-.014272,-.003675,
-.013905,-.0042,
-.013452,-.004653,
-.012928,-.00502,
-.012347,-.00529,
-.011729,-.005456,
-.011091,-.005512,
.011091,-.005512,
.011729,-.005456,
.012347,-.00529,
.012927,-.00502,
.013452,-.004653,
.013905,-.0042,
.014272,-.003676,
.014542,-.003095,
.014708,-.002477,
.014764,-.001839,
.014764,.001839,
.014708,.002477,
.014542,.003095,
.014272,.003675,
.013905,.0042,
.013452,.004653,
.012928,.00502,
.012347,.00529,
.011729,.005456,
.011091,.005512,
-.011091,.005512,
-.011729,.005456,
-.012347,.00529,
-.012927,.00502,
-.013452,.004653,
-.013905,.0042,
-.014272,.003676,
-.014542,.003095,
-.014708,.002477,
-.014764,.001839,
0.0*
%
%ADD62MACRO62*%
%AMMACRO32*
4,1,40,-.018701,.007874,
-.018701,-.007874,
-.018641,-.008558,
-.018464,-.009221,
-.018174,-.009842,
-.01778,-.010405,
-.017295,-.01089,
-.016733,-.011284,
-.016111,-.011574,
-.015448,-.011751,
-.014764,-.011811,
.014764,-.011811,
.015448,-.011751,
.016111,-.011574,
.016732,-.011284,
.017295,-.01089,
.01778,-.010405,
.018174,-.009843,
.018464,-.009221,
.018641,-.008558,
.018701,-.007874,
.018701,.007874,
.018641,.008558,
.018464,.009221,
.018174,.009842,
.01778,.010405,
.017295,.01089,
.016733,.011284,
.016111,.011574,
.015448,.011751,
.014764,.011811,
-.014764,.011811,
-.015448,.011751,
-.016111,.011574,
-.016732,.011284,
-.017295,.01089,
-.01778,.010405,
-.018174,.009843,
-.018464,.009221,
-.018641,.008558,
-.018701,.007874,
0.0*
%
%ADD32MACRO32*%
%AMMACRO13*
4,1,40,.055118,-.0105,
.055118,.0105,
.054978,.012095,
.054564,.013641,
.053887,.015093,
.052969,.016404,
.051837,.017536,
.050526,.018454,
.049074,.019131,
.047528,.019545,
.045933,.019685,
-.045933,.019685,
-.047528,.019545,
-.049074,.019131,
-.050526,.018454,
-.051837,.017536,
-.052969,.016404,
-.053887,.015093,
-.054564,.013641,
-.054978,.012095,
-.055118,.0105,
-.055118,-.0105,
-.054978,-.012095,
-.054564,-.013641,
-.053887,-.015092,
-.052969,-.016404,
-.051837,-.017536,
-.050526,-.018454,
-.049074,-.019131,
-.047528,-.019545,
-.045933,-.019685,
.045933,-.019685,
.047528,-.019545,
.049074,-.019131,
.050525,-.018454,
.051837,-.017536,
.052969,-.016404,
.053887,-.015093,
.054564,-.013641,
.054978,-.012095,
.055118,-.0105,
0.0*
%
%ADD13MACRO13*%
%AMMACRO45*
4,1,44,-.021653,.007874,
-.021653,-.007874,
-.021594,-.008558,
-.021416,-.009221,
-.021126,-.009842,
-.020732,-.010405,
-.020247,-.01089,
-.019685,-.011284,
-.019063,-.011574,
-.0184,-.011751,
-.017717,-.011811,
-.017716,-.011811,
.017716,-.011811,
.0184,-.011751,
.019063,-.011574,
.019685,-.011284,
.020247,-.01089,
.020732,-.010405,
.021126,-.009843,
.021416,-.009221,
.021594,-.008558,
.021653,-.007874,
.021653,-.007874,
.021653,.007874,
.021594,.008558,
.021416,.009221,
.021126,.009842,
.020732,.010405,
.020247,.01089,
.019685,.011284,
.019063,.011574,
.0184,.011751,
.017716,.011811,
.017716,.011811,
-.017716,.011811,
-.0184,.011751,
-.019063,.011574,
-.019685,.011284,
-.020247,.01089,
-.020732,.010405,
-.021126,.009843,
-.021416,.009221,
-.021594,.008558,
-.021653,.007874,
-.021653,.007874,
0.0*
%
%ADD45MACRO45*%
%AMMACRO27*
4,1,40,.007874,.018701,
-.007874,.018701,
-.008558,.018641,
-.009221,.018464,
-.009842,.018174,
-.010405,.01778,
-.01089,.017295,
-.011284,.016733,
-.011574,.016111,
-.011751,.015448,
-.011811,.014764,
-.011811,-.014764,
-.011751,-.015448,
-.011574,-.016111,
-.011284,-.016732,
-.01089,-.017295,
-.010405,-.01778,
-.009843,-.018174,
-.009221,-.018464,
-.008558,-.018641,
-.007874,-.018701,
.007874,-.018701,
.008558,-.018641,
.009221,-.018464,
.009842,-.018174,
.010405,-.01778,
.01089,-.017295,
.011284,-.016733,
.011574,-.016111,
.011751,-.015448,
.011811,-.014764,
.011811,.014764,
.011751,.015448,
.011574,.016111,
.011284,.016732,
.01089,.017295,
.010405,.01778,
.009842,.018174,
.009221,.018464,
.008558,.018641,
.007874,.018701,
0.0*
%
%ADD27MACRO27*%
%AMMACRO56*
4,1,44,.007874,.021653,
-.007874,.021653,
-.008558,.021594,
-.009221,.021416,
-.009842,.021126,
-.010405,.020732,
-.01089,.020247,
-.011284,.019685,
-.011574,.019063,
-.011751,.0184,
-.011811,.017717,
-.011811,.017716,
-.011811,-.017716,
-.011751,-.0184,
-.011574,-.019063,
-.011284,-.019685,
-.01089,-.020247,
-.010405,-.020732,
-.009843,-.021126,
-.009221,-.021416,
-.008558,-.021594,
-.007874,-.021653,
-.007874,-.021653,
.007874,-.021653,
.008558,-.021594,
.009221,-.021416,
.009842,-.021126,
.010405,-.020732,
.01089,-.020247,
.011284,-.019685,
.011574,-.019063,
.011751,-.0184,
.011811,-.017717,
.011811,-.017716,
.011811,.017716,
.011751,.0184,
.011574,.019063,
.011284,.019685,
.01089,.020247,
.010405,.020732,
.009843,.021126,
.009221,.021416,
.008558,.021594,
.007874,.021653,
.007874,.021653,
0.0*
%
%ADD56MACRO56*%
%AMMACRO40*
4,1,44,-.005905,.012795,
-.005905,-.012795,
-.005846,-.013479,
-.005668,-.014142,
-.005378,-.014764,
-.004985,-.015326,
-.0045,-.015811,
-.003937,-.016205,
-.003316,-.016495,
-.002653,-.016673,
-.001969,-.016732,
-.001968,-.016732,
.001968,-.016732,
.002652,-.016673,
.003315,-.016495,
.003937,-.016205,
.004499,-.015812,
.004984,-.015327,
.005378,-.014764,
.005668,-.014143,
.005846,-.01348,
.005905,-.012796,
.005905,-.012795,
.005905,.012795,
.005846,.013479,
.005668,.014142,
.005378,.014764,
.004985,.015326,
.0045,.015811,
.003937,.016205,
.003316,.016495,
.002653,.016673,
.001969,.016732,
.001968,.016732,
-.001968,.016732,
-.002652,.016673,
-.003315,.016495,
-.003937,.016205,
-.004499,.015812,
-.004984,.015327,
-.005378,.014764,
-.005668,.014143,
-.005846,.01348,
-.005905,.012796,
-.005905,.012795,
0.0*
%
%ADD40MACRO40*%
%AMMACRO14*
4,1,44,-.007216,-.029527,
.007216,-.029527,
.009723,-.029308,
.012154,-.028657,
.014435,-.027594,
.016496,-.02615,
.018276,-.024371,
.019719,-.022309,
.020783,-.020029,
.021434,-.017598,
.021653,-.015091,
.021653,-.01509,
.021653,.01509,
.021434,.017597,
.020783,.020028,
.01972,.022309,
.018276,.02437,
.016497,.02615,
.014435,.027593,
.012155,.028657,
.009724,.029308,
.007217,.029527,
.007216,.029527,
-.007216,.029527,
-.009723,.029308,
-.012154,.028657,
-.014435,.027594,
-.016496,.02615,
-.018276,.024371,
-.019719,.022309,
-.020783,.020029,
-.021434,.017598,
-.021653,.015091,
-.021653,.01509,
-.021653,-.01509,
-.021434,-.017597,
-.020783,-.020028,
-.01972,-.022309,
-.018276,-.02437,
-.016497,-.02615,
-.014435,-.027593,
-.012155,-.028657,
-.009724,-.029308,
-.007217,-.029527,
-.007216,-.029527,
0.0*
%
%ADD14MACRO14*%
%AMMACRO11*
4,1,44,.037401,-.008531,
.037401,.008531,
.037142,.011493,
.036373,.014366,
.035116,.017061,
.033411,.019496,
.031308,.021599,
.028872,.023305,
.026177,.024562,
.023305,.025331,
.020343,.02559,
.020342,.02559,
-.020342,.02559,
-.023304,.025331,
-.026177,.024562,
-.028872,.023305,
-.031307,.0216,
-.03341,.019497,
-.035116,.017061,
-.036373,.014366,
-.037142,.011494,
-.037401,.008532,
-.037401,.008531,
-.037401,-.008531,
-.037142,-.011493,
-.036373,-.014366,
-.035116,-.017061,
-.033411,-.019496,
-.031308,-.021599,
-.028872,-.023305,
-.026177,-.024562,
-.023305,-.025331,
-.020343,-.02559,
-.020342,-.02559,
.020342,-.02559,
.023304,-.025331,
.026177,-.024562,
.028872,-.023305,
.031307,-.0216,
.03341,-.019497,
.035116,-.017061,
.036373,-.014366,
.037142,-.011494,
.037401,-.008532,
.037401,-.008531,
0.0*
%
%ADD11MACRO11*%
%AMMACRO41*
4,1,44,.012795,.005905,
-.012795,.005905,
-.013479,.005846,
-.014142,.005668,
-.014764,.005378,
-.015326,.004985,
-.015811,.0045,
-.016205,.003937,
-.016495,.003316,
-.016673,.002653,
-.016732,.001969,
-.016732,.001968,
-.016732,-.001968,
-.016673,-.002652,
-.016495,-.003315,
-.016205,-.003937,
-.015812,-.004499,
-.015327,-.004984,
-.014764,-.005378,
-.014143,-.005668,
-.01348,-.005846,
-.012796,-.005905,
-.012795,-.005905,
.012795,-.005905,
.013479,-.005846,
.014142,-.005668,
.014764,-.005378,
.015326,-.004985,
.015811,-.0045,
.016205,-.003937,
.016495,-.003316,
.016673,-.002653,
.016732,-.001969,
.016732,-.001968,
.016732,.001968,
.016673,.002652,
.016495,.003315,
.016205,.003937,
.015812,.004499,
.015327,.004984,
.014764,.005378,
.014143,.005668,
.01348,.005846,
.012796,.005905,
.012795,.005905,
0.0*
%
%ADD41MACRO41*%
%AMMACRO69*
4,1,40,-.051181,.014437,
-.051181,-.014437,
-.050742,-.01945,
-.04944,-.024311,
-.047313,-.028872,
-.044427,-.032994,
-.040868,-.036553,
-.036746,-.039439,
-.032185,-.041566,
-.027324,-.042868,
-.022311,-.043307,
.022311,-.043307,
.027324,-.042868,
.032185,-.041566,
.036746,-.039439,
.040868,-.036553,
.044427,-.032994,
.047313,-.028872,
.04944,-.024311,
.050742,-.01945,
.051181,-.014437,
.051181,.014437,
.050742,.01945,
.04944,.024311,
.047313,.028872,
.044427,.032994,
.040868,.036553,
.036746,.039439,
.032185,.041566,
.027324,.042868,
.022311,.043307,
-.022311,.043307,
-.027324,.042868,
-.032185,.041566,
-.036746,.039439,
-.040868,.036553,
-.044427,.032994,
-.047313,.028872,
-.04944,.024311,
-.050742,.01945,
-.051181,.014437,
0.0*
%
%ADD69MACRO69*%
%AMMACRO91*
4,1,40,.0967,.05,
-.0967,.05,
-.102482,.049494,
-.108089,.047992,
-.11335,.045539,
-.118105,.042209,
-.122209,.038105,
-.125539,.03335,
-.127992,.028089,
-.129494,.022482,
-.13,.0167,
-.13,-.0167,
-.129494,-.022482,
-.127992,-.028089,
-.125539,-.03335,
-.122209,-.038105,
-.118105,-.042209,
-.11335,-.045539,
-.108089,-.047992,
-.102482,-.049494,
-.0967,-.05,
.0967,-.05,
.102482,-.049494,
.108089,-.047992,
.11335,-.045539,
.118105,-.042209,
.122209,-.038105,
.125539,-.03335,
.127992,-.028089,
.129494,-.022482,
.13,-.0167,
.13,.0167,
.129494,.022482,
.127992,.028089,
.125539,.03335,
.122209,.038105,
.118105,.042209,
.11335,.045539,
.108089,.047992,
.102482,.049494,
.0967,.05,
0.0*
%
%ADD91MACRO91*%
%AMMACRO52*
4,1,44,-.001641,-.013287,
.001641,-.013287,
.002211,-.013238,
.002763,-.01309,
.003281,-.012848,
.003749,-.01252,
.004154,-.012116,
.004482,-.011648,
.004724,-.01113,
.004872,-.010578,
.004921,-.010008,
.004921,-.010007,
.004921,.010007,
.004872,.010577,
.004724,.011129,
.004482,.011647,
.004154,.012115,
.00375,.01252,
.003282,.012848,
.002764,.01309,
.002212,.013238,
.001642,.013287,
.001641,.013287,
-.001641,.013287,
-.002211,.013238,
-.002763,.01309,
-.003281,.012848,
-.003749,.01252,
-.004154,.012116,
-.004482,.011648,
-.004724,.01113,
-.004872,.010578,
-.004921,.010008,
-.004921,.010007,
-.004921,-.010007,
-.004872,-.010577,
-.004724,-.011129,
-.004482,-.011647,
-.004154,-.012115,
-.00375,-.01252,
-.003282,-.012848,
-.002764,-.01309,
-.002212,-.013238,
-.001642,-.013287,
-.001641,-.013287,
0.0*
%
%ADD52MACRO52*%
%AMMACRO78*
4,1,44,-.005905,.005905,
-.005905,-.005905,
-.005846,-.006589,
-.005668,-.007252,
-.005378,-.007874,
-.004985,-.008436,
-.0045,-.008921,
-.003937,-.009315,
-.003316,-.009605,
-.002653,-.009783,
-.001969,-.009842,
-.001968,-.009842,
.001968,-.009842,
.002652,-.009783,
.003315,-.009605,
.003937,-.009315,
.004499,-.008922,
.004984,-.008437,
.005378,-.007874,
.005668,-.007253,
.005846,-.00659,
.005905,-.005906,
.005905,-.005905,
.005905,.005905,
.005846,.006589,
.005668,.007252,
.005378,.007874,
.004985,.008436,
.0045,.008921,
.003937,.009315,
.003316,.009605,
.002653,.009783,
.001969,.009842,
.001968,.009842,
-.001968,.009842,
-.002652,.009783,
-.003315,.009605,
-.003937,.009315,
-.004499,.008922,
-.004984,.008437,
-.005378,.007874,
-.005668,.007253,
-.005846,.00659,
-.005905,.005906,
-.005905,.005905,
0.0*
%
%ADD78MACRO78*%
%AMMACRO47*
4,1,44,-.013779,.005905,
-.013779,-.005905,
-.01369,-.006931,
-.013423,-.007925,
-.012988,-.008858,
-.012398,-.009701,
-.01167,-.010429,
-.010827,-.01102,
-.009893,-.011455,
-.008899,-.011721,
-.007874,-.011811,
-.007873,-.011811,
.007873,-.011811,
.008899,-.011721,
.009893,-.011455,
.010826,-.01102,
.011669,-.01043,
.012397,-.009702,
.012988,-.008858,
.013423,-.007925,
.01369,-.006931,
.013779,-.005905,
.013779,-.005905,
.013779,.005905,
.01369,.006931,
.013423,.007925,
.012988,.008858,
.012398,.009701,
.01167,.010429,
.010827,.01102,
.009893,.011455,
.008899,.011721,
.007874,.011811,
.007873,.011811,
-.007873,.011811,
-.008899,.011721,
-.009893,.011455,
-.010826,.01102,
-.011669,.01043,
-.012397,.009702,
-.012988,.008858,
-.013423,.007925,
-.01369,.006931,
-.013779,.005905,
-.013779,.005905,
0.0*
%
%ADD47MACRO47*%
%AMMACRO81*
4,1,44,.005905,.005905,
-.005905,.005905,
-.006589,.005846,
-.007252,.005668,
-.007874,.005378,
-.008436,.004985,
-.008921,.0045,
-.009315,.003937,
-.009605,.003316,
-.009783,.002653,
-.009842,.001969,
-.009842,.001968,
-.009842,-.001968,
-.009783,-.002652,
-.009605,-.003315,
-.009315,-.003937,
-.008922,-.004499,
-.008437,-.004984,
-.007874,-.005378,
-.007253,-.005668,
-.00659,-.005846,
-.005906,-.005905,
-.005905,-.005905,
.005905,-.005905,
.006589,-.005846,
.007252,-.005668,
.007874,-.005378,
.008436,-.004985,
.008921,-.0045,
.009315,-.003937,
.009605,-.003316,
.009783,-.002653,
.009842,-.001969,
.009842,-.001968,
.009842,.001968,
.009783,.002652,
.009605,.003315,
.009315,.003937,
.008922,.004499,
.008437,.004984,
.007874,.005378,
.007253,.005668,
.00659,.005846,
.005906,.005905,
.005905,.005905,
0.0*
%
%ADD81MACRO81*%
%AMMACRO44*
4,1,44,.005905,.013779,
-.005905,.013779,
-.006931,.01369,
-.007925,.013423,
-.008858,.012988,
-.009701,.012398,
-.010429,.01167,
-.01102,.010827,
-.011455,.009893,
-.011721,.008899,
-.011811,.007874,
-.011811,.007873,
-.011811,-.007873,
-.011721,-.008899,
-.011455,-.009893,
-.01102,-.010826,
-.01043,-.011669,
-.009702,-.012397,
-.008858,-.012988,
-.007925,-.013423,
-.006931,-.01369,
-.005905,-.013779,
-.005905,-.013779,
.005905,-.013779,
.006931,-.01369,
.007925,-.013423,
.008858,-.012988,
.009701,-.012398,
.010429,-.01167,
.01102,-.010827,
.011455,-.009893,
.011721,-.008899,
.011811,-.007874,
.011811,-.007873,
.011811,.007873,
.011721,.008899,
.011455,.009893,
.01102,.010826,
.01043,.011669,
.009702,.012397,
.008858,.012988,
.007925,.013423,
.006931,.01369,
.005905,.013779,
.005905,.013779,
0.0*
%
%ADD44MACRO44*%
%AMMACRO92*
4,1,44,-.013779,.004854,
-.013779,-.004854,
-.01374,-.00531,
-.013621,-.005752,
-.013428,-.006167,
-.013165,-.006542,
-.012842,-.006866,
-.012467,-.007128,
-.012052,-.007322,
-.01161,-.007441,
-.011154,-.00748,
-.011153,-.00748,
.011153,-.00748,
.011609,-.007441,
.012051,-.007322,
.012466,-.007129,
.012841,-.006866,
.013165,-.006543,
.013427,-.006168,
.013621,-.005753,
.01374,-.005311,
.013779,-.004855,
.013779,-.004854,
.013779,.004854,
.01374,.00531,
.013621,.005752,
.013428,.006167,
.013165,.006542,
.012842,.006866,
.012467,.007128,
.012052,.007322,
.01161,.007441,
.011154,.00748,
.011153,.00748,
-.011153,.00748,
-.011609,.007441,
-.012051,.007322,
-.012466,.007129,
-.012841,.006866,
-.013165,.006543,
-.013427,.006168,
-.013621,.005753,
-.01374,.005311,
-.013779,.004855,
-.013779,.004854,
0.0*
%
%ADD92MACRO92*%
%ADD66O,.007874X.057087*%
%ADD67O,.057087X.007874*%
%AMMACRO61*
4,1,44,-.014764,.004791,
-.014764,-.004791,
-.014708,-.005429,
-.014543,-.006047,
-.014272,-.006628,
-.013905,-.007152,
-.013452,-.007605,
-.012928,-.007972,
-.012348,-.008243,
-.011729,-.008409,
-.011091,-.008464,
-.011091,-.008464,
.011091,-.008464,
.011729,-.008409,
.012347,-.008243,
.012927,-.007972,
.013452,-.007605,
.013905,-.007152,
.014272,-.006628,
.014542,-.006048,
.014708,-.005429,
.014764,-.004792,
.014764,-.004791,
.014764,.004791,
.014708,.005429,
.014543,.006047,
.014272,.006628,
.013905,.007152,
.013452,.007605,
.012928,.007972,
.012348,.008243,
.011729,.008409,
.011091,.008464,
.011091,.008464,
-.011091,.008464,
-.011729,.008409,
-.012347,.008243,
-.012927,.007972,
-.013452,.007605,
-.013905,.007152,
-.014272,.006628,
-.014542,.006048,
-.014708,.005429,
-.014764,.004792,
-.014764,.004791,
0.0*
%
%ADD61MACRO61*%
%ADD53O,.09X.07*%
%AMMACRO104*
4,1,40,-.049,.015,
-.049,-.015,
-.048544,-.020209,
-.047191,-.025261,
-.044981,-.03,
-.041981,-.034284,
-.038284,-.037981,
-.034,-.040981,
-.029261,-.043191,
-.024209,-.044544,
-.019,-.045,
.019,-.045,
.024209,-.044544,
.029261,-.043191,
.034,-.040981,
.038284,-.037981,
.041981,-.034284,
.044981,-.03,
.047191,-.025261,
.048544,-.020209,
.049,-.015,
.049,.015,
.048544,.020209,
.047191,.025261,
.044981,.03,
.041981,.034284,
.038284,.037981,
.034,.040981,
.029261,.043191,
.024209,.044544,
.019,.045,
-.019,.045,
-.024209,.044544,
-.029261,.043191,
-.034,.040981,
-.038284,.037981,
-.041981,.034284,
-.044981,.03,
-.047191,.025261,
-.048544,.020209,
-.049,.015,
0.0*
%
%ADD104MACRO104*%
%ADD99R,.125X.74*%
%AMMACRO96*
4,1,44,-.03937,.004594,
-.03937,-.004594,
-.039231,-.006189,
-.038816,-.007735,
-.03814,-.009187,
-.037221,-.010498,
-.036089,-.01163,
-.034778,-.012549,
-.033327,-.013225,
-.03178,-.01364,
-.030185,-.013779,
-.030185,-.013779,
.030185,-.013779,
.03178,-.01364,
.033326,-.013226,
.034777,-.012549,
.036089,-.011631,
.037221,-.010499,
.038139,-.009187,
.038816,-.007736,
.03923,-.006189,
.03937,-.004595,
.03937,-.004594,
.03937,.004594,
.039231,.006189,
.038816,.007735,
.03814,.009187,
.037221,.010498,
.036089,.01163,
.034778,.012549,
.033327,.013225,
.03178,.01364,
.030185,.013779,
.030185,.013779,
-.030185,.013779,
-.03178,.01364,
-.033326,.013226,
-.034777,.012549,
-.036089,.011631,
-.037221,.010499,
-.038139,.009187,
-.038816,.007736,
-.03923,.006189,
-.03937,.004595,
-.03937,.004594,
0.0*
%
%ADD96MACRO96*%
%ADD57O,.07X.09*%
%AMMACRO102*
4,1,44,.004594,.03937,
-.004594,.03937,
-.006189,.039231,
-.007735,.038816,
-.009187,.03814,
-.010498,.037221,
-.01163,.036089,
-.012549,.034778,
-.013225,.033327,
-.01364,.03178,
-.013779,.030185,
-.013779,.030185,
-.013779,-.030185,
-.01364,-.03178,
-.013226,-.033326,
-.012549,-.034777,
-.011631,-.036089,
-.010499,-.037221,
-.009187,-.038139,
-.007736,-.038816,
-.006189,-.03923,
-.004595,-.03937,
-.004594,-.03937,
.004594,-.03937,
.006189,-.039231,
.007735,-.038816,
.009187,-.03814,
.010498,-.037221,
.01163,-.036089,
.012549,-.034778,
.013225,-.033327,
.01364,-.03178,
.013779,-.030185,
.013779,-.030185,
.013779,.030185,
.01364,.03178,
.013226,.033326,
.012549,.034778,
.011631,.036089,
.010499,.037221,
.009187,.038139,
.007736,.038816,
.006189,.03923,
.004595,.03937,
.004594,.03937,
0.0*
%
%ADD102MACRO102*%
%AMMACRO64*
21,1,.045,.025,0.0,0.0,45.*%
%ADD64MACRO64*%
%ADD54R,.09X.07*%
%ADD28R,.025X.045*%
%ADD12C,.02*%
%ADD58R,.07X.09*%
%ADD43R,.045X.025*%
%AMMACRO86*
4,1,44,-.045905,-.059055,
.045905,-.059055,
.046992,-.05896,
.048046,-.058678,
.049035,-.058217,
.049929,-.057591,
.050701,-.056819,
.051327,-.055925,
.051788,-.054937,
.05207,-.053883,
.052165,-.052795,
.052165,-.052795,
.052165,.052795,
.05207,.053882,
.051788,.054936,
.051327,.055925,
.050701,.056819,
.049929,.05759,
.049036,.058216,
.048047,.058677,
.046993,.05896,
.045906,.059055,
.045905,.059055,
-.045905,.059055,
-.046992,.05896,
-.048046,.058678,
-.049035,.058217,
-.049929,.057591,
-.050701,.056819,
-.051327,.055925,
-.051788,.054937,
-.05207,.053883,
-.052165,.052795,
-.052165,.052795,
-.052165,-.052795,
-.05207,-.053882,
-.051788,-.054936,
-.051327,-.055925,
-.050701,-.056819,
-.049929,-.05759,
-.049036,-.058216,
-.048047,-.058677,
-.046993,-.05896,
-.045906,-.059055,
-.045905,-.059055,
0.0*
%
%ADD86MACRO86*%
%ADD34C,.04*%
%ADD33R,.028X.055*%
%ADD36R,.055X.028*%
%ADD20C,.062*%
%ADD89C,.093*%
%ADD90R,.051181X.011811*%
%ADD48R,.062X.062*%
%AMMACRO70*
4,1,40,-.055118,.026248,
-.055118,-.026248,
-.054679,-.031261,
-.053377,-.036122,
-.05125,-.040683,
-.048364,-.044805,
-.044805,-.048364,
-.040683,-.05125,
-.036122,-.053377,
-.031261,-.054679,
-.026248,-.055118,
.026248,-.055118,
.031261,-.054679,
.036122,-.053377,
.040683,-.05125,
.044805,-.048364,
.048364,-.044805,
.05125,-.040683,
.053377,-.036122,
.054679,-.031261,
.055118,-.026248,
.055118,.026248,
.054679,.031261,
.053377,.036122,
.05125,.040683,
.048364,.044805,
.044805,.048364,
.040683,.05125,
.036122,.053377,
.031261,.054679,
.026248,.055118,
-.026248,.055118,
-.031261,.054679,
-.036122,.053377,
-.040683,.05125,
-.044805,.048364,
-.048364,.044805,
-.05125,.040683,
-.053377,.036122,
-.054679,.031261,
-.055118,.026248,
0.0*
%
%ADD70MACRO70*%
%ADD65C,.043307*%
%ADD15R,.037402X.051181*%
%ADD55C,.055118*%
%ADD94C,.031496*%
%AMMACRO75*
4,1,40,.007655,-.018791,
.018791,-.007655,
.019233,-.00713,
.019576,-.006536,
.01981,-.005891,
.01993,-.005215,
.019929,-.004528,
.01981,-.003853,
.019575,-.003208,
.019232,-.002614,
.018791,-.002088,
-.002088,.018791,
-.002614,.019232,
-.003208,.019575,
-.003853,.01981,
-.004529,.019929,
-.005215,.01993,
-.005891,.01981,
-.006536,.019576,
-.00713,.019233,
-.007655,.018791,
-.018791,.007655,
-.019233,.00713,
-.019576,.006536,
-.01981,.005891,
-.01993,.005215,
-.019929,.004528,
-.01981,.003853,
-.019575,.003208,
-.019232,.002614,
-.018791,.002088,
.002088,-.018791,
.002614,-.019232,
.003208,-.019575,
.003853,-.01981,
.004529,-.019929,
.005215,-.01993,
.005891,-.01981,
.006536,-.019576,
.00713,-.019233,
.007655,-.018791,
0.0*
%
%ADD75MACRO75*%
%AMMACRO72*
4,1,40,-.001839,-.014764,
.001839,-.014764,
.002477,-.014708,
.003095,-.014542,
.003675,-.014272,
.0042,-.013905,
.004653,-.013452,
.00502,-.012928,
.00529,-.012347,
.005456,-.011729,
.005512,-.011091,
.005512,.011091,
.005456,.011729,
.00529,.012347,
.00502,.012927,
.004653,.013452,
.0042,.013905,
.003676,.014272,
.003095,.014542,
.002477,.014708,
.001839,.014764,
-.001839,.014764,
-.002477,.014708,
-.003095,.014542,
-.003675,.014272,
-.0042,.013905,
-.004653,.013452,
-.00502,.012928,
-.00529,.012347,
-.005456,.011729,
-.005512,.011091,
-.005512,-.011091,
-.005456,-.011729,
-.00529,-.012347,
-.00502,-.012927,
-.004653,-.013452,
-.0042,-.013905,
-.003676,-.014272,
-.003095,-.014542,
-.002477,-.014708,
-.001839,-.014764,
0.0*
%
%ADD72MACRO72*%
%AMMACRO60*
4,1,40,.014764,-.001839,
.014764,.001839,
.014708,.002477,
.014542,.003095,
.014272,.003675,
.013905,.0042,
.013452,.004653,
.012928,.00502,
.012347,.00529,
.011729,.005456,
.011091,.005512,
-.011091,.005512,
-.011729,.005456,
-.012347,.00529,
-.012927,.00502,
-.013452,.004653,
-.013905,.0042,
-.014272,.003676,
-.014542,.003095,
-.014708,.002477,
-.014764,.001839,
-.014764,-.001839,
-.014708,-.002477,
-.014542,-.003095,
-.014272,-.003675,
-.013905,-.0042,
-.013452,-.004653,
-.012928,-.00502,
-.012347,-.00529,
-.011729,-.005456,
-.011091,-.005512,
.011091,-.005512,
.011729,-.005456,
.012347,-.00529,
.012927,-.00502,
.013452,-.004653,
.013905,-.0042,
.014272,-.003676,
.014542,-.003095,
.014708,-.002477,
.014764,-.001839,
0.0*
%
%ADD60MACRO60*%
%AMMACRO23*
4,1,40,-.007874,-.018701,
.007874,-.018701,
.008558,-.018641,
.009221,-.018464,
.009842,-.018174,
.010405,-.01778,
.01089,-.017295,
.011284,-.016733,
.011574,-.016111,
.011751,-.015448,
.011811,-.014764,
.011811,.014764,
.011751,.015448,
.011574,.016111,
.011284,.016732,
.01089,.017295,
.010405,.01778,
.009842,.018174,
.009221,.018464,
.008558,.018641,
.007874,.018701,
-.007874,.018701,
-.008558,.018641,
-.009221,.018464,
-.009842,.018174,
-.010405,.01778,
-.01089,.017295,
-.011284,.016733,
-.011574,.016111,
-.011751,.015448,
-.011811,.014764,
-.011811,-.014764,
-.011751,-.015448,
-.011574,-.016111,
-.011284,-.016732,
-.01089,-.017295,
-.010405,-.01778,
-.009843,-.018174,
-.009221,-.018464,
-.008558,-.018641,
-.007874,-.018701,
0.0*
%
%ADD23MACRO23*%
%AMMACRO18*
4,1,40,.018701,-.007874,
.018701,.007874,
.018641,.008558,
.018464,.009221,
.018174,.009842,
.01778,.010405,
.017295,.01089,
.016733,.011284,
.016111,.011574,
.015448,.011751,
.014764,.011811,
-.014764,.011811,
-.015448,.011751,
-.016111,.011574,
-.016732,.011284,
-.017295,.01089,
-.01778,.010405,
-.018174,.009843,
-.018464,.009221,
-.018641,.008558,
-.018701,.007874,
-.018701,-.007874,
-.018641,-.008558,
-.018464,-.009221,
-.018174,-.009842,
-.01778,-.010405,
-.017295,-.01089,
-.016733,-.011284,
-.016111,-.011574,
-.015448,-.011751,
-.014764,-.011811,
.014764,-.011811,
.015448,-.011751,
.016111,-.011574,
.016732,-.011284,
.017295,-.01089,
.01778,-.010405,
.018174,-.009843,
.018464,-.009221,
.018641,-.008558,
.018701,-.007874,
0.0*
%
%ADD18MACRO18*%
%AMMACRO82*
4,1,44,-.007874,-.021653,
.007874,-.021653,
.008558,-.021594,
.009221,-.021416,
.009842,-.021126,
.010405,-.020732,
.01089,-.020247,
.011284,-.019685,
.011574,-.019063,
.011751,-.0184,
.011811,-.017717,
.011811,-.017716,
.011811,.017716,
.011751,.0184,
.011574,.019063,
.011284,.019685,
.01089,.020247,
.010405,.020732,
.009843,.021126,
.009221,.021416,
.008558,.021594,
.007874,.021653,
.007874,.021653,
-.007874,.021653,
-.008558,.021594,
-.009221,.021416,
-.009842,.021126,
-.010405,.020732,
-.01089,.020247,
-.011284,.019685,
-.011574,.019063,
-.011751,.0184,
-.011811,.017717,
-.011811,.017716,
-.011811,-.017716,
-.011751,-.0184,
-.011574,-.019063,
-.011284,-.019685,
-.01089,-.020247,
-.010405,-.020732,
-.009843,-.021126,
-.009221,-.021416,
-.008558,-.021594,
-.007874,-.021653,
-.007874,-.021653,
0.0*
%
%ADD82MACRO82*%
%ADD26R,.05315X.015748*%
%AMMACRO24*
4,1,44,.021653,-.007874,
.021653,.007874,
.021594,.008558,
.021416,.009221,
.021126,.009842,
.020732,.010405,
.020247,.01089,
.019685,.011284,
.019063,.011574,
.0184,.011751,
.017716,.011811,
.017716,.011811,
-.017716,.011811,
-.0184,.011751,
-.019063,.011574,
-.019685,.011284,
-.020247,.01089,
-.020732,.010405,
-.021126,.009843,
-.021416,.009221,
-.021594,.008558,
-.021653,.007874,
-.021653,.007874,
-.021653,-.007874,
-.021594,-.008558,
-.021416,-.009221,
-.021126,-.009842,
-.020732,-.010405,
-.020247,-.01089,
-.019685,-.011284,
-.019063,-.011574,
-.0184,-.011751,
-.017717,-.011811,
-.017716,-.011811,
.017716,-.011811,
.0184,-.011751,
.019063,-.011574,
.019685,-.011284,
.020247,-.01089,
.020732,-.010405,
.021126,-.009843,
.021416,-.009221,
.021594,-.008558,
.021653,-.007874,
.021653,-.007874,
0.0*
%
%ADD24MACRO24*%
%AMMACRO79*
4,1,40,.053149,.070866,
-.053149,.070866,
-.056226,.070597,
-.059209,.069798,
-.062008,.068492,
-.064537,.066721,
-.066721,.064537,
-.068492,.062008,
-.069798,.059209,
-.070597,.056226,
-.070866,.053149,
-.070866,-.053149,
-.070597,-.056226,
-.069798,-.059209,
-.068492,-.062007,
-.066721,-.064537,
-.064537,-.066721,
-.062008,-.068492,
-.059209,-.069798,
-.056226,-.070597,
-.053149,-.070866,
.053149,-.070866,
.056226,-.070597,
.059209,-.069798,
.062007,-.068492,
.064537,-.066721,
.066721,-.064537,
.068492,-.062008,
.069798,-.059209,
.070597,-.056226,
.070866,-.053149,
.070866,.053149,
.070597,.056226,
.069798,.059209,
.068492,.062008,
.066721,.064537,
.064537,.066721,
.062008,.068492,
.059209,.069798,
.056226,.070597,
.053149,.070866,
0.0*
%
%ADD79MACRO79*%
%ADD73C,.07874*%
%AMMACRO42*
4,1,44,.005905,-.012795,
.005905,.012795,
.005846,.013479,
.005668,.014142,
.005378,.014764,
.004985,.015326,
.0045,.015811,
.003937,.016205,
.003316,.016495,
.002653,.016673,
.001969,.016732,
.001968,.016732,
-.001968,.016732,
-.002652,.016673,
-.003315,.016495,
-.003937,.016205,
-.004499,.015812,
-.004984,.015327,
-.005378,.014764,
-.005668,.014143,
-.005846,.01348,
-.005905,.012796,
-.005905,.012795,
-.005905,-.012795,
-.005846,-.013479,
-.005668,-.014142,
-.005378,-.014764,
-.004985,-.015326,
-.0045,-.015811,
-.003937,-.016205,
-.003316,-.016495,
-.002653,-.016673,
-.001969,-.016732,
-.001968,-.016732,
.001968,-.016732,
.002652,-.016673,
.003315,-.016495,
.003937,-.016205,
.004499,-.015812,
.004984,-.015327,
.005378,-.014764,
.005668,-.014143,
.005846,-.01348,
.005905,-.012796,
.005905,-.012795,
0.0*
%
%ADD42MACRO42*%
%AMMACRO39*
4,1,44,-.012795,-.005905,
.012795,-.005905,
.013479,-.005846,
.014142,-.005668,
.014764,-.005378,
.015326,-.004985,
.015811,-.0045,
.016205,-.003937,
.016495,-.003316,
.016673,-.002653,
.016732,-.001969,
.016732,-.001968,
.016732,.001968,
.016673,.002652,
.016495,.003315,
.016205,.003937,
.015812,.004499,
.015327,.004984,
.014764,.005378,
.014143,.005668,
.01348,.005846,
.012796,.005905,
.012795,.005905,
-.012795,.005905,
-.013479,.005846,
-.014142,.005668,
-.014764,.005378,
-.015326,.004985,
-.015811,.0045,
-.016205,.003937,
-.016495,.003316,
-.016673,.002653,
-.016732,.001969,
-.016732,.001968,
-.016732,-.001968,
-.016673,-.002652,
-.016495,-.003315,
-.016205,-.003937,
-.015812,-.004499,
-.015327,-.004984,
-.014764,-.005378,
-.014143,-.005668,
-.01348,-.005846,
-.012796,-.005905,
-.012795,-.005905,
0.0*
%
%ADD39MACRO39*%
%AMMACRO51*
4,1,40,-.002626,-.030512,
.002626,-.030512,
.003537,-.030432,
.004421,-.030196,
.00525,-.029809,
.005999,-.029284,
.006646,-.028637,
.007171,-.027888,
.007558,-.027059,
.007794,-.026175,
.007874,-.025264,
.007874,.025264,
.007794,.026175,
.007558,.027059,
.007171,.027888,
.006646,.028637,
.005999,.029284,
.00525,.029809,
.004421,.030196,
.003537,.030432,
.002626,.030512,
-.002626,.030512,
-.003537,.030432,
-.004421,.030196,
-.00525,.029809,
-.005999,.029284,
-.006646,.028637,
-.007171,.027888,
-.007558,.027059,
-.007794,.026175,
-.007874,.025264,
-.007874,-.025264,
-.007794,-.026175,
-.007558,-.027059,
-.007171,-.027888,
-.006646,-.028637,
-.005999,-.029284,
-.00525,-.029809,
-.004421,-.030196,
-.003537,-.030432,
-.002626,-.030512,
0.0*
%
%ADD51MACRO51*%
%ADD29R,.035433X.059055*%
%ADD17R,.03937X.055118*%
%AMMACRO87*
4,1,44,-.019527,-.012795,
.019527,-.012795,
.020614,-.0127,
.021668,-.012418,
.022657,-.011957,
.023551,-.011331,
.024323,-.01056,
.024949,-.009666,
.02541,-.008677,
.025692,-.007623,
.025787,-.006536,
.025787,-.006535,
.025787,.006535,
.025692,.007622,
.02541,.008676,
.024949,.009665,
.024323,.010559,
.023552,.011331,
.022658,.011957,
.021669,.012418,
.020615,.0127,
.019528,.012795,
.019527,.012795,
-.019527,.012795,
-.020614,.0127,
-.021668,.012418,
-.022657,.011957,
-.023551,.011331,
-.024323,.01056,
-.024949,.009666,
-.02541,.008677,
-.025692,.007623,
-.025787,.006536,
-.025787,.006535,
-.025787,-.006535,
-.025692,-.007622,
-.02541,-.008676,
-.024949,-.009665,
-.024323,-.010559,
-.023552,-.011331,
-.022658,-.011957,
-.021669,-.012418,
-.020615,-.0127,
-.019528,-.012795,
-.019527,-.012795,
0.0*
%
%ADD87MACRO87*%
%AMMACRO95*
4,1,44,.103732,-.033021,
-.033021,.103732,
-.037468,.107463,
-.042494,.110366,
-.047949,.112351,
-.053665,.113359,
-.05947,.113359,
-.065186,.112352,
-.070641,.110366,
-.075668,.107464,
-.080114,.103733,
-.080115,.103732,
-.103732,.080115,
-.107464,.075669,
-.110366,.070642,
-.112351,.065187,
-.113359,.059471,
-.113359,.053667,
-.112351,.04795,
-.110366,.042496,
-.107464,.037469,
-.103733,.033022,
-.103732,.033021,
.033021,-.103732,
.037468,-.107463,
.042494,-.110366,
.047949,-.112351,
.053665,-.113359,
.05947,-.113359,
.065186,-.112352,
.070641,-.110366,
.075668,-.107464,
.080114,-.103733,
.080115,-.103732,
.103732,-.080115,
.107464,-.075669,
.110366,-.070642,
.112351,-.065187,
.113359,-.059471,
.113359,-.053667,
.112351,-.04795,
.110366,-.042496,
.107464,-.037469,
.103733,-.033022,
.103732,-.033021,
0.0*
%
%ADD95MACRO95*%
%AMMACRO83*
4,1,44,-.005905,-.005905,
.005905,-.005905,
.006589,-.005846,
.007252,-.005668,
.007874,-.005378,
.008436,-.004985,
.008921,-.0045,
.009315,-.003937,
.009605,-.003316,
.009783,-.002653,
.009842,-.001969,
.009842,-.001968,
.009842,.001968,
.009783,.002652,
.009605,.003315,
.009315,.003937,
.008922,.004499,
.008437,.004984,
.007874,.005378,
.007253,.005668,
.00659,.005846,
.005906,.005905,
.005905,.005905,
-.005905,.005905,
-.006589,.005846,
-.007252,.005668,
-.007874,.005378,
-.008436,.004985,
-.008921,.0045,
-.009315,.003937,
-.009605,.003316,
-.009783,.002653,
-.009842,.001969,
-.009842,.001968,
-.009842,-.001968,
-.009783,-.002652,
-.009605,-.003315,
-.009315,-.003937,
-.008922,-.004499,
-.008437,-.004984,
-.007874,-.005378,
-.007253,-.005668,
-.00659,-.005846,
-.005906,-.005905,
-.005905,-.005905,
0.0*
%
%ADD83MACRO83*%
%AMMACRO80*
4,1,44,.005905,-.005905,
.005905,.005905,
.005846,.006589,
.005668,.007252,
.005378,.007874,
.004985,.008436,
.0045,.008921,
.003937,.009315,
.003316,.009605,
.002653,.009783,
.001969,.009842,
.001968,.009842,
-.001968,.009842,
-.002652,.009783,
-.003315,.009605,
-.003937,.009315,
-.004499,.008922,
-.004984,.008437,
-.005378,.007874,
-.005668,.007253,
-.005846,.00659,
-.005905,.005906,
-.005905,.005905,
-.005905,-.005905,
-.005846,-.006589,
-.005668,-.007252,
-.005378,-.007874,
-.004985,-.008436,
-.0045,-.008921,
-.003937,-.009315,
-.003316,-.009605,
-.002653,-.009783,
-.001969,-.009842,
-.001968,-.009842,
.001968,-.009842,
.002652,-.009783,
.003315,-.009605,
.003937,-.009315,
.004499,-.008922,
.004984,-.008437,
.005378,-.007874,
.005668,-.007253,
.005846,-.00659,
.005905,-.005906,
.005905,-.005905,
0.0*
%
%ADD80MACRO80*%
%AMMACRO46*
4,1,44,.013779,-.005905,
.013779,.005905,
.01369,.006931,
.013423,.007925,
.012988,.008858,
.012398,.009701,
.01167,.010429,
.010827,.01102,
.009893,.011455,
.008899,.011721,
.007874,.011811,
.007873,.011811,
-.007873,.011811,
-.008899,.011721,
-.009893,.011455,
-.010826,.01102,
-.011669,.01043,
-.012397,.009702,
-.012988,.008858,
-.013423,.007925,
-.01369,.006931,
-.013779,.005905,
-.013779,.005905,
-.013779,-.005905,
-.01369,-.006931,
-.013423,-.007925,
-.012988,-.008858,
-.012398,-.009701,
-.01167,-.010429,
-.010827,-.01102,
-.009893,-.011455,
-.008899,-.011721,
-.007874,-.011811,
-.007873,-.011811,
.007873,-.011811,
.008899,-.011721,
.009893,-.011455,
.010826,-.01102,
.011669,-.01043,
.012397,-.009702,
.012988,-.008858,
.013423,-.007925,
.01369,-.006931,
.013779,-.005905,
.013779,-.005905,
0.0*
%
%ADD46MACRO46*%
%AMMACRO37*
4,1,44,-.005905,-.013779,
.005905,-.013779,
.006931,-.01369,
.007925,-.013423,
.008858,-.012988,
.009701,-.012398,
.010429,-.01167,
.01102,-.010827,
.011455,-.009893,
.011721,-.008899,
.011811,-.007874,
.011811,-.007873,
.011811,.007873,
.011721,.008899,
.011455,.009893,
.01102,.010826,
.01043,.011669,
.009702,.012397,
.008858,.012988,
.007925,.013423,
.006931,.01369,
.005905,.013779,
.005905,.013779,
-.005905,.013779,
-.006931,.01369,
-.007925,.013423,
-.008858,.012988,
-.009701,.012398,
-.010429,.01167,
-.01102,.010827,
-.011455,.009893,
-.011721,.008899,
-.011811,.007874,
-.011811,.007873,
-.011811,-.007873,
-.011721,-.008899,
-.011455,-.009893,
-.01102,-.010826,
-.01043,-.011669,
-.009702,-.012397,
-.008858,-.012988,
-.007925,-.013423,
-.006931,-.01369,
-.005905,-.013779,
-.005905,-.013779,
0.0*
%
%ADD37MACRO37*%
%ADD25R,.062992X.055118*%
%ADD63R,.057087X.03937*%
%ADD16R,.074803X.070866*%
%ADD84R,.066929X.035433*%
%ADD19R,.03937X.057087*%
%ADD88R,.035433X.066929*%
%ADD100O,.019685X.086614*%
%AMMACRO35*
4,1,40,.023622,-.009842,
.023622,.009842,
.023472,.011551,
.023028,.013209,
.022303,.014763,
.021319,.016169,
.020106,.017382,
.018701,.018366,
.017146,.019091,
.015488,.019535,
.013779,.019685,
-.013779,.019685,
-.015488,.019535,
-.017146,.019091,
-.0187,.018366,
-.020106,.017382,
-.021319,.016169,
-.022303,.014764,
-.023028,.013209,
-.023472,.011551,
-.023622,.009842,
-.023622,-.009842,
-.023472,-.011551,
-.023028,-.013209,
-.022303,-.014763,
-.021319,-.016169,
-.020106,-.017382,
-.018701,-.018366,
-.017146,-.019091,
-.015488,-.019535,
-.013779,-.019685,
.013779,-.019685,
.015488,-.019535,
.017146,-.019091,
.0187,-.018366,
.020106,-.017382,
.021319,-.016169,
.022303,-.014764,
.023028,-.013209,
.023472,-.011551,
.023622,-.009842,
0.0*
%
%ADD35MACRO35*%
%AMMACRO21*
4,1,40,.015748,-.015748,
.015748,.015748,
.015688,.016432,
.015511,.017095,
.015221,.017716,
.014827,.018279,
.014342,.018764,
.01378,.019158,
.013158,.019448,
.012495,.019625,
.011811,.019685,
-.011811,.019685,
-.012495,.019625,
-.013158,.019448,
-.01378,.019158,
-.014342,.018764,
-.014827,.018279,
-.015221,.017716,
-.015511,.017095,
-.015688,.016432,
-.015748,.015748,
-.015748,-.015748,
-.015688,-.016432,
-.015511,-.017095,
-.015221,-.017716,
-.014827,-.018279,
-.014342,-.018764,
-.01378,-.019158,
-.013158,-.019448,
-.012495,-.019625,
-.011811,-.019685,
.011811,-.019685,
.012495,-.019625,
.013158,-.019448,
.013779,-.019158,
.014342,-.018764,
.014827,-.018279,
.015221,-.017717,
.015511,-.017095,
.015688,-.016432,
.015748,-.015748,
0.0*
%
%ADD21MACRO21*%
%AMMACRO97*
4,1,44,-.023622,.016535,
-.023622,-.016535,
-.023425,-.018791,
-.022839,-.020979,
-.021882,-.023031,
-.020583,-.024886,
-.018981,-.026488,
-.017126,-.027787,
-.015074,-.028744,
-.012887,-.02933,
-.01063,-.029527,
-.01063,-.029527,
.01063,-.029527,
.012886,-.02933,
.015074,-.028744,
.017126,-.027787,
.018981,-.026488,
.020582,-.024887,
.021881,-.023032,
.022838,-.020979,
.023425,-.018792,
.023622,-.016536,
.023622,-.016535,
.023622,.016535,
.023425,.018791,
.022839,.020979,
.021882,.023031,
.020583,.024886,
.018981,.026488,
.017126,.027787,
.015074,.028744,
.012887,.02933,
.01063,.029527,
.01063,.029527,
-.01063,.029527,
-.012886,.02933,
-.015074,.028744,
-.017126,.027787,
-.018981,.026488,
-.020582,.024887,
-.021881,.023032,
-.022838,.020979,
-.023425,.018792,
-.023622,.016536,
-.023622,.016535,
0.0*
%
%ADD97MACRO97*%
%ADD93R,.07874X.070866*%
%AMMACRO22*
4,1,44,.016535,.023622,
-.016535,.023622,
-.018791,.023425,
-.020979,.022839,
-.023031,.021882,
-.024886,.020583,
-.026488,.018981,
-.027787,.017126,
-.028744,.015074,
-.02933,.012887,
-.029527,.01063,
-.029527,.01063,
-.029527,-.01063,
-.02933,-.012886,
-.028744,-.015074,
-.027787,-.017126,
-.026488,-.018981,
-.024887,-.020582,
-.023032,-.021881,
-.020979,-.022838,
-.018792,-.023425,
-.016536,-.023622,
-.016535,-.023622,
.016535,-.023622,
.018791,-.023425,
.020979,-.022839,
.023031,-.021882,
.024886,-.020583,
.026488,-.018981,
.027787,-.017126,
.028744,-.015074,
.02933,-.012887,
.029527,-.01063,
.029527,-.01063,
.029527,.01063,
.02933,.012886,
.028744,.015074,
.027787,.017126,
.026488,.018981,
.024887,.020582,
.023031,.021881,
.020979,.022838,
.018792,.023425,
.016535,.023622,
.016535,.023622,
0.0*
%
%ADD22MACRO22*%
%ADD105C,.004*%
%ADD106C,.006*%
%ADD107C,.008*%
%ADD108C,.0055*%
%ADD109C,.01*%
%ADD110C,.011*%
%ADD111C,.012*%
%ADD112C,.03*%
%ADD113C,.015*%
%ADD114C,.025*%
%ADD115C,.035*%
%ADD116C,.103004*%
G75*
%LPD*%
G75*
G36*
G01X16500Y65000D02*
Y4500D01*
X3000D01*
Y65000D01*
X16500D01*
G37*
G36*
G01X4000Y108500D02*
Y147500D01*
X13000D01*
Y143500D01*
X21000D01*
Y136000D01*
X13500D01*
Y123500D01*
X22000D01*
Y112000D01*
X13000D01*
Y108500D01*
X4000D01*
G37*
G36*
G01Y156500D02*
Y195500D01*
X13000D01*
Y191500D01*
X21000D01*
Y184000D01*
X13500D01*
Y171500D01*
X22000D01*
Y160000D01*
X13000D01*
Y156500D01*
X4000D01*
G37*
G36*
G01X49500Y304000D02*
Y318500D01*
X53500D01*
Y304000D01*
X55000Y302500D01*
Y291500D01*
X49000D01*
Y303500D01*
X49500Y304000D01*
G37*
G36*
G01X48500Y379500D02*
X50000Y381000D01*
X58500D01*
Y373500D01*
X54000D01*
X52500Y372000D01*
Y360500D01*
X47000D01*
Y373000D01*
X48500Y374500D01*
Y379500D01*
G37*
G36*
G01X54780Y123704D02*
G03X54913Y123711I0J1194D01*
G02X55357Y123314I45J-397D01*
G01Y121059D01*
G03X55472Y120647I800J0D01*
G01X55500Y120600D01*
Y120500D01*
X55585D01*
G03X56158Y120259I573J559D01*
G01X58412D01*
G02X58810Y119814I0J-400D01*
G03X58802Y119681I1186J-133D01*
G01Y117122D01*
G03X58972Y116509I1194J0D01*
G01X59000Y116462D01*
Y114500D01*
X61000Y112500D01*
Y100000D01*
X61500Y99500D01*
Y95500D01*
X54500D01*
Y99500D01*
X55000Y100000D01*
Y113500D01*
X51000Y117500D01*
Y122919D01*
X51841Y123760D01*
X51949Y123735D01*
G03X52220Y123704I271J1163D01*
G01X54780D01*
G37*
G36*
G01X61000Y343500D02*
X67500D01*
X68000Y343000D01*
Y337500D01*
X66500Y336000D01*
Y327500D01*
X62500D01*
Y337500D01*
X60600Y339400D01*
Y340500D01*
G03X60515Y340924I-1100J0D01*
G01X60500Y340960D01*
Y343000D01*
X61000Y343500D01*
G37*
G36*
G01X88000Y87500D02*
X81000D01*
Y98000D01*
X91500D01*
Y94000D01*
X89500D01*
X88000Y92500D01*
Y87500D01*
G37*
G36*
G01X92500Y182000D02*
X101000D01*
Y181725D01*
X100954Y181669D01*
G03X100708Y180989I817J-680D01*
G01Y178759D01*
G03X100787Y178357I1063J0D01*
G01X100801Y178321D01*
Y178000D01*
X92500D01*
Y182000D01*
G37*
G36*
G01Y274000D02*
X101000D01*
Y273725D01*
X100954Y273669D01*
G03X100708Y272989I817J-680D01*
G01Y270759D01*
G03X100787Y270357I1063J0D01*
G01X100801Y270321D01*
Y270000D01*
X92500D01*
Y274000D01*
G37*
G36*
G01X145500Y220500D02*
X171205D01*
G03X172039Y220160I834J854D01*
G01X176961D01*
G03X177065Y220165I0J1194D01*
G02X177500Y219767I35J-398D01*
G01Y219357D01*
X177275D01*
X177251Y219363D01*
G03X176961Y219399I-291J-1158D01*
G01X172039D01*
G03X171609Y219318I0J-1194D01*
G01X171574Y219305D01*
X170205D01*
G03X169444Y219000I0J-1100D01*
G01X166000D01*
X161600Y214600D01*
X160500D01*
G03X159722Y214278I0J-1100D01*
G01X159444Y214000D01*
X152514D01*
G03X151000Y214827I-1514J-974D01*
G03X149575Y214127I0J-1800D01*
G01X145500D01*
Y220500D01*
G37*
G36*
G01X138000Y257500D02*
X167500D01*
X170000Y255000D01*
X170385D01*
X170422Y254985D01*
G03X170846Y254900I424J1015D01*
G01X171574D01*
X171609Y254886D01*
G03X172039Y254806I430J1114D01*
G01X176961D01*
G03X177065Y254811I0J1194D01*
G02X177500Y254412I35J-398D01*
G01Y254002D01*
X177275D01*
X177251Y254008D01*
G03X176961Y254044I-291J-1158D01*
G01X172039D01*
G03X171741Y254006I0J-1194D01*
G01X171716Y254000D01*
X163000D01*
X161100Y252100D01*
X137900D01*
X136500Y253500D01*
Y256000D01*
X138000Y257500D01*
G37*
G36*
G01X146000Y369000D02*
Y364000D01*
X147500Y362500D01*
X149500D01*
X150000Y362000D01*
Y357000D01*
X141000D01*
Y362500D01*
X139500Y364000D01*
Y369000D01*
X146000D01*
G37*
G36*
G01X146500Y398000D02*
Y393000D01*
X148000Y391500D01*
X150000D01*
X150500Y391000D01*
Y386000D01*
X141500D01*
Y391500D01*
X140000Y393000D01*
Y398000D01*
X146500D01*
G37*
G36*
G01X185500Y197500D02*
X187500D01*
Y187495D01*
G03X187200Y186500I1500J-995D01*
G03X187500Y185505I1800J0D01*
G01Y177000D01*
X188000Y176500D01*
Y169000D01*
X189000Y168000D01*
Y165000D01*
X182000D01*
Y183000D01*
X185500Y186500D01*
Y191435D01*
X185505Y191457D01*
G03X185536Y191728I-1163J271D01*
G01Y196650D01*
G03X185505Y196921I-1194J0D01*
G01X185500Y196943D01*
Y197500D01*
G37*
G36*
G01X189500Y318500D02*
X193000Y322000D01*
X197500D01*
X203500Y316000D01*
X195500Y308000D01*
X189500Y314000D01*
Y318500D01*
G37*
G36*
G01X204340Y197500D02*
X204861D01*
G02X205244Y196987I0J-400D01*
G03X205196Y196650I1145J-337D01*
G01Y191728D01*
G03X205276Y191298I1194J0D01*
G01X205290Y191263D01*
Y188610D01*
G03X205500Y187963I1100J0D01*
G01Y187500D01*
X210000Y183000D01*
Y172000D01*
X212000Y170000D01*
X214900D01*
Y162000D01*
X205000D01*
Y185500D01*
X204000Y186500D01*
Y190807D01*
G03X204434Y191728I-760J921D01*
G01Y196650D01*
G03X204354Y197080I-1194J0D01*
G01X204340Y197115D01*
Y197500D01*
G37*
G36*
G01X204735Y292000D02*
X207765D01*
X207814Y291870D01*
G03X208870Y290814I1686J630D01*
G01X209000Y290765D01*
Y276500D01*
X212964Y272536D01*
Y262693D01*
G03X213056Y262212I1300J0D01*
G01X213070Y262177D01*
Y260232D01*
G03X213070Y260203I1194J2D01*
G02X212639Y259795I-400J-10D01*
G03X212500Y259800I-139J-1795D01*
G01X212490D01*
G02X212291Y260034I-1J200D01*
G03X212308Y260232I-1177J199D01*
G01Y265154D01*
G03X212000Y265954I-1194J0D01*
G01Y267000D01*
X204000Y275000D01*
Y291003D01*
G03X204686Y291870I-1000J1497D01*
G01X204735Y292000D01*
G37*
G36*
G01X234546Y143000D02*
X243500D01*
Y136000D01*
X234000D01*
Y142454D01*
X234546Y143000D01*
G37*
G36*
G01X223667Y197500D02*
X224075D01*
X224187Y197388D01*
Y197115D01*
X224174Y197080D01*
G03X224094Y196650I1114J-430D01*
G01Y191728D01*
G03X224500Y190831I1194J0D01*
G01Y190500D01*
X231000Y184000D01*
Y167000D01*
X226000D01*
Y184500D01*
X223238Y187262D01*
Y191263D01*
X223251Y191298D01*
G03X223332Y191728I-1114J430D01*
G01Y196650D01*
G03X223283Y196987I-1194J0D01*
G02X223667Y197500I384J113D01*
G37*
G36*
G01X247000Y210000D02*
X267500D01*
Y205000D01*
X253000D01*
X250000Y208000D01*
X246333D01*
G03X245465Y208375I-869J-819D01*
G01X243520D01*
X243485Y208389D01*
G03X243004Y208481I-481J-1208D01*
G01X239510D01*
X239500Y208491D01*
Y209256D01*
X240023D01*
X240061Y209239D01*
G03X240543Y209137I482J1092D01*
G01X245465D01*
G03X246268Y209448I0J1194D01*
G01X246326Y209500D01*
X246500D01*
X247000Y210000D01*
G37*
G36*
G01X263000Y258500D02*
X284500D01*
X293500Y249500D01*
Y234500D01*
X284500Y225500D01*
X252500D01*
X252093Y225907D01*
G02X252157Y226524I283J283D01*
G03X252371Y226699I-741J1129D01*
G01X256555Y230882D01*
G03X256950Y231837I-955J955D01*
G01Y237778D01*
X258849Y239676D01*
X267841D01*
X268150Y239367D01*
Y235540D01*
X266875D01*
G03X263582Y232247I0J-3294D01*
G01Y229753D01*
G03X266875Y226460I3294J0D01*
G01X272125D01*
G03X275406Y229467I0J3294D01*
G01X275422Y229650D01*
X278971D01*
G03X280024Y229019I1053J563D01*
G01X282976D01*
G03X284170Y230213I0J1194D01*
G01Y231787D01*
G03X284008Y232388I-1194J0D01*
G01X283931Y232521D01*
X288428Y237019D01*
X289976D01*
G03X291170Y238213I0J1194D01*
G01Y239787D01*
G03X289976Y240981I-1194J0D01*
G01X287024D01*
G03X285830Y239787I0J-1194D01*
G01Y238239D01*
X280572Y232981D01*
X280024D01*
G03X278971Y232350I0J-1194D01*
G01X275422D01*
X275406Y232533D01*
G03X272125Y235540I-3281J-286D01*
G01X270850D01*
Y239927D01*
G03X270455Y240881I-1350J0D01*
G01X269510Y241827D01*
X270455Y242772D01*
G03X270850Y243727I-955J955D01*
G01Y248113D01*
X272125D01*
G03X275292Y250505I0J3293D01*
G01X275334Y250650D01*
X278971D01*
G03X280024Y250019I1053J563D01*
G01X282072D01*
X285830Y246261D01*
Y244713D01*
G03X287024Y243519I1194J0D01*
G01X289976D01*
G03X291170Y244713I0J1194D01*
G01Y246287D01*
G03X289976Y247481I-1194J0D01*
G01X288428D01*
X284170Y251739D01*
Y252787D01*
G03X282976Y253981I-1194J0D01*
G01X280024D01*
G03X278971Y253350I0J-1194D01*
G01X275418D01*
Y253900D01*
G03X272125Y257194I-3294J0D01*
G01X266875D01*
G03X263582Y253900I0J-3294D01*
G01Y251407D01*
G03X266875Y248113I3294J0D01*
G01X268150D01*
Y244286D01*
X267841Y243977D01*
X257627D01*
G03X256672Y243581I0J-1350D01*
G01X253045Y239955D01*
G03X252650Y239000I955J-955D01*
G01Y233059D01*
X250194Y230604D01*
X243029D01*
G03X242395Y230446I0J-1350D01*
G01X242351Y230422D01*
X240500D01*
Y231184D01*
X245465D01*
G03X246621Y232082I0J1194D01*
G01X246635Y232135D01*
X250000Y235500D01*
Y241000D01*
X254000Y245000D01*
Y249500D01*
X263000Y258500D01*
G37*
G36*
G01X240061Y226561D02*
G03X240543Y226460I482J1092D01*
G01X242372D01*
X242413Y226439D01*
G03X243004Y226303I591J1214D01*
G01X249697D01*
X251500Y224500D01*
X251803D01*
X252003Y224300D01*
X282000D01*
Y217500D01*
X255000D01*
X252991Y219509D01*
G03X252510Y219991I-1491J-1009D01*
G01X247000Y225500D01*
X246125D01*
X246078Y225528D01*
G03X245465Y225698I-613J-1025D01*
G01X240543D01*
G03X240113Y225618I0J-1194D01*
G01X240078Y225604D01*
X239500D01*
Y226195D01*
G02X240061Y226561I400J0D01*
G37*
G36*
G01X267500Y288000D02*
X270500D01*
X282500Y276000D01*
Y274000D01*
X268500Y260000D01*
X262000D01*
X254000Y252000D01*
X252264D01*
G02X251981Y252683I0J400D01*
G01X253955Y254656D01*
G03X254350Y255611I-955J955D01*
G01Y258826D01*
X260952Y265428D01*
G02X261633Y265106I283J-283D01*
G03X262279Y263300I2233J-219D01*
G01X263300Y262279D01*
G03X266473I1587J1587D01*
G01X269721Y265527D01*
G03X270365Y267351I-1587J1587D01*
G01X270355Y267446D01*
X271548Y268638D01*
X271689Y268511D01*
G03X273331Y268555I798J888D01*
G01X274445Y269669D01*
G03Y271357I-844J844D01*
G01X272357Y273445D01*
G03X270669I-844J-844D01*
G01X269555Y272331D01*
G03X269512Y270689I844J-844D01*
G01X269638Y270548D01*
X268760Y269670D01*
X268619Y269798D01*
G03X265527Y269721I-1506J-1664D01*
G01X264858Y269052D01*
X264540Y269369D01*
G03X263585Y269765I-955J-955D01*
G01X262248D01*
Y271102D01*
G03X261853Y272057I-1350J0D01*
G01X261535Y272374D01*
X262204Y273043D01*
G03X262658Y275564I-1587J1587D01*
G01X262600Y275690D01*
X263548Y276638D01*
X263689Y276512D01*
G03X265331Y276555I798J888D01*
G01X266445Y277669D01*
G03Y279357I-844J844D01*
G01X264357Y281445D01*
G03X262669I-844J-844D01*
G01X261555Y280331D01*
G03X261512Y278689I844J-844D01*
G01X261638Y278548D01*
X260700Y277610D01*
X260572Y277671D01*
G03X258010Y277237I-975J-2021D01*
G01X254763Y273990D01*
G03Y270816I1587J-1587D01*
G01X255783Y269796D01*
G03X257589Y269149I1587J1587D01*
G02X257911Y268468I39J-398D01*
G01X250445Y261003D01*
G03X250050Y260048I955J-955D01*
G01Y256833D01*
X249017Y255801D01*
X243029D01*
G03X242395Y255643I0J-1350D01*
G01X242351Y255619D01*
X240543D01*
G03X240061Y255518I0J-1194D01*
G02X239500Y255884I-161J366D01*
G01Y257000D01*
X245500D01*
X248500Y260000D01*
Y269000D01*
X262711Y283211D01*
X262776Y283221D01*
G03X264279Y284724I-276J1779D01*
G01X264289Y284789D01*
X267500Y288000D01*
G37*
G36*
G01X228000Y300500D02*
X235000D01*
Y288500D01*
X234000Y287500D01*
Y270056D01*
X232383Y268439D01*
G03X232061Y267661I778J-778D01*
G01Y265619D01*
X232048Y265584D01*
G03X231968Y265154I1114J-430D01*
G01Y260232D01*
G03X231994Y259983I1194J0D01*
G02X231603Y259500I-391J-83D01*
G01X231112D01*
Y259767D01*
X231125Y259802D01*
G03X231206Y260232I-1114J430D01*
G01Y265154D01*
G03X231000Y265824I-1194J0D01*
G01Y271000D01*
X230000Y272000D01*
Y286500D01*
X228000Y288500D01*
Y300500D01*
G37*
G36*
G01X256000Y17000D02*
Y23000D01*
X260000Y27000D01*
X270000D01*
X274000Y23000D01*
Y17000D01*
X272000Y15000D01*
X258000D01*
X256000Y17000D01*
G37*
G36*
G01X246000Y143000D02*
X260500D01*
X262000Y141500D01*
X272000D01*
X277500Y136000D01*
X279092D01*
G03X280016Y135634I924J984D01*
G01X283053D01*
X283077Y135628D01*
G03X283362Y135594I286J1159D01*
G01X284543D01*
G03X284586Y135594I-1J1194D01*
G02X285000Y135195I14J-400D01*
G01Y134837D01*
G02X284586Y134437I-400J0D01*
G03X284543Y134438I-44J-1193D01*
G01X283362D01*
G03X282939Y134360I0J-1194D01*
G01X282905Y134347D01*
X281968D01*
G03X281165Y134070I0J-1300D01*
G01X279770D01*
G03X279542Y134050I0J-1300D01*
G03X279500Y134050I-43J-1550D01*
G03X279131Y134006I0J-1550D01*
G01X279108Y134000D01*
X274500D01*
X272000Y136500D01*
X252500D01*
X252000Y136000D01*
X246000D01*
Y143000D01*
G37*
G36*
G01X264500Y368500D02*
Y363500D01*
X266000Y362000D01*
X268000D01*
X268500Y361500D01*
Y356500D01*
X259500D01*
Y362000D01*
X258000Y363500D01*
Y368500D01*
X264500D01*
G37*
G36*
G01X264000Y398000D02*
Y393000D01*
X265500Y391500D01*
X267500D01*
X268000Y391000D01*
Y386000D01*
X259000D01*
Y391500D01*
X257500Y393000D01*
Y398000D01*
X264000D01*
G37*
G36*
G01X283500Y184500D02*
X286000Y187000D01*
X291500D01*
Y180500D01*
X283500D01*
Y174000D01*
X279500D01*
Y180500D01*
X272000D01*
Y184500D01*
X283500D01*
G37*
G36*
G01X294000Y187500D02*
X299000D01*
X299500Y187000D01*
Y182556D01*
X299222Y182278D01*
G03X298900Y181500I778J-778D01*
G01Y179400D01*
X298000Y178500D01*
Y170500D01*
X293500Y166000D01*
Y154000D01*
X291500Y152000D01*
Y150940D01*
X291487Y150906D01*
G03X291416Y150516I1029J-390D01*
G01Y146918D01*
G03X291125Y146138I903J-781D01*
G01Y144957D01*
G03X291200Y144540I1194J0D01*
G02X290825Y144000I-375J-140D01*
G01X290269D01*
G02X289894Y144540I0J400D01*
G03X289969Y144957I-1119J417D01*
G01Y146138D01*
G03X289679Y146918I-1194J0D01*
G01Y148921D01*
G03X289528Y149478I-1100J0D01*
G01X289500Y149525D01*
Y166500D01*
X293500Y170500D01*
Y187000D01*
X294000Y187500D01*
G37*
G36*
G01X295000Y214000D02*
X302944D01*
X303500Y213444D01*
Y206500D01*
X299000D01*
Y189500D01*
X287000D01*
Y198000D01*
X290500D01*
Y191500D01*
X295000D01*
Y214000D01*
G37*
G36*
G01X348500Y286000D02*
X299500D01*
Y302000D01*
X318000D01*
X325500Y294500D01*
X338000D01*
X342500Y290000D01*
X348500D01*
Y286000D01*
G37*
G36*
G01X324500Y329500D02*
X329000Y325000D01*
X335500D01*
Y321000D01*
X308000D01*
X303500Y316500D01*
Y308000D01*
X290000D01*
Y333000D01*
X311500D01*
X315000Y329500D01*
X324500D01*
G37*
G36*
G01X306000Y17000D02*
Y23000D01*
X310000Y27000D01*
X320000D01*
X324000Y23000D01*
Y17000D01*
X322000Y15000D01*
X308000D01*
X306000Y17000D01*
G37*
G36*
G01X325000Y136500D02*
X340400D01*
Y129000D01*
X326000D01*
X325000Y130000D01*
X310000D01*
X306000Y134000D01*
X304562D01*
G03X303638Y134438I-924J-756D01*
G01X302457D01*
G03X302040Y134363I0J-1194D01*
G02X301500Y134738I-140J375D01*
G01Y135294D01*
G02X302040Y135669I400J0D01*
G03X302457Y135594I417J1119D01*
G01X303638D01*
G03X304418Y135884I0J1194D01*
G01X307484D01*
G03X307938Y135982I0J1100D01*
G01X307978Y136000D01*
X308500D01*
X309500Y135000D01*
X324000D01*
X325000Y136500D01*
G37*
G36*
G01Y334000D02*
X316000D01*
Y342500D01*
X325000D01*
Y334000D01*
G37*
G36*
G01X319000Y378000D02*
X324000D01*
Y370500D01*
X334500D01*
Y366500D01*
X333744D01*
G03X333051Y366722I-693J-972D01*
G01X329508D01*
G03X328815Y366500I0J-1194D01*
G01X314500D01*
Y371500D01*
X317000D01*
X319000Y373500D01*
Y378000D01*
G37*
G36*
G01X333000Y408500D02*
X329500Y405000D01*
Y393000D01*
X327000Y390500D01*
X315000D01*
X312500Y393000D01*
Y407000D01*
X316000Y410500D01*
Y434500D01*
X333000D01*
Y408500D01*
G37*
G36*
G01X340500Y306000D02*
Y300500D01*
X326500D01*
Y306000D01*
X340500D01*
G37*
G36*
G01X328500Y315000D02*
X337000D01*
Y333500D01*
X349500D01*
Y307500D01*
X337000D01*
Y311000D01*
X328500D01*
Y315000D01*
G37*
G36*
G01X334000Y359000D02*
X331000D01*
X329500Y357500D01*
Y351000D01*
X325000D01*
Y359500D01*
X328000Y362500D01*
X334000D01*
Y359000D01*
G37*
G36*
G01X332000Y357000D02*
X342000D01*
Y351000D01*
X332000D01*
Y357000D01*
G37*
G36*
G01X327000Y378000D02*
X337500D01*
Y377570D01*
G02X337298Y377370I-200J0D01*
G03X337287Y377370I-14J-894D01*
G01X335713D01*
G03X334819Y376476I0J-894D01*
G01Y373524D01*
G03X335713Y372630I894J0D01*
G01X337287D01*
G03X337298Y372630I-4J894D01*
G02X337500Y372430I2J-200D01*
G01Y372000D01*
X327000D01*
Y372430D01*
G02X327202Y372630I200J0D01*
G03X327213Y372630I14J894D01*
G01X328787D01*
G03X329681Y373524I0J894D01*
G01Y376476D01*
G03X328787Y377370I-894J0D01*
G01X327213D01*
G03X327202Y377370I4J-894D01*
G02X327000Y377570I-2J200D01*
G01Y378000D01*
G37*
G36*
G01X335200Y363000D02*
X338300D01*
Y362300D01*
X345000D01*
Y359500D01*
X335200D01*
Y363000D01*
G37*
G36*
G01X333500Y379500D02*
X322000D01*
Y388500D01*
X333500D01*
Y379500D01*
G37*
G36*
G01X336500Y407000D02*
X347000D01*
X356500Y397500D01*
X391375D01*
X399500Y390000D01*
Y382000D01*
X405000Y376500D01*
X417500D01*
X422500Y371500D01*
Y349000D01*
X423500Y348000D01*
Y344000D01*
X422532D01*
G02X422142Y344491I0J400D01*
G03X422166Y344693I-871J202D01*
G01Y346268D01*
G03X421272Y347162I-894J0D01*
G01X417728D01*
G03X417502Y347132I0J-894D01*
G02X417000Y347519I-101J387D01*
G01Y355500D01*
X414500Y358000D01*
Y365000D01*
X411000Y368500D01*
X397500D01*
X388500Y377500D01*
X356500D01*
X346000Y367000D01*
X345532D01*
G02X345142Y367491I0J400D01*
G03X345166Y367693I-871J202D01*
G01Y369268D01*
G03X344272Y370162I-894J0D01*
G01X340728D01*
G03X340502Y370132I0J-894D01*
G02X340000Y370519I-101J387D01*
G01Y378000D01*
X337000Y381000D01*
Y389500D01*
X333000Y393500D01*
Y403500D01*
X336500Y407000D01*
G37*
G36*
G01X348000Y17000D02*
Y23000D01*
X352000Y27000D01*
X362000D01*
X366000Y23000D01*
Y17000D01*
X364000Y15000D01*
X350000D01*
X348000Y17000D01*
G37*
G36*
G01X342600Y140000D02*
X349000D01*
Y136500D01*
X347000Y134500D01*
Y129000D01*
X343000D01*
Y136000D01*
X342600Y136400D01*
Y140000D01*
G37*
G36*
G01X346000Y216000D02*
X350735D01*
X350792Y215897D01*
G03X351492Y215483I701J387D01*
G01X356800D01*
Y212369D01*
X354051D01*
G03X353899Y212360I0J-1400D01*
G01X353888Y212359D01*
X351492D01*
G03X350824Y212000I0J-800D01*
G01X346000D01*
Y216000D01*
G37*
G36*
G01X341500Y264500D02*
X352500D01*
Y256000D01*
X350000D01*
X348000Y254000D01*
Y249000D01*
X349500Y247500D01*
X356800D01*
Y245833D01*
X354051D01*
G03X353899Y245825I0J-1400D01*
G01X353888Y245824D01*
X351492D01*
G03X350849Y245500I0J-800D01*
G01X348000D01*
X345500Y248000D01*
X344000D01*
X343000Y249000D01*
Y255000D01*
X341500Y256500D01*
Y264500D01*
G37*
G36*
G01Y280000D02*
X350000D01*
Y298500D01*
X362500D01*
Y272500D01*
X350000D01*
Y276000D01*
X341500D01*
Y280000D01*
G37*
G36*
G01X352500Y346500D02*
X355500Y349500D01*
X385500D01*
X388500Y346500D01*
Y336000D01*
X381500Y329000D01*
Y308500D01*
X374000D01*
X368000Y314500D01*
X360500D01*
X359000Y316000D01*
X351000D01*
Y325000D01*
X357500D01*
X359000Y326500D01*
Y330000D01*
X352500Y336500D01*
Y346500D01*
G37*
G36*
G01X357500Y374000D02*
X385000D01*
X388500Y370500D01*
Y358000D01*
X385500Y355500D01*
X353500D01*
X349000Y351000D01*
X344000D01*
Y356000D01*
X346500Y358500D01*
Y363500D01*
X339500D01*
Y365800D01*
X346497D01*
X346697Y366000D01*
X349500D01*
X357500Y374000D01*
G37*
G36*
G01X372000Y262000D02*
Y193500D01*
X358000D01*
Y262000D01*
X372000D01*
G37*
G36*
G01X374500Y275000D02*
Y279000D01*
X379500D01*
X384000Y274500D01*
X403000D01*
Y268000D01*
X381500D01*
X374500Y275000D01*
G37*
G36*
G01X385500Y290000D02*
X390500Y295000D01*
Y303000D01*
X395000Y307500D01*
X403500D01*
X422500Y288500D01*
Y281000D01*
X418500Y277000D01*
X410500D01*
X408000Y279500D01*
X383000D01*
X381500Y281000D01*
X364000D01*
Y290000D01*
X385500D01*
G37*
G36*
G01X393500Y89000D02*
Y92000D01*
X389500Y96000D01*
Y108000D01*
X398000D01*
Y102000D01*
X394500D01*
Y98500D01*
X400000Y93000D01*
Y89000D01*
X393500D01*
G37*
G36*
G01X394500Y118000D02*
Y121000D01*
X390500Y125000D01*
Y137000D01*
X399000D01*
Y131000D01*
X395500D01*
Y127000D01*
X401000Y121500D01*
Y118000D01*
X394500D01*
G37*
G36*
G01X386500Y309500D02*
Y330500D01*
X392000D01*
Y309500D01*
X386500D01*
G37*
G36*
G01X397000Y355000D02*
X401500D01*
Y347500D01*
X411500D01*
Y344700D01*
X410800D01*
Y344083D01*
G02X410312Y343693I-400J0D01*
G03X410051Y343722I-261J-1165D01*
G01X406508D01*
G03X405815Y343500I0J-1194D01*
G01X400000D01*
X399500Y343000D01*
X393500D01*
Y347000D01*
X397000Y350500D01*
Y355000D01*
G37*
G36*
G01X424700Y343000D02*
X428500D01*
X438000Y333500D01*
Y299000D01*
X433500Y294500D01*
X427000D01*
X408000Y313500D01*
Y318500D01*
X414500Y325000D01*
X418500D01*
X420500Y327000D01*
Y333500D01*
X421500Y334500D01*
X424000D01*
Y340500D01*
X417000D01*
Y342800D01*
X424700D01*
Y343000D01*
G37*
G36*
G01X412000Y336500D02*
Y343500D01*
X415500D01*
Y339000D01*
X422000D01*
Y336500D01*
X412000D01*
G37*
G36*
G01X418000Y334000D02*
Y328000D01*
X408000D01*
Y334000D01*
X418000D01*
G37*
G36*
G01X405000Y339500D02*
X410800D01*
Y336000D01*
X407500D01*
X405500Y334000D01*
Y328000D01*
X401000D01*
Y335500D01*
X405000Y339500D01*
G37*
G36*
G01X403500Y366000D02*
X410000D01*
Y355500D01*
X415303D01*
X415800Y355003D01*
Y349000D01*
X403500D01*
Y366000D01*
G37*
G36*
G01X421000Y396000D02*
Y384000D01*
X404000D01*
Y396000D01*
X421000D01*
G37*
G36*
G01X424000Y384000D02*
Y393500D01*
X526000D01*
X533000Y386500D01*
Y369000D01*
X524000D01*
Y377000D01*
X518000Y383000D01*
X496500D01*
X495000Y381500D01*
Y372000D01*
X492000D01*
Y381500D01*
X490500Y383000D01*
X474000D01*
X468000Y377000D01*
Y369000D01*
X459000D01*
Y377000D01*
X453000Y383000D01*
X432000D01*
X430000Y381000D01*
Y372000D01*
X427000D01*
Y381000D01*
X424000Y384000D01*
G37*
G36*
G01X423500Y444000D02*
X432500D01*
Y443395D01*
G02X432056Y442997I-400J0D01*
G03X432000Y443000I-56J-497D01*
G01X425000D01*
G03X424500Y442500I0J-500D01*
G01Y433500D01*
G03X425000Y433000I500J0D01*
G01X432000D01*
G03X432056Y433003I0J500D01*
G02X432500Y432605I44J-398D01*
G01Y421497D01*
G03X431721Y420276I1000J-1497D01*
G01X431711Y420211D01*
X429500Y418000D01*
Y406000D01*
X429842Y405658D01*
X429847Y405583D01*
G03X430369Y404887I798J55D01*
G01X430500Y404839D01*
Y395500D01*
X429877D01*
Y395736D01*
X429890Y395770D01*
G03X429984Y396291I-1390J521D01*
G01Y402984D01*
G03X427016I-1484J0D01*
G01Y396291D01*
G03X427048Y395983I1484J0D01*
G02X426657Y395500I-391J-83D01*
G01X426500D01*
X423500Y398500D01*
Y444000D01*
G37*
G36*
G01X460000Y9000D02*
Y8000D01*
X450000D01*
Y14500D01*
X454500D01*
X456000Y13000D01*
X474500D01*
Y9000D01*
X460000D01*
G37*
G36*
G01X445000Y410500D02*
X463000D01*
X467000Y406500D01*
Y394700D01*
X444960D01*
G02X444650Y395353I0J400D01*
G03X444984Y396291I-1150J938D01*
G01Y402984D01*
G03X442354Y403928I-1484J0D01*
G01X442294Y403855D01*
X442000D01*
Y404500D01*
X445000Y407500D01*
Y410500D01*
G37*
G36*
G01X434500Y444000D02*
X443500D01*
Y439044D01*
G03X443500Y439000I5000J-45D01*
G01Y437000D01*
G03X443500Y436956I5000J1D01*
G01Y408000D01*
X440500Y405000D01*
Y395500D01*
X439877D01*
Y395736D01*
X439890Y395770D01*
G03X439984Y396291I-1390J521D01*
G01Y402984D01*
G03X437016I-1484J0D01*
G01Y396291D01*
G03X437110Y395770I1484J0D01*
G01X437123Y395736D01*
Y395500D01*
X436500D01*
Y404839D01*
X436631Y404887D01*
G03X437155Y405638I-276J751D01*
G01Y409575D01*
G03X436631Y410326I-800J0D01*
G01X436500Y410374D01*
Y412713D01*
X436631Y412761D01*
G03X437155Y413512I-276J751D01*
G01Y417449D01*
G03X436631Y418200I-800J0D01*
G01X436500Y418248D01*
Y419000D01*
X435289Y420211D01*
X435279Y420276D01*
G03X434500Y421497I-1779J-276D01*
G01Y434470D01*
G02X435227Y434700I400J0D01*
G03X438500Y433000I3273J2300D01*
G03X442500Y437000I0J4000D01*
G01Y439000D01*
G03X438500Y443000I-4000J0D01*
G03X435227Y441300I0J-4000D01*
G02X434500Y441530I-327J230D01*
G01Y444000D01*
G37*
G36*
G01X473000Y47000D02*
X474500Y48500D01*
X480000D01*
Y42000D01*
X474000D01*
X473000Y43000D01*
X455500D01*
Y47000D01*
X473000D01*
G37*
G36*
G01X460000Y61000D02*
Y57500D01*
X453500D01*
Y65000D01*
X474500D01*
Y61000D01*
X460000D01*
G37*
G36*
G01X473000Y99000D02*
X474500Y100500D01*
X480000D01*
Y94000D01*
X474000D01*
X473000Y95000D01*
X455500D01*
Y99000D01*
X473000D01*
G37*
G36*
G01X461000Y117000D02*
Y113500D01*
X454500D01*
Y121000D01*
X475500D01*
Y117000D01*
X461000D01*
G37*
G36*
G01X473000Y155000D02*
X474500Y156500D01*
X480000D01*
Y150000D01*
X474000D01*
X473000Y151000D01*
X455500D01*
Y155000D01*
X473000D01*
G37*
G36*
G01X461000Y177000D02*
Y173500D01*
X454500D01*
Y181000D01*
X475500D01*
Y177000D01*
X461000D01*
G37*
G36*
G01X473000Y215000D02*
X474500Y216500D01*
X480000D01*
Y210000D01*
X474000D01*
X473000Y211000D01*
X455500D01*
Y215000D01*
X473000D01*
G37*
G36*
G01X461000Y238000D02*
Y234500D01*
X454500D01*
Y242000D01*
X475500D01*
Y238000D01*
X461000D01*
G37*
G36*
G01X473000Y276000D02*
X474500Y277500D01*
X480000D01*
Y271000D01*
X474000D01*
X473000Y272000D01*
X455500D01*
Y276000D01*
X473000D01*
G37*
G36*
G01X461000Y299000D02*
Y295500D01*
X454500D01*
Y303000D01*
X475500D01*
Y299000D01*
X461000D01*
G37*
G36*
G01X473000Y337000D02*
X474500Y338500D01*
X480000D01*
Y332000D01*
X474000D01*
X473000Y333000D01*
X455500D01*
Y337000D01*
X473000D01*
G37*
G36*
G01X470000Y368500D02*
X482500D01*
Y358000D01*
X481000Y356500D01*
Y340000D01*
X473500D01*
Y344000D01*
X470000Y347500D01*
Y358065D01*
G02X470651Y358376I400J0D01*
G03X471541Y358063I890J1105D01*
G01X472459D01*
G03X473878Y359482I0J1419D01*
G01Y365518D01*
G03X472459Y366937I-1419J0D01*
G01X471541D01*
G03X470651Y366624I0J-1419D01*
G02X470000Y366935I-251J312D01*
G01Y368500D01*
G37*
G36*
G01X453500D02*
X457800D01*
Y367800D01*
X464500D01*
Y366975D01*
G02X463860Y366654I-400J0D01*
G03X463011Y366937I-850J-1136D01*
G01X462092D01*
G03X460673Y365518I0J-1419D01*
G01Y359482D01*
G03X462092Y358063I1419J0D01*
G01X463011D01*
G03X463860Y358346I0J1419D01*
G02X464500Y358025I240J-320D01*
G01Y356500D01*
X453500D01*
Y368500D01*
G37*
G36*
G01X488500Y444000D02*
X497500D01*
Y443395D01*
G02X497056Y442997I-400J0D01*
G03X497000Y443000I-56J-497D01*
G01X490000D01*
G03X489500Y442500I0J-500D01*
G01Y433500D01*
G03X490000Y433000I500J0D01*
G01X497000D01*
G03X497056Y433003I0J500D01*
G02X497500Y432605I44J-398D01*
G01Y421497D01*
G03X496721Y420276I1000J-1497D01*
G01X496711Y420211D01*
X494500Y418000D01*
Y406000D01*
X494842Y405658D01*
X494847Y405583D01*
G03X495369Y404887I798J55D01*
G01X495500Y404839D01*
Y395500D01*
X494877D01*
Y395736D01*
X494890Y395770D01*
G03X494984Y396291I-1390J521D01*
G01Y402984D01*
G03X492016I-1484J0D01*
G01Y396291D01*
G03X492048Y395983I1484J0D01*
G02X491657Y395500I-391J-83D01*
G01X491500D01*
X488500Y398500D01*
Y444000D01*
G37*
G36*
G01X510000Y410500D02*
X529000D01*
X533000Y406500D01*
Y394500D01*
X526697D01*
X526497Y394700D01*
X509960D01*
G02X509650Y395353I0J400D01*
G03X509984Y396291I-1150J938D01*
G01Y402984D01*
G03X507354Y403928I-1484J0D01*
G01X507294Y403855D01*
X507000D01*
Y404500D01*
X510000Y407500D01*
Y410500D01*
G37*
G36*
G01X499500Y444000D02*
X508500D01*
Y439044D01*
G03X508500Y439000I5000J-45D01*
G01Y437000D01*
G03X508500Y436956I5000J1D01*
G01Y408000D01*
X505500Y405000D01*
Y395500D01*
X504877D01*
Y395736D01*
X504890Y395770D01*
G03X504984Y396291I-1390J521D01*
G01Y402984D01*
G03X502016I-1484J0D01*
G01Y396291D01*
G03X502110Y395770I1484J0D01*
G01X502123Y395736D01*
Y395500D01*
X501500D01*
Y404839D01*
X501631Y404887D01*
G03X502155Y405638I-276J751D01*
G01Y409575D01*
G03X501631Y410326I-800J0D01*
G01X501500Y410374D01*
Y412713D01*
X501631Y412761D01*
G03X502155Y413512I-276J751D01*
G01Y417449D01*
G03X501631Y418200I-800J0D01*
G01X501500Y418248D01*
Y419000D01*
X500289Y420211D01*
X500279Y420276D01*
G03X499500Y421497I-1779J-276D01*
G01Y434470D01*
G02X500227Y434700I400J0D01*
G03X503500Y433000I3273J2300D01*
G03X507500Y437000I0J4000D01*
G01Y439000D01*
G03X503500Y443000I-4000J0D01*
G03X500227Y441300I0J-4000D01*
G02X499500Y441530I-327J230D01*
G01Y444000D01*
G37*
G36*
G01X517000Y26000D02*
X515500Y27500D01*
Y30500D01*
X522500D01*
Y27500D01*
X521000Y26000D01*
Y21000D01*
X517000D01*
Y26000D01*
G37*
G36*
G01Y76000D02*
X515500Y77500D01*
Y80500D01*
X522500D01*
Y77500D01*
X521000Y76000D01*
Y71000D01*
X517000D01*
Y76000D01*
G37*
G36*
G01X518000Y126000D02*
X516500Y127500D01*
Y130500D01*
X523500D01*
Y127500D01*
X522000Y126000D01*
Y121000D01*
X518000D01*
Y126000D01*
G37*
G36*
G01Y186000D02*
X516500Y187500D01*
Y190500D01*
X523500D01*
Y187500D01*
X522000Y186000D01*
Y181000D01*
X518000D01*
Y186000D01*
G37*
G36*
G01Y247000D02*
X516500Y248500D01*
Y251500D01*
X523500D01*
Y248500D01*
X522000Y247000D01*
Y242000D01*
X518000D01*
Y247000D01*
G37*
G36*
G01Y308000D02*
X516500Y309500D01*
Y312500D01*
X523500D01*
Y309500D01*
X522000Y308000D01*
Y303000D01*
X518000D01*
Y308000D01*
G37*
%LPC*%
G75*
G36*
G01X12292Y7792D02*
G02X10086Y5587I-2206J0D01*
G01X6017D01*
G02X3811Y7792I0J2206D01*
G01Y9499D01*
G02X6017Y11705I2206J0D01*
G01X10086D01*
G02X12292Y9499I0J-2206D01*
G01Y7792D01*
G37*
G36*
G01X5230Y63870D02*
X14416D01*
G02X15835Y62452I0J-1419D01*
G01Y60352D01*
G02X14416Y58933I-1419J0D01*
G01X5230D01*
G02X3811Y60352I0J1419D01*
G01Y62452D01*
G02X5230Y63870I1419J0D01*
G37*
G36*
G01X200509Y314413D02*
X197087Y310991D01*
G02X193792I-1648J1648D01*
G01X192490Y312292D01*
G02Y315587I1648J1648D01*
G01X195913Y319010D01*
G02X199208I1648J-1648D01*
G01X200509Y317708D01*
G02Y314413I-1648J-1648D01*
G37*
G36*
G01X326000Y399900D02*
Y396100D01*
G02X322500Y392600I-3500J0D01*
G01X319500D01*
G02X316000Y396100I0J3500D01*
G01Y399900D01*
G02X319500Y403400I3500J0D01*
G01X322500D01*
G02X326000Y399900I0J-3500D01*
G37*
G36*
G01X327441Y380654D02*
Y387346D01*
G02X327941Y387847I500J0D01*
G01X331484D01*
G02X331984Y387346I0J-500D01*
G01Y380654D01*
G02X331484Y380153I-500J0D01*
G01X327941D01*
G02X327441Y380654I0J500D01*
G37*
G36*
G01X389518Y388122D02*
X383482D01*
G02X382063Y389541I0J1419D01*
G01Y390459D01*
G02X383482Y391878I1419J0D01*
G01X389518D01*
G02X390937Y390459I0J-1419D01*
G01Y389541D01*
G02X389518Y388122I-1419J0D01*
G37*
G36*
G01X341319Y373524D02*
Y376476D01*
G02X342213Y377370I894J0D01*
G01X343787D01*
G02X344681Y376476I0J-894D01*
G01Y373524D01*
G02X343787Y372630I-894J0D01*
G01X342213D01*
G02X341319Y373524I0J894D01*
G37*
G36*
G01X418319Y350524D02*
Y353476D01*
G02X419213Y354370I894J0D01*
G01X420787D01*
G02X421681Y353476I0J-894D01*
G01Y350524D01*
G02X420787Y349630I-894J0D01*
G01X419213D01*
G02X418319Y350524I0J894D01*
G37*
G36*
G01X339645Y380654D02*
Y387346D01*
G02X340146Y387847I500J0D01*
G01X343689D01*
G02X344189Y387346I0J-500D01*
G01Y380654D01*
G02X343689Y380153I-500J0D01*
G01X340146D01*
G02X339645Y380654I0J500D01*
G37*
G36*
G01X416645Y357654D02*
Y364346D01*
G02X417146Y364847I500J0D01*
G01X420689D01*
G02X421189Y364346I0J-500D01*
G01Y357654D01*
G02X420689Y357153I-500J0D01*
G01X417146D01*
G02X416645Y357654I0J500D01*
G37*
G36*
G01X346500Y399900D02*
Y396100D01*
G02X343000Y392600I-3500J0D01*
G01X340000D01*
G02X336500Y396100I0J3500D01*
G01Y399900D01*
G02X340000Y403400I3500J0D01*
G01X343000D01*
G02X346500Y399900I0J-3500D01*
G37*
G36*
G01X361425Y252701D02*
Y259787D01*
G02X361925Y260288I500J0D01*
G01X369799D01*
G02X370299Y259787I0J-500D01*
G01Y252701D01*
G02X369799Y252201I-500J0D01*
G01X361925D01*
G02X361425Y252701I0J500D01*
G37*
G36*
G01Y195614D02*
Y202701D01*
G02X361925Y203201I500J0D01*
G01X369799D01*
G02X370299Y202701I0J-500D01*
G01Y195614D01*
G02X369799Y195114I-500J0D01*
G01X361925D01*
G02X361425Y195614I0J500D01*
G37*
G36*
G01X411819Y350524D02*
Y353476D01*
G02X412713Y354370I894J0D01*
G01X414287D01*
G02X415181Y353476I0J-894D01*
G01Y350524D01*
G02X414287Y349630I-894J0D01*
G01X412713D01*
G02X411819Y350524I0J894D01*
G37*
G36*
G01X404441Y357654D02*
Y364346D01*
G02X404941Y364847I500J0D01*
G01X408484D01*
G02X408984Y364346I0J-500D01*
G01Y357654D01*
G02X408484Y357153I-500J0D01*
G01X404941D01*
G02X404441Y357654I0J500D01*
G37*
G36*
G01X404319Y350524D02*
Y353476D01*
G02X405213Y354370I894J0D01*
G01X406787D01*
G02X407681Y353476I0J-894D01*
G01Y350524D01*
G02X406787Y349630I-894J0D01*
G01X405213D01*
G02X404319Y350524I0J894D01*
G37*
G36*
G01X415503Y388122D02*
X409466D01*
G02X408047Y389541I0J1419D01*
G01Y390459D01*
G02X409466Y391878I1419J0D01*
G01X415503D01*
G02X416922Y390459I0J-1419D01*
G01Y389541D01*
G02X415503Y388122I-1419J0D01*
G37*
G36*
G01X461622Y396982D02*
Y403019D01*
G02X463041Y404437I1419J0D01*
G01X463959D01*
G02X465378Y403019I0J-1419D01*
G01Y396982D01*
G02X463959Y395563I-1419J0D01*
G01X463041D01*
G02X461622Y396982I0J1419D01*
G37*
G36*
G01X449976Y406319D02*
X447024D01*
G02X446130Y407213I0J894D01*
G01Y408787D01*
G02X447024Y409681I894J0D01*
G01X449976D01*
G02X450870Y408787I0J-894D01*
G01Y407213D01*
G02X449976Y406319I-894J0D01*
G37*
G36*
G01X476638Y360146D02*
Y365854D01*
G02X477138Y366355I500J0D01*
G01X481075D01*
G02X481575Y365854I0J-500D01*
G01Y360146D01*
G02X481075Y359645I-500J0D01*
G01X477138D01*
G02X476638Y360146I0J500D01*
G37*
G36*
G01X476819Y352524D02*
Y355476D01*
G02X477713Y356370I894J0D01*
G01X479287D01*
G02X480181Y355476I0J-894D01*
G01Y352524D01*
G02X479287Y351630I-894J0D01*
G01X477713D01*
G02X476819Y352524I0J894D01*
G37*
G36*
G01Y345524D02*
Y348476D01*
G02X477713Y349370I894J0D01*
G01X479287D01*
G02X480181Y348476I0J-894D01*
G01Y345524D01*
G02X479287Y344630I-894J0D01*
G01X477713D01*
G02X476819Y345524I0J894D01*
G37*
G36*
G01X526622Y396982D02*
Y403019D01*
G02X528041Y404437I1419J0D01*
G01X528959D01*
G02X530378Y403019I0J-1419D01*
G01Y396982D01*
G02X528959Y395563I-1419J0D01*
G01X528041D01*
G02X526622Y396982I0J1419D01*
G37*
G36*
G01X514976Y406319D02*
X512024D01*
G02X511130Y407213I0J894D01*
G01Y408787D01*
G02X512024Y409681I894J0D01*
G01X514976D01*
G02X515870Y408787I0J-894D01*
G01Y407213D01*
G02X514976Y406319I-894J0D01*
G37*
G54D116*
X324500Y426000D03*
%LPD*%
G75*
G54D100*
X433500Y377000D03*
X428500D03*
Y399638D03*
X433500D03*
X443500Y377000D03*
X438500D03*
Y399638D03*
X443500D03*
X508500Y377000D03*
X503500D03*
X498500D03*
X493500D03*
Y399638D03*
X498500D03*
X503500D03*
X508500D03*
G54D110*
G01X271000Y146000D02*
X280016Y136984D01*
X283953D01*
G01X243004Y227654D02*
X251416D01*
X255600Y231837D01*
Y238337D01*
X258290Y241027D01*
X268400D01*
X269500Y239927D01*
Y231000D01*
G01X243004Y229228D02*
X243029Y229254D01*
X250753D01*
X254000Y232500D01*
Y239000D01*
X257627Y242627D01*
X268400D01*
X269500Y243727D01*
Y252654D01*
G01X243004Y252850D02*
X250239D01*
X253000Y255611D01*
Y259385D01*
X262030Y268415D01*
X263585D01*
X266000Y266000D01*
G01X243004Y254425D02*
X243029Y254450D01*
X249576D01*
X251400Y256274D01*
Y260048D01*
X260898Y269546D01*
Y271102D01*
X258484Y273516D01*
G01D02*
X258516D01*
X264000Y279000D01*
G01X269500Y231000D02*
X281500D01*
G01X269500Y252654D02*
X270154Y252000D01*
X281500D01*
G01X266000Y266000D02*
X267000D01*
X272000Y271000D01*
G01X281500Y231000D02*
Y232000D01*
X288500Y239000D01*
G01X281500Y252000D02*
X282000D01*
X288500Y245500D01*
G01X462500Y84500D02*
X453000D01*
G01X463500Y140500D02*
X452000D01*
G01X463500Y200500D02*
X452500D01*
G01X448500Y291500D02*
Y319000D01*
X452000Y322500D01*
X463500D01*
G01X482500Y11000D02*
X479000D01*
X477000Y13000D01*
Y16500D01*
X475020Y18480D01*
X471280D01*
G01X473500Y26000D02*
X471280Y23779D01*
Y18480D01*
G01X469500Y32500D02*
X473000D01*
X474500Y34000D01*
X477500D01*
G01X469500Y32500D02*
X462500D01*
G01D02*
X454500D01*
G01X462500Y39000D02*
X469500D01*
G01X484980Y45220D02*
X485000Y45201D01*
Y41500D01*
X482500Y39000D01*
X469500D01*
G01X462500Y84500D02*
X469500D01*
G01D02*
X473769D01*
X475269Y86000D01*
X477500D01*
G01X477000Y78000D02*
X473000D01*
G01X471280Y70480D02*
X475520D01*
X477500Y68500D01*
Y64785D01*
X479285Y63000D01*
X482500D01*
G01X473000Y78000D02*
X471280Y76280D01*
Y70480D01*
G01X462500Y91000D02*
X469500D01*
G01X484980Y97221D02*
X485000Y97201D01*
Y93500D01*
X482500Y91000D01*
X469500D01*
G01X457500Y119000D02*
X464500D01*
G01X483500D02*
X480000D01*
X478000Y121000D01*
Y124500D01*
X476020Y126480D01*
X472280D01*
G01X474500Y134000D02*
X472280Y131780D01*
Y126480D01*
G01X463500Y140500D02*
X470500D01*
G01D02*
X473769D01*
X475269Y142000D01*
X477500D01*
G01X463500Y147000D02*
X470500D01*
G01X484980Y153220D02*
X485000Y153201D01*
Y149500D01*
X482500Y147000D01*
X470500D01*
G01X463500Y200500D02*
X470500D01*
G01D02*
X473769D01*
X475269Y202000D01*
X477500D01*
G01X483500Y179000D02*
X480000D01*
X478000Y181000D01*
Y184500D01*
X476020Y186480D01*
X472280D01*
G01X474500Y194000D02*
X472280Y191780D01*
Y186480D01*
G01X463500Y207000D02*
X470500D01*
G01X484980Y213220D02*
X485000Y213201D01*
Y209500D01*
X482500Y207000D01*
X470500D01*
G01X472280Y247480D02*
Y252280D01*
X474750Y254750D01*
G01X483500Y240000D02*
X480000D01*
X478000Y242000D01*
Y245500D01*
X476020Y247480D01*
X472280D01*
G01X463500Y261500D02*
X470500D01*
G01D02*
X473769D01*
X475269Y263000D01*
X477500D01*
G01X463500Y261500D02*
X460580D01*
X456500Y265580D01*
Y268000D01*
G01X463500D02*
X470500D01*
G01X484980Y274220D02*
X485000Y274201D01*
Y270500D01*
X482500Y268000D01*
X470500D01*
G01X483500Y301000D02*
X480000D01*
X478000Y303000D01*
Y305975D01*
X475495Y308480D01*
X472280D01*
G01X474500Y316000D02*
X472280Y313780D01*
Y308480D01*
G01X463500Y322500D02*
X470500D01*
G01D02*
X473769D01*
X475269Y324000D01*
X477500D01*
G01X463500Y329000D02*
X470500D01*
G01X484980Y335220D02*
X485000Y335201D01*
Y331500D01*
X482500Y329000D01*
X470500D01*
G01X477000Y26000D02*
X473500D01*
G01X483500D02*
Y29304D01*
X484980Y30785D01*
Y34000D01*
G01X482500Y18480D02*
X483484D01*
X487000Y21996D01*
Y23500D01*
X488220Y24720D01*
X499500D01*
G01X484980Y34000D02*
X488311D01*
X491811Y37500D01*
X492500D01*
G01X484980Y45220D02*
X488359D01*
X489580Y44000D01*
X492500D01*
G01Y89500D02*
X491811D01*
X488311Y86000D01*
X484980D01*
G01X483500Y78000D02*
Y81304D01*
X484980Y82785D01*
Y86000D01*
G01X499500Y74720D02*
X487724D01*
X483484Y70480D01*
X482500D01*
G01X484980Y97221D02*
X488359D01*
X489580Y96000D01*
X492500D01*
G01X483500Y126480D02*
X495440D01*
X497200Y124720D01*
X500500D01*
G01X492000Y138000D02*
Y141769D01*
X492500Y142269D01*
Y144500D01*
G01D02*
X489711D01*
X487211Y142000D01*
X484980D01*
G01X484500Y134000D02*
Y138304D01*
X484980Y138785D01*
Y142000D01*
G01X478000Y134000D02*
X474500D01*
G01X492000Y158000D02*
Y153731D01*
X492500Y153231D01*
Y151000D01*
G01D02*
X489500D01*
X487280Y153220D01*
X484980D01*
G01X483500Y186480D02*
X495440D01*
X497200Y184720D01*
X500500D01*
G01X492000Y199000D02*
Y202769D01*
X492500Y203269D01*
Y205500D01*
G01D02*
X490711D01*
X487211Y202000D01*
X484980D01*
G01X484500Y194000D02*
Y198304D01*
X484980Y198785D01*
Y202000D01*
G01X478000Y194000D02*
X474500D01*
G01X492000Y219000D02*
Y214731D01*
X492500Y214231D01*
Y212000D01*
G01D02*
X489000D01*
X487780Y213220D01*
X484980D01*
G01X483500Y247480D02*
X495440D01*
X497200Y245720D01*
X500500D01*
G01X492500Y266500D02*
Y263420D01*
X492000Y262920D01*
Y260000D01*
G01X484500Y255000D02*
Y259304D01*
X484980Y259785D01*
Y263000D01*
G01X474750Y254750D02*
X475000Y255000D01*
X478000D01*
G01X484980Y274220D02*
X488359D01*
X489580Y273000D01*
X492500D01*
G01X492000Y280000D02*
Y275731D01*
X492500Y275231D01*
Y273000D01*
G01X484980Y263000D02*
X488311D01*
X491811Y266500D01*
X492500D01*
G01X500500Y306720D02*
X497200D01*
X495440Y308480D01*
X483500D01*
G01X484500Y316000D02*
Y320304D01*
X484980Y320785D01*
Y324000D01*
G01X478000Y316000D02*
X474500D01*
G01X492000Y340000D02*
Y336731D01*
X492500Y336231D01*
Y334000D01*
G01X484980Y335220D02*
X488359D01*
X489580Y334000D01*
X492500D01*
G01X492000Y321000D02*
Y324769D01*
X492500Y325269D01*
Y327500D01*
G01D02*
X491811D01*
X488311Y324000D01*
X484980D01*
G01X500000Y10000D02*
Y14440D01*
X499500Y14940D01*
Y17240D01*
G01D02*
X502820D01*
X503580Y18000D01*
X506500D01*
G01X499500Y24720D02*
X503360D01*
X503580Y24500D01*
X506500D01*
G01D02*
X509769D01*
X510269Y24000D01*
X512500D01*
G01X515500Y46000D02*
X506500D01*
G01Y36000D02*
X515500D01*
G01X500000D02*
X496920D01*
X495420Y37500D01*
X492500D01*
G01X500000Y46000D02*
X497420D01*
X495420Y44000D01*
X492500D01*
G01X500000Y60000D02*
Y64440D01*
X499500Y64940D01*
Y67240D01*
G01D02*
X502820D01*
X503580Y68000D01*
X506500D01*
G01X499500Y74720D02*
X503360D01*
X503580Y74500D01*
X506500D01*
G01D02*
X509769D01*
X510269Y74000D01*
X512500D01*
G01X515500Y98000D02*
X506500D01*
G01Y88000D02*
X515500D01*
G01X492500Y89500D02*
X496269D01*
X497769Y88000D01*
X500000D01*
G01Y98000D02*
X497420D01*
X495420Y96000D01*
X492500D01*
G01X500500Y124720D02*
X504360D01*
X504580Y124500D01*
X507500D01*
G01D02*
X510769D01*
X511269Y124000D01*
X513500D01*
G01X501000Y110000D02*
Y114440D01*
X500500Y114940D01*
Y117240D01*
G01D02*
X503820D01*
X504580Y118000D01*
X507500D01*
G01X498500Y138000D02*
X510500D01*
G01X536500Y145000D02*
X532300Y149200D01*
X527963D01*
X526213Y147450D01*
X511600D01*
X510500Y146350D01*
Y138000D01*
G01X498500Y158000D02*
X499000Y158500D01*
X510500D01*
G01X536500Y155000D02*
X532300Y150800D01*
X527300D01*
X525550Y149050D01*
X511600D01*
X510500Y150150D01*
Y158500D01*
G01X501000Y170000D02*
Y174440D01*
X500500Y174940D01*
Y177240D01*
G01D02*
X503820D01*
X504580Y178000D01*
X507500D01*
G01X498500Y199000D02*
X510500D01*
G01X536500Y206000D02*
X532300Y210200D01*
X527463D01*
X525713Y208450D01*
X511600D01*
X510500Y207350D01*
Y199000D01*
G01X500500Y184720D02*
X504360D01*
X504580Y184500D01*
X507500D01*
G01D02*
X510769D01*
X511269Y184000D01*
X513500D01*
G01X498500Y219000D02*
X499000Y219500D01*
X510500D01*
G01X536500Y216000D02*
X532300Y211800D01*
X526800D01*
X525050Y210050D01*
X511600D01*
X510500Y211150D01*
Y219500D01*
G01X501000Y231000D02*
Y235440D01*
X500500Y235940D01*
Y238240D01*
G01D02*
X503820D01*
X504580Y239000D01*
X507500D01*
G01X500500Y245720D02*
X504360D01*
X504580Y245500D01*
X507500D01*
G01D02*
X510769D01*
X511269Y245000D01*
X513500D01*
G01X498500Y260000D02*
X510500D01*
G01X536500Y266000D02*
X532300Y270200D01*
X528463D01*
X527713Y269450D01*
X511600D01*
X510500Y268350D01*
Y260000D01*
G01X498500Y280000D02*
X499000Y280500D01*
X510500D01*
G01X536500Y276000D02*
X532300Y271800D01*
X527800D01*
X527050Y271050D01*
X511600D01*
X510500Y272150D01*
Y280500D01*
G01X500500Y299240D02*
Y296500D01*
X501000Y296000D01*
Y292000D01*
G01X500500Y306720D02*
X504360D01*
X504580Y306500D01*
X507500D01*
G01D02*
X510769D01*
X511269Y306000D01*
X513500D01*
G01X500500Y299240D02*
X504240D01*
X505000Y300000D01*
X507500D01*
G01X536500Y337000D02*
X532300Y332800D01*
X528300D01*
X527550Y332050D01*
X511600D01*
X510500Y333150D01*
Y341500D01*
G01Y321000D02*
X498500D01*
G01X536500Y327000D02*
X532300Y331200D01*
X528963D01*
X528213Y330450D01*
X511600D01*
X510500Y329350D01*
Y321000D01*
G01Y341500D02*
X500000D01*
X498500Y340000D01*
G01X536500Y47000D02*
X532300Y42800D01*
X528300D01*
X527500Y42000D01*
X521112D01*
X520012Y43100D01*
Y44900D01*
X518912Y46000D01*
X515500D01*
G01X536500Y37000D02*
X532300Y41200D01*
X528963D01*
X528163Y40400D01*
X521312D01*
X520012Y39100D01*
Y37100D01*
X518912Y36000D01*
X515500D01*
G01X536500Y99000D02*
X532300Y94800D01*
X529800D01*
X528800Y93800D01*
X521112D01*
X520012Y94900D01*
Y96900D01*
X518912Y98000D01*
X515500D01*
G01X536500Y89000D02*
X532300Y93200D01*
X530463D01*
X529463Y92200D01*
X521112D01*
X520012Y91100D01*
Y89100D01*
X518912Y88000D01*
X515500D01*
G54D101*
X436177Y388417D03*
X501177D03*
G54D111*
G01X354051Y209000D02*
X360500D01*
G01X360968Y210968D02*
X354051D01*
G01X360433Y244433D02*
X354051D01*
G54D102*
X463500Y374016D03*
Y400000D03*
X528500Y374016D03*
Y400000D03*
G54D112*
G01X112500Y347000D02*
Y357500D01*
X107000Y363000D01*
X96500D01*
G01X112894Y339000D02*
Y346606D01*
X112500Y347000D01*
G01X170500D02*
Y344248D01*
X170106Y343854D01*
Y339000D01*
G01X170500Y347000D02*
Y354000D01*
X179500Y363000D01*
X186500D01*
G01X212500D02*
X221500D01*
X228500Y356000D01*
Y347000D01*
G01X228894Y339000D02*
Y346606D01*
X228500Y347000D01*
G01X302500Y363000D02*
X291500D01*
X286500Y358000D01*
Y347000D01*
G01X286106Y339000D02*
Y346606D01*
X286500Y347000D01*
G54D10*
X-11500Y225500D03*
X63500Y-12000D03*
Y463000D03*
X175500Y138000D03*
X268500Y320000D03*
X277500Y463000D03*
X491500Y-12000D03*
Y463000D03*
X567500Y225500D03*
G54D103*
X462551Y362500D03*
X472000D03*
G54D113*
G01X77000Y36000D02*
X76008Y36992D01*
X67500D01*
G01X82500Y35000D02*
X78000D01*
X77000Y36000D01*
G01X283953Y140921D02*
X280579D01*
X280000Y141500D01*
G01X279500Y132500D02*
X278500Y131500D01*
G01X439000Y144000D02*
X438500D01*
X436500Y142000D01*
X435000D01*
G01Y162000D02*
X438500D01*
G01X435000Y182000D02*
X438500D01*
G54D20*
X12500Y431006D03*
X22500Y431000D03*
X56500D03*
X66500D03*
X536500Y27000D03*
Y47000D03*
Y37000D03*
Y89000D03*
Y79000D03*
Y99000D03*
Y145000D03*
Y135000D03*
Y155000D03*
Y196000D03*
Y216000D03*
Y206000D03*
Y256000D03*
Y276000D03*
Y266000D03*
Y317000D03*
Y337000D03*
Y327000D03*
G54D104*
X510500Y138000D03*
Y158500D03*
Y199000D03*
Y219500D03*
Y260000D03*
Y280500D03*
Y321000D03*
Y341500D03*
G54D11*
X8051Y8646D03*
G54D114*
G01X103500Y114000D02*
Y118500D01*
G01X110500Y114220D02*
X108519D01*
X108298Y114000D01*
X103500D01*
G01X117500Y84000D02*
X122500D01*
G01X132500Y114000D02*
X127500D01*
G01X139500Y84000D02*
X134500D01*
G01X139500Y114220D02*
X137519D01*
X137298Y114000D01*
X132500D01*
G54D105*
G01X17500Y380913D02*
Y376500D01*
X16000Y375000D01*
X10500D01*
G01X27343Y380913D02*
Y376658D01*
X29000Y375000D01*
X34500D01*
G01X26563Y390000D02*
Y386446D01*
X26163Y386046D01*
X24450D01*
X24050Y385646D01*
Y384417D01*
X23221Y383588D01*
Y381313D01*
X23621Y380913D01*
X27343D01*
G01X24555Y406500D02*
X24155Y406100D01*
Y404872D01*
X24050Y404766D01*
Y394354D01*
X24450Y393954D01*
X26163D01*
X26563Y393554D01*
Y390000D01*
G01X19937D02*
Y386446D01*
X20337Y386046D01*
X22050D01*
X22450Y385646D01*
Y385080D01*
X21621Y384251D01*
Y381313D01*
X21221Y380913D01*
X17500D01*
G01X22155Y406500D02*
X22555Y406100D01*
Y405534D01*
X22450Y405429D01*
Y394354D01*
X22050Y393954D01*
X20337D01*
X19937Y393554D01*
Y390000D01*
G01X27095Y406500D02*
X24555D01*
G01D02*
X24155Y406900D01*
Y409608D01*
X22263Y411500D01*
X20763D01*
X18299Y413963D01*
Y430037D01*
X18300Y430602D01*
Y430603D01*
X18700Y431002D01*
X22500Y431000D01*
G01X19615Y406500D02*
X22155D01*
G01D02*
X22555Y406900D01*
Y408945D01*
X21600Y409900D01*
X20100D01*
X16699Y413300D01*
Y430038D01*
X16700Y430603D01*
X16300Y431003D01*
X12500Y431006D01*
G01X61500Y377100D02*
Y380550D01*
X61900Y380950D01*
X62800D01*
X63200Y381350D01*
Y381916D01*
X61500Y383616D01*
Y390500D01*
X60700Y391300D01*
Y393646D01*
X60300Y394046D01*
X58337D01*
X57937Y394446D01*
Y398000D01*
G01X66500Y377100D02*
Y380550D01*
X66100Y380950D01*
X65200D01*
X64800Y381350D01*
Y382578D01*
X63100Y384278D01*
Y391163D01*
X62300Y391963D01*
Y393646D01*
X62700Y394046D01*
X64663D01*
X65063Y394446D01*
Y398000D01*
G01X57937D02*
Y401554D01*
X58337Y401954D01*
X60155D01*
X60555Y402354D01*
Y406100D01*
X60155Y406500D01*
G01D02*
X60555Y406900D01*
Y409318D01*
X64500Y413263D01*
Y421500D01*
X60700Y425300D01*
Y430600D01*
X60300Y431000D01*
X56500D01*
G01X60155Y406500D02*
X57615D01*
G01X65095D02*
X62555D01*
G01D02*
X62155Y406100D01*
Y402499D01*
X62700Y401954D01*
X64663D01*
X65063Y401554D01*
Y398000D01*
G01X66500Y431000D02*
X62700D01*
X62300Y430600D01*
Y425963D01*
X66100Y422163D01*
Y412600D01*
X62155Y408655D01*
Y406900D01*
X62555Y406500D01*
G54D21*
X26161Y61402D03*
G54D12*
G01X31500Y140500D02*
X28000D01*
X25500Y138000D01*
Y134500D01*
X24000Y133000D01*
X19500D01*
G01X29500Y186500D02*
X26870D01*
X21370Y181000D01*
X19500D01*
G01X44000Y139500D02*
X40630D01*
X39630Y140500D01*
X38000D01*
G01X44000Y139500D02*
X50500D01*
G01X43110Y128500D02*
X47000D01*
X48500Y130000D01*
Y133500D01*
X50500Y135500D01*
Y139500D01*
G01X44110Y175000D02*
X49000D01*
G01X90500Y177000D02*
X57000D01*
X55000Y175000D01*
X49000D01*
G01X42500Y186500D02*
X45856D01*
G01D02*
X49000D01*
G01X36500D02*
X42500D01*
G01X179000Y194000D02*
X171500Y186500D01*
X160000D01*
X152250Y178750D01*
X120750D01*
G01X193933Y58500D02*
Y28543D01*
G01X280000Y141500D02*
X271000Y150500D01*
X232000D01*
X193933Y112433D01*
Y58500D01*
G01X223067Y20669D02*
Y26500D01*
X223000Y26567D01*
Y32000D01*
X215000Y40000D01*
Y83500D01*
X212000Y86500D01*
Y123000D01*
X235000Y146000D01*
X271000D01*
G01X223067Y94500D02*
Y57677D01*
G01X278500Y131500D02*
X268750Y121750D01*
X238250D01*
X223067Y106567D01*
Y94500D01*
G01X396720Y83520D02*
X393755D01*
G01X393735Y83500D02*
X393000D01*
X391500Y85000D01*
Y89500D01*
X390000Y91000D01*
X385500D01*
G01X397720Y112520D02*
X394755D01*
G01X394735Y112500D02*
X393500D01*
X392500Y113500D01*
Y118500D01*
X391000Y120000D01*
X386500D01*
G01X413500Y91000D02*
X408000D01*
X400520Y83520D01*
X396720D01*
G01X413500Y91000D02*
X426500D01*
G01Y112000D02*
X413500D01*
G01D02*
X410338D01*
X409818Y112520D01*
X397720D01*
X5500Y15000D03*
Y25000D03*
Y35000D03*
Y45000D03*
Y55000D03*
Y67000D03*
Y87000D03*
Y77000D03*
Y107000D03*
Y97000D03*
X10000Y98000D03*
X5500Y126000D03*
Y116000D03*
Y136000D03*
Y146000D03*
Y156000D03*
Y176000D03*
Y166000D03*
Y196000D03*
Y186000D03*
Y216000D03*
Y206000D03*
Y236000D03*
Y226000D03*
Y256000D03*
Y246000D03*
Y276000D03*
Y266000D03*
Y296000D03*
Y286000D03*
X10500Y288000D03*
X5500Y316000D03*
Y306000D03*
X10500Y316000D03*
Y302000D03*
X5500Y336000D03*
Y326000D03*
X10500Y330000D03*
X5500Y356000D03*
Y346000D03*
Y366000D03*
Y376000D03*
X10500Y364500D03*
X5500Y386000D03*
X12063Y394937D03*
X5500Y406000D03*
Y396000D03*
Y426000D03*
Y416000D03*
Y446000D03*
Y436000D03*
X13500Y5000D03*
X23500D03*
X28000Y128500D03*
X13000Y152000D03*
X28500Y175000D03*
X12500Y206000D03*
Y229000D03*
Y252000D03*
Y275000D03*
X22520Y343500D03*
X30500Y343000D03*
Y398500D03*
X23355Y419355D03*
X25500Y446000D03*
X15500D03*
X43500Y5000D03*
X33500D03*
X37000Y40500D03*
X46500Y61402D03*
X50000Y84815D03*
X44000Y86000D03*
X49500Y70000D03*
X39000Y74000D03*
X50020Y98020D03*
X47500Y90000D03*
X39500Y109500D03*
X44000Y150000D03*
X50500D03*
X49500Y164500D03*
X39500Y147500D03*
X49000Y175000D03*
X42500Y196000D03*
X49000D03*
X39500Y199500D03*
X45856Y186500D03*
X39500Y222500D03*
X49500Y245500D03*
Y268500D03*
X44020Y293500D03*
X47500Y289500D03*
X40000Y308000D03*
X41500Y321500D03*
X32500Y329000D03*
X36500Y322000D03*
X42020Y363020D03*
X50000Y362500D03*
X34500Y364500D03*
X50063Y392063D03*
X34437Y394937D03*
X35500Y446000D03*
X45500D03*
X44500Y441000D03*
X53500Y5000D03*
X63500D03*
Y17898D03*
X63653Y45654D03*
X63555Y58055D03*
X60000Y75000D03*
X53563Y81563D03*
X56500Y97500D03*
X59500D03*
X64000Y123000D03*
X58000D03*
X61000Y126000D03*
X64000Y129000D03*
X58000D03*
X68500Y137000D03*
X56500Y138500D03*
X58000Y149000D03*
X53750Y164750D03*
X58500Y165500D03*
X56980Y213980D03*
Y259980D03*
X67000Y271000D03*
X52000Y293500D03*
X64500Y329500D03*
X54000Y342000D03*
X69500Y387000D03*
X61355Y419355D03*
X55500Y446000D03*
X65500D03*
X83500Y5000D03*
X73500D03*
X77000Y36000D03*
X79500Y85000D03*
X73500Y111000D03*
X74500Y115500D03*
X77500Y111000D03*
X72500Y124298D03*
X72158Y121158D03*
X75500Y140000D03*
X73000Y136000D03*
Y132000D03*
X77500Y131000D03*
X74562Y154562D03*
X72500Y151500D03*
X70500Y148500D03*
X88250Y234250D03*
X85000Y234500D03*
X72500Y256240D03*
X76000Y252500D03*
X78727Y258000D03*
X84000Y318500D03*
X82000Y311500D03*
X70500Y315000D03*
X71000Y329500D03*
X78000Y323500D03*
X82500Y332500D03*
X73000Y325500D03*
X81000Y348480D03*
X76000Y357000D03*
X88500Y373000D03*
X76000Y365000D03*
X74600Y377100D03*
X72937Y392063D03*
X75500Y446000D03*
X85500D03*
X93500Y5000D03*
X103500D03*
X91980Y24020D03*
X91000Y27760D03*
X106000Y20280D03*
X93000Y35000D03*
X91980Y46020D03*
X90000Y42280D03*
X93000Y57000D03*
X98500Y79500D03*
X95500Y85000D03*
X103500Y103500D03*
X89500Y102500D03*
X106000Y91000D03*
X89500Y96000D03*
X93000Y92000D03*
X103500Y118500D03*
X106500Y135000D03*
Y144500D03*
X103500Y129000D03*
Y142500D03*
X100500Y133000D03*
Y140500D03*
X98500Y162000D03*
X106626Y182874D03*
X98068Y165932D03*
X101500Y166000D03*
X94500Y180000D03*
X90500Y170000D03*
Y173500D03*
X107500Y166000D03*
X104500D03*
X90500Y177000D03*
X97177Y189000D03*
X101902D03*
X106626D03*
X93000D03*
X90000Y204000D03*
X91000Y232500D03*
X100563Y259563D03*
X106626Y274874D03*
X94500Y272000D03*
X93500Y268000D03*
X106626Y281000D03*
X101902D03*
X97177D03*
X104500Y313500D03*
X102500Y311000D03*
X98500Y308500D03*
X96500Y306000D03*
X106000Y352000D03*
X95500Y446000D03*
X105500D03*
X113500Y5000D03*
X123500D03*
X122500Y84000D03*
X127500Y114000D03*
X121500Y129000D03*
X111350Y182850D03*
X113000Y166000D03*
X117500Y166500D03*
X110000Y166000D03*
X120750Y178750D03*
X111350Y189000D03*
X122500Y201000D03*
X123000Y256500D03*
X111350Y274850D03*
Y281000D03*
X110500Y299000D03*
X108500Y296500D03*
X116500Y304000D03*
X114500Y301500D03*
X120500Y406000D03*
X115500Y446000D03*
X125500D03*
X133500Y5000D03*
X143500D03*
X128480Y86480D03*
X134500Y84000D03*
X136500Y91000D03*
X132500Y103500D03*
X134000Y172661D03*
X131000Y185951D03*
X145000Y202634D03*
X141000Y185000D03*
X143500Y198500D03*
X141000Y188500D03*
Y192000D03*
X143000Y204799D03*
X141000Y208000D03*
X129000Y219000D03*
Y224000D03*
X138500Y255000D03*
X128000Y261000D03*
X138500Y262480D03*
X132000Y289000D03*
X135500Y284000D03*
X139000Y286268D03*
X142500Y282000D03*
X129500Y367500D03*
X132500Y359500D03*
X133000Y388500D03*
X131500Y381500D03*
X130000Y396500D03*
X132000Y410500D03*
X135500Y446000D03*
X145500D03*
X163500Y5000D03*
X153500D03*
X157500Y20500D03*
X150500Y129000D03*
X152000Y168128D03*
X147000Y200665D03*
X154500Y190000D03*
X159000Y195500D03*
X151000Y209000D03*
X154500Y211000D03*
X147500Y217000D03*
X151000Y213026D03*
X148000Y223500D03*
X147500Y268000D03*
X165500Y271000D03*
X152000Y268500D03*
X153500Y284000D03*
Y287500D03*
X157500D03*
X161000D03*
X155000Y302500D03*
X157500Y326000D03*
X161000Y325500D03*
X149768Y339000D03*
X159500Y370240D03*
X147500Y359500D03*
X148000Y388500D03*
X160000Y399240D03*
X162500Y421500D03*
X166000D03*
X155500Y446000D03*
X165500D03*
X181500Y5000D03*
X173500D03*
X174411Y16020D03*
X167500Y27000D03*
X183500Y62000D03*
X175000Y154500D03*
X169500Y159500D03*
X166500Y157000D03*
X184000Y167000D03*
X180000Y181000D03*
X177474Y183974D03*
X171000Y184000D03*
X178250Y174750D03*
X171000Y198000D03*
X166500Y195000D03*
X179854Y221354D03*
X180000Y230803D03*
X181500Y225000D03*
X169000Y223500D03*
X180500Y234500D03*
X172500Y267000D03*
X183500Y299500D03*
X183750Y307750D03*
X184000Y312500D03*
X183000Y316000D03*
X179500Y315500D03*
X183000Y319500D03*
X177000Y352000D03*
X175500Y446000D03*
X200020Y161500D03*
X192980Y167000D03*
X187000D03*
X195500Y183500D03*
X196000Y180000D03*
X203240Y199000D03*
X189067Y199500D03*
X194500Y203000D03*
X192550Y201000D03*
X189000Y186500D03*
X194000D03*
X191500Y188500D03*
X196500Y205000D03*
X203500Y220500D03*
X195500Y217500D03*
X198000Y220500D03*
X201500Y217500D03*
X192000Y216500D03*
X189500Y219000D03*
X186000D03*
X203500Y245500D03*
X202500Y257500D03*
X190900Y256900D03*
X186500Y257500D03*
Y267500D03*
X201665Y268000D03*
X200000Y289500D03*
X203000Y292500D03*
X198000D03*
X191500Y317500D03*
X189500Y305500D03*
X187500Y303500D03*
X185500Y301500D03*
X194000Y306500D03*
X187500Y310000D03*
X194000Y320000D03*
X203500Y330000D03*
X194500Y365500D03*
X199500Y364500D03*
X185500Y446000D03*
X195500D03*
X213000Y164000D03*
X205000Y159500D03*
X209500Y152000D03*
X207000Y154500D03*
X222000Y169500D03*
X213000Y168000D03*
X212000Y176500D03*
Y173000D03*
X215500Y202000D03*
X219000Y199500D03*
X218514Y188486D03*
X211114Y198886D03*
X211500Y204500D03*
X220000Y220500D03*
X223000Y229500D03*
Y232000D03*
X212500Y258000D03*
X210000Y255500D03*
X207250Y245750D03*
X223500Y252000D03*
Y249500D03*
Y247000D03*
X207000Y254500D03*
X218988Y257512D03*
X215839Y256000D03*
X207500Y268500D03*
X214500Y289000D03*
X206500Y290000D03*
X218500Y290500D03*
X213000Y292500D03*
X209500D03*
X218500Y318000D03*
X217000Y315500D03*
X215000Y313000D03*
X213000Y310500D03*
X217000Y303500D03*
X216500Y307000D03*
X211500Y325500D03*
X222000Y352500D03*
X205500Y446000D03*
X215500D03*
X236000Y99500D03*
X236500Y138000D03*
Y141000D03*
X229000Y158000D03*
X228500Y169000D03*
X242500Y180000D03*
X239500Y183000D03*
X236000Y201000D03*
X240000Y198000D03*
X233500Y203000D03*
X227500Y205000D03*
X224500Y206000D03*
X230500Y204000D03*
X236000Y205606D03*
X236500Y257500D03*
X233500D03*
X238024Y244976D03*
X235500Y242500D03*
X239281Y261000D03*
X232000Y244500D03*
X227750Y256000D03*
X242000Y264000D03*
X229000Y270000D03*
X230000Y298500D03*
X233000D03*
X235500Y305000D03*
X233500Y308000D03*
X235500Y311000D03*
X229500Y303000D03*
X242000Y331000D03*
X226500Y325500D03*
X225500Y446000D03*
X235500D03*
X258000Y21000D03*
Y17500D03*
X248000Y94500D03*
X250000Y105000D03*
X255500Y126500D03*
X256000Y159000D03*
X254500Y163500D03*
X254000Y166500D03*
X247500Y200000D03*
X250500Y195500D03*
X245500D03*
X257500Y186000D03*
X259500Y193000D03*
X257500Y190000D03*
X252773Y200500D03*
X251000Y189500D03*
X261000Y207000D03*
X251500Y218500D03*
X253000Y216000D03*
X247752Y240252D03*
X251500Y249701D03*
Y246000D03*
X247949Y246551D03*
X244500Y261500D03*
Y292500D03*
X257500Y288000D03*
Y285000D03*
X254000Y310500D03*
X243500Y327500D03*
X251500Y326000D03*
X249500Y322500D03*
X247000Y325000D03*
X246500Y349500D03*
X249500Y356000D03*
X254000Y363500D03*
X252670Y393000D03*
X250500Y381000D03*
X249500Y410500D03*
X245500Y446000D03*
X255500D03*
X272000Y17500D03*
Y21000D03*
X274000Y30500D03*
X269500Y94500D03*
X268000Y105000D03*
X277904Y119904D03*
X277500Y160000D03*
X265000Y183500D03*
X278020Y189000D03*
X269000Y200500D03*
X264500Y188500D03*
X268000Y189000D03*
X278500Y213520D03*
X279500Y222500D03*
Y219500D03*
Y241500D03*
X273000Y280000D03*
X270500Y277500D03*
X268000Y275000D03*
X262500Y285000D03*
X277500Y369740D03*
X266000Y359000D03*
X265500Y388500D03*
X277000Y399240D03*
X265500Y446000D03*
X275500D03*
X291000Y95500D03*
X293500Y136000D03*
X289000Y131500D03*
X293500D03*
X298000D03*
X289000Y136000D03*
X298000D03*
X289000Y140500D03*
X293500D03*
X298000D03*
X285000Y160442D03*
X291000Y214500D03*
X291500Y221000D03*
X283500Y241500D03*
X291500Y226000D03*
X300250Y240250D03*
X296250Y249250D03*
X298500Y252000D03*
X291500Y269000D03*
Y272500D03*
X282000Y290500D03*
X283000Y294000D03*
X285500Y287500D03*
X297000Y314500D03*
X293000D03*
X297000Y310500D03*
X293000D03*
Y330500D03*
X297000D03*
Y326500D03*
X293000D03*
Y352000D03*
X281500Y430000D03*
X286375Y430125D03*
X285500Y446000D03*
X295500D03*
X308000Y21000D03*
Y17500D03*
X311000Y95500D03*
X306000Y139000D03*
X308500Y141000D03*
X311000Y142500D03*
X314000Y143000D03*
X317000D03*
X311000Y137000D03*
X314000D03*
X317000D03*
X310000Y146500D03*
X309000Y158000D03*
X302500Y178500D03*
X310000Y182000D03*
X313000Y183500D03*
X311000Y178000D03*
X301250Y188750D03*
X311000Y189000D03*
X306000Y221000D03*
X301500Y212000D03*
Y208500D03*
X309000Y216000D03*
X318000Y209500D03*
X306000Y228000D03*
X308500Y224000D03*
X305000Y236000D03*
X307500Y234000D03*
X302500Y238000D03*
X310000Y229000D03*
X302500Y253500D03*
X307500Y269000D03*
X306000Y276000D03*
X314000Y294500D03*
X308000D03*
X302000D03*
X314000Y289500D03*
X308000D03*
X302000D03*
X301000Y314500D03*
Y310500D03*
X314000Y299500D03*
X308000D03*
X302000D03*
X301000Y330500D03*
Y326500D03*
X305000Y330500D03*
Y326500D03*
X319500Y354500D03*
X315500D03*
Y351000D03*
X317500Y348000D03*
Y341000D03*
X315500Y358000D03*
X319500D03*
X305500Y446000D03*
X315500D03*
X322000Y21000D03*
Y17500D03*
X324595Y107000D03*
X323500Y91000D03*
X335500Y126000D03*
X339000Y140000D03*
X320000Y143000D03*
X323000D03*
X320000Y137000D03*
X323000D03*
X327000Y140000D03*
X328000Y159500D03*
X321500Y160000D03*
X325480Y221980D03*
X338000Y218500D03*
X322000Y209500D03*
X333980Y235980D03*
X338220Y225720D03*
X334500Y239720D03*
Y232240D03*
X325589Y249980D03*
X332500Y258500D03*
X334760Y246240D03*
X335500Y272000D03*
X337020Y265980D03*
X322500Y307000D03*
X339000Y303000D03*
X328000D03*
X334000Y344000D03*
X330500D03*
X330000Y348000D03*
X326500D03*
X323000Y348500D03*
X320500Y351000D03*
X336500Y348000D03*
X333000D03*
X327000Y344000D03*
X323500D03*
X320000Y345500D03*
X337500Y344000D03*
X323500Y341000D03*
X337000Y361000D03*
X332500Y374000D03*
X321500Y362500D03*
X324000Y381500D03*
Y386500D03*
X332000Y376500D03*
X325500Y446000D03*
X335500D03*
X350000Y21000D03*
Y17500D03*
X357000Y91000D03*
X349000Y96500D03*
X341500Y91000D03*
X349000Y119000D03*
X347500Y138000D03*
X344500D03*
X339500Y161000D03*
X347500Y201500D03*
X348500Y214000D03*
Y223000D03*
X350000Y258500D03*
X353000Y274500D03*
X356500D03*
Y277500D03*
X353000D03*
X350000Y262000D03*
X353000Y285500D03*
X356500D03*
X353000Y281500D03*
X356500D03*
X353000Y290000D03*
X356500D03*
X353000Y293500D03*
X356500D03*
Y296500D03*
X353000D03*
X340000Y309500D03*
X343500D03*
X347000D03*
X340000Y312500D03*
X343500D03*
X347000D03*
Y316500D03*
X343500D03*
X340000D03*
Y331500D03*
X343500D03*
X347000D03*
X340000Y328500D03*
X343500D03*
X347000D03*
X343500Y325000D03*
Y321000D03*
X347000D03*
Y325000D03*
X340000Y321000D03*
Y325000D03*
X349000Y343000D03*
X343000Y339500D03*
Y345500D03*
X340500Y348000D03*
X345500Y343000D03*
X340500Y342000D03*
X346500Y339000D03*
X350000D03*
X345500Y446000D03*
X355500D03*
X369500Y5000D03*
X364000Y21000D03*
Y17500D03*
X372500Y106500D03*
X362000Y109000D03*
X361476Y129476D03*
X371500Y153000D03*
Y172000D03*
X376000Y187760D03*
X362000Y206000D03*
X366000D03*
X370000D03*
Y249500D03*
X366000D03*
X362000D03*
X360000Y274500D03*
Y277500D03*
Y285500D03*
Y281500D03*
Y290000D03*
Y293500D03*
Y296500D03*
X361000Y311000D03*
X363500Y394500D03*
X368000D03*
Y390000D03*
X363500D03*
Y385500D03*
X368000D03*
Y381000D03*
X363500D03*
X365500Y446000D03*
X375500D03*
X379500Y5000D03*
X389500D03*
X379500Y87260D03*
X385500Y80500D03*
X385000Y101500D03*
X396000Y105000D03*
X378500Y93000D03*
Y107500D03*
X381500Y116260D03*
X378500Y117000D03*
X386500Y109500D03*
X378500Y131500D03*
X386000Y130500D03*
X382500Y154500D03*
Y171500D03*
Y188500D03*
X380500Y272500D03*
X393000Y269500D03*
Y272500D03*
X394500Y316500D03*
Y313000D03*
Y309500D03*
X390500Y320000D03*
X388000D03*
X394500Y334000D03*
Y330500D03*
Y327000D03*
Y323500D03*
Y320000D03*
X392000Y338500D03*
X385500Y446000D03*
X395500D03*
X399500Y5000D03*
X409500D03*
X408500Y56500D03*
X403500Y67000D03*
X401000Y53500D03*
X400000Y144000D03*
X397000Y134000D03*
X400000Y184000D03*
X399500Y165500D03*
X402000Y220500D03*
X398500Y316500D03*
Y313000D03*
Y334000D03*
Y330500D03*
Y327000D03*
Y323500D03*
Y320000D03*
X406500Y355500D03*
X409500Y352000D03*
X413500Y342000D03*
X414000Y338000D03*
X408000Y386000D03*
X412500D03*
Y394000D03*
X408000D03*
X406000Y390000D03*
X405500Y446000D03*
X415500D03*
X419500Y5000D03*
X429500D03*
X419240Y50500D03*
X431500Y65500D03*
X420000Y81000D03*
Y102000D03*
X433500Y370500D03*
X432500Y390500D03*
Y386000D03*
X428000D03*
Y390500D03*
X419000Y390000D03*
X417000Y394000D03*
Y386000D03*
X433500Y420000D03*
X425500Y446000D03*
X439500Y5000D03*
X449500D03*
X452000Y10000D03*
Y17500D03*
Y12500D03*
X443480Y68000D03*
X452000Y69500D03*
X453000Y84500D03*
Y125500D03*
X439000Y144000D03*
X452000Y140500D03*
X438500Y162000D03*
Y182000D03*
X453000Y185500D03*
X452500Y200500D03*
X453000Y246500D03*
X448500Y291500D03*
X453000Y307500D03*
X438500Y354500D03*
X440500Y348500D03*
X449000Y362000D03*
X438500Y370500D03*
Y367000D03*
X440000Y390500D03*
Y386000D03*
X436500Y388500D03*
X444500Y386000D03*
Y390500D03*
X449500Y386000D03*
Y390500D03*
X451000Y397000D03*
Y400500D03*
Y404000D03*
X447000Y397000D03*
Y400500D03*
Y404000D03*
X448500Y418500D03*
X435500Y446000D03*
X445500D03*
X462000Y5000D03*
X469500D03*
X468500Y26000D03*
X454500Y32500D03*
X457500Y45000D03*
X458000Y51500D03*
X455000Y59000D03*
X458500D03*
X469500Y78000D03*
X458000Y103500D03*
X457500Y97000D03*
X456000Y115000D03*
X459500D03*
X470000Y134000D03*
X458500Y159500D03*
X457500Y153000D03*
X456000Y175000D03*
X459500D03*
X471000Y194000D03*
X459000Y219500D03*
X457500Y213000D03*
X456000Y236000D03*
X459500D03*
X470500Y255000D03*
X457500Y274000D03*
X456500Y268000D03*
X459000Y280500D03*
X456000Y297000D03*
X459500D03*
X470000Y316000D03*
X457500Y335000D03*
X459000Y341500D03*
X458000Y354500D03*
X460500Y350500D03*
X458000Y366000D03*
X455500Y363500D03*
X458000Y361000D03*
X455500Y358500D03*
X459500Y386000D03*
Y390500D03*
X454500Y386000D03*
Y390500D03*
X473520Y414089D03*
X469780Y414280D03*
X459000Y404000D03*
Y400500D03*
Y397000D03*
X455000D03*
Y400500D03*
Y404000D03*
X455500Y446000D03*
X465500D03*
X479500Y5000D03*
X489500D03*
Y10000D03*
X488000Y15000D03*
X480000Y29500D03*
X489500Y60000D03*
X487000Y66740D03*
X481240Y81740D03*
X490500Y110000D03*
X487500Y122740D03*
X481240Y137500D03*
X492000Y132000D03*
Y163000D03*
X489000Y184000D03*
X481240Y197000D03*
X492000Y192000D03*
X490500Y231000D03*
X492000Y224000D03*
X487500Y243740D03*
X481240Y258000D03*
X492000Y253000D03*
X490500Y292000D03*
X492000Y285000D03*
X487740Y304740D03*
X492000Y314000D03*
X481240Y319500D03*
X485000Y341500D03*
X474000Y347500D03*
Y351000D03*
Y354500D03*
X475500Y342000D03*
X479000D03*
X492000Y347000D03*
X488000Y386000D03*
Y390500D03*
X483000Y386000D03*
Y390500D03*
X478000Y386000D03*
Y390500D03*
X477260Y414240D03*
X475500Y446000D03*
X485500D03*
X499500Y5000D03*
X509500D03*
X495000Y20980D03*
X500000Y29000D03*
Y53000D03*
X495500Y70980D03*
X500000Y81000D03*
Y105000D03*
X496500Y120980D03*
X496000Y180980D03*
X494500Y165000D03*
X496500Y241980D03*
X496000Y302980D03*
X503500Y370500D03*
X498500D03*
X508500D03*
X497500Y390500D03*
Y386000D03*
X501500Y388500D03*
X505000Y386000D03*
Y390500D03*
X493000Y386000D03*
Y390500D03*
X509500Y385500D03*
Y390000D03*
X512000Y397000D03*
Y400500D03*
Y404000D03*
X498500Y420000D03*
X495500Y446000D03*
X505500D03*
X529500Y5000D03*
X519500D03*
X517500Y28500D03*
X520500D03*
X517500Y78500D03*
X520500D03*
X518500Y128500D03*
X521500D03*
X518500Y188500D03*
X521500D03*
X518500Y249500D03*
X521500D03*
X518500Y310500D03*
X521500D03*
X514500Y385500D03*
Y390000D03*
X519500Y385500D03*
Y390000D03*
X524500Y385500D03*
Y390000D03*
X518500Y414500D03*
X516000Y400500D03*
Y397000D03*
Y404000D03*
X524000Y400500D03*
Y397000D03*
X520000D03*
Y400500D03*
Y404000D03*
X524000D03*
X531000Y419500D03*
X515500Y446000D03*
X525500D03*
X550500Y10000D03*
X539500Y5000D03*
X549500D03*
X550500Y20000D03*
Y30000D03*
Y40000D03*
Y50000D03*
Y60000D03*
Y80000D03*
Y70000D03*
Y90000D03*
Y100000D03*
X538500Y106000D03*
X550500Y110000D03*
Y120000D03*
Y130000D03*
Y140000D03*
Y150000D03*
Y160000D03*
Y180000D03*
Y170000D03*
Y190000D03*
Y200000D03*
Y210000D03*
Y220000D03*
Y230000D03*
Y240000D03*
Y250000D03*
Y260000D03*
Y270000D03*
Y280000D03*
Y290000D03*
Y300000D03*
Y310000D03*
Y320000D03*
Y328500D03*
Y351000D03*
X545500Y357000D03*
X550500Y341000D03*
X532500Y352000D03*
X550500Y361000D03*
Y371000D03*
Y381000D03*
Y391000D03*
X546500Y381500D03*
X550500Y401000D03*
Y411000D03*
X538520Y413980D03*
X544000Y397000D03*
X542260Y414240D03*
X550500Y431000D03*
Y421000D03*
Y441000D03*
X535500Y446000D03*
X545500D03*
G54D30*
X32500Y430994D03*
G54D115*
G01X165500Y317748D02*
Y322163D01*
X168236Y324900D01*
X184479D01*
X185540Y325960D01*
G01X202839Y324980D02*
X198339D01*
X196298Y327021D01*
X186600D01*
X185540Y325960D01*
G01X426500Y132000D02*
Y140000D01*
X428500Y142000D01*
G01D02*
Y150000D01*
X426500Y152000D01*
G01D02*
Y160000D01*
X428500Y162000D01*
G01D02*
Y170000D01*
X426500Y172000D01*
G01D02*
Y180000D01*
X428500Y182000D01*
G01X448500Y438000D02*
Y429250D01*
X450750Y427000D01*
G01X458500Y438000D02*
Y428250D01*
X457250Y427000D01*
G01X513500Y438000D02*
Y428250D01*
X514750Y427000D01*
G01X523500Y438000D02*
Y429250D01*
X521250Y427000D01*
G54D106*
G01X3611Y8646D02*
X8051D01*
G01D02*
X12492D01*
G01X8051Y5386D02*
Y8646D01*
G01D02*
Y11905D01*
G01X16135Y61402D02*
X9823D01*
G01X3611D02*
X9823D01*
G01Y58733D02*
Y61402D01*
G01D02*
Y64070D01*
G01X27000Y78000D02*
Y77311D01*
X23689Y74000D01*
X14453D01*
X10020Y78433D01*
Y79220D01*
G01Y93000D02*
Y96753D01*
X10000Y96772D01*
Y98000D01*
G01D02*
X9413Y98587D01*
Y104000D01*
G01Y152000D02*
X13000D01*
G01X8941Y206000D02*
X12500D01*
G01X8941Y229000D02*
X12500D01*
G01X8941Y252000D02*
X12500D01*
G01X8941Y275000D02*
X12500D01*
G01X10500Y294000D02*
Y288000D01*
G01Y322000D02*
Y316000D01*
G01Y308000D02*
Y302000D01*
G01Y336000D02*
Y330000D01*
G01X17500Y363000D02*
Y367000D01*
X16000Y368500D01*
X10500D01*
G01D02*
Y364500D01*
G01X19500Y70000D02*
Y64000D01*
X17000Y61500D01*
X16233D01*
G01D02*
X16135Y61402D01*
G01X26161D02*
Y61795D01*
X29500Y65134D01*
Y70000D01*
G01D02*
X39000D01*
G01X17500Y79220D02*
Y80008D01*
X23492Y86000D01*
X27000D01*
G01X17500Y93000D02*
X24019D01*
X25019Y94000D01*
X27000D01*
G01X16500Y104000D02*
X33000D01*
G01X31890Y124760D02*
X31509Y125141D01*
X28320D01*
X25000Y128461D01*
X23558D01*
X22978Y127882D01*
X19500D01*
G01X31890Y128500D02*
X28000D01*
G01X31890Y132240D02*
X27379D01*
X25000Y129861D01*
X23558D01*
X22978Y130441D01*
X19500D01*
G01X16500Y152000D02*
X33000D01*
G01X28500Y175000D02*
X32890D01*
G01X30000Y186500D02*
X29500D01*
G01X17587Y294000D02*
X26000D01*
G01X17587Y308000D02*
X26000D01*
G01X17587Y336000D02*
X26000D01*
G01X17587Y322000D02*
X26000D01*
G01X22520Y347339D02*
Y343500D01*
G01X34500Y343000D02*
X30500D01*
G01X51500Y335100D02*
Y345500D01*
X41000Y356000D01*
X26260D01*
G01X27343Y363000D02*
X26260Y361918D01*
Y356000D01*
G01X46500Y335100D02*
Y344500D01*
X39500Y351500D01*
X20500D01*
X18780Y353220D01*
Y356000D01*
G01X17500Y363000D02*
X18780Y361720D01*
Y356000D01*
G01X34500Y368500D02*
X29090D01*
X27343Y366753D01*
Y363000D01*
G01X12063Y394937D02*
Y390000D01*
G01X19750Y398500D02*
X15626D01*
X12063Y394937D01*
G01X26250Y398500D02*
X30500D01*
G01X23355Y415161D02*
Y419355D01*
G01X50571Y61402D02*
X46500D01*
G01X68500Y137000D02*
Y139500D01*
X71500Y142500D01*
X78000D01*
X100500Y120000D01*
Y72000D01*
X93766Y65266D01*
X41064D01*
X39000Y67330D01*
Y70000D01*
G01X44000Y86000D02*
X33500D01*
G01X47500Y90000D02*
Y81000D01*
X44500Y78000D01*
X33500D01*
G01X45500Y70000D02*
X49500D01*
G01X39000D02*
Y74000D01*
G01X33500Y94000D02*
X47000D01*
X50000Y91000D01*
Y84815D01*
G01X39500Y109500D02*
Y104000D01*
G01X51000Y112000D02*
Y108635D01*
X50020Y107654D01*
Y104000D01*
G01X53500Y127063D02*
X50927D01*
X48624Y124760D01*
X43110D01*
G01Y132240D02*
X40740D01*
X38500Y130000D01*
Y124099D01*
X41099Y121500D01*
X48025D01*
X51619Y125094D01*
X53500D01*
G01X44000Y146000D02*
Y150000D01*
G01X39500Y147500D02*
Y152000D01*
G01X90500Y173500D02*
X58500D01*
X49500Y164500D01*
G01X42500Y193000D02*
Y196000D01*
G01X49000Y193000D02*
Y196000D01*
G01X44500Y199500D02*
X39500D01*
G01X36500Y206000D02*
X44500D01*
G01X61500Y210240D02*
X54740D01*
X50500Y206000D01*
X44500D01*
G01Y222500D02*
X39500D01*
G01X36500Y229000D02*
X44500D01*
G01X61500Y217720D02*
X55780D01*
X53500Y220000D01*
Y225720D01*
X50220Y229000D01*
X44500D01*
G01Y245500D02*
X49500D01*
G01X36500Y252000D02*
X44500D01*
G01X61500Y256240D02*
X55740D01*
X51500Y252000D01*
X44500D01*
G01Y268500D02*
X49500D01*
G01X61500Y263720D02*
X55780D01*
X53500Y266000D01*
Y271000D01*
X49500Y275000D01*
X44500D01*
G01X36500D02*
X44500D01*
G01X44020Y299500D02*
Y293500D01*
G01X47500Y289500D02*
X42000D01*
X37500Y294000D01*
X32500D01*
G01X45000Y307500D02*
Y304135D01*
X44020Y303154D01*
Y299500D01*
G01X46500Y315000D02*
Y309000D01*
X45000Y307500D01*
G01X41500Y315000D02*
Y321500D01*
G01X32500Y308000D02*
X40000D01*
G01X41500Y335100D02*
Y339830D01*
X41000Y340330D01*
Y343000D01*
G01X41500Y321500D02*
X39500D01*
G01X41500D02*
X58000D01*
X61000Y318500D01*
X84000D01*
G01X32500Y336000D02*
Y329000D01*
G01Y322000D02*
X36500D01*
G01X42020Y369000D02*
Y363020D01*
G01Y369000D02*
Y374331D01*
X44000Y376311D01*
Y377000D01*
G01X34500Y368500D02*
Y364500D01*
G01X59250Y387000D02*
X55126D01*
X50063Y392063D01*
G01X34437Y390000D02*
Y394937D01*
G01X67500Y17898D02*
X63500D01*
G01X67500Y28331D02*
X72169D01*
X74000Y26500D01*
Y22000D01*
X75720Y20280D01*
X79500D01*
G01X67500Y45654D02*
X63653D01*
G01X79500Y27760D02*
X75740D01*
X70839Y32661D01*
X67500D01*
G01X79500Y42280D02*
X74780D01*
X73823Y41323D01*
X67500D01*
G01Y58055D02*
X63555D01*
G01X67500Y49984D02*
X76226D01*
X76450Y49760D01*
X79500D01*
G01X64500Y75000D02*
X60000D01*
G01X57500Y85000D02*
X64500D01*
G01X53563D02*
Y81563D01*
G01X77500Y111000D02*
Y88000D01*
X69500Y80000D01*
X64500D01*
G01X50020Y104000D02*
Y98020D01*
G01X74500Y115500D02*
X69500Y110500D01*
Y101000D01*
X64500Y96000D01*
Y90000D01*
G01X67000Y106000D02*
Y109000D01*
X60193Y115807D01*
Y118402D01*
G01X68854Y123126D02*
X71328D01*
X72500Y124298D01*
G01X68854Y121158D02*
X72158D01*
G01X58000Y129000D02*
X56005D01*
X55973Y129032D01*
X53500D01*
G01X209500Y152000D02*
X164000D01*
X162000Y150000D01*
Y143500D01*
X155500Y137000D01*
X86000D01*
X79000Y144000D01*
X70500D01*
X64130Y137630D01*
Y133756D01*
G01X56500Y138500D02*
X60661D01*
X62161Y137000D01*
G01D02*
Y133756D01*
G01X178250Y174750D02*
X160500Y157000D01*
Y144500D01*
X154700Y138700D01*
X86800D01*
X80000Y145500D01*
X69000D01*
X62161Y138661D01*
Y137000D01*
G01X63500Y149000D02*
X58000D01*
G01X50500Y146000D02*
Y150000D01*
G01X90500Y170000D02*
X59000D01*
X53750Y164750D01*
G01X58500Y165500D02*
X83000D01*
X91059Y157441D01*
Y149000D01*
G01X52839Y213980D02*
X56980D01*
G01X76000Y252500D02*
Y224500D01*
X69220Y217720D01*
X61500D01*
G01X78727Y258000D02*
Y220727D01*
X68240Y210240D01*
X61500D01*
G01X52839Y259980D02*
X56980D01*
G01X61500Y256240D02*
X72500D01*
G01X90000Y204000D02*
X81500Y212500D01*
Y259000D01*
X76780Y263720D01*
X61500D01*
G01X56500Y315000D02*
X63500D01*
G01X67437D02*
X70500D01*
G01X174500Y256000D02*
X170846D01*
X168546Y258300D01*
X168503D01*
X147303Y279500D01*
X134500D01*
X128000Y286000D01*
Y313000D01*
X120500Y320500D01*
X62000D01*
X56500Y326000D01*
Y335100D01*
G01D02*
Y339500D01*
X54000Y342000D01*
G01X73000Y325500D02*
X62500D01*
X59500Y328500D01*
Y340500D01*
X56500Y343500D01*
Y346063D01*
G01X61500Y357000D02*
Y353500D01*
X64280Y350720D01*
Y348480D01*
G01X56500Y357000D02*
Y350000D01*
G01X66500Y357000D02*
X61500D01*
G01X76000Y365000D02*
X70950D01*
X66500Y360550D01*
Y357000D01*
G01X65750Y387000D02*
X69500D01*
G01X50063Y398000D02*
Y392063D01*
G01X61355Y415161D02*
Y419355D01*
G01X88161Y24020D02*
X91980D01*
G01X79500Y27760D02*
X91000D01*
G01X106000Y20280D02*
X79500D01*
G01X88161Y46020D02*
X91980D01*
G01X79500Y42280D02*
X90000D01*
G01X91500Y51000D02*
X86500D01*
X85260Y49760D01*
X79500D01*
G01X84600Y75000D02*
X94000D01*
X98500Y79500D01*
G01X84600Y80000D02*
X90500D01*
X95500Y85000D01*
G01X77500Y131000D02*
X95058Y113442D01*
Y90058D01*
X90000Y85000D01*
X84600D01*
G01D02*
X79500D01*
G01X84500Y102500D02*
X89500D01*
G01X73500Y106000D02*
Y111000D01*
G01X73000Y136000D02*
X76500D01*
X96773Y115727D01*
Y86273D01*
X95500Y85000D01*
G01X73000Y132000D02*
X93000Y112000D01*
Y92000D01*
G01X98500Y79500D02*
Y118000D01*
X76500Y140000D01*
X75500D01*
G01X106500Y144500D02*
X88500D01*
X78438Y154562D01*
X74562D01*
G01X103500Y142500D02*
X88500D01*
X79500Y151500D01*
X72500D01*
G01X100500Y140500D02*
X88500D01*
X80500Y148500D01*
X70500D01*
G01X134532Y270500D02*
X127000D01*
X120826Y276674D01*
X92174D01*
X88250Y272750D01*
Y234250D01*
G01X85000Y234500D02*
Y272500D01*
X91000Y278500D01*
X126000D01*
X129000Y275500D01*
X134532D01*
G01X70500Y315000D02*
X78500D01*
X82000Y311500D01*
G01X71000Y334000D02*
Y329500D01*
G01X78000Y323500D02*
Y332602D01*
X71500Y339102D01*
Y357000D01*
G01X82500Y332500D02*
Y342500D01*
X80260Y344740D01*
X75500D01*
G01Y348480D02*
X81000D01*
G01X83500Y373000D02*
X88500D01*
G01X71500Y357000D02*
X76000D01*
G01X71500Y377100D02*
X74600D01*
G01X96500Y383000D02*
X86000D01*
X83500Y380500D01*
Y376937D01*
G01X72937Y392063D02*
Y398000D01*
G01X251500Y326000D02*
X243500Y334000D01*
Y420000D01*
X224000Y439500D01*
X92000D01*
X85000Y432500D01*
Y409200D01*
X91200Y403000D01*
X96500D01*
G01X242000Y331000D02*
X240727Y332273D01*
Y418273D01*
X223000Y436000D01*
X93500D01*
X88000Y430500D01*
Y416200D01*
X91200Y413000D01*
X96500D01*
G01X89000Y35000D02*
X93000D01*
G01X95437Y51000D02*
Y54563D01*
X93000Y57000D01*
G01X103500Y107500D02*
Y103500D01*
G01X110500Y91000D02*
X106000D01*
G01X106500Y135000D02*
X155500D01*
X161000Y129500D01*
Y45000D01*
X169500Y36500D01*
Y19760D01*
G01X103500Y129000D02*
X111000D01*
G01X100500Y133000D02*
X130000D01*
X134000Y129000D01*
X140000D01*
G01X102500Y162000D02*
X98500D01*
G01X91059Y149000D02*
X98670D01*
X109000Y159330D01*
Y162000D01*
G01X106626Y179874D02*
Y182874D01*
G01X98068Y165932D02*
X100563Y168426D01*
Y172278D01*
G01D02*
Y176129D01*
X101902Y177467D01*
Y179874D01*
G01X102532Y174000D02*
Y170555D01*
G01X103476Y179874D02*
Y177074D01*
X102532Y176129D01*
Y174000D01*
G01X101500Y166000D02*
Y167000D01*
X102532Y168032D01*
Y170555D01*
G01X108626D02*
Y167172D01*
X108200Y166746D01*
Y166700D01*
X107500Y166000D01*
G01X104500Y174000D02*
Y170555D01*
G01D02*
Y166000D01*
G01Y174000D02*
Y176129D01*
X105051Y176680D01*
Y179874D01*
G01X97177Y192000D02*
Y189000D01*
G01X101902Y192000D02*
Y189000D01*
G01Y192000D02*
Y194088D01*
X100563Y195426D01*
Y199278D01*
G01X106626Y192000D02*
Y189000D01*
G01X96626Y197555D02*
Y195426D01*
X97774Y194278D01*
X97790D01*
X98752Y193316D01*
Y192000D01*
G01X96626Y197555D02*
Y201000D01*
G01D02*
Y205034D01*
X106592Y215000D01*
X129995D01*
X130696Y214299D01*
X132972D01*
G01X98594Y197555D02*
Y201000D01*
G01X100327Y192000D02*
Y193673D01*
X98594Y195406D01*
Y197555D01*
G01Y201000D02*
Y203941D01*
X108154Y213500D01*
X129330D01*
X130696Y212134D01*
X132972D01*
G01X104500Y197555D02*
Y194729D01*
X105051Y194178D01*
Y192000D01*
G01X104500Y197555D02*
Y201000D01*
G01D02*
Y204000D01*
X111000Y210500D01*
X127500D01*
X130000Y208000D01*
X132972D01*
G01X102532Y197555D02*
Y201000D01*
G01Y197555D02*
Y195155D01*
X103300Y194386D01*
Y192177D01*
X103476Y192000D01*
G01X102532Y201000D02*
Y205094D01*
X109438Y212000D01*
X128500D01*
X130335Y210165D01*
X132972D01*
G01X93000Y189000D02*
Y204000D01*
X105500Y216500D01*
X140000D01*
X143000Y219500D01*
Y222000D01*
X147079Y226079D01*
X174500D01*
G01X133500Y234000D02*
X112500D01*
X104500Y242000D01*
Y262555D01*
G01X133500Y229000D02*
X114000D01*
X102532Y240469D01*
Y262555D01*
G01X93500Y268000D02*
X91000Y265500D01*
Y232500D01*
G01X100563Y264278D02*
Y259563D01*
G01X106626Y271874D02*
Y274874D01*
G01X100563Y264278D02*
Y268063D01*
X101902Y269402D01*
Y271874D01*
G01X104500Y262555D02*
Y266000D01*
G01D02*
Y268129D01*
X105051Y268680D01*
Y271874D01*
G01X102532Y262555D02*
Y266000D01*
G01D02*
Y268129D01*
X103476Y269074D01*
Y271874D01*
G01X106626Y284000D02*
Y281000D01*
G01X101902Y284000D02*
Y281000D01*
G01Y284000D02*
Y286296D01*
X100563Y287634D01*
Y291278D01*
G01X97177Y284000D02*
Y281000D01*
G01X104500Y289555D02*
Y293000D01*
G01Y313500D02*
Y293000D01*
G01X105051Y284000D02*
Y286449D01*
X104500Y287000D01*
Y289555D01*
G01X102532Y293000D02*
Y289555D01*
G01D02*
Y287363D01*
X103300Y286594D01*
Y284177D01*
X103476Y284000D01*
G01X102500Y311000D02*
Y309200D01*
X102532Y309168D01*
Y293000D01*
G01X98594D02*
Y289555D01*
G01D02*
Y287905D01*
X100327Y286173D01*
Y284000D01*
G01X98500Y308500D02*
Y295223D01*
X98594Y295129D01*
Y293000D01*
G01X96626D02*
Y289555D01*
G01D02*
Y287874D01*
X98752Y285748D01*
Y284000D01*
G01X96500Y306000D02*
Y295255D01*
X96626Y295129D01*
Y293000D01*
G01X106000Y347000D02*
Y352000D01*
G01X105020Y339000D02*
Y342654D01*
X106000Y343635D01*
Y347000D01*
G01X132000Y289000D02*
Y337500D01*
X117000Y352500D01*
Y414500D01*
X108500Y423000D01*
X96500D01*
G01X162500Y10000D02*
X150500D01*
X145744Y14756D01*
X123500D01*
X118658Y9913D01*
G01X124740Y74000D02*
Y69240D01*
X122500Y67000D01*
X118658D01*
G01X110500Y84000D02*
Y86500D01*
X111500Y87500D01*
X116000D01*
X117000Y88500D01*
Y91000D01*
G01X124740Y74000D02*
Y75000D01*
X122240Y77500D01*
X117500D01*
G01X110500D02*
X117500D01*
G01X110500Y91000D02*
Y95500D01*
X114240Y99240D01*
Y103000D01*
G01X117980Y114220D02*
Y110480D01*
X116500Y109000D01*
X112500D01*
X110500Y107000D01*
Y103000D01*
G01X117980D02*
Y94650D01*
X117000Y93670D01*
Y91000D01*
G01X118000Y122000D02*
Y117206D01*
X117980Y117186D01*
Y114220D01*
G01X111500Y122000D02*
Y125830D01*
X111000Y126330D01*
Y129000D01*
G01X117500D02*
X121500D01*
G01X114500Y149000D02*
Y158000D01*
G01Y161937D02*
X122627D01*
X124690Y164000D01*
X126740D01*
G01X109000Y162000D02*
X112259D01*
X112322Y161937D01*
X114500D01*
G01X111350Y179874D02*
Y182850D01*
G01X112563Y172278D02*
Y176066D01*
X111350Y177278D01*
Y179874D01*
G01X114532Y174000D02*
Y175968D01*
X112925Y177575D01*
Y179874D01*
G01X114532Y174000D02*
Y170555D01*
G01D02*
Y167532D01*
X113000Y166000D01*
G01X116500Y174000D02*
Y170555D01*
G01Y174000D02*
Y176000D01*
X114500Y178000D01*
Y179874D01*
G01X116500Y170555D02*
Y167500D01*
X117500Y166500D01*
G01X109776Y179874D02*
Y176948D01*
X110594Y176129D01*
Y174000D01*
G01D02*
Y170555D01*
G01D02*
Y166594D01*
X110000Y166000D01*
G01X108201Y179874D02*
Y176554D01*
X108626Y176129D01*
Y174000D01*
G01D02*
Y170555D01*
G01X183000Y198500D02*
X180500D01*
X179000Y197000D01*
G01X111350Y192000D02*
Y189000D01*
G01Y192000D02*
Y194028D01*
X112563Y195241D01*
Y199278D01*
G01X116500Y197555D02*
Y194984D01*
X114500Y192984D01*
Y192000D01*
G01X116500Y201000D02*
Y197555D01*
G01X132972Y198500D02*
X129500D01*
X123500Y204500D01*
X117871D01*
X116500Y203129D01*
Y201000D01*
G01X110594Y197555D02*
Y195426D01*
X109776Y194607D01*
Y192000D01*
G01X110594Y197555D02*
Y201000D01*
G01D02*
Y204094D01*
X114000Y207500D01*
X125500D01*
X130366Y202634D01*
X132972D01*
G01X114532Y197555D02*
Y201000D01*
G01X112925Y192000D02*
Y193728D01*
X114532Y195334D01*
Y197555D01*
G01Y201000D02*
Y203532D01*
X117063Y206063D01*
X124437D01*
X129835Y200665D01*
X132972D01*
G01X108626Y197555D02*
Y195426D01*
X108201Y195001D01*
Y192000D01*
G01X108626Y197555D02*
Y201000D01*
G01D02*
Y205126D01*
X112500Y209000D01*
X126495D01*
X130696Y204799D01*
X132972D01*
G01X174500Y218205D02*
X170205D01*
X165500Y213500D01*
X160500D01*
X149500Y202500D01*
Y198500D01*
X147000Y196000D01*
X127500D01*
X122500Y201000D01*
G01X108626Y262555D02*
Y251374D01*
X119299Y240701D01*
X128000D01*
G01X116500Y262555D02*
Y254000D01*
X123500Y247000D01*
X128000D01*
G01X110594Y262555D02*
Y252906D01*
X120634Y242866D01*
X128000D01*
G01X123000Y256500D02*
X130000Y249500D01*
X164000D01*
X165776Y251276D01*
X174500D01*
G01X128000Y244835D02*
X122165D01*
X114500Y252500D01*
Y260395D01*
X114532Y260426D01*
Y262555D01*
G01X111350Y271874D02*
Y274850D01*
G01X112563Y264278D02*
Y268437D01*
X111350Y269650D01*
Y271874D01*
G01X116500Y262555D02*
Y266000D01*
G01D02*
Y268890D01*
X114500Y270890D01*
Y271874D01*
G01X110594Y262555D02*
Y266000D01*
G01D02*
Y268129D01*
X109776Y268948D01*
Y271874D01*
G01X108626Y262555D02*
Y266000D01*
G01D02*
Y268129D01*
X108201Y268554D01*
Y271874D01*
G01X114532Y262555D02*
Y266000D01*
G01D02*
Y268468D01*
X112925Y270075D01*
Y271874D01*
G01X111350Y284000D02*
Y281000D01*
G01Y284000D02*
Y286350D01*
X112563Y287563D01*
Y291278D01*
G01X116500Y289555D02*
Y293000D01*
G01X114500Y284000D02*
Y284984D01*
X116500Y286984D01*
Y289555D01*
G01Y293000D02*
Y304000D01*
G01X114532Y289555D02*
Y293000D01*
G01X112925Y284000D02*
Y286228D01*
X114532Y287834D01*
Y289555D01*
G01Y293000D02*
Y299668D01*
X114500Y299700D01*
Y301500D01*
G01X110594Y289555D02*
Y287426D01*
X109776Y286607D01*
Y284000D01*
G01X110594Y293000D02*
Y289555D01*
G01Y293000D02*
Y297106D01*
X110500Y297200D01*
Y299000D01*
G01X108626Y293000D02*
Y289555D01*
G01Y293000D02*
Y296374D01*
X108500Y296500D01*
G01X108201Y284000D02*
Y286701D01*
X108626Y287126D01*
Y289555D01*
G01X135500Y284000D02*
Y338500D01*
X120500Y353500D01*
Y406000D01*
G01X139000Y286268D02*
Y339500D01*
X124000Y354500D01*
Y397500D01*
X129500Y403000D01*
X134500D01*
G01X132220Y74000D02*
Y68280D01*
X133500Y67000D01*
X138342D01*
G01X128480Y82661D02*
Y86480D01*
G01X132220Y74000D02*
Y75000D01*
X134720Y77500D01*
X139500D01*
G01D02*
X143330D01*
X143830Y77000D01*
X146500D01*
G01X140000Y91000D02*
Y95500D01*
X143240Y98740D01*
Y103000D01*
G01X140000Y91000D02*
X136500D01*
G01X132500Y107500D02*
Y103500D01*
G01X139500Y103000D02*
Y107000D01*
X141500Y109000D01*
X145500D01*
X146980Y110480D01*
Y114220D01*
G01X140500Y122000D02*
Y125830D01*
X140000Y126330D01*
Y129000D01*
G01X144500Y149000D02*
Y158000D01*
G01Y161937D02*
Y165918D01*
X158041Y179459D01*
G01X130480Y172661D02*
X134000D01*
G01X174500Y213480D02*
X170480D01*
X169000Y212000D01*
X161000D01*
X151000Y202000D01*
Y197500D01*
X148000Y194500D01*
X139549D01*
X131000Y185951D01*
G01X137500Y202634D02*
X145000D01*
G01X147000Y200665D02*
X137500D01*
G01X141000Y185000D02*
X146000D01*
X155500Y194500D01*
Y200000D01*
X162681Y207181D01*
X174500D01*
G01X137500Y198500D02*
X143500D01*
G01X141000Y188500D02*
X147000D01*
X154000Y195500D01*
Y200500D01*
X162256Y208756D01*
X174500D01*
G01Y210331D02*
X161831D01*
X152500Y201000D01*
Y196500D01*
X148000Y192000D01*
X141000D01*
G01X137437Y219000D02*
Y219197D01*
X141000Y222760D01*
Y225000D01*
X145228Y229228D01*
X174500D01*
G01X137500Y204799D02*
X143000D01*
G01X151000Y209000D02*
X143700D01*
X142535Y210165D01*
X137500D01*
G01X141000Y208000D02*
X137500D01*
G01X133500Y219000D02*
X129000D01*
G01X154500Y211000D02*
X143500D01*
X142366Y212134D01*
X137500D01*
G01X151000Y213026D02*
X143974D01*
X142701Y214299D01*
X137500D01*
G01X129000Y224000D02*
X133500D01*
G01X174500Y243402D02*
X137505D01*
X134804Y240701D01*
X132528D01*
G01X174500Y233953D02*
X144371D01*
X139418Y229000D01*
X137437D01*
G01Y234000D02*
X139418D01*
X140946Y235528D01*
X174500D01*
G01Y232378D02*
X145618D01*
X137437Y224197D01*
Y224000D01*
G01X131937Y256500D02*
Y254322D01*
X135259Y251000D01*
X162500D01*
X164350Y252850D01*
X174500D01*
G01X128000Y256500D02*
Y261000D01*
G01X174500Y248126D02*
X135930D01*
X134804Y247000D01*
X132528D01*
G01X174500Y244976D02*
X136914D01*
X134804Y242866D01*
X132528D01*
G01X174500Y246551D02*
X136521D01*
X134804Y244835D01*
X132528D01*
G01X144500Y262480D02*
X138500D01*
G01X152500Y261500D02*
X149135D01*
X148154Y262480D01*
X144500D01*
G01X138468Y270500D02*
X145000D01*
X147500Y268000D01*
G01X138468Y275500D02*
X145000D01*
X152000Y268500D01*
G01X142500Y282000D02*
Y340500D01*
X127500Y355500D01*
Y370170D01*
X131330Y374000D01*
X134000D01*
G01Y367500D02*
X129500D01*
G01X136500Y359500D02*
X132500D01*
G01X134000Y374000D02*
X134689D01*
X137000Y376311D01*
Y381500D01*
G01X154000Y366500D02*
X150500D01*
X148000Y369000D01*
Y371725D01*
X145745Y373980D01*
X142780D01*
G01D02*
Y378109D01*
X143500Y378830D01*
Y381500D01*
G01X137000Y388500D02*
X133000D01*
G01X137000Y381500D02*
X131500D01*
G01X134500Y396500D02*
X130000D01*
G01X136500Y410500D02*
Y406981D01*
X134500Y404981D01*
Y403000D01*
G01X136500Y410500D02*
X132000D01*
G01X143280Y402980D02*
Y407550D01*
X143000Y407830D01*
Y410500D01*
G01X143280Y402980D02*
X146520D01*
X149000Y400500D01*
Y397500D01*
X151000Y395500D01*
X154500D01*
G01X162500Y27000D02*
X167500D01*
G01X162500Y20500D02*
X165710D01*
X166450Y19760D01*
X169500D01*
G01X162500Y20500D02*
X157500D01*
G01X162500Y13937D02*
X164678D01*
X166741Y16000D01*
X167790D01*
X169500Y17710D01*
Y19760D01*
G01X146500Y83500D02*
Y91000D01*
G01D02*
Y99554D01*
X146980Y100035D01*
Y103000D01*
G01X147000Y122000D02*
Y117206D01*
X146980Y117186D01*
Y114220D01*
G01X146500Y129000D02*
X150500D01*
G01X154500Y161937D02*
Y165339D01*
X163330Y174170D01*
G01X154500Y149000D02*
Y158000D01*
G01X154562Y170690D02*
X152000Y168128D01*
G01X163330Y174170D02*
X166161Y177000D01*
X167658D01*
X181193Y190535D01*
Y194189D01*
G01X171000Y184000D02*
X169200D01*
X169174Y183974D01*
X162556D01*
X158041Y179459D01*
G01X174500Y204032D02*
X166532D01*
X162500Y200000D01*
Y195000D01*
X160500Y193000D01*
X157500D01*
X154500Y190000D01*
G01X159000Y195500D02*
Y200500D01*
X164106Y205606D01*
X174500D01*
G01X152500Y223500D02*
X148000D01*
G01X159500D02*
X152500D01*
G01X159500Y261500D02*
X152500D01*
G01X186500Y423000D02*
X176000D01*
X169500Y416500D01*
Y393500D01*
X162000Y386000D01*
Y367000D01*
X147000Y352000D01*
Y283500D01*
X171000Y259500D01*
X175500D01*
X179500Y255500D01*
Y251301D01*
X177900Y249701D01*
X174500D01*
G01X153500Y284000D02*
X149768Y287732D01*
Y339000D01*
G01X153500Y287500D02*
X152227Y288773D01*
Y352727D01*
X165500Y366000D01*
Y385000D01*
X173000Y392500D01*
Y398000D01*
X178000Y403000D01*
X186500D01*
G01X157500Y287500D02*
Y326000D01*
G01X161000Y287500D02*
Y325500D01*
G01X155000Y302500D02*
Y351000D01*
X169500Y365500D01*
Y383500D01*
X179000Y393000D01*
X186500D01*
G01X154000Y370240D02*
X159500D01*
G01X166000Y421500D02*
Y396500D01*
X154000Y384500D01*
Y373980D01*
G01X154500Y399240D02*
X160000D01*
G01X162500Y421500D02*
Y405480D01*
X160000Y402980D01*
X154500D01*
G01X178161Y16020D02*
X174411D01*
G01X187000Y154500D02*
X175000D01*
G01X187000Y159500D02*
X169500D01*
G01X166500Y157000D02*
X209500D01*
X212500Y154000D01*
X215000D01*
G01X180000Y181000D02*
Y184000D01*
X184342Y188342D01*
Y194189D01*
G01X171000Y198000D02*
Y199843D01*
X172039Y200882D01*
X174500D01*
G01X166500Y195000D02*
Y199500D01*
X169457Y202457D01*
X174500D01*
G01X177474Y183974D02*
X182768Y189268D01*
Y194189D01*
G01X174500Y221354D02*
X179854D01*
G01X203500Y245500D02*
Y241976D01*
X178154Y216630D01*
X174500D01*
G01X207250Y245750D02*
Y243296D01*
X179009Y215055D01*
X174500D01*
G01X223500Y252000D02*
X192000D01*
X180252Y240252D01*
X174500D01*
G01X223500Y249500D02*
X221600D01*
X221100Y250000D01*
X193000D01*
X181677Y238677D01*
X174500D01*
G01X223500Y247000D02*
X221600D01*
X220600Y248000D01*
X194000D01*
X183102Y237102D01*
X174500D01*
G01Y230803D02*
X180000D01*
G01X181500Y225000D02*
X179692D01*
X179196Y224504D01*
X174500D01*
G01Y222929D02*
X169571D01*
X169000Y223500D01*
G01X180500Y234500D02*
X182500Y232500D01*
Y229500D01*
X180654Y227654D01*
X174500D01*
G01X172500Y267000D02*
X178000Y261500D01*
Y259000D01*
X181500Y255500D01*
Y245172D01*
X178154Y241827D01*
X174500D01*
G01X165500Y271000D02*
X172000D01*
X179500Y263500D01*
Y259500D01*
X184500Y254500D01*
X203000D01*
X204815Y256315D01*
Y262693D01*
G01X187500Y310000D02*
Y307000D01*
X181118Y300618D01*
Y282382D01*
X193791Y269709D01*
Y262693D01*
G01X183750Y307750D02*
X179118Y303118D01*
Y281382D01*
X192216Y268284D01*
Y262693D01*
G01X184000Y312500D02*
X177252Y305752D01*
Y280248D01*
X190642Y266858D01*
Y262693D01*
G01X184342D02*
Y270158D01*
X175118Y279382D01*
Y308118D01*
X183000Y316000D01*
G01X179500Y315500D02*
X173118Y309118D01*
Y278382D01*
X182768Y268732D01*
Y262693D01*
G01X183000Y319500D02*
X178500D01*
X171118Y312118D01*
Y277382D01*
X181193Y267307D01*
Y262693D01*
G01X183500Y299500D02*
X186000D01*
X187201Y298299D01*
Y295500D01*
G01X177000Y347000D02*
Y343635D01*
X177980Y342654D01*
Y339000D01*
G01X177000Y347000D02*
Y352000D01*
G01X200020Y166000D02*
Y161500D01*
G01X205000Y159500D02*
X190937D01*
G01X207000Y154500D02*
X190937D01*
G01X192000Y181000D02*
Y177635D01*
X192980Y176654D01*
Y173000D01*
G01X201000Y174000D02*
Y170635D01*
X200020Y169654D01*
Y166000D01*
G01X201000Y181000D02*
Y174000D01*
G01X192980Y173000D02*
Y167000D01*
G01X200091Y194189D02*
Y188091D01*
X195500Y183500D01*
G01X201665Y194189D02*
Y187165D01*
X198489Y183989D01*
Y182489D01*
X196000Y180000D01*
G01X203240Y194189D02*
Y199000D01*
G01X189067Y194189D02*
Y199500D01*
G01X196500Y205000D02*
Y200257D01*
X195366Y199123D01*
Y194189D01*
G01X194500Y203000D02*
Y199954D01*
X193791Y199246D01*
Y194189D01*
G01X192550Y201000D02*
Y198004D01*
X192216Y197671D01*
Y194189D01*
G01X189000Y186500D02*
Y188546D01*
X190642Y190187D01*
Y194189D01*
G01X194000Y186500D02*
X195800D01*
X198516Y189216D01*
Y194189D01*
G01X191500Y188500D02*
X194906D01*
X196941Y190535D01*
Y194189D01*
G01X203500Y220500D02*
X205795Y218205D01*
X243004D01*
G01X195500Y217500D02*
X199520Y213480D01*
X243004D01*
G01Y215055D02*
X200945D01*
X198000Y218000D01*
Y220500D01*
G01X201500Y217500D02*
X204300D01*
X205170Y216630D01*
X243004D01*
G01X192000Y216500D02*
Y218500D01*
X198004Y224504D01*
X243004D01*
G01X189500Y219000D02*
X206028Y235528D01*
X243004D01*
G01X186000Y219000D02*
X204102Y237102D01*
X243004D01*
G01X203240Y262693D02*
Y258240D01*
X202500Y257500D01*
G01X190900Y256900D02*
X189067Y258733D01*
Y262693D01*
G01X186500Y257500D02*
X187492Y258492D01*
Y262693D01*
G01X200000Y285000D02*
Y278000D01*
G01X185917Y262693D02*
Y266917D01*
X186500Y267500D01*
G01X200091Y262693D02*
Y266347D01*
X199865Y266572D01*
Y272135D01*
X193500Y278500D01*
Y290972D01*
G01X191335D02*
Y278665D01*
X198516Y271484D01*
Y262693D01*
G01X187201Y290972D02*
Y278799D01*
X195366Y270634D01*
Y262693D01*
G01X189366Y290972D02*
Y278634D01*
X196941Y271059D01*
Y262693D01*
G01X201665D02*
Y268000D01*
G01X200000Y285000D02*
Y289500D01*
G01X203000Y296063D02*
Y292500D01*
G01X193500Y295500D02*
Y303300D01*
X191300Y305500D01*
X189500D01*
G01X187500Y303500D02*
X189300D01*
X191335Y301465D01*
Y295500D01*
G01X185500Y301500D02*
X187536D01*
X189366Y299670D01*
Y295500D01*
G01X198000Y296063D02*
Y292500D01*
G01X193000Y311500D02*
X196500Y315000D01*
G01D02*
X200000Y318500D01*
G01X194060Y317440D02*
X196500Y315000D01*
G01D02*
X198940Y312560D01*
G01X198000Y300000D02*
Y302500D01*
X194000Y306500D01*
G01X203000Y300000D02*
Y305000D01*
X206570Y308570D01*
Y333930D01*
X202500Y338000D01*
Y369500D01*
X206000Y373000D01*
X212500D01*
G01X203500Y330000D02*
X199500Y334000D01*
Y364500D01*
G01X194500Y365500D02*
Y397500D01*
X203000Y406000D01*
Y419500D01*
X206500Y423000D01*
X212500D01*
G01X199500Y364500D02*
Y373000D01*
G01Y376937D02*
Y380500D01*
X202000Y383000D01*
X212500D01*
G01X186500Y413000D02*
X193500D01*
X199500Y419000D01*
Y425500D01*
X204500Y430500D01*
X223500D01*
X238500Y415500D01*
Y330700D01*
X241700Y327500D01*
X243500D01*
G01X212689Y194189D02*
Y188311D01*
X217500Y183500D01*
Y168500D01*
X220000Y166000D01*
Y157937D01*
G01X264500Y188500D02*
X262000Y186000D01*
Y178000D01*
X240500Y156500D01*
X233000D01*
X228000Y151500D01*
X222697D01*
X220197Y154000D01*
X220000D01*
G01X209539Y194189D02*
Y189461D01*
X216000Y183000D01*
Y161500D01*
X215000Y160500D01*
Y157937D01*
G01X222000Y174000D02*
Y169500D01*
G01Y181000D02*
Y174000D01*
G01X222138Y194189D02*
Y183808D01*
X222000Y183670D01*
Y181000D01*
G01X214264Y194189D02*
Y188736D01*
X219000Y184000D01*
Y169500D01*
X225000Y163500D01*
Y157937D01*
G01X212000Y176500D02*
Y183000D01*
X206390Y188610D01*
Y194189D01*
G01X212000Y173000D02*
X214000Y175000D01*
Y183000D01*
X207965Y189035D01*
Y194189D01*
G01X211500Y204500D02*
X213000Y203000D01*
Y200682D01*
X215839Y197843D01*
Y194189D01*
G01X215500Y202000D02*
Y200200D01*
X217413Y198287D01*
Y194189D01*
G01X219000Y199500D02*
Y199000D01*
X218988Y198988D01*
Y194189D01*
G01X218514Y188486D02*
X220563Y190535D01*
Y194189D01*
G01X211114D02*
Y198886D01*
G01X220000Y220500D02*
X236500D01*
X238929Y222929D01*
X243004D01*
G01X212500Y258000D02*
X211114Y259386D01*
Y262693D01*
G01X209539D02*
Y257761D01*
X210000Y257300D01*
Y255500D01*
G01X207000Y254500D02*
Y257000D01*
X206390Y257610D01*
Y262693D01*
G01X218988D02*
Y257512D01*
G01X215839Y262693D02*
Y256000D01*
G01X218000Y296063D02*
Y294063D01*
X220563Y291500D01*
Y262693D01*
G01X220701Y304972D02*
Y302299D01*
X222138Y300862D01*
Y262693D01*
G01X207965D02*
Y268035D01*
X207500Y268500D01*
G01X218500Y290500D02*
X219000Y290000D01*
Y272500D01*
X217413Y270913D01*
Y262693D01*
G01X214500Y289000D02*
Y285480D01*
G01X213000Y292500D02*
Y296063D01*
G01X208000D02*
Y294000D01*
X209500Y292500D01*
G01X218500Y318000D02*
X222500D01*
X227000Y313500D01*
Y309500D01*
G01X217000Y315500D02*
X222000D01*
X224835Y312665D01*
Y309500D01*
G01X215000Y313000D02*
X221642D01*
X222866Y311776D01*
Y309500D01*
G01X213000Y310500D02*
X215000D01*
X216000Y309500D01*
X220701D01*
G01X222866Y304972D02*
Y302696D01*
X223713Y301850D01*
Y262693D01*
G01X208000Y300000D02*
Y301981D01*
X207770Y302212D01*
Y336230D01*
X205000Y339000D01*
Y365000D01*
X208000Y368000D01*
X219000D01*
X223000Y372000D01*
Y387800D01*
X217800Y393000D01*
X212500D01*
G01X218000Y300000D02*
Y302500D01*
X217000Y303500D01*
G01X216500Y307000D02*
X214700D01*
X213000Y305300D01*
Y300000D01*
G01X211500Y328720D02*
Y325500D01*
G01Y321240D02*
X215070D01*
X215830Y322000D01*
X218500D01*
G01X226500Y325500D02*
X223500Y328500D01*
X218500D01*
G01X222000Y347000D02*
Y343635D01*
X221020Y342654D01*
Y339000D01*
G01X222000Y347000D02*
Y352500D01*
G01X212500Y403000D02*
X221500D01*
X233500Y391000D01*
Y328500D01*
X239500Y322500D01*
X249500D01*
G01X212500Y413000D02*
X226000D01*
X236000Y403000D01*
Y329000D01*
X240000Y325000D01*
X247000D01*
G01X259500Y193000D02*
Y178500D01*
X239500Y158500D01*
X232500D01*
X228000Y154000D01*
X225000D01*
G01X229000Y158000D02*
X231500Y160500D01*
X239000D01*
X243500Y165000D01*
Y173000D01*
X237000Y179500D01*
Y184000D01*
X242500Y189500D01*
X251000D01*
G01X233161Y194189D02*
Y172079D01*
X236303Y168937D01*
X236500D01*
G01X250500Y195500D02*
X246500Y191500D01*
X241500D01*
X235500Y185500D01*
Y177000D01*
X241000Y171500D01*
Y167000D01*
X239000Y165000D01*
X236500D01*
G01X257500Y190000D02*
X250500Y183000D01*
X239500D01*
G01X227500Y205000D02*
Y203200D01*
X226982Y202682D01*
Y197964D01*
X226862Y197843D01*
Y194189D01*
G01X224500Y206000D02*
Y198631D01*
X225287Y197843D01*
Y194189D01*
G01X230500Y204000D02*
X228437Y201937D01*
Y194189D01*
G01X243004Y204032D02*
X239032D01*
X236000Y201000D01*
G01X236311Y194189D02*
Y190811D01*
X235500Y190000D01*
X234736Y190764D01*
Y194189D01*
G01X245500Y195500D02*
X243700D01*
X242389Y194189D01*
X236311D01*
G01X240000Y198000D02*
X238200D01*
X237200Y199000D01*
X232500D01*
X231587Y198087D01*
Y194189D01*
G01X233500Y203000D02*
X232500D01*
X230012Y200512D01*
Y194189D01*
G01X243004Y205606D02*
X236000D01*
G01X223000Y229500D02*
X228227D01*
X231105Y232378D01*
X243004D01*
G01Y238677D02*
X234323D01*
X227750Y245250D01*
Y256000D01*
G01X223000Y232000D02*
X228500D01*
X230453Y233953D01*
X243004D01*
G01X236500Y257500D02*
Y253500D01*
X238724Y251276D01*
X243004D01*
G01X233500Y257500D02*
Y252500D01*
X237874Y248126D01*
X243004D01*
G01Y244976D02*
X238024D01*
G01X235500Y242500D02*
X238000D01*
X238673Y241827D01*
X243004D01*
G01X232000Y244500D02*
X230012Y246488D01*
Y262693D01*
G01X238500Y277500D02*
Y284500D01*
G01X233161Y262693D02*
Y267661D01*
X242000Y276500D01*
Y285000D01*
X247000Y290000D01*
Y297918D01*
X250082Y301000D01*
X252063D01*
G01X225287Y262693D02*
Y302243D01*
X224835Y302696D01*
Y304972D01*
G01X234736Y262693D02*
Y267236D01*
X243500Y276000D01*
Y283500D01*
X248500Y288500D01*
Y295000D01*
X250000Y296500D01*
X252063D01*
G01X227000Y304972D02*
Y302696D01*
X226862Y302558D01*
Y262693D01*
G01X236311D02*
Y266811D01*
X245250Y275750D01*
Y282250D01*
X250000Y287000D01*
Y289740D01*
X252063Y291803D01*
Y292000D01*
G01X239281Y261000D02*
Y265281D01*
X242500Y268500D01*
Y270500D01*
X251000Y279000D01*
Y281500D01*
X257500Y288000D01*
G01X242000Y264000D02*
X244500Y266500D01*
Y270200D01*
X252500Y278200D01*
Y280000D01*
X257500Y285000D01*
G01X229000Y270000D02*
Y268000D01*
X228437Y267437D01*
Y262693D01*
G01X239480Y292500D02*
Y288150D01*
X238500Y287170D01*
Y284500D01*
G01X239480Y292500D02*
X244500D01*
G01X282000Y290500D02*
X268500Y304000D01*
X250500D01*
X249500Y305000D01*
X235500D01*
G01X283000Y294000D02*
X271500Y305500D01*
X252000D01*
X249500Y308000D01*
X233500D01*
G01X285500Y287500D02*
Y295500D01*
X273800Y307200D01*
X252800D01*
X249000Y311000D01*
X235500D01*
G01X229500Y303000D02*
X231000Y304500D01*
Y321000D01*
X226500Y325500D01*
G01X248000Y91000D02*
Y93500D01*
X248076Y93576D01*
Y94424D01*
X248000Y94500D01*
G01Y91000D02*
Y90500D01*
G01X248500Y98000D02*
X248000Y97500D01*
Y94500D01*
G01X255500Y105000D02*
X250000D01*
G01X268000Y189000D02*
Y173500D01*
X258000Y163500D01*
X254500D01*
G01X257500Y186000D02*
X251500Y180000D01*
X242500D01*
G01X254000Y166500D02*
X256500D01*
X265000Y175000D01*
Y183500D01*
G01X257500Y200500D02*
X264500D01*
G01X247500Y200000D02*
X246618Y200882D01*
X243004D01*
G01X252773Y200500D02*
X250816Y202457D01*
X243004D01*
G01X257500Y213500D02*
X264500D01*
G01X251500Y218500D02*
X248646Y221354D01*
X243004D01*
G01X253000Y216000D02*
X250500D01*
X246720Y219780D01*
X243004D01*
G01Y240252D02*
X247752D01*
G01X243004Y249701D02*
X251500D01*
G01Y246000D02*
X248902Y243402D01*
X243004D01*
G01Y246551D02*
X247949D01*
G01X244500Y261500D02*
X246500Y263500D01*
Y270000D01*
X260227Y283727D01*
X261227D01*
X262500Y285000D01*
G01X256000Y292000D02*
X269000D01*
X276368Y284632D01*
X276409D01*
X277463Y283577D01*
Y283537D01*
X284000Y277000D01*
Y261500D01*
X296250Y249250D01*
G01X298500Y252000D02*
X286500Y264000D01*
Y277500D01*
X267500Y296500D01*
X256000D01*
G01X254000Y310500D02*
Y310000D01*
G01Y310500D02*
Y335000D01*
X277000Y358000D01*
Y365500D01*
X290000Y378500D01*
Y405800D01*
X297200Y413000D01*
X302500D01*
G01X310000Y229000D02*
X307500Y231500D01*
X301500D01*
X297500Y235500D01*
Y241000D01*
X305500Y249000D01*
Y255000D01*
X300500Y260000D01*
X295000D01*
X289000Y266000D01*
Y278500D01*
X266500Y301000D01*
X256000D01*
G01X246500Y349500D02*
Y398189D01*
X251311Y403000D01*
X252000D01*
G01X249500Y356000D02*
Y368519D01*
X252500Y371519D01*
Y373500D01*
G01X254000Y363500D02*
X252500Y365000D01*
Y367000D01*
G01X255000Y359000D02*
Y362500D01*
X254000Y363500D01*
G01X252500Y373500D02*
Y376330D01*
X254500Y378330D01*
Y381000D01*
G01X272500Y366000D02*
X269000D01*
X267000Y368000D01*
Y371500D01*
X265020Y373480D01*
X261280D01*
G01D02*
Y378050D01*
X261000Y378330D01*
Y381000D01*
G01X252000Y396500D02*
Y393670D01*
X252670Y393000D01*
G01X254500Y388500D02*
Y391170D01*
X252670Y393000D01*
G01X254500Y381000D02*
X250500D01*
G01X252000Y403000D02*
Y407811D01*
X254000Y409811D01*
Y410500D01*
G01D02*
X249500D01*
G01X272000Y395500D02*
X268500D01*
X266500Y397500D01*
Y400500D01*
X264020Y402980D01*
X260780D01*
G01D02*
Y407550D01*
X260500Y407830D01*
Y410500D01*
G01X270000Y91000D02*
Y93670D01*
X269500Y94170D01*
Y94500D01*
G01X270000Y91000D02*
Y90500D01*
G01X269500Y98000D02*
Y94500D01*
G01X262500Y105000D02*
X268000D01*
G01X281904Y115904D02*
X277904Y119904D01*
G01X277500Y156500D02*
Y154000D01*
X282000Y149500D01*
X285000D01*
X286610Y147890D01*
Y145547D01*
G01X277500Y163000D02*
Y160000D01*
G01X302500Y253500D02*
Y250000D01*
X295000Y242500D01*
Y234046D01*
X286500Y225546D01*
Y200500D01*
X278000Y192000D01*
X273000D01*
X270500Y189500D01*
Y180000D01*
X281500Y169000D01*
Y154500D01*
X283500Y152500D01*
X285000D01*
X288579Y148921D01*
Y145547D01*
G01X278020Y189000D02*
X281500D01*
G01X274500D02*
X278020D01*
G01X264500Y200500D02*
X269000D01*
G01X272500Y213520D02*
X278500D01*
G01X264500Y213500D02*
X268826D01*
X268846Y213520D01*
X272500D01*
G01X302500Y383000D02*
X295000D01*
X292500Y380500D01*
Y376000D01*
X279500Y363000D01*
Y334500D01*
X282500Y331500D01*
Y303500D01*
X288000Y298000D01*
Y290000D01*
X295000Y283000D01*
Y276000D01*
G01X272500Y369740D02*
X277500D01*
G01X286375Y430125D02*
Y381375D01*
X278500Y373500D01*
X275485D01*
X275465Y373480D01*
X272500D01*
G01X272000Y399240D02*
X277000D01*
G01X281500Y430000D02*
Y409000D01*
X275480Y402980D01*
X272000D01*
G01X291000Y95500D02*
X291050D01*
G01X324595Y107000D02*
X305000D01*
X298421Y113579D01*
Y126453D01*
G01X283953Y131079D02*
X288579D01*
X289000Y131500D01*
G01D02*
X293500Y136000D01*
G01X289000Y140500D02*
X286610Y142890D01*
X283953D01*
G01X289000Y140500D02*
X290547Y138953D01*
G01D02*
X293500Y136000D01*
G01X290547Y138953D02*
X283953D01*
G01X285000Y160442D02*
Y164000D01*
G01Y157000D02*
Y160442D01*
G01X296453Y145547D02*
Y151000D01*
X299000Y153547D01*
Y163500D01*
X305000Y169500D01*
Y198000D01*
X314500Y207500D01*
X320000D01*
X322000Y209500D01*
G01X292516Y145547D02*
Y150516D01*
X296500Y154500D01*
Y164500D01*
X300000Y168000D01*
Y181500D01*
X303500Y185000D01*
Y200000D01*
X313000Y209500D01*
X318000D01*
G01X311000Y189000D02*
X306500Y184500D01*
Y168000D01*
X301500Y163000D01*
Y153000D01*
X298421Y149921D01*
Y145547D01*
G01X288000Y176500D02*
X294500D01*
G01X292760Y195000D02*
Y200051D01*
X290500Y202311D01*
Y203000D01*
G01X301250Y188750D02*
X298895Y186395D01*
G01D02*
X298132D01*
X296500Y184764D01*
Y183780D01*
G01X291000Y210000D02*
Y214500D01*
G01X290500Y203000D02*
Y206830D01*
X291000Y207330D01*
Y210000D01*
G01X291500Y226000D02*
X289000Y223500D01*
Y220000D01*
X293000Y216000D01*
X302500D01*
X306750Y211750D01*
X340750D01*
X354500Y198000D01*
Y187500D01*
X358500Y183500D01*
X373500D01*
X375000Y182000D01*
Y135000D01*
X366677Y126677D01*
X363654D01*
G01X295000Y221000D02*
X291500D01*
G01X372500Y126677D02*
Y130000D01*
X376500Y134000D01*
Y183000D01*
X374500Y185000D01*
X359500D01*
X356500Y188000D01*
Y199000D01*
X342000Y213500D01*
X307500D01*
X303500Y217500D01*
X297811D01*
X295000Y220311D01*
Y221000D01*
G01Y228000D02*
X293500D01*
X291500Y226000D01*
G01Y269000D02*
X295000D01*
G01X302500Y373000D02*
X292500D01*
X281500Y362000D01*
Y335500D01*
X284500Y332500D01*
Y304500D01*
X290000Y299000D01*
Y291000D01*
X298000Y283000D01*
Y270100D01*
X296900Y269000D01*
X295000D01*
G01X291500Y272500D02*
X294170D01*
X295000Y273330D01*
Y276000D01*
G01X293980Y339000D02*
Y343350D01*
X293000Y344330D01*
Y347000D01*
G01D02*
Y352000D01*
G01X331500Y99000D02*
Y99689D01*
X334811Y103000D01*
Y109689D01*
X332500Y112000D01*
X302500D01*
X300390Y114110D01*
Y126453D01*
G01X314500Y140000D02*
X322280D01*
G01X314500D02*
X310500D01*
X307484Y136984D01*
X303047D01*
G01Y140921D02*
X304832D01*
X307000Y143090D01*
Y147500D01*
X313500Y154000D01*
Y180500D01*
X313000Y181000D01*
Y183500D01*
G01X311000Y178000D02*
Y155500D01*
X303047Y147547D01*
Y142890D01*
G01X314500Y146500D02*
X310000D01*
G01X305500Y158000D02*
Y154000D01*
X300390Y148890D01*
Y145547D01*
G01X305500Y158000D02*
X309000D01*
G01X305500Y161937D02*
X305697D01*
X308500Y164740D01*
Y180500D01*
X310000Y182000D01*
G01X302500Y174000D02*
Y178500D01*
G01X301500Y221000D02*
X306000D01*
G01X309000Y216000D02*
X318000D01*
X320240Y218240D01*
X330500D01*
G01X301500Y228000D02*
X306000D01*
G01X330500Y225720D02*
X317220D01*
X315500Y224000D01*
X308500D01*
G01X305000Y236000D02*
X308720Y239720D01*
X334500D01*
G01X307500Y234000D02*
X321500D01*
X323260Y232240D01*
X334500D01*
G01X300250Y240250D02*
X313720Y253720D01*
X330500D01*
G01X302500Y238000D02*
X309500Y245000D01*
X314563D01*
G01X318500D02*
X326210D01*
X327450Y246240D01*
X330500D01*
G01X301500Y276000D02*
X306000D01*
G01X301500Y269000D02*
X307500D01*
G01X309000Y317000D02*
Y321500D01*
G01X315500Y317000D02*
X319330D01*
X319830Y317500D01*
X322500D01*
G01X317500Y362500D02*
Y351000D01*
X322500Y346000D01*
X339500D01*
X344500Y341000D01*
X370500D01*
G01X321500Y362500D02*
X317500D01*
G01X315800Y398000D02*
X321000D01*
G01X327933Y28543D02*
Y33674D01*
X328000Y33741D01*
Y38500D01*
X334000Y44500D01*
X382189D01*
X386000Y48311D01*
Y49000D01*
G01X337500Y91000D02*
X341500D01*
G01X331000D02*
Y95830D01*
X331500Y96330D01*
Y99000D01*
G01X331000Y91000D02*
X323500D01*
G01X382500Y68000D02*
Y75500D01*
X371000Y87000D01*
X353500D01*
X341500Y99000D01*
X338000D01*
G01D02*
Y107000D01*
G01X324595D02*
X331500D01*
G01X333500Y140000D02*
X339000D01*
G01X322280D02*
X327000D01*
G01X328000Y155000D02*
Y159500D01*
G01X334500Y161000D02*
X339500D01*
G01X322280Y147480D02*
Y151220D01*
X321500Y152000D01*
Y155000D01*
G01D02*
Y160000D01*
G01X333500Y147480D02*
Y151000D01*
X334500Y152000D01*
Y154500D01*
G01X322000Y181000D02*
Y172500D01*
X326000Y168500D01*
X336500D01*
X341500Y163500D01*
Y116500D01*
X352000Y106000D01*
Y99500D01*
X355500Y96000D01*
X361476D01*
G01X364500Y143000D02*
X358000D01*
X348500Y152500D01*
Y191500D01*
X344000Y196000D01*
X333500D01*
X328500Y201000D01*
X322000D01*
G01X330500Y218240D02*
X337740D01*
X338000Y218500D01*
G01D02*
X345000Y225500D01*
Y230500D01*
X347122Y232622D01*
X354051D01*
G01X338000Y218500D02*
G01X330339Y235980D02*
X333980D01*
G01X321839Y221980D02*
X325480D01*
G01X354051Y234591D02*
X347091D01*
X338220Y225720D01*
G01D02*
X330500D01*
G01X339000Y239720D02*
X334500D01*
G01Y232240D02*
X339000D01*
G01X321839Y249980D02*
X325589D01*
G01X337020Y260000D02*
Y265980D01*
G01Y260000D02*
Y256650D01*
X339000Y254670D01*
Y252000D01*
G01X330500Y253720D02*
Y256500D01*
X332500Y258500D01*
G01X354051Y242465D02*
X345535D01*
X342000Y246000D01*
X339500D01*
X336000Y249500D01*
Y252000D01*
X334280Y253720D01*
X330500D01*
G01X354051Y240496D02*
X344504D01*
X341500Y243500D01*
X337500D01*
X334760Y246240D01*
G01D02*
X330500D01*
G01X335500Y276000D02*
Y272000D01*
G01X322000Y282000D02*
Y288000D01*
G01X328500Y282000D02*
X332330D01*
X332830Y282500D01*
X335500D01*
G01D02*
X341220D01*
X341720Y283000D01*
X345098D01*
G01X322500Y311000D02*
Y307000D01*
G01Y317500D02*
X328220D01*
X328720Y318000D01*
X332098D01*
G01X336500Y372430D02*
Y375000D01*
G01D02*
Y377570D01*
G01X334619Y375000D02*
X336500D01*
G01X328000Y372430D02*
Y375000D01*
G01D02*
Y377570D01*
G01Y375000D02*
X329881D01*
G01X329713Y379953D02*
Y384000D01*
G01D02*
Y388047D01*
G01X327241Y384000D02*
X329713D01*
G01D02*
X332184D01*
G01X321000Y392400D02*
Y398000D01*
G01X336300D02*
X341500D01*
G01X321000D02*
Y403600D01*
G01Y398000D02*
X326200D01*
G01X324500Y420650D02*
Y426000D01*
G01D02*
Y431350D01*
G01X319150Y426000D02*
X324500D01*
G01D02*
X329850D01*
G01X320517Y422017D02*
X324500Y426000D01*
G01D02*
X328483Y429983D01*
G01X320517D02*
X324500Y426000D01*
G01D02*
X328483Y422017D01*
G01X357067Y57677D02*
Y53933D01*
X362000Y49000D01*
X367000D01*
G01X356555Y58189D02*
X357067Y57677D01*
G01X361000Y91000D02*
X357000D01*
G01X349000Y101000D02*
Y96500D01*
G01X355500Y101000D02*
X359180D01*
X359298Y101118D01*
X361476D01*
G01X349000Y124000D02*
Y119000D01*
G01X339000Y181000D02*
Y173000D01*
X345000Y167000D01*
Y151000D01*
X352000Y144000D01*
Y122500D01*
X355500Y119000D01*
X361476D01*
G01X355500Y124000D02*
X359180D01*
X359298Y124118D01*
X361476D01*
G01X339000Y201000D02*
X344300D01*
X350500Y194800D01*
Y169500D01*
X358000Y162000D01*
X364500D01*
G01X347500Y201500D02*
X352500Y196500D01*
Y186000D01*
X357500Y181000D01*
X364500D01*
G01X348500Y226063D02*
Y223000D01*
G01X354051Y238528D02*
X343242D01*
X342050Y239720D01*
X339000D01*
G01Y232240D02*
X342740D01*
X347059Y236559D01*
X354051D01*
G01Y230653D02*
X349154D01*
X348500Y230000D01*
G01X343000Y372430D02*
Y375000D01*
G01D02*
Y377570D01*
G01X341119Y375000D02*
X343000D01*
G01D02*
X344881D01*
G01X342500Y368480D02*
X345366D01*
G01X342500D02*
Y370362D01*
G01X341917Y379953D02*
Y384000D01*
G01D02*
Y388047D01*
G01X339445Y384000D02*
X341917D01*
G01D02*
X344389D01*
G01X341500Y392400D02*
Y398000D01*
G01D02*
Y403600D01*
G01Y398000D02*
X346700D01*
G01X379500Y49000D02*
X373500D01*
G01X372500Y68000D02*
Y59000D01*
X373500Y58000D01*
Y49000D01*
G01X385500Y83520D02*
X377980D01*
X370500Y91000D01*
X367500D01*
G01X372500Y101118D02*
X375429D01*
X377811Y103500D01*
X378500D01*
G01Y97000D02*
X376000D01*
X374441Y98559D01*
X372500D01*
G01Y96000D02*
X369500D01*
X367500Y94000D01*
Y91000D01*
G01X363654Y126677D02*
X364500Y125832D01*
Y106071D01*
X362106Y103677D01*
X361476D01*
G01X372500Y126677D02*
X369177D01*
X366419Y123919D01*
Y106081D01*
X368823Y103677D01*
X372500D01*
G01D02*
Y106500D01*
G01X362000Y114000D02*
Y109000D01*
G01X378500Y127500D02*
Y125000D01*
X377618Y124118D01*
X372500D01*
G01X378500Y121000D02*
X378237Y120737D01*
X375500D01*
X374678Y121559D01*
X372500D01*
G01Y119000D02*
X369500D01*
X368500Y118000D01*
Y114000D01*
G01X386500Y112520D02*
X383535D01*
X383515Y112500D01*
X373500D01*
X372000Y114000D01*
X368500D01*
G01X361476Y126677D02*
X363654D01*
G01X361476D02*
Y129476D01*
G01X364500Y143000D02*
X367730D01*
X368450Y142280D01*
X371500D01*
G01X364500Y149500D02*
X368190D01*
X368450Y149760D01*
X371500D01*
G01D02*
Y153000D01*
G01X364500Y162000D02*
X367730D01*
X368450Y161280D01*
X371500D01*
G01X364500Y168500D02*
X368190D01*
X368450Y168760D01*
X371500D01*
G01D02*
Y172000D01*
G01X364500Y181000D02*
X367730D01*
X368450Y180280D01*
X371500D01*
G01X365862Y194914D02*
Y199158D01*
G01D02*
Y203401D01*
G01X361225Y199158D02*
X365862D01*
G01D02*
X370499D01*
G01X364500Y187500D02*
X368190D01*
X368450Y187760D01*
X371500D01*
G01D02*
X376000D01*
G01X361000Y211000D02*
X360968Y210968D01*
G01X360500Y244500D02*
X360433Y244433D01*
G01X365862Y252001D02*
Y256244D01*
G01D02*
Y260488D01*
G01X361225Y256244D02*
X365862D01*
G01D02*
X370499D01*
G01X365500Y311000D02*
X361000D01*
G01X388500Y20000D02*
Y40000D01*
X392500Y44000D01*
Y68000D01*
G01X385500Y87260D02*
X379500D01*
G01X385500Y83520D02*
Y80500D01*
G01X393755Y83520D02*
X393735Y83500D01*
G01X378500Y103500D02*
Y107500D01*
G01X385000Y101500D02*
Y105000D01*
G01Y98000D02*
Y101500D01*
G01X378500Y97000D02*
Y93000D01*
G01X381500Y116260D02*
X386500D01*
G01X378500Y121000D02*
Y117000D01*
G01X386500Y112520D02*
Y109500D01*
G01X394755Y112520D02*
X394735Y112500D01*
G01X378500Y127500D02*
Y131500D01*
G01X386000Y130500D02*
Y134000D01*
G01Y127000D02*
Y130500D01*
G01X387500Y148000D02*
X391000D01*
X398000Y141000D01*
X401000D01*
X405500Y136500D01*
Y131795D01*
G01X387500Y154500D02*
X382500D01*
G01X387500Y165000D02*
X392099D01*
X405303Y151795D01*
X405500D01*
G01X380161Y146020D02*
X384831D01*
X386811Y148000D01*
X387500D01*
G01Y171500D02*
X382500D01*
G01X405500Y171795D02*
X405205Y171500D01*
X401500D01*
X391000Y182000D01*
X387500D01*
G01X380161Y184020D02*
X384791D01*
X386811Y182000D01*
X387500D01*
G01X380161Y165020D02*
X384810D01*
X384830Y165000D01*
X387500D01*
G01Y188500D02*
X382500D01*
G01X392000Y338500D02*
X396500D01*
G01X381863Y390000D02*
X386500D01*
G01D02*
X391137D01*
G01X386500Y387922D02*
Y390000D01*
G01D02*
Y392078D01*
G01X408500Y60500D02*
Y56500D01*
G01X415500Y67220D02*
X411391D01*
X411170Y67000D01*
X408500D01*
G01D02*
X403500D01*
G01X401000Y53500D02*
X411000D01*
X413500Y56000D01*
X415500D01*
G01X413500Y81000D02*
X420000D01*
G01X413500Y102000D02*
X420000D01*
G01X405500Y144000D02*
X400000D01*
G01X405500Y131795D02*
X411995D01*
X412200Y132000D01*
X416500D01*
G01X405500Y164000D02*
X401000D01*
X399500Y165500D01*
G01X405500Y151795D02*
X411995D01*
X412200Y152000D01*
X416500D01*
G01X405500Y171795D02*
X411995D01*
X412200Y172000D01*
X416500D01*
G01X405500Y184000D02*
X400000D01*
G01X407236Y292736D02*
X396500Y303473D01*
G01D02*
Y338500D01*
G01X406000Y349430D02*
Y352000D01*
G01D02*
Y354570D01*
G01X404119Y352000D02*
X406000D01*
G01D02*
X407881D01*
G01X413500Y349430D02*
Y352000D01*
G01D02*
Y354570D01*
G01X411619Y352000D02*
X413500D01*
G01D02*
X415381D01*
G01X406713Y356953D02*
Y361000D01*
G01D02*
Y365047D01*
G01X404241Y361000D02*
X406713D01*
G01D02*
X409184D01*
G01X407847Y390000D02*
X412484D01*
G01D02*
X417122D01*
G01X412484Y387922D02*
Y390000D01*
G01D02*
Y392078D01*
G01X439740Y55000D02*
Y49240D01*
X429500Y39000D01*
G01X419240Y56000D02*
Y50500D01*
G01X431500Y61500D02*
Y65500D01*
G01X439740Y55000D02*
X431500D01*
G01D02*
X425961D01*
X424961Y56000D01*
X422980D01*
G01Y67220D02*
Y64255D01*
X423000Y64235D01*
Y63500D01*
X421500Y62000D01*
X417500D01*
X415500Y60000D01*
Y56000D01*
G01X419500Y345480D02*
X422366D01*
G01X419500D02*
Y347362D01*
G01X420000Y349430D02*
Y352000D01*
G01D02*
Y354570D01*
G01X418119Y352000D02*
X420000D01*
G01D02*
X421881D01*
G01X433500Y377000D02*
Y370500D01*
G01X418917Y356953D02*
Y361000D01*
G01D02*
Y365047D01*
G01X416445Y361000D02*
X418917D01*
G01D02*
X421389D01*
G01X433500Y407606D02*
Y399638D01*
G01Y408000D02*
Y407606D01*
G01X428500Y399638D02*
Y404669D01*
G01X426816Y399638D02*
X428500D01*
G01D02*
X430184D01*
G01X426816Y404669D02*
X428500Y399638D01*
G01D02*
X429342Y404669D01*
G01X426816Y397122D02*
X428500Y399638D01*
G01D02*
X430184Y402153D01*
G01X426816D02*
X428500Y399638D01*
G01X433500Y415480D02*
Y420000D01*
G01Y414500D02*
Y415480D01*
G01X428500Y432800D02*
Y438000D01*
G01X424455Y432800D02*
X428500Y438000D01*
G01X426478Y432800D02*
X428500Y438000D01*
G01D02*
Y443200D01*
G01X424300Y438000D02*
X428500D01*
G01X424455Y443200D02*
X428500Y438000D01*
G01D02*
X430522Y443200D01*
G01X424378Y435400D02*
X428500Y438000D01*
G01X452000Y17500D02*
X456500D01*
G01X443480Y63661D02*
Y68000D01*
G01X452000Y69500D02*
X456500D01*
G01X453000Y125500D02*
X457500D01*
G01X453000Y185500D02*
X457500D01*
G01X453000Y246500D02*
X457500D01*
G01X453000Y307500D02*
X457500D01*
G01X438500Y354500D02*
X442500D01*
G01X445500Y347000D02*
X442000D01*
X440500Y348500D01*
G01X449000Y354500D02*
X458000D01*
G01X452000Y347000D02*
X457000D01*
X460500Y350500D01*
G01X443500Y362000D02*
X449000D01*
G01X438500Y377000D02*
Y370500D01*
G01X443500Y377000D02*
Y368500D01*
G01D02*
X440000D01*
X438500Y367000D01*
G01X443500Y399638D02*
Y404669D01*
G01Y399638D02*
X445185D01*
G01X445930Y408000D02*
X448500D01*
G01D02*
X451070D01*
G01X448500Y406119D02*
Y408000D01*
G01D02*
Y409881D01*
G01X438500Y399638D02*
Y404669D01*
G01X436816Y399638D02*
X438500D01*
G01D02*
X440185D01*
G01X438500D02*
X440185Y404669D01*
G01X438500Y399638D02*
X439342Y404669D01*
G01X436816Y397122D02*
X438500Y399638D01*
G01D02*
X440185Y402153D01*
G01X436816D02*
X438500Y399638D01*
G01Y432800D02*
Y438000D01*
G01D02*
X442700Y432800D01*
G01X436400D02*
X438500Y438000D01*
G01D02*
Y443200D01*
G01Y438000D02*
X442700D01*
G01X438500D02*
X442700Y443200D01*
G01X438500Y438000D02*
X440600Y443200D01*
G01X438500Y438000D02*
X442700Y440600D01*
G01X463500Y17500D02*
X456500D01*
G01X473500Y26000D02*
X468500D01*
G01X462500Y51500D02*
X469500D01*
G01X458000D02*
X462500D01*
G01X456500Y69500D02*
X463500D01*
G01X469500Y78000D02*
X473000D01*
G01X462500Y103500D02*
X469500D01*
G01X458000D02*
X462500D01*
G01X457500Y125500D02*
X464500D01*
G01X470000Y134000D02*
X474500D01*
G01X463500Y159500D02*
X470500D01*
G01X458500D02*
X463500D01*
G01X457500Y185500D02*
X464500D01*
G01X474500Y194000D02*
X471000D01*
G01X463500Y219500D02*
X470500D01*
G01X459000D02*
X463500D01*
G01X464500Y246500D02*
X457500D01*
G01X470500Y255000D02*
X474501D01*
X474750Y254750D01*
G01X463500Y280500D02*
X470500D01*
G01X459000D02*
X463500D01*
G01X457500Y307500D02*
X464500D01*
G01X470000Y316000D02*
X474500D01*
G01X463500Y341500D02*
X470500D01*
G01X459000D02*
X463500D01*
G01X462551Y357863D02*
Y362500D01*
G01D02*
Y367137D01*
G01X460473Y362500D02*
X462551D01*
G01X472000Y357863D02*
Y362500D01*
G01D02*
Y367137D01*
G01Y362500D02*
X474078D01*
G01X463500Y395363D02*
Y400000D01*
G01D02*
Y404637D01*
G01X461422Y400000D02*
X463500D01*
G01D02*
X465578D01*
G01X468500Y424063D02*
X469780Y422783D01*
Y419000D01*
G01D02*
Y414280D01*
G01X468500Y438000D02*
Y428000D01*
G01X493500Y10000D02*
X489500D01*
G01X490839Y20980D02*
X495000D01*
G01X482500Y14740D02*
X482760Y15000D01*
X488000D01*
G01X481240Y34000D02*
X481273Y33967D01*
Y30773D01*
X480000Y29500D01*
G01X493500Y60000D02*
X489500D01*
G01X482500Y66740D02*
X487000D01*
G01X490839Y70980D02*
X495500D01*
G01X481240Y86000D02*
Y81740D01*
G01X491839Y120980D02*
X496500D01*
G01X494500Y110000D02*
X490500D01*
G01X483500Y122740D02*
X487500D01*
G01X481240Y142000D02*
Y137500D01*
G01X492000Y138000D02*
Y132000D01*
G01Y158000D02*
Y163000D01*
G01X491839Y180980D02*
X496000D01*
G01X489000Y184000D02*
X487727Y182727D01*
X483513D01*
X483500Y182740D01*
G01X481240Y202000D02*
Y197000D01*
G01X492000Y199000D02*
Y192000D01*
G01Y219000D02*
Y224000D01*
G01X494500Y231000D02*
X490500D01*
G01X491839Y241980D02*
X496500D01*
G01X487500Y243740D02*
X483500D01*
G01X481240Y263000D02*
Y258000D01*
G01X492000Y260000D02*
Y253000D01*
G01X494500Y292000D02*
X490500D01*
G01X492000Y280000D02*
Y285000D01*
G01X491839Y302980D02*
X496000D01*
G01X483500Y304740D02*
X487740D01*
G01X492000Y321000D02*
Y314000D01*
G01X481240Y324000D02*
Y319500D01*
G01X485000Y347000D02*
Y341500D01*
G01Y354000D02*
Y347000D01*
G01X486980Y363000D02*
Y358650D01*
X485000Y356670D01*
Y354000D01*
G01X478500Y344430D02*
Y347000D01*
G01D02*
Y349570D01*
G01X476619Y347000D02*
X478500D01*
G01D02*
X480381D01*
G01X478500Y351430D02*
Y354000D01*
G01D02*
Y356570D01*
G01X476619Y354000D02*
X478500D01*
G01D02*
X480381D01*
G01X492000Y340000D02*
Y347000D01*
G01X479106Y359445D02*
Y363000D01*
G01D02*
Y366555D01*
G01X476438Y363000D02*
X479106D01*
G01D02*
X481775D01*
G01X473520Y410339D02*
Y414089D01*
G01X491815Y399638D02*
X493500D01*
G01X491815Y404669D02*
X493500Y399638D01*
G01X491815Y397122D02*
X493500Y399638D01*
G01X491815Y402153D02*
X493500Y399638D01*
G01X478500Y424063D02*
X477260Y422823D01*
Y419000D01*
G01D02*
Y414240D01*
G01X489455Y432800D02*
X493500Y438000D01*
G01X491478Y432800D02*
X493500Y438000D01*
G01X478500D02*
Y428000D01*
G01X489300Y438000D02*
X493500D01*
G01X489455Y443200D02*
X493500Y438000D01*
G01X489378Y435400D02*
X493500Y438000D01*
G01X500000Y36000D02*
Y29000D01*
G01Y46000D02*
Y53000D01*
G01Y88000D02*
Y81000D01*
G01Y98000D02*
Y105000D01*
G01X494500Y170000D02*
Y165000D01*
G01X503500Y377000D02*
Y370500D01*
G01X498500Y377000D02*
Y370500D01*
G01X508500Y377000D02*
Y370500D01*
G01X498500Y399638D02*
Y407606D01*
G01D02*
Y408000D01*
G01X510930D02*
X513500D01*
G01X508500Y399638D02*
Y404669D01*
G01Y399638D02*
X510184D01*
G01X503500D02*
Y404669D01*
G01X501816Y399638D02*
X503500D01*
G01D02*
X505184D01*
G01X503500D02*
X505184Y404669D01*
G01X503500Y399638D02*
X504342Y404669D01*
G01X501816Y397122D02*
X503500Y399638D01*
G01D02*
X505184Y402153D01*
G01X501816D02*
X503500Y399638D01*
G01X493500D02*
Y404669D01*
G01Y399638D02*
X495185D01*
G01X493500D02*
X494342Y404669D01*
G01X493500Y399638D02*
X495185Y402153D01*
G01X498500Y415480D02*
Y420000D01*
G01Y414500D02*
Y415480D01*
G01X503500Y432800D02*
Y438000D01*
G01D02*
X507700Y432800D01*
G01X501400D02*
X503500Y438000D01*
G01X493500Y432800D02*
Y438000D01*
G01X503500D02*
Y443200D01*
G01Y438000D02*
X507700D01*
G01X503500D02*
X507700Y443200D01*
G01X503500Y438000D02*
X505600Y443200D01*
G01X503500Y438000D02*
X507700Y440600D01*
G01X493500Y438000D02*
Y443200D01*
G01Y438000D02*
X495522Y443200D01*
G01X528500Y395363D02*
Y400000D01*
G01D02*
Y404637D01*
G01X526422Y400000D02*
X528500D01*
G01D02*
X530578D01*
G01X513500Y408000D02*
X516070D01*
G01X513500Y406119D02*
Y408000D01*
G01D02*
Y409881D01*
G01X545500Y352000D02*
Y357000D01*
G01X532500Y352000D02*
X538413D01*
G01X545500Y362000D02*
Y357000D01*
G01X546500Y369250D02*
X540750D01*
X538413Y366913D01*
Y362000D01*
G01X546500Y375750D02*
Y381500D01*
G01X538520Y410339D02*
Y413980D01*
G01X534780Y419000D02*
Y422783D01*
X533500Y424063D01*
G01X534780Y419000D02*
X531500D01*
X531000Y419500D01*
G01X542260Y419000D02*
Y422823D01*
X543500Y424063D01*
G01X542260Y419000D02*
Y414240D01*
G01X533500Y438000D02*
Y428000D01*
G01X543500Y438000D02*
Y428000D01*
G54D22*
X29500Y70000D03*
X19500D03*
G54D40*
X66098Y118402D03*
X64130D03*
X62161D03*
X60193D03*
X58224D03*
X56256D03*
G54D13*
X9823Y61402D03*
G54D31*
X50571D03*
X67500Y28331D03*
Y24000D03*
Y49984D03*
Y45654D03*
Y41323D03*
Y36992D03*
Y32661D03*
Y58055D03*
Y54315D03*
G54D107*
G01X360650Y439000D02*
Y442100D01*
X360190Y441480D01*
G01Y439000D02*
X361110D01*
G54D23*
X27000Y78000D03*
Y86000D03*
Y94000D03*
X26000Y294000D03*
Y308000D03*
Y336000D03*
Y322000D03*
X33500Y78000D03*
Y86000D03*
X39000Y70000D03*
X45500D03*
X33500Y94000D03*
X33000Y104000D03*
X39500D03*
X51000Y112000D03*
X33000Y152000D03*
X39500D03*
X32500Y294000D03*
Y308000D03*
X45000Y307500D03*
X32500Y336000D03*
Y322000D03*
X44000Y377000D03*
X50500D03*
X67000Y106000D03*
X57500Y112000D03*
X51500Y307500D03*
X59250Y387000D03*
X65750D03*
X73500Y106000D03*
X106000Y347000D03*
X110500Y91000D03*
X117000D03*
X111000Y129000D03*
X117500D03*
X112500Y347000D03*
X140000Y91000D03*
X146500D03*
X140000Y129000D03*
X146500D03*
X136500Y359500D03*
X143000D03*
X137000Y388500D03*
X143500D03*
X201000Y174000D03*
Y181000D03*
X200000Y278000D03*
Y285000D03*
X222000Y181000D03*
Y174000D03*
X207500D03*
Y181000D03*
X206500Y278000D03*
Y285000D03*
X222000Y347000D03*
X228500Y181000D03*
Y174000D03*
Y347000D03*
X248000Y91000D03*
X254500D03*
X255000Y359000D03*
X261500D03*
X254500Y388500D03*
X261000D03*
X263000Y98000D03*
X269500D03*
X285000Y157000D03*
X291500D03*
X285000Y164000D03*
X291500D03*
X296000Y174000D03*
X295000Y221000D03*
X291000Y210000D03*
X297500D03*
X295000Y228000D03*
Y276000D03*
Y269000D03*
X302500Y174000D03*
X301500Y221000D03*
Y228000D03*
Y276000D03*
Y269000D03*
X309000Y317000D03*
X315500D03*
X331000Y91000D03*
X337500D03*
X339000Y252000D03*
X322000Y282000D03*
X328500D03*
X349000Y101000D03*
X355500D03*
X349000Y124000D03*
X355500D03*
X345500Y252000D03*
X340000Y354000D03*
X346500D03*
X367000Y49000D03*
X373500D03*
X361000Y91000D03*
X367500D03*
X362000Y114000D03*
X368500D03*
X385000Y105000D03*
X391500D03*
X385000Y98000D03*
X391500D03*
X386000Y127000D03*
X392500D03*
X386000Y134000D03*
X392500D03*
X416000Y331000D03*
X422500D03*
X450750Y427000D03*
X457250D03*
X477000Y26000D03*
X483500D03*
X477000Y78000D03*
X483500D03*
X478000Y134000D03*
X484500D03*
X492000Y138000D03*
Y158000D03*
X478000Y194000D03*
X484500D03*
X492000Y199000D03*
Y219000D03*
Y260000D03*
X478000Y255000D03*
X484500D03*
X492000Y280000D03*
X478000Y316000D03*
X484500D03*
X492000Y321000D03*
Y340000D03*
X500000Y36000D03*
X506500D03*
X500000Y46000D03*
X506500D03*
X500000Y88000D03*
X506500D03*
X500000Y98000D03*
X506500D03*
X498500Y138000D03*
Y158000D03*
Y199000D03*
Y219000D03*
Y260000D03*
Y280000D03*
Y321000D03*
Y340000D03*
X514750Y427000D03*
X521250D03*
G54D41*
X53500Y121158D03*
Y123126D03*
Y125094D03*
Y127063D03*
Y129032D03*
Y131000D03*
G54D14*
X10020Y79220D03*
Y93000D03*
X17500Y79220D03*
Y93000D03*
G54D32*
X44000Y146000D03*
Y139500D03*
X50500Y146000D03*
Y139500D03*
X42500Y193000D03*
Y186500D03*
X49000Y193000D03*
Y186500D03*
X84500Y102500D03*
Y96000D03*
X146500Y83500D03*
Y77000D03*
X134000Y374000D03*
Y367500D03*
X134500Y403000D03*
Y396500D03*
X159500Y217000D03*
X152500D03*
X159500Y223500D03*
X152500D03*
X159500Y255000D03*
X152500D03*
X159500Y261500D03*
X152500D03*
X218500Y328500D03*
Y322000D03*
X262500Y105000D03*
X255500D03*
X262500Y111500D03*
X255500D03*
X252500Y373500D03*
Y367000D03*
X252000Y403000D03*
Y396500D03*
X281500Y237500D03*
Y231000D03*
X288500Y239000D03*
Y245500D03*
X314500Y140000D03*
Y146500D03*
X335500Y276000D03*
Y282500D03*
X322500Y317500D03*
Y311000D03*
X378500Y103500D03*
Y97000D03*
Y121000D03*
X364500Y143000D03*
X378500Y127500D03*
X364500Y162000D03*
Y149500D03*
Y168500D03*
Y181000D03*
Y187500D03*
X377500Y277000D03*
Y283500D03*
X365500Y317500D03*
Y311000D03*
X387500Y165000D03*
Y154500D03*
Y148000D03*
Y171500D03*
Y182000D03*
Y188500D03*
X431500Y61500D03*
Y55000D03*
X443500Y368500D03*
Y362000D03*
X448500Y414500D03*
Y408000D03*
X463500Y11000D03*
X456500D03*
X463500Y17500D03*
X456500D03*
X462500Y45000D03*
X469500D03*
X462500Y51500D03*
X463500Y63000D03*
X469500Y51500D03*
X456500Y63000D03*
X463500Y69500D03*
X456500D03*
X462500Y103500D03*
Y97000D03*
X469500Y103500D03*
Y97000D03*
X464500Y125500D03*
Y119000D03*
X457500Y125500D03*
Y119000D03*
X463500Y159500D03*
Y153000D03*
X470500Y159500D03*
Y153000D03*
X457500Y179000D03*
X464500D03*
X457500Y185500D03*
X464500D03*
X463500Y219500D03*
Y213000D03*
X470500Y219500D03*
Y213000D03*
X464500Y240000D03*
X457500D03*
X464500Y246500D03*
X457500D03*
X470500Y280500D03*
Y274000D03*
X463500Y280500D03*
Y274000D03*
X464500Y307500D03*
Y301000D03*
X457500Y307500D03*
Y301000D03*
X463500Y335000D03*
X470500D03*
X463500Y341500D03*
X470500D03*
X506500Y24500D03*
Y18000D03*
Y68000D03*
Y74500D03*
X507500Y124500D03*
Y118000D03*
Y178000D03*
Y184500D03*
Y239000D03*
Y245500D03*
Y306500D03*
Y300000D03*
X513500Y414500D03*
Y408000D03*
G54D50*
X97177Y179874D03*
X98752D03*
X100327D03*
X101902D03*
X103476D03*
X105051D03*
X106626D03*
X97177Y192000D03*
X98752D03*
X100327D03*
X101902D03*
X103476D03*
X105051D03*
X106626D03*
X97177Y271874D03*
X98752D03*
X100327D03*
X101902D03*
X103476D03*
X105051D03*
X106626D03*
X97177Y284000D03*
X98752D03*
X100327D03*
X101902D03*
X103476D03*
X105051D03*
X106626D03*
X108201Y179874D03*
X109776D03*
X111350D03*
X112925D03*
X114500D03*
X108201Y192000D03*
X109776D03*
X111350D03*
X112925D03*
X114500D03*
X108201Y271874D03*
X109776D03*
X111350D03*
X112925D03*
X114500D03*
X108201Y284000D03*
X109776D03*
X111350D03*
X112925D03*
X114500D03*
G54D108*
G01X32890Y178740D02*
X28740D01*
X27500Y177500D01*
X23873D01*
X22932Y178441D01*
X19500D01*
G01Y175882D02*
X23046D01*
X23314Y176150D01*
X25350D01*
X26500Y175000D01*
Y173000D01*
X28240Y171260D01*
X32890D01*
G01X243004Y210331D02*
X238937D01*
X238824Y210443D01*
X190352D01*
X168559Y188650D01*
X159059D01*
X151559Y181150D01*
X122441D01*
X118441Y185150D01*
X87559D01*
X84409Y182000D01*
X40909D01*
X39850Y180941D01*
Y179650D01*
X40759Y178741D01*
X44110Y178740D01*
G01X243004Y211906D02*
X238937D01*
X238824Y211793D01*
X189793D01*
X168000Y190000D01*
X158500D01*
X151000Y182500D01*
X123000D01*
X119000Y186500D01*
X87000D01*
X83850Y183350D01*
X40350D01*
X38500Y181500D01*
Y174500D01*
X41740Y171260D01*
X44110D01*
G54D51*
X100563Y172278D03*
Y199278D03*
Y264278D03*
Y291278D03*
X112563Y172278D03*
Y199278D03*
Y264278D03*
Y291278D03*
G54D42*
X56256Y133756D03*
X58224D03*
X60193D03*
X62161D03*
X64130D03*
X66098D03*
G54D24*
X31890Y124760D03*
Y128500D03*
Y132240D03*
X32890Y171260D03*
Y175000D03*
Y178740D03*
X43110Y124760D03*
Y132240D03*
Y128500D03*
X44110Y178740D03*
Y175000D03*
Y171260D03*
X396720Y83520D03*
X385500D03*
Y87260D03*
X396720Y91000D03*
X385500D03*
X397720Y120000D03*
Y112520D03*
X386500D03*
Y116260D03*
Y120000D03*
G54D60*
X128000Y242866D03*
Y244835D03*
X132528D03*
Y242866D03*
G54D15*
X9413Y104000D03*
Y152000D03*
X10500Y294000D03*
Y308000D03*
Y322000D03*
Y336000D03*
X16500Y104000D03*
Y152000D03*
X17587Y294000D03*
Y308000D03*
Y322000D03*
Y336000D03*
X538413Y352000D03*
X545500D03*
X538413Y362000D03*
X545500D03*
G54D33*
X46500Y315000D03*
X41500D03*
Y335100D03*
X46500D03*
X56500Y315000D03*
X51500D03*
Y335100D03*
X56500D03*
X66500Y357000D03*
X61500D03*
X56500D03*
Y377100D03*
X61500D03*
X66500D03*
X71500Y357000D03*
Y377100D03*
G54D109*
G01X97540Y332000D02*
Y327000D01*
G01Y327750D02*
X97287Y327333D01*
X96907Y327083D01*
X96463Y327000D01*
X95957Y327167D01*
X95577Y327583D01*
X95323Y328083D01*
X95260Y328667D01*
X95323Y329250D01*
X95577Y329750D01*
X95957Y330167D01*
X96463Y330333D01*
X96907Y330250D01*
X97223Y330083D01*
X97540Y329750D01*
G01X100550Y327583D02*
X100867Y327250D01*
X101310Y327000D01*
X101690D01*
X102070Y327167D01*
X102323Y327417D01*
X102450Y327750D01*
X102387Y328250D01*
X102133Y328500D01*
X100993Y329000D01*
X100740Y329583D01*
X100867Y330000D01*
X101120Y330250D01*
X101500Y330333D01*
X101880Y330250D01*
X102260Y330000D01*
G01X105333Y327000D02*
Y332000D01*
X106853D01*
X107360Y331750D01*
X107740Y331167D01*
X107867Y330500D01*
X107740Y329833D01*
X107423Y329333D01*
X106853Y329083D01*
X105333D01*
G01X110750Y329250D02*
X112777D01*
X112587Y329833D01*
X112270Y330167D01*
X111827Y330333D01*
X111383Y330250D01*
X111003Y330000D01*
X110750Y329417D01*
X110623Y328917D01*
Y328417D01*
X110750Y327917D01*
X111067Y327417D01*
X111447Y327083D01*
X111890Y327000D01*
X112333Y327167D01*
X112777Y327666D01*
G01X117940Y327000D02*
Y330333D01*
G01Y329750D02*
X117687Y330083D01*
X117307Y330250D01*
X116863Y330333D01*
X116420Y330167D01*
X116040Y329833D01*
X115787Y329333D01*
X115660Y328667D01*
X115787Y328000D01*
X116040Y327500D01*
X116420Y327167D01*
X116863Y327000D01*
X117307Y327083D01*
X117687Y327333D01*
X117940Y327666D01*
G01X120823Y327000D02*
Y332000D01*
G01X122850Y330333D02*
X120823Y328417D01*
G01X121647Y329167D02*
X122977Y327000D01*
G01X243004Y207181D02*
X238971D01*
X237652Y208500D01*
X222000D01*
X221000Y207500D01*
X192000D01*
X183000Y198500D01*
G01X179000Y197000D02*
Y194000D01*
G01X183500Y62000D02*
X190433D01*
X193933Y58500D01*
G01X283953Y133047D02*
X281968D01*
X281691Y132769D01*
X279770D01*
X279500Y132500D01*
G01X236000Y99500D02*
X228067D01*
X223067Y94500D01*
G01X214500Y277606D02*
Y274347D01*
X214264Y274110D01*
Y262693D01*
G01X235933Y28543D02*
Y47933D01*
X256500Y68500D01*
Y85500D01*
X254500Y87500D01*
Y91000D01*
G01X255500Y105000D02*
Y101370D01*
X255000Y100870D01*
Y98000D01*
G01D02*
Y94370D01*
X254500Y93870D01*
Y91000D01*
G01X255500Y111500D02*
Y113681D01*
X256819Y115000D01*
X269500D01*
X273500Y111000D01*
X283500D01*
X290547Y118047D01*
Y126453D01*
G01X255500Y131520D02*
Y126500D01*
G01X263500Y132500D02*
X260335D01*
X259354Y131520D01*
X255500D01*
G01X265067Y57677D02*
Y71189D01*
X265000Y71256D01*
Y74000D01*
X263500Y75500D01*
Y91000D01*
G01X262500Y105000D02*
Y101370D01*
X263000Y100870D01*
Y98000D01*
G01D02*
Y94370D01*
X263500Y93870D01*
Y91000D01*
G01X292516Y126453D02*
Y124468D01*
X292500Y124453D01*
Y116500D01*
X285000Y109000D01*
X272500D01*
X270000Y111500D01*
X262500D01*
G01X270500Y132500D02*
X263500D01*
G01X291050Y95500D02*
X285933Y90383D01*
Y28543D01*
G01X297500Y102000D02*
Y109000D01*
X294484Y112016D01*
Y126453D01*
G01X291050Y95500D02*
X297500D01*
G01X288579Y126453D02*
Y122579D01*
X286500Y120500D01*
G01X296453Y126453D02*
Y112547D01*
X304500Y104500D01*
Y102000D01*
G01X311000Y95500D02*
X315067Y91433D01*
Y57677D01*
G01X304500Y95500D02*
X311000D01*
G01X314500Y125500D02*
X321500D01*
G01X329500Y124520D02*
X334020D01*
X335500Y126000D01*
G01X321500Y125500D02*
X324665D01*
X325646Y124520D01*
X329500D01*
G01X448500Y414500D02*
Y418500D01*
G01X513500Y414500D02*
X518500D01*
G54D16*
X8476Y112724D03*
Y123551D03*
Y132213D03*
Y143039D03*
Y160724D03*
Y171551D03*
Y180213D03*
Y191039D03*
G54D25*
X17138Y115874D03*
Y140087D03*
Y163874D03*
Y188087D03*
G54D70*
X205547Y73425D03*
X223067Y57677D03*
X247547Y73425D03*
X265067Y57677D03*
X297547Y73425D03*
X315067Y57677D03*
X339547Y73425D03*
X357067Y57677D03*
G54D34*
X45000Y408000D03*
X175500Y55000D03*
X501500Y361000D03*
G54D43*
X52839Y213980D03*
X61500Y217720D03*
Y210240D03*
X52839Y259980D03*
X61500Y256240D03*
Y263720D03*
X88161Y24020D03*
X79500Y20280D03*
Y27760D03*
X88161Y46020D03*
X79500Y42280D03*
Y49760D03*
X178161Y16020D03*
X169500Y12280D03*
Y19760D03*
X202839Y324980D03*
X211500Y328720D03*
Y321240D03*
X321839Y221980D03*
X330500Y218240D03*
Y225720D03*
X330339Y235980D03*
X339000Y239720D03*
Y232240D03*
X321839Y249980D03*
X330500Y253720D03*
Y246240D03*
X371500Y142280D03*
Y149760D03*
Y161280D03*
Y180280D03*
Y168760D03*
Y187760D03*
X380161Y146020D03*
Y165020D03*
Y184020D03*
X490839Y20980D03*
Y70980D03*
X491839Y120980D03*
Y180980D03*
Y241980D03*
Y302980D03*
X499500Y24720D03*
Y17240D03*
Y67240D03*
Y74720D03*
X500500Y124720D03*
Y117240D03*
Y177240D03*
Y184720D03*
Y238240D03*
Y245720D03*
Y299240D03*
Y306720D03*
G54D61*
X132972Y198500D03*
X137500D03*
X132972Y208000D03*
Y214299D03*
X137500D03*
Y208000D03*
X132972Y204799D03*
X137500D03*
G54D52*
X104500Y170555D03*
X102532D03*
X98594D03*
X96626D03*
Y174000D03*
X98594D03*
X102532D03*
X104500D03*
Y197555D03*
X102532D03*
X98594D03*
X96626D03*
Y201000D03*
X98594D03*
X102532D03*
X104500D03*
Y262555D03*
X102532D03*
X98594D03*
X96626D03*
Y266000D03*
X98594D03*
X102532D03*
X104500D03*
Y289555D03*
X102532D03*
X98594D03*
X96626D03*
Y293000D03*
X98594D03*
X102532D03*
X104500D03*
X116500Y170555D03*
X114532D03*
X110594D03*
X108626D03*
Y174000D03*
X110594D03*
X114532D03*
X116500D03*
Y197555D03*
X114532D03*
X110594D03*
X108626D03*
Y201000D03*
X110594D03*
X114532D03*
X116500D03*
Y262555D03*
X114532D03*
X110594D03*
X108626D03*
Y266000D03*
X110594D03*
X114532D03*
X116500D03*
Y289555D03*
X114532D03*
X110594D03*
X108626D03*
Y293000D03*
X110594D03*
X114532D03*
X116500D03*
G54D35*
X67500Y17898D03*
G54D80*
X286610Y145547D03*
X288579D03*
X290547D03*
X292516D03*
X294484D03*
X296453D03*
X298421D03*
X300390D03*
G54D17*
X8941Y206000D03*
Y229000D03*
Y252000D03*
Y275000D03*
X36500Y206000D03*
Y229000D03*
Y252000D03*
Y275000D03*
X63500Y149000D03*
X91059D03*
G54D26*
X19500Y122764D03*
Y125323D03*
Y127882D03*
Y130441D03*
Y133000D03*
Y170764D03*
Y173323D03*
Y175882D03*
Y178441D03*
Y181000D03*
G54D53*
X96500Y353000D03*
Y363000D03*
Y373000D03*
Y383000D03*
Y393000D03*
Y403000D03*
Y413000D03*
X186500Y353000D03*
Y373000D03*
Y363000D03*
Y393000D03*
Y383000D03*
Y413000D03*
Y403000D03*
X212500Y353000D03*
Y363000D03*
Y373000D03*
Y383000D03*
Y393000D03*
Y403000D03*
Y413000D03*
X302500Y353000D03*
Y373000D03*
Y363000D03*
Y393000D03*
Y383000D03*
Y413000D03*
Y403000D03*
X322000Y181000D03*
Y191000D03*
X339000Y181000D03*
Y191000D03*
G54D44*
X67437Y315000D03*
X63500D03*
X95437Y51000D03*
X91500D03*
X137437Y219000D03*
X133500D03*
X137437Y234000D03*
X133500D03*
X137437Y224000D03*
X133500D03*
X137437Y229000D03*
X133500D03*
X131937Y256500D03*
X128000D03*
X138468Y275500D03*
X134532D03*
X138468Y270500D03*
X134532D03*
X190937Y159500D03*
X187000D03*
X190937Y154500D03*
X187000D03*
G54D62*
X132972Y200665D03*
Y202634D03*
X137500D03*
Y200665D03*
X132972Y210165D03*
Y212134D03*
X137500D03*
Y210165D03*
G54D71*
X193500Y290972D03*
X187201D03*
Y295500D03*
X193500D03*
X220701Y304972D03*
Y309500D03*
X227000Y304972D03*
Y309500D03*
G54D63*
X144500Y254606D03*
Y262480D03*
X214500Y277606D03*
Y285480D03*
X255500Y131520D03*
Y139394D03*
X272500Y213520D03*
Y221394D03*
X329500Y124520D03*
Y132394D03*
X433500Y415480D03*
Y407606D03*
X498500Y415480D03*
Y407606D03*
G54D18*
X10500Y368500D03*
Y375000D03*
X44500Y199500D03*
Y222500D03*
Y206000D03*
Y229000D03*
Y245500D03*
Y252000D03*
Y268500D03*
Y275000D03*
X34500Y368500D03*
Y375000D03*
X103500Y107500D03*
Y114000D03*
X117500Y77500D03*
Y84000D03*
X110500Y77500D03*
Y84000D03*
X139500Y77500D03*
Y84000D03*
X132500Y107500D03*
Y114000D03*
X162500Y20500D03*
Y27000D03*
X257500Y200500D03*
Y207000D03*
Y213500D03*
Y220000D03*
X263500Y132500D03*
Y139000D03*
X270500Y132500D03*
Y139000D03*
X277500Y156500D03*
Y163000D03*
X281500Y182500D03*
X274500D03*
X281500Y189000D03*
X264500Y200500D03*
X274500Y189000D03*
X264500Y213500D03*
Y220000D03*
Y207000D03*
X281500Y245500D03*
Y252000D03*
X297500Y95500D03*
Y102000D03*
X304500Y95500D03*
Y102000D03*
X314500Y125500D03*
Y132000D03*
X317500Y362500D03*
Y369000D03*
X321500Y125500D03*
Y132000D03*
X334500Y154500D03*
Y161000D03*
X396500Y338500D03*
Y345000D03*
X408500Y60500D03*
Y67000D03*
X469500Y32500D03*
Y39000D03*
X462500Y32500D03*
Y39000D03*
X469500Y84500D03*
X462500D03*
X469500Y91000D03*
X462500D03*
X470500Y140500D03*
X463500D03*
X470500Y147000D03*
X463500D03*
X470500Y200500D03*
X463500D03*
X470500Y207000D03*
X463500D03*
X470500Y261500D03*
Y268000D03*
X463500Y261500D03*
Y268000D03*
X470500Y322500D03*
Y329000D03*
X463500Y322500D03*
Y329000D03*
X492500Y37500D03*
Y44000D03*
Y89500D03*
Y96000D03*
Y144500D03*
Y151000D03*
Y205500D03*
Y212000D03*
Y266500D03*
Y273000D03*
Y327500D03*
Y334000D03*
X546500Y369250D03*
Y375750D03*
G54D72*
X191335Y290972D03*
X189366D03*
Y295500D03*
X191335D03*
X222866Y304972D03*
Y309500D03*
X224835Y304972D03*
Y309500D03*
G54D90*
X354051Y209000D03*
Y210968D03*
Y212937D03*
Y214905D03*
Y216874D03*
Y218842D03*
Y220811D03*
Y222780D03*
Y224748D03*
Y226716D03*
Y228685D03*
Y230653D03*
Y232622D03*
Y234591D03*
Y236559D03*
Y238528D03*
Y240496D03*
Y242465D03*
Y244433D03*
Y246402D03*
G54D36*
X64500Y75000D03*
Y80000D03*
Y85000D03*
Y90000D03*
X84600Y85000D03*
Y80000D03*
Y75000D03*
Y90000D03*
G54D54*
X96500Y423000D03*
X186500D03*
X212500D03*
X302500D03*
X322000Y201000D03*
X339000D03*
G54D81*
X283953Y129110D03*
Y131079D03*
Y133047D03*
Y135016D03*
Y136984D03*
Y138953D03*
Y140921D03*
Y142890D03*
G54D27*
X31500Y140500D03*
X30000Y186500D03*
X26250Y398500D03*
X19750D03*
X38000Y140500D03*
X36500Y186500D03*
X41000Y343000D03*
X34500D03*
X64500Y334000D03*
X89000Y35000D03*
X82500D03*
X71000Y334000D03*
X102500Y162000D03*
X118000Y122000D03*
X111500D03*
X109000Y162000D03*
X147000Y122000D03*
X140500D03*
X143500Y381500D03*
X137000D03*
X143000Y410500D03*
X136500D03*
X185500Y181000D03*
X177000Y347000D03*
X170500D03*
X192000Y181000D03*
X241500Y139000D03*
X238500Y277500D03*
X232000D03*
X238500Y284500D03*
X232000D03*
X255000Y98000D03*
X248500D03*
X248000Y139000D03*
X261000Y381000D03*
X254500D03*
X260500Y410500D03*
X254000D03*
X270000Y91000D03*
X263500D03*
X281500Y176500D03*
X288000D03*
X297000Y203000D03*
X290500D03*
X293000Y347000D03*
X286500D03*
X338000Y99000D03*
X331500D03*
X338000Y107000D03*
X331500D03*
X338500Y132500D03*
X328000Y155000D03*
X321500D03*
X334000Y354000D03*
X327500D03*
X328000Y375000D03*
X321500D03*
X336500D03*
X345000Y132500D03*
X343000Y375000D03*
X386000Y49000D03*
X379500D03*
X410000Y331000D03*
X403500D03*
X406000Y352000D03*
X399500D03*
X413500D03*
X435000Y142000D03*
X428500D03*
X435000Y162000D03*
X428500D03*
X435000Y182000D03*
X428500D03*
X420000Y352000D03*
X449000Y354500D03*
X442500D03*
X452000Y347000D03*
X445500D03*
X485000D03*
X478500D03*
X485000Y354000D03*
X478500D03*
X500000Y10000D03*
X493500D03*
X500000Y60000D03*
X493500D03*
X501000Y110000D03*
X494500D03*
X501000Y170000D03*
X494500D03*
X501000Y231000D03*
X494500D03*
X501000Y292000D03*
X494500D03*
X519000Y24000D03*
X512500D03*
X519000Y74000D03*
X512500D03*
X520000Y124000D03*
X513500D03*
X520000Y184000D03*
X513500D03*
X520000Y245000D03*
X513500D03*
X520000Y306000D03*
X513500D03*
G54D45*
X64280Y341000D03*
Y348480D03*
X75500D03*
Y344740D03*
Y341000D03*
X142780Y366500D03*
Y373980D03*
X143280Y395500D03*
Y402980D03*
X154000Y373980D03*
Y370240D03*
Y366500D03*
X154500Y395500D03*
Y402980D03*
Y399240D03*
X261280Y366000D03*
Y373480D03*
X260780Y395500D03*
Y402980D03*
X272500Y373480D03*
Y369740D03*
Y366000D03*
X272000Y395500D03*
Y402980D03*
Y399240D03*
X322280Y140000D03*
X333500Y143740D03*
Y140000D03*
X322280Y147480D03*
X333500D03*
X331280Y361000D03*
Y364740D03*
Y368480D03*
X342500D03*
Y364740D03*
Y361000D03*
X408280Y338000D03*
Y341740D03*
Y345480D03*
X419500Y338000D03*
Y345480D03*
Y341740D03*
X471280Y11000D03*
Y18480D03*
Y63000D03*
Y70480D03*
X472280Y119000D03*
Y126480D03*
Y179000D03*
Y186480D03*
Y240000D03*
Y247480D03*
Y301000D03*
Y308480D03*
X482500Y11000D03*
Y18480D03*
Y14740D03*
Y66740D03*
Y63000D03*
Y70480D03*
X483500Y126480D03*
Y122740D03*
Y119000D03*
Y182740D03*
Y179000D03*
Y186480D03*
Y240000D03*
Y247480D03*
Y243740D03*
Y308480D03*
Y304740D03*
Y301000D03*
G54D19*
X12063Y390000D03*
X26563D03*
X19937D03*
X50020Y104000D03*
X44020Y299500D03*
X42020Y369000D03*
X49894D03*
X34437Y390000D03*
X50063Y398000D03*
X57894Y104000D03*
X51894Y299500D03*
X57937Y398000D03*
X65063D03*
X72937D03*
X105020Y339000D03*
X112894D03*
X185106Y173000D03*
X177980Y339000D03*
X170106D03*
X200020Y166000D03*
X192980Y173000D03*
X207894Y166000D03*
X221020Y339000D03*
X239480Y292500D03*
X231606D03*
X228894Y339000D03*
X293980D03*
X286106D03*
X337020Y260000D03*
X344894D03*
X486980Y363000D03*
X479106D03*
G54D37*
X53563Y85000D03*
X57500D03*
X252063Y296500D03*
X256000D03*
X252063Y292000D03*
X256000D03*
X252063Y301000D03*
X256000D03*
X314563Y245000D03*
X318500D03*
G54D46*
X56500Y346063D03*
Y350000D03*
X198000Y296063D03*
X203000D03*
X198000Y300000D03*
X203000D03*
X213000Y296063D03*
X208000D03*
X218000D03*
X213000Y300000D03*
X208000D03*
X218000D03*
X348500Y226063D03*
Y230000D03*
X468500Y424063D03*
Y428000D03*
X478500Y424063D03*
Y428000D03*
X543500Y424063D03*
Y428000D03*
X533500Y424063D03*
Y428000D03*
G54D73*
X208500Y25000D03*
Y52559D03*
X250500Y25000D03*
Y52559D03*
X300500Y25000D03*
Y52559D03*
X342500Y25000D03*
Y52559D03*
G54D82*
X296500Y183780D03*
X289020D03*
Y195000D03*
X292760D03*
X296500D03*
G54D55*
X118658Y9913D03*
X128500Y67000D03*
X118658D03*
X138342Y9913D03*
Y67000D03*
G54D28*
X22520Y347339D03*
X18780Y356000D03*
X26260D03*
X23355Y415161D03*
X27095Y406500D03*
X19615D03*
X61355Y415161D03*
X65095Y406500D03*
X57615D03*
X124740Y74000D03*
X126740Y164000D03*
X128480Y82661D03*
X132220Y74000D03*
X134220Y164000D03*
X130480Y172661D03*
X443480Y63661D03*
X447220Y55000D03*
X439740D03*
X473520Y410339D03*
X469780Y419000D03*
X477260D03*
X538520Y410339D03*
X534780Y419000D03*
X542260D03*
G54D64*
X154562Y170690D03*
X158041Y179459D03*
X163330Y174170D03*
G54D91*
X370500Y341000D03*
Y364000D03*
G54D83*
X303047Y142890D03*
Y140921D03*
Y138953D03*
Y136984D03*
Y135016D03*
Y133047D03*
Y131079D03*
Y129110D03*
G54D29*
X27343Y363000D03*
X17500D03*
Y380913D03*
X27343D03*
G54D65*
X165500Y317748D03*
Y302000D03*
X419500Y19000D03*
X429500Y39000D03*
X439500Y19000D03*
G54D92*
X361476Y96000D03*
Y98559D03*
Y101118D03*
Y103677D03*
X372500D03*
Y101118D03*
Y98559D03*
Y96000D03*
X361476Y119000D03*
Y121559D03*
Y124118D03*
X372500D03*
Y121559D03*
Y119000D03*
X361476Y126677D03*
X372500D03*
G54D47*
X83500Y373000D03*
Y376937D03*
X114500Y161937D03*
Y158000D03*
X144500Y161937D03*
Y158000D03*
X162500Y10000D03*
Y13937D03*
X154500Y161937D03*
Y158000D03*
X199500Y373000D03*
Y376937D03*
X215000Y157937D03*
Y154000D03*
X220000Y157937D03*
Y154000D03*
X236500Y165000D03*
X225000Y157937D03*
Y154000D03*
X236500Y168937D03*
X305500Y161937D03*
Y158000D03*
G54D56*
X117980Y103000D03*
X114240D03*
X110500D03*
Y114220D03*
X117980D03*
X146980Y103000D03*
X143240D03*
X139500D03*
Y114220D03*
X146980D03*
X415500Y67220D03*
Y56000D03*
X422980Y67220D03*
Y56000D03*
X419240D03*
X477500Y45220D03*
X484980D03*
Y34000D03*
X481240D03*
X477500D03*
X484980Y86000D03*
X481240D03*
X477500D03*
Y97221D03*
X484980D03*
Y142000D03*
X481240D03*
X477500D03*
Y153220D03*
X484980D03*
Y202000D03*
X481240D03*
X477500D03*
Y213220D03*
X484980D03*
X477500Y274220D03*
X484980D03*
Y263000D03*
X481240D03*
X477500D03*
Y335220D03*
X484980D03*
Y324000D03*
X481240D03*
X477500D03*
G54D74*
X258484Y273516D03*
X266000Y266000D03*
G54D38*
X61177Y126079D03*
G54D93*
X365862Y199158D03*
Y256244D03*
G54D84*
X320500Y324583D03*
Y336787D03*
X333500Y290583D03*
Y302787D03*
X398500Y271213D03*
X387500D03*
X398500Y283417D03*
X387500D03*
G54D39*
X68854Y125094D03*
Y123126D03*
Y121158D03*
Y131000D03*
Y129032D03*
Y127063D03*
G54D75*
X281904Y115904D03*
X286500Y120500D03*
G54D48*
X76500Y431000D03*
X536500Y17000D03*
Y69000D03*
Y125000D03*
Y186000D03*
Y246000D03*
Y307000D03*
G54D57*
X124500Y149000D03*
X144500D03*
X134500D03*
X154500D03*
X372500Y68000D03*
X382500D03*
X436500Y91000D03*
Y112000D03*
Y132000D03*
X426500D03*
X436500Y152000D03*
X426500D03*
X436500Y172000D03*
X426500D03*
X448500Y438000D03*
X438500D03*
X468500D03*
X458500D03*
X478500D03*
X513500D03*
X503500D03*
X533500D03*
X523500D03*
X543500D03*
G54D66*
X184342Y194189D03*
X182768D03*
X181193D03*
Y262693D03*
X182768D03*
X184342D03*
X203240Y194189D03*
X201665D03*
X200091D03*
X198516D03*
X196941D03*
X195366D03*
X193791D03*
X192216D03*
X190642D03*
X189067D03*
X187492D03*
X185917D03*
Y262693D03*
X187492D03*
X189067D03*
X190642D03*
X192216D03*
X193791D03*
X195366D03*
X196941D03*
X198516D03*
X200091D03*
X201665D03*
X203240D03*
X222138Y194189D03*
X220563D03*
X218988D03*
X217413D03*
X215839D03*
X214264D03*
X212689D03*
X211114D03*
X209539D03*
X207965D03*
X206390D03*
X204815D03*
Y262693D03*
X206390D03*
X207965D03*
X209539D03*
X211114D03*
X212689D03*
X214264D03*
X215839D03*
X217413D03*
X218988D03*
X220563D03*
X222138D03*
X236311Y194189D03*
X234736D03*
X233161D03*
X231587D03*
X230012D03*
X228437D03*
X226862D03*
X225287D03*
X223713D03*
Y262693D03*
X225287D03*
X226862D03*
X228437D03*
X230012D03*
X231587D03*
X233161D03*
X234736D03*
X236311D03*
G54D94*
X378500Y20000D03*
X388500D03*
G54D58*
X114500Y149000D03*
X392500Y68000D03*
X416500Y132000D03*
Y152000D03*
Y172000D03*
X426500Y91000D03*
Y112000D03*
X428500Y438000D03*
X493500D03*
G54D67*
X174500Y200882D03*
Y202457D03*
Y204032D03*
Y205606D03*
Y207181D03*
Y208756D03*
Y210331D03*
Y211906D03*
Y213480D03*
Y215055D03*
Y216630D03*
Y218205D03*
Y219780D03*
Y221354D03*
Y222929D03*
Y224504D03*
Y226079D03*
Y227654D03*
Y229228D03*
Y230803D03*
Y232378D03*
Y233953D03*
Y235528D03*
Y237102D03*
Y238677D03*
Y240252D03*
Y241827D03*
Y243402D03*
Y244976D03*
Y246551D03*
Y248126D03*
Y249701D03*
Y251276D03*
Y252850D03*
Y254425D03*
Y256000D03*
X243004Y202457D03*
Y200882D03*
Y221354D03*
Y219780D03*
Y218205D03*
Y216630D03*
Y215055D03*
Y213480D03*
Y211906D03*
Y210331D03*
Y208756D03*
Y207181D03*
Y205606D03*
Y204032D03*
Y240252D03*
Y238677D03*
Y237102D03*
Y235528D03*
Y233953D03*
Y232378D03*
Y230803D03*
Y229228D03*
Y227654D03*
Y226079D03*
Y224504D03*
Y222929D03*
Y256000D03*
Y254425D03*
Y252850D03*
Y251276D03*
Y249701D03*
Y248126D03*
Y246551D03*
Y244976D03*
Y243402D03*
Y241827D03*
G54D76*
X269500Y231000D03*
Y252654D03*
G54D49*
X104484Y37472D03*
X152516D03*
G54D85*
X321000Y398000D03*
X341500D03*
G54D95*
X407236Y292736D03*
X423500Y309000D03*
G54D86*
X343299Y320500D03*
X356299Y285500D03*
G54D77*
X276596Y275596D03*
X272000Y271000D03*
X264000Y279000D03*
X268596Y283596D03*
G54D68*
X185540Y325960D03*
X196500Y315000D03*
G54D59*
X128000Y240701D03*
Y247000D03*
X132528Y240701D03*
Y247000D03*
G54D87*
X332098Y313000D03*
Y318000D03*
Y323000D03*
Y328000D03*
X345098Y278000D03*
Y283000D03*
Y288000D03*
Y293000D03*
X354500Y318000D03*
Y313000D03*
Y328000D03*
Y323000D03*
X367500Y278000D03*
Y293000D03*
Y288000D03*
Y283000D03*
G54D96*
X386500Y390000D03*
X412484D03*
G54D78*
X298421Y126453D03*
X296453D03*
X294484D03*
X292516D03*
X290547D03*
X288579D03*
X286610D03*
X300390D03*
G54D69*
X193933Y28543D03*
X223067Y20669D03*
X235933Y28543D03*
X265067Y20669D03*
X285933Y28543D03*
X315067Y20669D03*
X327933Y28543D03*
X357067Y20669D03*
G54D97*
X413500Y81000D03*
Y102000D03*
Y91000D03*
Y112000D03*
X515500Y46000D03*
Y36000D03*
Y88000D03*
Y98000D03*
G54D88*
X329713Y384000D03*
X341917D03*
X377083Y314000D03*
Y326000D03*
X389287Y314000D03*
Y326000D03*
X406713Y361000D03*
X418917D03*
G54D79*
X293500Y136000D03*
G54D89*
X324500Y426000D03*
X344185D03*
X390500D03*
X410185D03*
G54D98*
X405500Y131795D03*
Y144000D03*
Y151795D03*
Y164000D03*
Y171795D03*
Y184000D03*
G54D99*
X426500Y228000D03*
M02*
