G04 ================== begin FILE IDENTIFICATION RECORD ==================*
G04 Layout Name:  dspeak-v1_00-0b.brd*
G04 Film Name:    dsPeak-v1_00-0b-SoldermaskBot*
G04 File Format:  Gerber RS274X*
G04 File Origin:  Cadence Allegro 17.4-S015*
G04 Origin Date:  Fri Mar 19 07:40:18 2021*
G04 *
G04 Layer:  VIA CLASS/SOLDERMASK_BOTTOM*
G04 Layer:  PIN/SOLDERMASK_BOTTOM*
G04 Layer:  PACKAGE GEOMETRY/SOLDERMASK_BOTTOM*
G04 Layer:  BOARD GEOMETRY/SOLDERMASK_BOTTOM*
G04 *
G04 Offset:    (0.000 0.000)*
G04 Mirror:    No*
G04 Mode:      Positive*
G04 Rotation:  0*
G04 FullContactRelief:  No*
G04 UndefLineWidth:     6.000*
G04 ================== end FILE IDENTIFICATION RECORD ====================*
%FSLAX25Y25*MOIN*%
%IR0*IPPOS*OFA0.00000B0.00000*MIA0B0*SFA1.00000B1.00000*%
%AMMACRO13*
21,1,.067,.067,0.0,0.0,89.967*%
%ADD13MACRO13*%
%ADD23C,.11*%
%ADD10C,.17*%
%ADD25R,.145X.76*%
%ADD11C,.052*%
%ADD16O,.095X.075*%
%ADD19O,.075X.095*%
%ADD17R,.095X.075*%
%ADD20R,.075X.095*%
%ADD18C,.061024*%
%ADD12C,.067*%
%AMMACRO15*
4,1,44,-.051181,.039369,
-.051181,-.039369,
-.050852,-.043129,
-.049875,-.046775,
-.04828,-.050196,
-.046115,-.053288,
-.043446,-.055957,
-.040354,-.058122,
-.036934,-.059717,
-.033288,-.060694,
-.029527,-.061023,
-.029527,-.061023,
.029527,-.061023,
.033287,-.060695,
.036933,-.059718,
.040354,-.058122,
.043446,-.055957,
.046115,-.053288,
.04828,-.050197,
.049875,-.046776,
.050852,-.04313,
.051181,-.03937,
.051181,-.039369,
.051181,.039369,
.050852,.043129,
.049875,.046775,
.04828,.050196,
.046115,.053288,
.043446,.055957,
.040354,.058122,
.036934,.059717,
.033288,.060694,
.029527,.061023,
.029527,.061023,
-.029527,.061023,
-.033287,.060695,
-.036933,.059718,
-.040354,.058122,
-.043446,.055957,
-.046115,.053288,
-.04828,.050197,
-.049875,.046776,
-.050852,.04313,
-.051181,.03937,
-.051181,.039369,
0.0*
%
%ADD15MACRO15*%
%ADD21C,.051181*%
%ADD14R,.067X.067*%
%ADD24C,.03937*%
%ADD22C,.07874*%
G75*
%LPD*%
G75*
G36*
G01X375500Y436500D02*
Y444500D01*
X358500D01*
Y436500D01*
X375500D01*
G37*
G54D10*
X-11500Y225500D03*
X63500Y-12000D03*
Y463000D03*
X175500Y138000D03*
X268500Y320000D03*
X277500Y463000D03*
X491500Y-12000D03*
Y463000D03*
X567500Y225500D03*
G54D20*
X114500Y149000D03*
X392500Y68000D03*
X416500Y132000D03*
Y152000D03*
Y172000D03*
X426500Y91000D03*
Y112000D03*
X428500Y438000D03*
X493500D03*
G54D11*
X10500Y359000D03*
X31500Y40500D03*
X39000Y79000D03*
X48500Y140000D03*
X41500Y326500D03*
X49000Y342000D03*
X34500Y359000D03*
X44500Y436000D03*
X66000Y100000D03*
Y109500D03*
X67000Y276000D03*
X67500Y306500D03*
Y323000D03*
X84500Y27500D03*
Y42500D03*
Y57000D03*
X76000Y85000D03*
X80500Y357000D03*
Y368000D03*
X106000Y14000D03*
X93000Y142500D03*
Y133000D03*
X126500Y381500D03*
Y410500D03*
X152500Y20500D03*
X183500Y68000D03*
X236000Y93500D03*
X244500Y105000D03*
X235500Y317000D03*
X226500D03*
X235500Y328500D03*
X250500Y159000D03*
X251000Y209000D03*
X245500Y381000D03*
X245000Y410500D03*
X274000Y36000D03*
X273500Y105000D03*
X286000Y95500D03*
X289000Y259500D03*
X298500D03*
X318000Y95500D03*
X320000Y112500D03*
X313500Y158000D03*
X307000Y189000D03*
Y197000D03*
X311500Y249500D03*
Y328500D03*
X313500Y373000D03*
Y383000D03*
X323500Y84500D03*
X331500Y140000D03*
X340000Y240000D03*
X330500Y263500D03*
X322000Y298500D03*
X325000Y362500D03*
X345500Y218500D03*
X344000Y227000D03*
X348500Y234500D03*
X345500Y247500D03*
X372500Y111000D03*
X361500Y134000D03*
X395000Y83500D03*
X394000Y112500D03*
X396000Y220500D03*
X387000Y338500D03*
X401000Y59500D03*
X428000Y377000D03*
X454500Y38500D03*
X453000Y91000D03*
X452000Y146500D03*
X452500Y207500D03*
X450000Y268000D03*
X448500Y297500D03*
X439500Y377000D03*
X452000D03*
X463000Y26000D03*
Y76000D03*
X464000Y132000D03*
Y192000D03*
Y253000D03*
Y314000D03*
X489500Y377000D03*
X506500Y29000D03*
Y53000D03*
Y81000D03*
X507000Y105000D03*
X500000Y132000D03*
X499500Y163000D03*
X500500Y192000D03*
X498500Y226500D03*
Y253000D03*
X499000Y287000D03*
X498500Y314000D03*
Y347000D03*
X503500Y377000D03*
X516000Y370500D03*
X542500Y110500D03*
X544000Y402500D03*
G54D21*
X165500Y317748D03*
Y302000D03*
X419500Y19000D03*
X429500Y39000D03*
X439500Y19000D03*
G54D12*
X12500Y431006D03*
X22500Y431000D03*
X56500D03*
X66500D03*
X536500Y17000D03*
Y27000D03*
Y47000D03*
Y37000D03*
Y69000D03*
Y89000D03*
Y79000D03*
Y99000D03*
Y125000D03*
Y145000D03*
Y135000D03*
Y155000D03*
Y186000D03*
Y196000D03*
Y216000D03*
Y206000D03*
Y246000D03*
Y256000D03*
Y276000D03*
Y266000D03*
Y307000D03*
Y317000D03*
Y337000D03*
Y327000D03*
G54D22*
X208500Y25000D03*
Y52559D03*
X250500Y25000D03*
Y52559D03*
X300500Y25000D03*
Y52559D03*
X342500Y25000D03*
Y52559D03*
G54D13*
X32500Y430994D03*
G54D14*
X76500Y431000D03*
G54D23*
X324500Y426000D03*
X344185D03*
X390500D03*
X410185D03*
G54D24*
X378500Y20000D03*
X388500D03*
G54D15*
X104484Y37472D03*
X152516D03*
G54D16*
X96500Y353000D03*
Y363000D03*
Y373000D03*
Y383000D03*
Y393000D03*
Y403000D03*
Y413000D03*
X186500Y353000D03*
Y373000D03*
Y363000D03*
Y393000D03*
Y383000D03*
Y413000D03*
Y403000D03*
X212500Y353000D03*
Y363000D03*
Y373000D03*
Y383000D03*
Y393000D03*
Y403000D03*
Y413000D03*
X302500Y353000D03*
Y373000D03*
Y363000D03*
Y393000D03*
Y383000D03*
Y413000D03*
Y403000D03*
X322000Y181000D03*
Y191000D03*
X339000Y181000D03*
Y191000D03*
G54D25*
X426500Y228000D03*
G54D17*
X96500Y423000D03*
X186500D03*
X212500D03*
X302500D03*
X322000Y201000D03*
X339000D03*
G54D18*
X118658Y9913D03*
X128500Y67000D03*
X118658D03*
X138342Y9913D03*
Y67000D03*
G54D19*
X124500Y149000D03*
X144500D03*
X134500D03*
X154500D03*
X372500Y68000D03*
X382500D03*
X436500Y91000D03*
Y112000D03*
Y132000D03*
X426500D03*
X436500Y152000D03*
X426500D03*
X436500Y172000D03*
X426500D03*
X448500Y438000D03*
X438500D03*
X468500D03*
X458500D03*
X478500D03*
X513500D03*
X503500D03*
X533500D03*
X523500D03*
X543500D03*
M02*
