G04 ================== begin FILE IDENTIFICATION RECORD ==================*
G04 Layout Name:  C:/Users/jeanf/Google Drive/dsPeak/pcb/dsPeak-v1_00-0a.brd*
G04 Film Name:    dsPeak-v1_00-0a-BOTTOM*
G04 File Format:  Gerber RS274X*
G04 File Origin:  Cadence Allegro 17.2-S045*
G04 Origin Date:  Sat Jan 09 14:38:39 2021*
G04 *
G04 Layer:  ETCH/BOTTOM*
G04 Layer:  PIN/BOTTOM*
G04 Layer:  VIA CLASS/BOTTOM*
G04 *
G04 Offset:    (0.000 0.000)*
G04 Mirror:    No*
G04 Mode:      Positive*
G04 Rotation:  0*
G04 FullContactRelief:  No*
G04 UndefLineWidth:     6.000*
G04 ================== end FILE IDENTIFICATION RECORD ====================*
%FSLAX25Y25*MOIN*%
%IR0*IPPOS*OFA0.00000B0.00000*MIA0B0*SFA1.00000B1.00000*%
%AMMACRO14*
21,1,.062,.062,0.0,0.0,89.967*%
%ADD14MACRO14*%
%ADD10C,.14*%
%AMMACRO15*
4,1,44,-.045275,.033464,
-.045275,-.033464,
-.044947,-.037224,
-.04397,-.04087,
-.042374,-.044291,
-.040209,-.047383,
-.03754,-.050052,
-.034449,-.052217,
-.031028,-.053812,
-.027382,-.054789,
-.023622,-.055118,
-.023621,-.055118,
.023621,-.055118,
.027381,-.054789,
.031027,-.053812,
.034448,-.052217,
.03754,-.050052,
.040209,-.047383,
.042374,-.044291,
.043969,-.040871,
.044946,-.037225,
.045275,-.033464,
.045275,-.033464,
.045275,.033464,
.044947,.037224,
.04397,.04087,
.042374,.044291,
.040209,.047383,
.03754,.050052,
.034449,.052217,
.031028,.053812,
.027382,.054789,
.023622,.055118,
.023621,.055118,
-.023621,.055118,
-.027381,.054789,
-.031027,.053812,
-.034448,.052217,
-.03754,.050052,
-.040209,.047383,
-.042374,.044291,
-.043969,.040871,
-.044946,.037225,
-.045275,.033464,
-.045275,.033464,
0.0*
%
%ADD15MACRO15*%
%ADD20O,.09X.07*%
%ADD26R,.125X.74*%
%ADD18O,.07X.09*%
%ADD22R,.09X.07*%
%ADD12C,.02*%
%ADD19R,.07X.09*%
%ADD13C,.062*%
%ADD11C,.035*%
%ADD24C,.093*%
%ADD25C,.023622*%
%ADD23R,.062X.062*%
%ADD21C,.043307*%
%ADD16C,.055118*%
%ADD17C,.07874*%
%ADD27C,.006*%
%ADD28C,.008*%
%ADD29C,.011*%
G75*
%LPD*%
G75*
G54D10*
X63500Y-12000D03*
X-11500Y225500D03*
X63500Y463000D03*
X175500Y138000D03*
X268500Y320000D03*
X277500Y463000D03*
X491500Y-12000D03*
Y463000D03*
X567500Y225500D03*
G54D11*
X31500Y40500D03*
X48500Y140000D03*
X39000Y79000D03*
X41500Y326500D03*
X10500Y359000D03*
X34500D03*
X49000Y342000D03*
X44500Y436000D03*
X84500Y27500D03*
Y57000D03*
Y42500D03*
X106000Y14000D03*
X152500Y20500D03*
X171000Y89500D03*
X66000Y109500D03*
Y100000D03*
X93000Y142500D03*
Y133000D03*
X76000Y85000D03*
X67500Y306500D03*
Y323000D03*
X80500Y368000D03*
Y357000D03*
X67000Y276000D03*
X126500Y410500D03*
Y381500D03*
X274000Y36000D03*
X313500Y158000D03*
X307000Y189000D03*
X331500Y140000D03*
X236000Y93500D03*
X320000Y112500D03*
X323500Y84500D03*
X244500Y105000D03*
X273500D03*
X318000Y95500D03*
X286000D03*
X361500Y134000D03*
X251000Y209000D03*
X307000Y197000D03*
X250500Y159000D03*
X235500Y328500D03*
Y317000D03*
X311500Y249500D03*
X289000Y259500D03*
X298500D03*
X226500Y317000D03*
X325000Y362500D03*
X311500Y328500D03*
X322000Y298500D03*
X345500Y218500D03*
X344000Y227000D03*
X348500Y234500D03*
X340000Y240000D03*
X345500Y247500D03*
X330500Y263500D03*
X313500Y383000D03*
Y373000D03*
X245000Y410500D03*
X245500Y381000D03*
X506500Y53000D03*
X454500Y38500D03*
X506500Y29000D03*
X463000Y26000D03*
X401000Y59500D03*
X507000Y105000D03*
X453000Y91000D03*
X506500Y81000D03*
X452500Y207500D03*
X463000Y76000D03*
X500500Y192000D03*
X464000D03*
X372500Y111000D03*
X499500Y163000D03*
X452000Y146500D03*
X394000Y112500D03*
X395000Y83500D03*
X500000Y132000D03*
X464000D03*
X498500Y226500D03*
X448500Y297500D03*
X498500Y314000D03*
X464000D03*
X499000Y287000D03*
X450000Y268000D03*
X498500Y253000D03*
X464000D03*
X498500Y347000D03*
X387000Y338500D03*
X396000Y220500D03*
X439500Y377000D03*
X428000D03*
X452000D03*
X503500D03*
X489500D03*
X533000Y106000D03*
X516000Y370500D03*
X544000Y402500D03*
G54D20*
X212500Y353000D03*
Y363000D03*
X186500D03*
Y353000D03*
X96500D03*
Y363000D03*
X212500Y373000D03*
Y383000D03*
Y393000D03*
Y403000D03*
Y413000D03*
X186500D03*
Y403000D03*
Y393000D03*
Y383000D03*
Y373000D03*
X96500D03*
Y383000D03*
Y393000D03*
Y403000D03*
Y413000D03*
X339000Y181000D03*
Y191000D03*
X322000Y181000D03*
Y191000D03*
X242500Y146000D03*
Y136000D03*
X302500Y363000D03*
Y353000D03*
Y413000D03*
Y403000D03*
Y393000D03*
Y383000D03*
Y373000D03*
G54D21*
X165500Y317748D03*
Y302000D03*
X439500Y19000D03*
X429500Y39000D03*
X419500Y19000D03*
G54D12*
X13500Y5000D03*
X5500Y15000D03*
Y25000D03*
Y35000D03*
Y45000D03*
Y55000D03*
X53500Y5000D03*
X43500D03*
X33500D03*
X23500D03*
X46500Y61402D03*
X37000Y40500D03*
X5500Y206000D03*
Y196000D03*
Y107000D03*
Y97000D03*
Y87000D03*
Y77000D03*
Y67000D03*
X12500Y206000D03*
X39500Y125740D03*
X49500Y174740D03*
X50020Y98020D03*
X5500Y146000D03*
Y136000D03*
Y126000D03*
Y116000D03*
Y156000D03*
Y186000D03*
Y176000D03*
Y166000D03*
X50000Y84815D03*
X44000Y86000D03*
X47500Y90000D03*
X10000Y98000D03*
X56500Y97500D03*
X49500Y70000D03*
X39500Y199500D03*
X13000Y152000D03*
X53750Y164750D03*
X49500Y164500D03*
X53563Y81563D03*
X39000Y74000D03*
X37740Y174740D03*
X24250Y170750D03*
X36500Y125740D03*
X24500Y122500D03*
X39500Y109500D03*
Y147500D03*
X55161Y139661D03*
X5500Y216000D03*
Y366000D03*
Y356000D03*
Y346000D03*
Y336000D03*
Y326000D03*
Y316000D03*
Y306000D03*
Y296000D03*
Y286000D03*
Y276000D03*
Y266000D03*
Y256000D03*
Y246000D03*
Y236000D03*
Y226000D03*
X12500Y275000D03*
Y252000D03*
Y229000D03*
X10500Y330000D03*
Y316000D03*
Y302000D03*
Y288000D03*
X22520Y343500D03*
X30500Y343000D03*
X44020Y293500D03*
X42020Y363020D03*
X49500Y268500D03*
X52000Y293500D03*
X49500Y245500D03*
X39500Y222500D03*
X50000Y362500D03*
X41500Y321500D03*
X54000Y342000D03*
X47500Y289500D03*
X32500Y329000D03*
X36500Y322000D03*
X40000Y308000D03*
X34500Y364500D03*
X10500D03*
X5500Y446000D03*
X25500D03*
X5500Y436000D03*
Y426000D03*
Y416000D03*
Y406000D03*
Y386000D03*
Y376000D03*
X15500Y446000D03*
X35500D03*
X45500D03*
X55500D03*
X44500Y441000D03*
X5500Y396000D03*
X23355Y419355D03*
X30500Y398500D03*
X50063Y392063D03*
X34437Y394937D03*
X12063D03*
X113500Y5000D03*
X93500D03*
X181500D03*
X83500D03*
X73500D03*
X63500D03*
X123500D03*
X163500D03*
X173500D03*
X153500D03*
X133500D03*
X143500D03*
X103500D03*
X63555Y58055D03*
X63653Y45654D03*
X63500Y17898D03*
X93000Y35000D03*
X91980Y46020D03*
Y24020D03*
X174411Y16020D03*
X91000Y27760D03*
X90000Y42280D03*
X77000Y36000D03*
X167500Y27000D03*
X93000Y57000D03*
X106000Y20280D03*
X157500Y20500D03*
X58000Y149000D03*
X64000Y123000D03*
X58000D03*
X61000Y126000D03*
X64000Y129000D03*
X58000D03*
X56980Y213980D03*
X128480Y86480D03*
X136500Y91000D03*
X103500Y103500D03*
X132500D03*
X89500Y102500D03*
X121500Y129000D03*
X150500D03*
X60000Y75000D03*
X171000Y198000D03*
X200020Y161500D03*
X97177Y189000D03*
X101902D03*
X106626D03*
X111350D03*
X106626Y182874D03*
X111350Y182850D03*
X152000Y168128D03*
X130480Y176480D03*
X98068Y165932D03*
X106000Y91000D03*
X207000Y137500D03*
X192980Y167000D03*
X203240Y199000D03*
X189067Y199500D03*
X131000Y185951D03*
X101500Y166000D03*
X143000Y204799D03*
X196500Y205000D03*
X151000Y209000D03*
X141000Y208000D03*
X145000Y202634D03*
X194500Y203000D03*
X98000Y75000D03*
X75500Y140000D03*
X147000Y200665D03*
X192550Y201000D03*
X95500Y85000D03*
X73000Y136000D03*
X154500Y211000D03*
X141000Y185000D03*
X143500Y198500D03*
X189000Y186500D03*
X141000Y188500D03*
Y192000D03*
X59500Y97500D03*
X73500Y111000D03*
X89500Y96000D03*
X98500Y162000D03*
X94500Y180000D03*
X166500Y195000D03*
X154500Y190000D03*
X103500Y118500D03*
X134500Y84000D03*
X122500D03*
X127500Y114000D03*
X187000Y167000D03*
X184000D03*
X180000Y181000D03*
X90000Y204000D03*
X113000Y166000D03*
X90500Y170000D03*
X117500Y166500D03*
X90500Y173500D03*
X175000Y154500D03*
X110000Y166000D03*
X107500D03*
X169500Y159500D03*
X104500Y166000D03*
X166500Y157000D03*
X73000Y132000D03*
X93000Y92000D03*
X68500Y137000D03*
X205000Y159500D03*
X151000Y213026D03*
X93000Y189000D03*
X194000Y186500D03*
X195500Y183500D03*
X196000Y180000D03*
X74500Y115500D03*
X106500Y135000D03*
Y144500D03*
X74562Y154562D03*
X103500Y129000D03*
Y142500D03*
X72500Y151500D03*
X70500Y148500D03*
X100500Y133000D03*
Y140500D03*
X77500Y111000D03*
X122500Y201000D03*
X77500Y131000D03*
X79500Y85000D03*
X120750Y178750D03*
X90500Y177000D03*
X58500Y165500D03*
X171000Y95500D03*
X177474Y183974D03*
X171000Y184000D03*
X159000Y195500D03*
X72500Y124298D03*
X72158Y121158D03*
X191500Y188500D03*
X178250Y174750D03*
X207000Y154500D03*
X56980Y259980D03*
X138500Y262480D03*
X186500Y267500D03*
X148000Y223500D03*
X71000Y329500D03*
X81000Y348480D03*
X106626Y281000D03*
X101902D03*
X97177D03*
X111350D03*
X106626Y274874D03*
X111350Y274850D03*
X200000Y289500D03*
X129500Y367500D03*
X132500Y359500D03*
X100563Y259563D03*
X67000Y271000D03*
X106000Y352000D03*
X177000D03*
X179854Y221354D03*
X129000Y219000D03*
Y224000D03*
X203000Y292500D03*
X147500Y217000D03*
X138500Y255000D03*
X206500Y290000D03*
X64500Y329500D03*
X191500Y317500D03*
X194000Y320000D03*
X94500Y272000D03*
X203500Y245500D03*
X132000Y289000D03*
X194500Y362500D03*
X149768Y339000D03*
X207250Y245750D03*
X153500Y284000D03*
X172500Y267000D03*
X135500Y284000D03*
X147500Y359500D03*
X116500Y304000D03*
X114500Y301500D03*
X110500Y299000D03*
X108500Y296500D03*
X104500Y313500D03*
X189500Y305500D03*
X187500Y303500D03*
X102500Y311000D03*
X98500Y308500D03*
X185500Y301500D03*
X183500Y299500D03*
X96500Y306000D03*
X128000Y261000D03*
X84000Y318500D03*
X123000Y256500D03*
X82000Y311500D03*
X70500Y315000D03*
X203500Y220500D03*
X72500Y256240D03*
X76000Y252500D03*
X78727Y258000D03*
X198000Y292500D03*
X207500Y268500D03*
X194000Y306500D03*
X155000Y302500D03*
X207000Y254500D03*
X153500Y287500D03*
X203500Y330000D03*
X199500Y364500D03*
X78000Y323500D03*
X76000Y357000D03*
X82500Y332500D03*
X88250Y234250D03*
X73000Y325500D03*
X85000Y234500D03*
X180000Y230803D03*
X181500Y225000D03*
X147500Y268000D03*
X76000Y365000D03*
X195500Y217500D03*
X198000Y220500D03*
X201500Y217500D03*
X165500Y271000D03*
X93500Y268000D03*
X91000Y232500D03*
X192000Y216500D03*
X189500Y219000D03*
X186000D03*
X169000Y223500D03*
X187500Y310000D03*
X183750Y307750D03*
X184000Y312500D03*
X202500Y257500D03*
X157500Y287500D03*
Y326000D03*
X201665Y268000D03*
X161000Y287500D03*
Y325500D03*
X183000Y316000D03*
X179500Y315500D03*
X183000Y319500D03*
X190900Y256900D03*
X139000Y286268D03*
X180500Y234500D03*
X142500Y282000D03*
X186500Y257500D03*
X152000Y268500D03*
X159500Y370240D03*
X65500Y446000D03*
X75500D03*
X85500D03*
X95500D03*
X105500D03*
X115500D03*
X125500D03*
X135500D03*
X145500D03*
X155500D03*
X165500D03*
X175500D03*
X185500D03*
X195500D03*
X205500D03*
X74600Y377100D03*
X160000Y399240D03*
X130000Y396500D03*
X133000Y388500D03*
X61355Y419355D03*
X69500Y387000D03*
X120500Y406000D03*
X148000Y388500D03*
X88500Y373000D03*
X162500Y421500D03*
X166000D03*
X72937Y392063D03*
X132000Y410500D03*
X131500Y381500D03*
X350000Y21000D03*
Y17500D03*
X322000Y21000D03*
Y17500D03*
X258000Y21000D03*
Y17500D03*
X308000Y21000D03*
Y17500D03*
X272000D03*
Y21000D03*
X274000Y30500D03*
X335500Y126000D03*
X310000Y146500D03*
X339000Y140000D03*
X328000Y159500D03*
X302500Y178500D03*
X285000Y160442D03*
X278020Y189000D03*
X291000Y214500D03*
X293500Y136000D03*
X289000Y131500D03*
X293500D03*
X298000D03*
X289000Y136000D03*
X298000D03*
X289000Y140500D03*
X293500D03*
X298000D03*
X222000Y169500D03*
X264500Y196500D03*
X278480Y195520D03*
X278500Y213520D03*
X306000Y139000D03*
X308500Y141000D03*
X311000Y142500D03*
X314000Y143000D03*
X317000D03*
X320000D03*
X323000D03*
X311000Y137000D03*
X314000D03*
X317000D03*
X320000D03*
X323000D03*
X357000Y91000D03*
X349000Y96500D03*
X341500Y91000D03*
X279000Y113000D03*
X255500Y126500D03*
X274500Y119000D03*
X248000Y94500D03*
X269500D03*
X256000Y159000D03*
X247500Y200000D03*
X227500Y205000D03*
X224500Y206000D03*
X230500Y204000D03*
X228500Y169000D03*
X213000Y168000D03*
Y164000D03*
X277500Y160000D03*
X339500Y161000D03*
X335500Y134500D03*
Y131000D03*
X321500Y160000D03*
X261000Y207000D03*
X348500Y214000D03*
X301500Y212000D03*
Y208500D03*
X349000Y119000D03*
X250000Y138000D03*
Y141500D03*
X211500Y204500D03*
X215500Y202000D03*
X219000Y199500D03*
X218514Y188486D03*
X309000Y158000D03*
X327000Y140000D03*
X236000Y201000D03*
Y205606D03*
X324595Y107000D03*
X323500Y91000D03*
X347500Y201500D03*
X250500Y195500D03*
X245500D03*
X240000Y198000D03*
X212000Y176500D03*
X233500Y203000D03*
X257500Y186000D03*
X242500Y180000D03*
X254000Y166500D03*
X265000Y183500D03*
X264500Y188500D03*
X268000Y189000D03*
X254500Y163500D03*
X259500Y193000D03*
X257500Y190000D03*
X239500Y183000D03*
X211114Y198886D03*
X291000Y95500D03*
X301250Y188750D03*
X311000Y95500D03*
X322000Y209500D03*
X318000D03*
X307000Y182000D03*
X315000Y194000D03*
X311000Y183000D03*
Y178000D03*
X236000Y99500D03*
X250000Y105000D03*
X268000D03*
X252773Y200500D03*
X251000Y189500D03*
X229000Y158000D03*
X209500Y152000D03*
X212000Y173000D03*
X337000Y361000D03*
X349000Y343000D03*
X343000Y339500D03*
Y345500D03*
X340500Y348000D03*
X334000Y344000D03*
X330500D03*
X330000Y348000D03*
X326500D03*
X323000Y348500D03*
X320500Y351000D03*
X319500Y354500D03*
X345500Y343000D03*
X336500Y348000D03*
X333000D03*
X327000Y344000D03*
X323500D03*
X320000Y345500D03*
X315500Y354500D03*
Y351000D03*
X317500Y348000D03*
X337500Y344000D03*
X340500Y342000D03*
X346500Y339000D03*
X350000D03*
X315500Y358000D03*
X319500D03*
X361000Y311000D03*
X340000Y331500D03*
X343500D03*
X347000D03*
X340000Y328500D03*
X343500D03*
X347000D03*
X340000Y309500D03*
X343500D03*
X347000D03*
X340000Y312500D03*
X343500D03*
X347000D03*
X343500Y325000D03*
Y321000D03*
X347000D03*
Y316500D03*
X343500D03*
X340000D03*
X347000Y325000D03*
X340000Y321000D03*
Y325000D03*
X308500Y305500D03*
X322500Y307000D03*
X323500Y341000D03*
X317500D03*
X353000Y285500D03*
X360000D03*
X356500D03*
X353000Y281500D03*
X360000D03*
X356500D03*
X353000Y290000D03*
X360000D03*
X356500D03*
X353000Y274500D03*
X356500D03*
X360000D03*
Y277500D03*
X356500D03*
X353000D03*
Y293500D03*
X356500D03*
X360000D03*
Y296500D03*
X356500D03*
X353000D03*
X339000Y303000D03*
X328000D03*
X318500Y275000D03*
X335500Y272000D03*
X283500Y241500D03*
X279500D03*
X277000Y282500D03*
X348500Y223000D03*
X325589Y249980D03*
X333980Y235980D03*
X325480Y221980D03*
X244500Y292500D03*
X214500Y289000D03*
X337020Y265980D03*
X211500Y325500D03*
X254000Y363500D03*
X212500Y258000D03*
X222000Y352500D03*
X293000Y352000D03*
X258500Y271500D03*
X265500Y264500D03*
X210000Y255500D03*
X230000Y298500D03*
X233000D03*
X350000Y262000D03*
X306000Y269000D03*
Y276000D03*
Y228000D03*
Y221000D03*
X279500Y222500D03*
Y219500D03*
X293000Y330500D03*
X297000D03*
X301000D03*
Y326500D03*
X297000D03*
X293000D03*
X301000Y314500D03*
X297000D03*
X293000D03*
X301000Y310500D03*
X297000D03*
X293000D03*
X305000Y330500D03*
Y326500D03*
X301000Y306500D03*
X297000D03*
X293000D03*
X350000Y258500D03*
X243500Y327500D03*
X236500Y257500D03*
X251500Y326000D03*
Y249701D03*
X242000Y331000D03*
X233500Y257500D03*
X251500Y246000D03*
X254000Y310500D03*
X249500Y322500D03*
X247949Y246551D03*
X238024Y244976D03*
X247000Y325000D03*
X314000Y299500D03*
X308000D03*
X302000D03*
X314000Y294500D03*
X308000D03*
X302000D03*
X314000Y289500D03*
X308000D03*
X302000D03*
X314000Y284500D03*
X308000D03*
X266000Y359000D03*
X303500Y285500D03*
X218500Y318000D03*
X217000Y315500D03*
X215000Y313000D03*
X213000Y310500D03*
X220000Y220500D03*
X291500Y269000D03*
X247752Y240252D03*
X291500Y272500D03*
X235500Y242500D03*
X251500Y218500D03*
X291500Y226000D03*
X253000Y216000D03*
X291500Y221000D03*
X223500Y252000D03*
X239281Y266522D03*
X257500Y288000D03*
X223500Y249500D03*
X242000Y264000D03*
X257500Y284000D03*
X262500Y285000D03*
X223500Y247000D03*
X244500Y261500D03*
X229000Y270000D03*
X223000Y229500D03*
X338220Y225720D03*
X308500Y224000D03*
X338000Y218500D03*
X309000Y216000D03*
X334500Y239720D03*
X304500Y235500D03*
X334500Y232240D03*
X307500Y234000D03*
X298500Y238500D03*
X332500Y258500D03*
X301500Y237000D03*
X334760Y246240D03*
X306000Y253500D03*
X282000Y290500D03*
X218500D03*
X235500Y305000D03*
X217000Y303500D03*
X233500Y308000D03*
X283000Y294000D03*
X216500Y307000D03*
X235500Y311000D03*
X285500Y287500D03*
X232000Y244500D03*
X301500Y253500D03*
X296250Y249250D03*
X298500Y252000D03*
X246500Y349500D03*
X249500Y356000D03*
X226500Y325500D03*
X227750Y256000D03*
X229500Y303000D03*
X218988Y257512D03*
X213000Y292500D03*
X209500D03*
X215839Y256000D03*
X223000Y232000D03*
X321500Y362500D03*
X277500Y369740D03*
X215500Y446000D03*
X225500D03*
X235500D03*
X245500D03*
X255500D03*
X265500D03*
X275500D03*
X285500D03*
X295500D03*
X305500D03*
X315500D03*
X325500D03*
X335500D03*
X345500D03*
X355500D03*
X324000Y381500D03*
Y386500D03*
X332500Y374000D03*
X332000Y376500D03*
X277000Y399240D03*
X252670Y393000D03*
X265500Y388500D03*
X281500Y430000D03*
X286375Y430125D03*
X249500Y410500D03*
X250500Y381000D03*
X364000Y21000D03*
Y17500D03*
X369500Y5000D03*
X379500D03*
X389500D03*
X399500D03*
X439500D03*
X449500D03*
X462000D03*
X479500D03*
X489500D03*
X499500D03*
X419500D03*
X429500D03*
X409500D03*
X469500D03*
X509500D03*
X495000Y20980D03*
X489500Y10000D03*
X488000Y15000D03*
X480000Y29500D03*
X452000Y17500D03*
X458000Y51500D03*
X489500Y60000D03*
X419240Y50500D03*
X408500Y56500D03*
X454500Y32500D03*
X455000Y59000D03*
X458500D03*
X457500Y45000D03*
X452000Y12500D03*
Y10000D03*
X468500Y26000D03*
X500000Y29000D03*
Y53000D03*
X401000Y53500D03*
X431500Y65500D03*
X362000Y206000D03*
X366000D03*
X370000D03*
X362000Y109000D03*
X400000Y184000D03*
X399500Y165500D03*
X400000Y144000D03*
X438500Y182000D03*
Y162000D03*
X439000Y144000D03*
X443480Y68000D03*
X378500Y131500D03*
Y107500D03*
X379500Y87260D03*
X381500Y116260D03*
X420000Y102000D03*
Y81000D03*
X385000Y101500D03*
X386000Y130500D03*
X452000Y69500D03*
X453000Y125500D03*
Y185500D03*
X458000Y103500D03*
X458500Y159500D03*
X495500Y70980D03*
X487000Y66740D03*
X481240Y81740D03*
X496500Y120980D03*
X490500Y110000D03*
X487500Y122740D03*
X481240Y137500D03*
X496000Y180980D03*
X494500Y165000D03*
X489000Y184000D03*
X481240Y197000D03*
X371500Y153000D03*
Y172000D03*
X376000Y187760D03*
X492000Y163000D03*
Y132000D03*
X470000Y134000D03*
X453000Y84500D03*
X382500Y154500D03*
Y171500D03*
Y188500D03*
X396000Y105000D03*
X378500Y117000D03*
X397000Y134000D03*
X378500Y93000D03*
X457500Y97000D03*
X456000Y175000D03*
X459500D03*
X457500Y153000D03*
X456000Y115000D03*
X459500D03*
X403500Y67000D03*
X457500Y213000D03*
X452500Y200500D03*
X452000Y140500D03*
X386500Y109500D03*
X385500Y80500D03*
X361476Y129476D03*
X372500Y106500D03*
X469500Y78000D03*
X500000Y81000D03*
Y105000D03*
X492000Y192000D03*
X471000Y194000D03*
X370000Y249500D03*
X366000D03*
X362000D03*
X390500Y320000D03*
X388000D03*
X406500Y355500D03*
X409500Y352000D03*
X413500Y342000D03*
X414000Y338000D03*
X398500Y334000D03*
X394500D03*
X398500Y330500D03*
X394500D03*
X398500Y327000D03*
X394500D03*
X398500Y323500D03*
X394500D03*
X398500Y320000D03*
X394500D03*
X398500Y316500D03*
X394500D03*
X398500Y313000D03*
X394500D03*
Y309500D03*
X380500Y272500D03*
X393000Y269500D03*
Y272500D03*
X453000Y246500D03*
Y307500D03*
X459000Y219500D03*
Y280500D03*
Y341500D03*
X496500Y241980D03*
X490500Y231000D03*
X487500Y243740D03*
X481240Y258000D03*
X496000Y302980D03*
X490500Y292000D03*
X487740Y304740D03*
X481240Y319500D03*
X485000Y341500D03*
X402000Y220500D03*
X458000Y366000D03*
X455500Y363500D03*
X458000Y361000D03*
X455500Y358500D03*
X438500Y354500D03*
X449000Y362000D03*
X440500Y348500D03*
X456000Y297000D03*
X459500D03*
X457500Y274000D03*
X456000Y236000D03*
X459500D03*
X457500Y335000D03*
X474000Y347500D03*
Y351000D03*
Y354500D03*
X475500Y342000D03*
X479000D03*
X448500Y291500D03*
X456500Y268000D03*
X492000Y285000D03*
Y253000D03*
X470500Y255000D03*
X492000Y224000D03*
X438500Y367000D03*
X458000Y354500D03*
X492000Y347000D03*
Y314000D03*
X470000Y316000D03*
X460500Y350500D03*
X392000Y338500D03*
X365500Y446000D03*
X375500D03*
X385500D03*
X395500D03*
X405500D03*
X415500D03*
X425500D03*
X435500D03*
X445500D03*
X455500D03*
X465500D03*
X475500D03*
X485500D03*
X495500D03*
X505500D03*
X408000Y386000D03*
X412500D03*
Y394000D03*
X408000D03*
X473520Y414089D03*
X433500Y420000D03*
X498500D03*
X497500Y390500D03*
Y386000D03*
X501500Y388500D03*
X505000Y386000D03*
Y390500D03*
X432500D03*
Y386000D03*
X440000Y390500D03*
X448500Y418500D03*
X440000Y386000D03*
X436500Y388500D03*
X428000Y386000D03*
Y390500D03*
X444500Y386000D03*
Y390500D03*
X449500Y386000D03*
Y390500D03*
X459500Y386000D03*
Y390500D03*
X454500Y386000D03*
Y390500D03*
X493000Y386000D03*
Y390500D03*
X488000Y386000D03*
Y390500D03*
X483000Y386000D03*
Y390500D03*
X478000Y386000D03*
Y390500D03*
X509500Y385500D03*
Y390000D03*
X406000D03*
X419000D03*
X417000Y394000D03*
Y386000D03*
X469780Y414280D03*
X477260Y414240D03*
X459000Y404000D03*
Y400500D03*
Y397000D03*
X455000D03*
Y400500D03*
Y404000D03*
X451000Y397000D03*
Y400500D03*
Y404000D03*
X447000Y397000D03*
Y400500D03*
Y404000D03*
X512000Y397000D03*
Y400500D03*
Y404000D03*
X438500Y370500D03*
X433500D03*
X503500D03*
X498500D03*
X508500D03*
X550500Y10000D03*
X529500Y5000D03*
X550500Y20000D03*
X519500Y5000D03*
X539500D03*
X549500D03*
X550500Y30000D03*
Y40000D03*
Y50000D03*
Y60000D03*
X517500Y28500D03*
X520500D03*
X550500Y80000D03*
Y90000D03*
Y100000D03*
Y110000D03*
Y120000D03*
Y180000D03*
Y190000D03*
Y200000D03*
Y150000D03*
Y160000D03*
Y170000D03*
Y210000D03*
Y130000D03*
Y140000D03*
Y70000D03*
X538500Y106000D03*
X518500Y128500D03*
X521500D03*
X517500Y78500D03*
X520500D03*
X518500Y188500D03*
X521500D03*
X550500Y361000D03*
Y351000D03*
X545500Y357000D03*
X550500Y341000D03*
Y250000D03*
Y260000D03*
Y270000D03*
Y280000D03*
Y320000D03*
Y220000D03*
Y230000D03*
Y240000D03*
Y290000D03*
Y300000D03*
Y310000D03*
Y328500D03*
X518500Y249500D03*
X521500D03*
X518500Y310500D03*
X521500D03*
X532500Y352000D03*
X550500Y371000D03*
X518500Y414500D03*
X514500Y385500D03*
Y390000D03*
X519500Y385500D03*
Y390000D03*
X524500Y385500D03*
Y390000D03*
X550500Y381000D03*
Y431000D03*
Y421000D03*
Y401000D03*
Y391000D03*
Y441000D03*
Y411000D03*
X515500Y446000D03*
X525500D03*
X535500D03*
X545500D03*
X538520Y413980D03*
X544000Y397000D03*
X546500Y381500D03*
X531000Y419500D03*
X542260Y414240D03*
X516000Y400500D03*
Y397000D03*
Y404000D03*
X524000Y400500D03*
Y397000D03*
X520000D03*
Y400500D03*
Y404000D03*
X524000D03*
G54D13*
X56500Y431000D03*
X12500Y431006D03*
X22500Y431000D03*
X66500D03*
X536500Y37000D03*
Y27000D03*
Y89000D03*
Y79000D03*
Y145000D03*
Y135000D03*
Y206000D03*
Y196000D03*
Y266000D03*
Y256000D03*
Y327000D03*
Y317000D03*
G54D22*
X212500Y423000D03*
X186500D03*
X96500D03*
X339000Y201000D03*
X322000D03*
X242500Y126000D03*
X302500Y423000D03*
G54D23*
X76500Y431000D03*
X536500Y17000D03*
Y69000D03*
Y125000D03*
Y186000D03*
Y246000D03*
Y307000D03*
G54D14*
X32500Y430994D03*
G54D24*
X344185Y426000D03*
X324500D03*
X410185D03*
X390500D03*
G54D15*
X152516Y37472D03*
X104484D03*
G54D16*
X118658Y9913D03*
X138342D03*
Y67000D03*
X128500D03*
X118658D03*
G54D25*
X378500Y20000D03*
X388500D03*
G54D17*
X208500Y52559D03*
Y25000D03*
X300500Y52559D03*
Y25000D03*
X342500Y52559D03*
Y25000D03*
X250500Y52559D03*
Y25000D03*
G54D26*
X426500Y228000D03*
G54D27*
G01X31500Y40500D02*
X37000D01*
G01X50000Y84815D02*
X66315D01*
X84000Y102500D01*
Y183000D01*
X91200Y190200D01*
Y190246D01*
X92254Y191300D01*
X92300D01*
X94500Y193500D01*
X128500D01*
X137000Y185000D01*
X141000D01*
G01Y188500D02*
X137036D01*
X129536Y196000D01*
X94000D01*
X82000Y184000D01*
Y102964D01*
X66536Y87500D01*
X48500D01*
X47000Y86000D01*
X44000D01*
G01X47500Y90000D02*
X66500D01*
X80000Y103500D01*
Y185071D01*
X93429Y198500D01*
X130571D01*
X137071Y192000D01*
X141000D01*
G01X88250Y234250D02*
X53750Y199750D01*
Y164750D01*
G01X85000Y234500D02*
X51500Y201000D01*
Y166500D01*
X49500Y164500D01*
G01X53563Y81563D02*
X66563D01*
X77000Y92000D01*
X93000D01*
G01X39000Y74000D02*
Y79000D01*
G01X91000Y232500D02*
X56000Y197500D01*
Y142500D01*
X68500Y130000D01*
X71000D01*
X76000Y125000D01*
Y117000D01*
X74500Y115500D01*
G01X24250Y170750D02*
X26750D01*
X30740Y174740D01*
X37740D01*
G01X36500Y125740D02*
X31740D01*
X28500Y122500D01*
X24500D01*
G01X39500Y109500D02*
X46500Y116500D01*
X71000D01*
X74500Y120000D01*
Y122298D01*
X72500Y124298D01*
G01X72158Y121158D02*
X70885Y119885D01*
X53615D01*
X39500Y134000D01*
Y147500D01*
G01X55161Y139661D02*
X51389D01*
X51050Y140000D01*
X48500D01*
G01X41500Y321500D02*
Y326500D01*
G01X54000Y342000D02*
X49000D01*
G01X47500Y289500D02*
Y261500D01*
X68000Y241000D01*
X184800D01*
X203500Y222300D01*
Y220500D01*
G01X32500Y329000D02*
Y267500D01*
X63500Y236500D01*
X181500D01*
X195500Y222500D01*
Y217500D01*
G01X36500Y322000D02*
Y266500D01*
X65000Y238000D01*
X182500D01*
X198000Y222500D01*
Y220500D01*
G01X40000Y308000D02*
Y266000D01*
X66500Y239500D01*
X183500D01*
X200500Y222500D01*
Y219500D01*
X201500Y218500D01*
Y217500D01*
G01X34500Y359000D02*
Y358500D01*
G01Y364500D02*
Y359000D01*
G01X10500Y364500D02*
Y359000D01*
G01X44500Y436000D02*
Y441000D01*
G01X50063Y392063D02*
X72937D01*
G01X34437Y394937D02*
X12063D01*
G01X91000Y27760D02*
X89200D01*
X88940Y27500D01*
X84500D01*
G01X91000Y27760D02*
Y39000D01*
X98000Y46000D01*
Y75000D01*
G01X84500Y42500D02*
X87050D01*
X87270Y42280D01*
X90000D01*
G01D02*
Y48500D01*
X95500Y54000D01*
Y85000D01*
G01X93000Y57000D02*
Y92000D01*
G01X84500Y57000D02*
X93000D01*
G01X106000Y20280D02*
X113000Y27280D01*
Y46000D01*
X100500Y58500D01*
Y97000D01*
X86000Y111500D01*
Y182000D01*
X93000Y189000D01*
G01X106000Y20280D02*
Y14000D01*
G01X157500Y20500D02*
X152500D01*
G01X101500Y166000D02*
X99500Y164000D01*
X93000D01*
X88000Y169000D01*
Y181000D01*
X92951Y185951D01*
X131000D01*
G01X196500Y205000D02*
X145001D01*
X144800Y204799D01*
X143000D01*
G01X151000Y209000D02*
X226000D01*
X227500Y207500D01*
Y205000D01*
G01X224500Y206000D02*
X222700D01*
X221700Y207000D01*
X143800D01*
X142800Y208000D01*
X141000D01*
G01X194500Y203000D02*
X192700D01*
X192200Y203500D01*
X147666D01*
X146800Y202634D01*
X145000D01*
G01X129000Y219000D02*
X93000D01*
X68500Y194500D01*
Y147000D01*
X75500Y140000D01*
G01X192550Y201000D02*
X190750D01*
X189959Y201791D01*
X149925D01*
X148800Y200665D01*
X147000D01*
G01X73000Y136000D02*
X64500Y144500D01*
Y195500D01*
X93000Y224000D01*
X129000D01*
G01X154500Y211000D02*
X228000D01*
X230500Y208500D01*
Y204000D01*
G01X189000Y186500D02*
X186500D01*
X172977Y200023D01*
X151023D01*
X149500Y198500D01*
X143500D01*
G01X180000Y181000D02*
Y185500D01*
X168000Y197500D01*
X152000D01*
X150000Y195500D01*
X137500D01*
X129000Y204000D01*
X90000D01*
G01X90500Y170000D02*
X110800D01*
X113000Y167800D01*
Y166000D01*
G01X90500Y173500D02*
X114500D01*
X117500Y170500D01*
Y166500D01*
G01X110000Y166000D02*
Y164000D01*
X112000Y162000D01*
X171000D01*
X175000Y158000D01*
Y154500D01*
G01X169500Y159500D02*
X111500D01*
X107500Y163500D01*
Y166000D01*
G01X166500Y157000D02*
X110500D01*
X104500Y163000D01*
Y166000D01*
G01X73000Y132000D02*
X71000Y134000D01*
X67500D01*
X60500Y141000D01*
Y196500D01*
X94803Y230803D01*
X180000D01*
G01X181500Y225000D02*
X171500D01*
X168000Y228500D01*
X95000D01*
X62500Y196000D01*
Y143000D01*
X68500Y137000D01*
G01X205000Y159500D02*
Y169500D01*
X212000Y176500D01*
G01X151000Y213026D02*
X228974D01*
X233500Y208500D01*
Y203000D01*
G01X242500Y180000D02*
X217000D01*
X210500Y186500D01*
X194000D01*
G01X195500Y183500D02*
X210500D01*
X216500Y177500D01*
X239500D01*
X250500Y166500D01*
X254000D01*
G01X196000Y180000D02*
X211500D01*
X216500Y175000D01*
X238000D01*
X249500Y163500D01*
X254500D01*
G01X74500Y115500D02*
X72500Y113500D01*
X70000D01*
X66000Y109500D01*
G01X74562Y154562D02*
X74500Y154500D01*
Y192500D01*
X94000Y212000D01*
X146000D01*
X149000Y215000D01*
X190500D01*
X192000Y216500D01*
G01X106500Y135000D02*
Y144500D01*
G01X103500Y129000D02*
Y142500D01*
G01X93000D02*
X103500D01*
G01X72500Y151500D02*
Y193000D01*
X93500Y214000D01*
X134500D01*
X140000Y219500D01*
X172500D01*
X175000Y217000D01*
X187500D01*
X189500Y219000D01*
G01X100500Y133000D02*
Y140500D01*
G01Y133000D02*
X93000D01*
G01X186000Y219000D02*
X176500D01*
X174000Y221500D01*
X138000D01*
X132500Y216000D01*
X92500D01*
X70500Y194000D01*
Y148500D01*
G01X169000Y223500D02*
X166000Y226500D01*
X137500D01*
X132250Y221250D01*
X92750D01*
X66500Y195000D01*
Y146000D01*
X75500Y137000D01*
Y128500D01*
X77500Y126500D01*
Y111000D01*
G01X66000Y100000D02*
X67803Y101803D01*
X68303D01*
X77500Y111000D01*
G01Y131000D02*
Y186000D01*
X92500Y201000D01*
X122500D01*
G01X79500Y85000D02*
X76000D01*
G01X90500Y177000D02*
X105000D01*
X106750Y178750D01*
X120750D01*
G01X58500Y165500D02*
Y197000D01*
X96000Y234500D01*
X180500D01*
G01X171000Y95500D02*
Y89500D01*
G01X177474Y183974D02*
X172826D01*
X172800Y184000D01*
X171000D01*
G01X401000Y53500D02*
X364500D01*
X358500Y59500D01*
X228000D01*
X197500Y90000D01*
Y145500D01*
X159000Y184000D01*
Y195500D01*
G01X191500Y188500D02*
Y182000D01*
X184250Y174750D01*
X178250D01*
G01X207000Y154500D02*
Y168000D01*
X212000Y173000D01*
G01X67000Y276000D02*
Y271000D01*
G01X210000Y255500D02*
Y276000D01*
X203000Y283000D01*
Y292500D01*
G01X132000Y289000D02*
X143000D01*
X153000Y279000D01*
X178500D01*
X194500Y263000D01*
Y256300D01*
X203500Y247300D01*
Y245500D01*
G01X149768Y339000D02*
X168768Y358000D01*
X190000D01*
X194500Y362500D01*
G01X207250Y245750D02*
X205977Y247023D01*
Y247523D01*
X196500Y257000D01*
Y264500D01*
X180000Y281000D01*
X156500D01*
X153500Y284000D01*
G01X135500D02*
Y282000D01*
X144500Y273000D01*
X169500D01*
X172500Y270000D01*
Y267000D01*
G01X116500Y304000D02*
X150500D01*
X159500Y295000D01*
X187000D01*
X210000Y318000D01*
X218500D01*
G01X114500Y301500D02*
X150500D01*
X158500Y293500D01*
X189000D01*
X211000Y315500D01*
X217000D01*
G01X110500Y299000D02*
X150500D01*
X157500Y292000D01*
X191000D01*
X212000Y313000D01*
X215000D01*
G01X108500Y296500D02*
X150500D01*
X156500Y290500D01*
X193000D01*
X213000Y310500D01*
G01X189500Y305500D02*
X177500D01*
X169500Y313500D01*
X104500D01*
G01X187500Y303500D02*
X176500D01*
X169000Y311000D01*
X102500D01*
G01X185500Y301500D02*
X175500D01*
X168500Y308500D01*
X98500D01*
G01X183500Y299500D02*
X174500D01*
X168000Y306000D01*
X96500D01*
G01X84000Y318500D02*
Y274500D01*
X95500Y263000D01*
X126000D01*
X128000Y261000D01*
G01X82000Y311500D02*
Y273000D01*
X98500Y256500D01*
X123000D01*
G01X70500Y315000D02*
Y312500D01*
X67500Y309500D01*
Y306500D01*
G01X72500Y256240D02*
X76000D01*
X88240Y244000D01*
X186500D01*
X212000Y218500D01*
X230000D01*
X237800Y210700D01*
Y202800D01*
X236000Y201000D01*
G01Y205606D02*
Y209406D01*
X228906Y216500D01*
X211500D01*
X185500Y242500D01*
X86000D01*
X76000Y252500D01*
G01X78727Y258000D02*
X91227Y245500D01*
X187500D01*
X212500Y220500D01*
X220000D01*
G01X207500Y268500D02*
Y275000D01*
X198000Y284500D01*
Y292500D01*
G01X194000Y306500D02*
Y305500D01*
X185000Y296500D01*
X161000D01*
X155000Y302500D01*
G01X153500Y287500D02*
X158000Y283000D01*
X180500D01*
X198500Y265000D01*
Y257500D01*
X201500Y254500D01*
X207000D01*
G01X199500Y364500D02*
X196000Y368000D01*
X157500D01*
X154000Y371500D01*
X128000D01*
X124500Y368000D01*
X91500D01*
X88500Y371000D01*
Y373000D01*
G01X203500Y330000D02*
Y325500D01*
X206500Y322500D01*
X217500D01*
X221000Y319000D01*
Y315000D01*
X214000Y308000D01*
Y301500D01*
X216500Y299000D01*
Y282500D01*
X229000Y270000D01*
G01X76000Y357000D02*
X80500D01*
G01X78000Y323500D02*
Y272500D01*
X98500Y252000D01*
X188000D01*
X214500Y225500D01*
X238500D01*
X244000Y220000D01*
Y208500D01*
X250500Y202000D01*
Y195500D01*
G01X245500D02*
Y199500D01*
X242000Y203000D01*
Y220000D01*
X237700Y224300D01*
X213700D01*
X187500Y250500D01*
X98000D01*
X75500Y273000D01*
Y325500D01*
X82500Y332500D01*
G01X67500Y323000D02*
X70000Y325500D01*
X73000D01*
G01X240000Y198000D02*
Y220000D01*
X237000Y223000D01*
X213000D01*
X187000Y249000D01*
X97500D01*
X73000Y273500D01*
Y325500D01*
G01X147500Y268000D02*
X162000Y253500D01*
X190000D01*
X214000Y229500D01*
X223000D01*
G01X76000Y365000D02*
X77500D01*
X80500Y368000D01*
G01X93500Y268000D02*
X100500D01*
X103500Y271000D01*
X165500D01*
G01X187500Y310000D02*
X178000D01*
X173000Y315000D01*
Y331500D01*
X183500Y342000D01*
X303500D01*
X311000Y349500D01*
Y361500D01*
X317500Y368000D01*
X436000D01*
X438500Y370500D01*
G01X433500D02*
X317000D01*
X309000Y362500D01*
Y350000D01*
X302500Y343500D01*
X182000D01*
X171000Y332500D01*
Y314500D01*
X177750Y307750D01*
X183750D01*
G01X438500Y367000D02*
X437000Y365500D01*
X318500D01*
X313000Y360000D01*
Y349000D01*
X304500Y340500D01*
X185000D01*
X175000Y330500D01*
Y316000D01*
X178500Y312500D01*
X184000D01*
G01X157500Y326000D02*
X178200Y346700D01*
X243700D01*
X246500Y349500D01*
G01X202500Y257500D02*
Y264000D01*
X181273Y285227D01*
X159773D01*
X157500Y287500D01*
G01X161000D02*
X182165D01*
X201665Y268000D01*
G01X249500Y356000D02*
Y349000D01*
X245500Y345000D01*
X180500D01*
X161000Y325500D01*
G01X503500Y370500D02*
X501000Y368000D01*
X447000D01*
X426500Y347500D01*
X383500D01*
X371500Y335500D01*
X308500D01*
X306500Y337500D01*
X188000D01*
X179500Y329000D01*
Y319500D01*
X183000Y316000D01*
G01X498500Y370500D02*
X446000D01*
X425500Y350000D01*
X382500D01*
X369500Y337000D01*
X309500D01*
X307500Y339000D01*
X186500D01*
X177000Y329500D01*
Y318000D01*
X179500Y315500D01*
G01X458000Y354500D02*
X448500Y345000D01*
X384000D01*
X373000Y334000D01*
X307500D01*
X305500Y336000D01*
X189500D01*
X183000Y329500D01*
Y319500D01*
G01X139000Y286268D02*
X141732D01*
X151000Y277000D01*
X173000D01*
X190900Y259100D01*
Y256900D01*
G01X186500Y257500D02*
Y260000D01*
X171500Y275000D01*
X149500D01*
X142500Y282000D01*
G01X152000Y268500D02*
X165500Y255000D01*
X190500D01*
X213500Y232000D01*
X223000D01*
G01X302500Y423000D02*
X244000D01*
X225500Y441500D01*
X149000D01*
X120500Y413000D01*
Y406000D01*
G01X302500Y373000D02*
X257500D01*
X252500Y368000D01*
X199000D01*
X194000Y373000D01*
X186500D01*
G01X302500Y383000D02*
X264500D01*
X259500Y388000D01*
X205000D01*
X200000Y383000D01*
X186500D01*
G01X302500Y393000D02*
X260500D01*
X255500Y398000D01*
X200500D01*
X195500Y393000D01*
X186500D01*
G01X302500Y403000D02*
X239000D01*
X234000Y408000D01*
X200500D01*
X195500Y403000D01*
X186500D01*
G01X212500Y373000D02*
X200000D01*
X195500Y377500D01*
X129500D01*
X125000Y373000D01*
X96500D01*
G01X212500Y393000D02*
X202000D01*
X197000Y388000D01*
X177500D01*
X164460Y401040D01*
X123040D01*
X115000Y393000D01*
X96500D01*
G01X162500Y421500D02*
X179000Y438000D01*
X225000D01*
X245000Y418000D01*
X309500D01*
X319000Y408500D01*
X493500D01*
X504500Y419500D01*
X531000D01*
G01X542260Y414240D02*
X539500Y417000D01*
X506500D01*
X495500Y406000D01*
X316500D01*
X314500Y408000D01*
X270500D01*
X263500Y415000D01*
X244000D01*
X224500Y434500D01*
X179000D01*
X166000Y421500D01*
G01X132000Y410500D02*
X126500D01*
G01X131500Y381500D02*
X126500D01*
G01X274000Y36000D02*
Y30500D01*
G01X250500Y159000D02*
X256000D01*
G01X309000Y158000D02*
X313500D01*
G01X327000Y140000D02*
X331500D01*
G01X320000Y112500D02*
Y109500D01*
X322500Y107000D01*
X324595D01*
G01X323500Y91000D02*
Y84500D01*
G01X257500Y288000D02*
X269750Y300250D01*
X287250D01*
X296500Y291000D01*
Y284000D01*
X300500Y280000D01*
X339000D01*
X353000Y266000D01*
Y207000D01*
X347500Y201500D01*
G01X339000Y191000D02*
X338000D01*
X332000Y197000D01*
Y254000D01*
X307500Y278500D01*
X299000D01*
X294500Y283000D01*
Y290000D01*
X286000Y298500D01*
X272000D01*
X257500Y284000D01*
G01X322000Y191000D02*
X323000D01*
X329000Y197000D01*
Y253500D01*
X311000Y271500D01*
X302500D01*
X292500Y281500D01*
Y289000D01*
X285000Y296500D01*
X274000D01*
X262500Y285000D01*
G01X308500Y224000D02*
Y219500D01*
X306000Y217000D01*
Y207000D01*
X285000Y186000D01*
X257500D01*
G01X265000Y183500D02*
X286500D01*
X309000Y206000D01*
Y216000D01*
G01X304500Y235500D02*
X300500Y231500D01*
Y217500D01*
X281500Y198500D01*
X272500D01*
X264500Y190500D01*
Y188500D01*
G01X307500Y234000D02*
X303000Y229500D01*
Y217000D01*
X275000Y189000D01*
X268000D01*
G01X298500Y238500D02*
X296375Y236375D01*
Y221375D01*
X292500Y217500D01*
X286500D01*
X273500Y204500D01*
X266500D01*
X259500Y197500D01*
Y193000D01*
G01X239500Y183000D02*
X220500D01*
X211114Y192386D01*
Y198886D01*
G01X301500Y237000D02*
X298500Y234000D01*
Y218500D01*
X280500Y200500D01*
X272000D01*
X261500Y190000D01*
X257500D01*
G01X291000Y95500D02*
X286000D01*
G01X301250Y188750D02*
X301500Y189000D01*
Y195500D01*
X303000Y197000D01*
X307000D01*
G01X311000Y95500D02*
X318000D01*
G01X283000Y294000D02*
X289000Y288000D01*
Y282500D01*
X322000Y249500D01*
Y209500D01*
G01X318000D02*
Y251500D01*
X285500Y284000D01*
Y287500D01*
G01X307000Y182000D02*
Y189000D01*
G01Y182000D02*
X298500D01*
X295000Y178500D01*
X262454D01*
X255500Y185454D01*
Y210500D01*
X247000Y219000D01*
Y221000D01*
X232000Y236000D01*
Y244500D01*
G01X301500Y253500D02*
Y250500D01*
X315000Y237000D01*
Y194000D01*
G01X311000Y183000D02*
Y234500D01*
X296250Y249250D01*
G01X311000Y178000D02*
X313000Y180000D01*
Y235500D01*
X298500Y250000D01*
Y252000D01*
G01X236000Y99500D02*
Y93500D01*
G01X250000Y105000D02*
X244500D01*
G01X268000D02*
X273500D01*
G01X209500Y152000D02*
X223000D01*
X229000Y158000D01*
G01X252773Y200500D02*
Y191273D01*
X251000Y189500D01*
G01X252773Y200500D02*
Y203227D01*
X251000Y205000D01*
Y209000D01*
G01X311500Y328500D02*
X309500Y330500D01*
X305000D01*
G01X236500Y257500D02*
Y295000D01*
X243500Y302000D01*
Y327500D01*
G01X251500Y326000D02*
Y249701D01*
G01X242000Y331000D02*
X240727Y329727D01*
Y303227D01*
X233500Y296000D01*
Y257500D01*
G01X251500Y246000D02*
X254000Y248500D01*
Y310500D01*
G01X249500Y322500D02*
Y248102D01*
X247949Y246551D01*
G01X247000Y325000D02*
Y250000D01*
X241976Y244976D01*
X238024D01*
G01X322000Y298500D02*
X316800D01*
X315800Y299500D01*
X314000D01*
G01X291500Y269000D02*
X283500D01*
X274500Y260000D01*
X264000D01*
X259000Y255000D01*
Y247500D01*
X251752Y240252D01*
X247752D01*
G01X291500Y272500D02*
X284500D01*
X273500Y261500D01*
X263500D01*
X257500Y255500D01*
Y248500D01*
X251500Y242500D01*
X235500D01*
G01X291500Y226000D02*
X290227Y224727D01*
X274227D01*
X268000Y218500D01*
X251500D01*
G01X253000Y216000D02*
X281000D01*
X286000Y221000D01*
X291500D01*
G01X239281Y266522D02*
Y256781D01*
X234500Y252000D01*
X223500D01*
G01X242000Y264000D02*
Y256500D01*
X235000Y249500D01*
X223500D01*
G01X244500Y261500D02*
Y255500D01*
X236000Y247000D01*
X223500D01*
G01X338220Y225720D02*
X339500Y227000D01*
X344000D01*
G01X345500Y218500D02*
X338000D01*
G01X340000Y240000D02*
X336580D01*
X336300Y239720D01*
X334500D01*
G01Y232240D02*
X346240D01*
X348500Y234500D01*
G01X332500Y258500D02*
Y261500D01*
X330500Y263500D01*
G01X345500Y247500D02*
X342950D01*
X341690Y246240D01*
X334760D01*
G01X235500Y305000D02*
X225000D01*
X218500Y298500D01*
Y290500D01*
G01X306000Y253500D02*
Y261500D01*
X282000Y285500D01*
Y290500D01*
G01X306000Y253500D02*
X308197Y251303D01*
X309697D01*
X311500Y249500D01*
G01X217000Y303500D02*
X221500Y308000D01*
X233500D01*
G01X235500Y328500D02*
X238500Y325500D01*
Y311000D01*
X235500Y308000D01*
X233500D01*
G01X216500Y307000D02*
X220500Y311000D01*
X235500D01*
G01D02*
Y317000D01*
G01X296250Y248250D02*
Y249250D01*
G01X289000Y259500D02*
Y256500D01*
X296250Y249250D01*
G01X298500Y259500D02*
Y252000D01*
G01X226500Y317000D02*
Y325500D01*
G01X229500Y303000D02*
X227500Y301000D01*
Y275000D01*
X231500Y271000D01*
Y263000D01*
X227750Y259250D01*
Y256000D01*
G01X218988Y257512D02*
Y274512D01*
X211727Y281773D01*
Y291227D01*
X213000Y292500D01*
G01X215839Y256000D02*
Y274161D01*
X209500Y280500D01*
Y292500D01*
G01X325000Y362500D02*
X321500D01*
G01X302500Y373000D02*
X313500D01*
G01X302500Y383000D02*
X313500D01*
G01X469780Y414280D02*
X377720D01*
X352500Y439500D01*
X291000D01*
X281500Y430000D01*
G01X477260Y414240D02*
X475020Y412000D01*
X377000D01*
X351500Y437500D01*
X293750D01*
X286375Y430125D01*
G01X249500Y410500D02*
X245000D01*
G01X250500Y381000D02*
X245500D01*
G01X468500Y26000D02*
X463000D01*
G01X500000Y29000D02*
X506500D01*
G01X500000Y53000D02*
X506500D01*
G01X401000Y53500D02*
Y59500D01*
G01X492000Y163000D02*
X499500D01*
G01X492000Y132000D02*
X500000D01*
G01X464000D02*
X468000D01*
X470000Y134000D01*
G01X386500Y109500D02*
X391000D01*
X394000Y112500D01*
G01X385500Y80500D02*
X392000D01*
X395000Y83500D01*
G01X361476Y129476D02*
Y131426D01*
X361500Y131450D01*
Y134000D01*
G01X372500Y106500D02*
Y111000D01*
G01X463000Y76000D02*
X467500D01*
X469500Y78000D01*
G01X500000Y81000D02*
X506500D01*
G01X500000Y105000D02*
X507000D01*
G01X492000Y192000D02*
X500500D01*
G01X464000D02*
X469000D01*
X471000Y194000D01*
G01X396000Y220500D02*
X402000D01*
G01X492000Y285000D02*
X497000D01*
X499000Y287000D01*
G01X492000Y253000D02*
X498500D01*
G01X464000D02*
X468500D01*
X470500Y255000D01*
G01X492000Y224000D02*
X496000D01*
X498500Y226500D01*
G01X438500Y367000D02*
X448500Y377000D01*
X452000D01*
G01X458000Y354500D02*
X466500Y363000D01*
X501000D01*
X508500Y370500D01*
G01X492000Y347000D02*
X498500D01*
G01X492000Y314000D02*
X498500D01*
G01X464000D02*
X468000D01*
X470000Y316000D01*
G01X532500Y352000D02*
X526500Y358000D01*
X468000D01*
X460500Y350500D01*
G01X387000Y338500D02*
X392000D01*
G01X438500Y370500D02*
Y373450D01*
X439500Y374450D01*
Y377000D01*
G01X428000D02*
X431000D01*
X433500Y374500D01*
Y370500D01*
G01X503500D02*
Y377000D01*
G01X498500Y370500D02*
Y373500D01*
X495000Y377000D01*
X489500D01*
G01X508500Y370500D02*
X516000D01*
G01X533000Y106000D02*
X538500D01*
G01X544000Y402500D02*
Y397000D01*
G54D18*
X154500Y149000D03*
X144500D03*
X134500D03*
X124500D03*
X372500Y68000D03*
X382500D03*
X436500Y132000D03*
X426500D03*
X436500Y152000D03*
X426500D03*
X436500Y172000D03*
X426500D03*
X436500Y91000D03*
Y112000D03*
X513500Y438000D03*
X503500D03*
X478500D03*
X468500D03*
X458500D03*
X448500D03*
X438500D03*
X543500D03*
X533500D03*
X523500D03*
G54D28*
G01X372890Y439000D02*
Y442100D01*
X374308Y439878D01*
X372392D01*
G54D19*
X114500Y149000D03*
X392500Y68000D03*
X416500Y132000D03*
Y152000D03*
Y172000D03*
X426500Y91000D03*
Y112000D03*
X493500Y438000D03*
X428500D03*
G54D29*
G01X166500Y195000D02*
Y180050D01*
X200500Y146050D01*
Y95000D01*
X219000Y76500D01*
X435000D01*
X443000Y84500D01*
X453000D01*
G01X454500Y32500D02*
X448000D01*
X435500Y45000D01*
X235500D01*
X194500Y86000D01*
Y145172D01*
X154500Y185172D01*
Y190000D01*
G01X448500Y291500D02*
X435000Y278000D01*
X411500D01*
X374000Y240500D01*
Y204500D01*
X344500Y175000D01*
X261500D01*
X241500Y195000D01*
X231000D01*
X221500Y204500D01*
X211500D01*
G01X215500Y202000D02*
X220000D01*
X230000Y192000D01*
X241000D01*
X262000Y171000D01*
X347500D01*
X381000Y204500D01*
Y237000D01*
X415500Y271500D01*
X446500D01*
X450000Y268000D01*
G01X219000Y199500D02*
Y198500D01*
X228500Y189000D01*
X240500D01*
X262500Y167000D01*
X397000D01*
X415000Y185000D01*
X437000D01*
X452500Y200500D01*
G01X452000Y140500D02*
X411000D01*
X388000Y163500D01*
X262500D01*
X240000Y186000D01*
X227500D01*
X225014Y188486D01*
X218514D01*
G01X454500Y32500D02*
Y38500D01*
G01X453000Y84500D02*
Y91000D01*
G01X452500Y200500D02*
Y207500D01*
G01X452000Y140500D02*
Y146500D01*
G01X448500Y291500D02*
Y297500D01*
G01X456500Y268000D02*
X450000D01*
M02*
