G04 ================== begin FILE IDENTIFICATION RECORD ==================*
G04 Layout Name:  C:/Users/jeanf/Google Drive/dsPeak/pcb/dsPeak-v1_00-0a.brd*
G04 Film Name:    dsPeak-v1_00-0a-INNER2*
G04 File Format:  Gerber RS274X*
G04 File Origin:  Cadence Allegro 17.2-S045*
G04 Origin Date:  Sat Jan 09 14:38:39 2021*
G04 *
G04 Layer:  ETCH/INNER2*
G04 Layer:  PIN/INNER2*
G04 Layer:  VIA CLASS/INNER2*
G04 *
G04 Offset:    (0.000 0.000)*
G04 Mirror:    No*
G04 Mode:      Positive*
G04 Rotation:  0*
G04 FullContactRelief:  No*
G04 UndefLineWidth:     6.000*
G04 ================== end FILE IDENTIFICATION RECORD ====================*
%FSLAX25Y25*MOIN*%
%IR0*IPPOS*OFA0.00000B0.00000*MIA0B0*SFA1.00000B1.00000*%
%AMMACRO13*
21,1,.062,.062,0.0,0.0,89.967*%
%ADD13MACRO13*%
%ADD10C,.14*%
%AMMACRO14*
4,1,44,-.045275,.033464,
-.045275,-.033464,
-.044947,-.037224,
-.04397,-.04087,
-.042374,-.044291,
-.040209,-.047383,
-.03754,-.050052,
-.034449,-.052217,
-.031028,-.053812,
-.027382,-.054789,
-.023622,-.055118,
-.023621,-.055118,
.023621,-.055118,
.027381,-.054789,
.031027,-.053812,
.034448,-.052217,
.03754,-.050052,
.040209,-.047383,
.042374,-.044291,
.043969,-.040871,
.044946,-.037225,
.045275,-.033464,
.045275,-.033464,
.045275,.033464,
.044947,.037224,
.04397,.04087,
.042374,.044291,
.040209,.047383,
.03754,.050052,
.034449,.052217,
.031028,.053812,
.027382,.054789,
.023622,.055118,
.023621,.055118,
-.023621,.055118,
-.027381,.054789,
-.031027,.053812,
-.034448,.052217,
-.03754,.050052,
-.040209,.047383,
-.042374,.044291,
-.043969,.040871,
-.044946,.037225,
-.045275,.033464,
-.045275,.033464,
0.0*
%
%ADD14MACRO14*%
%ADD25R,.125X.74*%
%ADD11C,.02*%
%ADD19O,.085X.065*%
%ADD17O,.065X.085*%
%ADD12C,.062*%
%ADD21R,.085X.065*%
%ADD18R,.065X.085*%
%ADD23C,.093*%
%ADD24C,.023622*%
%ADD22R,.062X.062*%
%ADD20C,.043307*%
%ADD15C,.055118*%
%ADD16C,.07874*%
%ADD26C,.006*%
%ADD27C,.008*%
%ADD28C,.025*%
%ADD29C,.035*%
%ADD38C,.103004*%
%ADD37C,.123004*%
%ADD32O,.095004X.115004*%
%ADD30C,.030004*%
%ADD36C,.053312*%
%ADD33C,.092004*%
%ADD35C,.073312*%
%ADD34C,.085122*%
%ADD31O,.075004X.095004*%
G75*
%LPD*%
G75*
G36*
G01X335510Y444500D02*
X338500D01*
X359348Y423652D01*
X342947Y407250D01*
X324447D01*
X311250Y394053D01*
Y370553D01*
X307447Y366750D01*
X306416D01*
G03X303500Y367750I-2916J-3750D01*
G01X301500D01*
G03X298584Y366750I0J-4750D01*
G01X289947D01*
X285947Y362750D01*
X269750D01*
Y363803D01*
X269250Y364303D01*
Y388500D01*
G03X261750I-3750J0D01*
G01Y361197D01*
X262250Y360697D01*
Y360553D01*
X244947Y343250D01*
X161053D01*
X151250Y353053D01*
Y357947D01*
X152553Y359250D01*
X182585D01*
G03X185500Y358250I2915J3750D01*
G01X187500D01*
G03Y367750I0J4750D01*
G01X185500D01*
G03X182585Y366750I0J-4750D01*
G01X151750D01*
Y388500D01*
G03X144250I-3750J0D01*
G01Y364803D01*
X143750Y364303D01*
Y349947D01*
X157947Y335750D01*
X248053D01*
X267553Y355250D01*
X281250D01*
Y332500D01*
X256000D01*
Y307500D01*
X281000D01*
Y322731D01*
G02X281683Y323013I400J0D01*
G01X287947Y316750D01*
X304947D01*
X310250Y311447D01*
Y306837D01*
G02X309566Y306556I-400J0D01*
G03X308500Y307000I-1066J-1056D01*
G03X307000Y305500I0J-1500D01*
G03X307277Y304632I1500J0D01*
G02X306950Y304000I-326J-232D01*
G01X297500D01*
Y285172D01*
X302172Y280500D01*
X316328D01*
X321000Y285172D01*
Y288000D01*
X323197D01*
X347947Y263250D01*
X367447D01*
X378750Y251947D01*
Y154500D01*
G03X379250Y152629I3750J0D01*
G01Y147846D01*
X375904Y144500D01*
X354000D01*
X336561Y127061D01*
G03X335500Y127500I-1061J-1061D01*
G03X334000Y126000I0J-1500D01*
G03X334439Y124939I1500J0D01*
G01X333000Y123500D01*
X293000D01*
X262000Y154500D01*
X259596D01*
X258346Y155750D01*
X217346D01*
X198346Y174750D01*
X179761D01*
X179740Y174927D01*
G03X176760I-1490J-177D01*
G01X176739Y174750D01*
X172972D01*
X158250Y160028D01*
Y153912D01*
G02X157590Y153608I-400J0D01*
G03X154500Y154750I-3090J-3608D01*
G03X149750Y150000I0J-4750D01*
G01Y148000D01*
G03X154500Y143250I4750J0D01*
G03X157590Y144392I0J4750D01*
G02X158250Y144088I260J-304D01*
G01Y142846D01*
X153154Y137750D01*
X142154D01*
X124250Y119846D01*
Y117250D01*
X117846D01*
X113346Y121750D01*
X103500D01*
G03Y115250I0J-3250D01*
G01X110654D01*
X115154Y110750D01*
X119170D01*
G02X119312Y110408I0J-200D01*
G01X119250Y110346D01*
Y84000D01*
G03X125750I3250J0D01*
G01Y98688D01*
G02X126433Y98970I400J0D01*
G01X129750Y95654D01*
Y88169D01*
G02X129167Y87814I-400J0D01*
G03X128480Y87980I-687J-1334D01*
G03Y84980I0J-1500D01*
G03X129759Y85696I0J1500D01*
G02X130383Y85770I341J-209D01*
G01X131250Y84904D01*
Y84000D01*
G03X137750I3250J0D01*
G01Y87596D01*
X136250Y89096D01*
Y89300D01*
G02X136456Y89500I200J0D01*
G03X136498Y89500I42J1500D01*
G01X136500D01*
G03X138000Y91000I0J1500D01*
G03X136619Y92496I-1500J0D01*
G02X136250Y92894I32J399D01*
G01Y98346D01*
X133075Y101522D01*
G02X133177Y102161I283J283D01*
G03X134000Y103500I-677J1339D01*
G03X132500Y105000I-1500J0D01*
G03X131434Y104556I0J-1500D01*
G02X130750Y104837I-284J282D01*
G01Y117154D01*
X144846Y131250D01*
X155846D01*
X159317Y134721D01*
G02X160000Y134438I283J-283D01*
G01Y47000D01*
X180500Y26500D01*
Y6500D01*
X173508D01*
G03X173500Y6500I-41J-1500D01*
G03X173492Y6500I33J-1500D01*
G01X163508D01*
G03X163500Y6500I-41J-1500D01*
G03X163492Y6500I33J-1500D01*
G01X153508D01*
G03X153500Y6500I-41J-1500D01*
G03X153492Y6500I33J-1500D01*
G01X143508D01*
G03X143500Y6500I-41J-1500D01*
G03X143492Y6500I33J-1500D01*
G01X141892D01*
G02X141587Y7159I0J400D01*
G03X142599Y9913I-3244J2755D01*
G03X134086I-4256J0D01*
G03X135098Y7159I4256J0D01*
G02X134793Y6500I-305J-259D01*
G01X133508D01*
G03X133500Y6500I-41J-1500D01*
G03X133492Y6500I33J-1500D01*
G01X123508D01*
G03X123500Y6500I-41J-1500D01*
G03X123492Y6500I33J-1500D01*
G01X122207D01*
G02X121902Y7159I0J400D01*
G03X122914Y9913I-3244J2755D01*
G03X114401I-4256J0D01*
G03X115413Y7159I4256J0D01*
G02X115108Y6500I-305J-259D01*
G01X113508D01*
G03X113500Y6500I-41J-1500D01*
G03X113492Y6500I33J-1500D01*
G01X103508D01*
G03X103500Y6500I-41J-1499D01*
G03X103492Y6500I33J-1500D01*
G01X93508D01*
G03X93500Y6500I-41J-1499D01*
G03X93492Y6500I33J-1500D01*
G01X83508D01*
G03X83500Y6500I-41J-1499D01*
G03X83492Y6500I33J-1500D01*
G01X73508D01*
G03X73500Y6500I-41J-1499D01*
G03X73492Y6500I33J-1500D01*
G01X63508D01*
G03X63500Y6500I-41J-1499D01*
G03X63492Y6500I33J-1500D01*
G01X53508D01*
G03X53500Y6500I-41J-1499D01*
G03X53492Y6500I33J-1500D01*
G01X43508D01*
G03X43500Y6500I-41J-1500D01*
G03X43492Y6500I33J-1500D01*
G01X33508D01*
G03X33500Y6500I-41J-1500D01*
G03X33492Y6500I33J-1500D01*
G01X23508D01*
G03X23500Y6500I-41J-1500D01*
G03X23492Y6500I33J-1500D01*
G01X13508D01*
G03X13500Y6500I-41J-1500D01*
G03X13492Y6500I33J-1500D01*
G01X7000D01*
Y14992D01*
G03X7000Y15000I-1500J41D01*
G03X7000Y15008I-1500J-33D01*
G01Y24992D01*
G03X7000Y25000I-1500J41D01*
G03X7000Y25008I-1500J-33D01*
G01Y34992D01*
G03X7000Y35000I-1500J41D01*
G03X7000Y35008I-1500J-33D01*
G01Y44992D01*
G03X7000Y45000I-1500J41D01*
G03X7000Y45008I-1500J-33D01*
G01Y54992D01*
G03X7000Y55000I-1499J41D01*
G03X7000Y55008I-1500J-33D01*
G01Y66992D01*
G03X7000Y67000I-1499J41D01*
G03X7000Y67008I-1500J-33D01*
G01Y76992D01*
G03X7000Y77000I-1499J41D01*
G03X7000Y77008I-1500J-33D01*
G01Y86992D01*
G03X7000Y87000I-1499J41D01*
G03X7000Y87008I-1500J-33D01*
G01Y96992D01*
G03X7000Y97000I-1499J41D01*
G03X7000Y97008I-1500J-33D01*
G01Y106992D01*
G03X7000Y107000I-1500J41D01*
G03X7000Y107008I-1500J-33D01*
G01Y115992D01*
G03X7000Y116000I-1500J41D01*
G03X7000Y116008I-1500J-33D01*
G01Y125992D01*
G03X7000Y126000I-1500J41D01*
G03X7000Y126008I-1500J-33D01*
G01Y135992D01*
G03X7000Y136000I-1500J41D01*
G03X7000Y136008I-1500J-33D01*
G01Y145992D01*
G03X7000Y146000I-1500J41D01*
G03X7000Y146008I-1500J-33D01*
G01Y155992D01*
G03X7000Y156000I-1500J41D01*
G03X7000Y156008I-1500J-33D01*
G01Y165992D01*
G03X7000Y166000I-1500J41D01*
G03X7000Y166008I-1500J-33D01*
G01Y175992D01*
G03X7000Y176000I-1500J41D01*
G03X7000Y176008I-1500J-33D01*
G01Y185992D01*
G03X7000Y186000I-1500J41D01*
G03X7000Y186008I-1500J-33D01*
G01Y195992D01*
G03X7000Y196000I-1500J41D01*
G03X7000Y196008I-1500J-33D01*
G01Y205992D01*
G03X7000Y206000I-1500J41D01*
G03X7000Y206008I-1500J-33D01*
G01Y215992D01*
G03X7000Y216000I-1500J41D01*
G03X7000Y216008I-1500J-33D01*
G01Y225992D01*
G03X7000Y226000I-1500J41D01*
G03X7000Y226008I-1500J-33D01*
G01Y235992D01*
G03X7000Y236000I-1500J41D01*
G03X7000Y236008I-1500J-33D01*
G01Y245992D01*
G03X7000Y246000I-1500J41D01*
G03X7000Y246008I-1500J-33D01*
G01Y255992D01*
G03X7000Y256000I-1500J41D01*
G03X7000Y256008I-1500J-33D01*
G01Y265992D01*
G03X7000Y266000I-1500J41D01*
G03X7000Y266008I-1500J-33D01*
G01Y275992D01*
G03X7000Y276000I-1500J41D01*
G03X7000Y276008I-1500J-33D01*
G01Y285992D01*
G03X7000Y286000I-1500J41D01*
G03X7000Y286008I-1500J-33D01*
G01Y295992D01*
G03X7000Y296000I-1500J41D01*
G03X7000Y296008I-1500J-33D01*
G01Y305992D01*
G03X7000Y306000I-1500J41D01*
G03X7000Y306008I-1500J-33D01*
G01Y315992D01*
G03X7000Y316000I-1500J41D01*
G03X7000Y316008I-1500J-33D01*
G01Y325992D01*
G03X7000Y326000I-1500J41D01*
G03X7000Y326008I-1500J-33D01*
G01Y335992D01*
G03X7000Y336000I-1500J41D01*
G03X7000Y336008I-1500J-33D01*
G01Y345992D01*
G03X7000Y346000I-1500J41D01*
G03X7000Y346008I-1500J-33D01*
G01Y355992D01*
G03X7000Y356000I-1500J41D01*
G03X7000Y356008I-1500J-33D01*
G01Y365992D01*
G03X7000Y366000I-1500J41D01*
G03X7000Y366008I-1500J-33D01*
G01Y375992D01*
G03X7000Y376000I-1500J41D01*
G03X7000Y376008I-1500J-33D01*
G01Y385992D01*
G03X7000Y386000I-1500J41D01*
G03X7000Y386008I-1500J-33D01*
G01Y395992D01*
G03X7000Y396000I-1500J41D01*
G03X7000Y396008I-1500J-33D01*
G01Y405992D01*
G03X7000Y406000I-1500J41D01*
G03X7000Y406008I-1500J-33D01*
G01Y415992D01*
G03X7000Y416000I-1500J41D01*
G03X7000Y416008I-1500J-33D01*
G01Y425992D01*
G03X7000Y426000I-1500J41D01*
G03X7000Y426008I-1500J-33D01*
G01Y435992D01*
G03X7000Y436000I-1500J41D01*
G03X7000Y436008I-1500J-33D01*
G01Y444500D01*
X15492D01*
G03X15500Y444500I41J1500D01*
G03X15508Y444500I-33J1500D01*
G01X25492D01*
G03X25500Y444500I41J1500D01*
G03X25508Y444500I-33J1500D01*
G01X35492D01*
G03X35500Y444500I41J1500D01*
G03X35508Y444500I-33J1500D01*
G01X45492D01*
G03X45500Y444500I41J1500D01*
G03X45508Y444500I-33J1500D01*
G01X55492D01*
G03X55500Y444500I41J1500D01*
G03X55508Y444500I-33J1500D01*
G01X65492D01*
G03X65500Y444500I41J1500D01*
G03X65508Y444500I-33J1500D01*
G01X75492D01*
G03X75500Y444500I41J1500D01*
G03X75508Y444500I-33J1500D01*
G01X85492D01*
G03X85500Y444500I41J1500D01*
G03X85508Y444500I-33J1500D01*
G01X95492D01*
G03X95500Y444500I41J1500D01*
G03X95508Y444500I-33J1500D01*
G01X105492D01*
G03X105500Y444500I41J1500D01*
G03X105508Y444500I-33J1500D01*
G01X115492D01*
G03X115500Y444500I41J1500D01*
G03X115508Y444500I-33J1500D01*
G01X125492D01*
G03X125500Y444500I41J1500D01*
G03X125508Y444500I-33J1500D01*
G01X135492D01*
G03X135500Y444500I41J1500D01*
G03X135508Y444500I-33J1500D01*
G01X145492D01*
G03X145500Y444500I41J1500D01*
G03X145508Y444500I-33J1500D01*
G01X155492D01*
G03X155500Y444500I41J1500D01*
G03X155508Y444500I-33J1500D01*
G01X165492D01*
G03X165500Y444500I41J1500D01*
G03X165508Y444500I-33J1500D01*
G01X175492D01*
G03X175500Y444500I41J1500D01*
G03X175508Y444500I-33J1500D01*
G01X185492D01*
G03X185500Y444500I41J1500D01*
G03X185508Y444500I-33J1500D01*
G01X195492D01*
G03X195500Y444500I41J1500D01*
G03X195508Y444500I-33J1500D01*
G01X205492D01*
G03X205500Y444500I41J1500D01*
G03X205508Y444500I-33J1500D01*
G01X215492D01*
G03X215500Y444500I41J1500D01*
G03X215508Y444500I-33J1500D01*
G01X225492D01*
G03X225500Y444500I41J1500D01*
G03X225508Y444500I-33J1500D01*
G01X235492D01*
G03X235500Y444500I41J1500D01*
G03X235508Y444500I-33J1500D01*
G01X245492D01*
G03X245500Y444500I41J1500D01*
G03X245508Y444500I-33J1500D01*
G01X255492D01*
G03X255500Y444500I41J1500D01*
G03X255508Y444500I-33J1500D01*
G01X265492D01*
G03X265500Y444500I41J1500D01*
G03X265508Y444500I-33J1500D01*
G01X275492D01*
G03X275500Y444500I41J1500D01*
G03X275508Y444500I-33J1500D01*
G01X285492D01*
G03X285500Y444500I41J1500D01*
G03X285508Y444500I-33J1500D01*
G01X295492D01*
G03X295500Y444500I41J1500D01*
G03X295508Y444500I-33J1500D01*
G01X305492D01*
G03X305500Y444500I41J1500D01*
G03X305508Y444500I-33J1500D01*
G01X315492D01*
G03X315500Y444500I41J1500D01*
G03X315508Y444500I-33J1500D01*
G01X325492D01*
G03X325500Y444500I41J1500D01*
G03X325508Y444500I-33J1500D01*
G01X335492D01*
G03X335500Y444500I41J1500D01*
G03X335508Y444500I-33J1500D01*
G01X335510D01*
G37*
G36*
G01X182000Y168250D02*
X189000D01*
Y163500D01*
X206317Y146183D01*
G02X206034Y145500I-283J-283D01*
G01X194500D01*
X182000Y158000D01*
Y168250D01*
G37*
G36*
G01X436500Y126250D02*
G03X441250Y131000I0J4750D01*
G01Y133000D01*
G03X438636Y137243I-4750J0D01*
G02X438816Y138000I180J357D01*
G01X450500D01*
Y138951D01*
G02X451132Y139277I400J0D01*
G03X452000Y139000I868J1223D01*
G03Y142000I0J1500D01*
G03X451132Y141723I0J-1500D01*
G02X450500Y142049I-232J326D01*
G01Y186500D01*
X444500Y192500D01*
Y338000D01*
X458500D01*
X471000Y350500D01*
Y357500D01*
X543602D01*
G02X544002Y357079I0J-400D01*
G03X544000Y357000I1498J-79D01*
G03X547000I1500J0D01*
G03X546998Y357079I-1500J0D01*
G02X547398Y357500I399J21D01*
G01X548000D01*
Y7500D01*
X398500D01*
Y89000D01*
X239000D01*
X194500Y133500D01*
Y145500D01*
X236773D01*
X236798Y145328D01*
G03X241500Y141250I4703J672D01*
G01X243500D01*
G03X248203Y145328I0J4750D01*
G01X248227Y145500D01*
X256000D01*
X287000Y114500D01*
X336500D01*
X359750Y137750D01*
X378346D01*
X378596Y138000D01*
X411913D01*
G02X412194Y137316I0J-400D01*
G03X411750Y136250I1056J-1066D01*
G01Y127750D01*
G03X413250Y126250I1500J0D01*
G01X419500D01*
Y122500D01*
X433500D01*
Y126554D01*
G02X434102Y126899I400J0D01*
G03X436500Y126250I2398J4101D01*
G37*
G36*
G01X346053Y399750D02*
X364652Y418348D01*
X414000Y369000D01*
X433477D01*
G03X433500Y369000I25J1500D01*
G03X433523Y369000I-2J1500D01*
G01X438477D01*
G03X438500Y369000I25J1500D01*
G03X438523Y369000I-2J1500D01*
G01X463500D01*
Y353500D01*
X461568Y351568D01*
X461429Y351678D01*
G03X460500Y352000I-929J-1178D01*
G03X459000Y350500I0J-1500D01*
G03X459322Y349571I1500J0D01*
G01X459432Y349432D01*
X453000Y343000D01*
X437500D01*
Y270500D01*
X435500Y268500D01*
X417500D01*
Y177750D01*
X413250D01*
G03X411750Y176250I0J-1500D01*
G01Y167750D01*
G03X413250Y166250I1500J0D01*
G01X417500D01*
Y165250D01*
X401394D01*
G02X400996Y165619I0J400D01*
G03X398004I-1495J-119D01*
G02X397606Y165250I-399J32D01*
G01X394053D01*
X386250Y173053D01*
Y255053D01*
X370553Y270750D01*
X351053D01*
X326303Y295500D01*
X321000D01*
Y301828D01*
X318828Y304000D01*
X317750D01*
Y314553D01*
X308053Y324250D01*
X291053D01*
X288750Y326553D01*
Y354947D01*
X293053Y359250D01*
X298584D01*
G03X301500Y358250I2916J3750D01*
G01X303500D01*
G03X306416Y359250I0J4750D01*
G01X310553D01*
X318750Y367447D01*
Y390947D01*
X327553Y399750D01*
X346053D01*
G37*
G36*
G01X299500Y286000D02*
Y302000D01*
X318000D01*
X319000Y301000D01*
Y286000D01*
X315500Y282500D01*
X303000D01*
X299500Y286000D01*
G37*
G36*
G01X431500Y178000D02*
Y124500D01*
X421500D01*
Y178000D01*
X431500D01*
G37*
G36*
G01X402000Y420000D02*
Y430500D01*
X405500Y434000D01*
X413500D01*
X441000Y406500D01*
X533000D01*
Y394500D01*
X427500D01*
X402000Y420000D01*
G37*
%LPC*%
G75*
G36*
G01X303500Y378250D02*
X301500D01*
G02Y387750I0J4750D01*
G01X303500D01*
G02Y378250I0J-4750D01*
G37*
G36*
G01Y388250D02*
X301500D01*
G02Y397750I0J4750D01*
G01X303500D01*
G02Y388250I0J-4750D01*
G37*
G36*
G01Y398250D02*
X301500D01*
G02Y407750I0J4750D01*
G01X303500D01*
G02Y398250I0J-4750D01*
G37*
G36*
G01Y408250D02*
X301500D01*
G02Y417750I0J4750D01*
G01X303500D01*
G02Y408250I0J-4750D01*
G37*
G36*
G01X296750Y419750D02*
Y426250D01*
G02X298250Y427750I1500J0D01*
G01X306750D01*
G02X308250Y426250I0J-1500D01*
G01Y419750D01*
G02X306750Y418250I-1500J0D01*
G01X298250D01*
G02X296750Y419750I0J1500D01*
G37*
G36*
G01X303500Y368250D02*
X301500D01*
G02Y377750I0J4750D01*
G01X303500D01*
G02Y368250I0J-4750D01*
G37*
G36*
G01X323000Y186250D02*
X321000D01*
G02Y195750I0J4750D01*
G01X323000D01*
G02Y186250I0J-4750D01*
G37*
G36*
G01X316250Y197750D02*
Y204250D01*
G02X317750Y205750I1500J0D01*
G01X326250D01*
G02X327750Y204250I0J-1500D01*
G01Y197750D01*
G02X326250Y196250I-1500J0D01*
G01X317750D01*
G02X316250Y197750I0J1500D01*
G37*
G36*
G01X323000Y176250D02*
X321000D01*
G02Y185750I0J4750D01*
G01X323000D01*
G02Y176250I0J-4750D01*
G37*
G36*
G01X340000Y186250D02*
X338000D01*
G02Y195750I0J4750D01*
G01X340000D01*
G02Y186250I0J-4750D01*
G37*
G36*
G01X333250Y197750D02*
Y204250D01*
G02X334750Y205750I1500J0D01*
G01X343250D01*
G02X344750Y204250I0J-1500D01*
G01Y197750D01*
G02X343250Y196250I-1500J0D01*
G01X334750D01*
G02X333250Y197750I0J1500D01*
G37*
G36*
G01X340000Y176250D02*
X338000D01*
G02Y185750I0J4750D01*
G01X340000D01*
G02Y176250I0J-4750D01*
G37*
G36*
G01X71900Y427900D02*
Y434100D01*
G02X73400Y435600I1500J0D01*
G01X79600D01*
G02X81100Y434100I0J-1500D01*
G01Y427900D01*
G02X79600Y426400I-1500J0D01*
G01X73400D01*
G02X71900Y427900I0J1500D01*
G37*
G36*
G01X90750Y419750D02*
Y426250D01*
G02X92250Y427750I1500J0D01*
G01X100750D01*
G02X102250Y426250I0J-1500D01*
G01Y419750D01*
G02X100750Y418250I-1500J0D01*
G01X92250D01*
G02X90750Y419750I0J1500D01*
G37*
G36*
G01X97500Y408250D02*
X95500D01*
G02Y417750I0J4750D01*
G01X97500D01*
G02Y408250I0J-4750D01*
G37*
G36*
G01Y398250D02*
X95500D01*
G02Y407750I0J4750D01*
G01X97500D01*
G02Y398250I0J-4750D01*
G37*
G36*
G01Y388250D02*
X95500D01*
G02Y397750I0J4750D01*
G01X97500D01*
G02Y388250I0J-4750D01*
G37*
G36*
G01Y378250D02*
X95500D01*
G02Y387750I0J4750D01*
G01X97500D01*
G02Y378250I0J-4750D01*
G37*
G36*
G01X187500D02*
X185500D01*
G02Y387750I0J4750D01*
G01X187500D01*
G02Y378250I0J-4750D01*
G37*
G36*
G01Y388250D02*
X185500D01*
G02Y397750I0J4750D01*
G01X187500D01*
G02Y388250I0J-4750D01*
G37*
G36*
G01Y398250D02*
X185500D01*
G02Y407750I0J4750D01*
G01X187500D01*
G02Y398250I0J-4750D01*
G37*
G36*
G01Y408250D02*
X185500D01*
G02Y417750I0J4750D01*
G01X187500D01*
G02Y408250I0J-4750D01*
G37*
G36*
G01X180750Y419750D02*
Y426250D01*
G02X182250Y427750I1500J0D01*
G01X190750D01*
G02X192250Y426250I0J-1500D01*
G01Y419750D01*
G02X190750Y418250I-1500J0D01*
G01X182250D01*
G02X180750Y419750I0J1500D01*
G37*
G36*
G01X206750D02*
Y426250D01*
G02X208250Y427750I1500J0D01*
G01X216750D01*
G02X218250Y426250I0J-1500D01*
G01Y419750D01*
G02X216750Y418250I-1500J0D01*
G01X208250D01*
G02X206750Y419750I0J1500D01*
G37*
G36*
G01X213500Y408250D02*
X211500D01*
G02Y417750I0J4750D01*
G01X213500D01*
G02Y408250I0J-4750D01*
G37*
G36*
G01Y398250D02*
X211500D01*
G02Y407750I0J4750D01*
G01X213500D01*
G02Y398250I0J-4750D01*
G37*
G36*
G01Y388250D02*
X211500D01*
G02Y397750I0J4750D01*
G01X213500D01*
G02Y388250I0J-4750D01*
G37*
G36*
G01Y378250D02*
X211500D01*
G02Y387750I0J4750D01*
G01X213500D01*
G02Y378250I0J-4750D01*
G37*
G36*
G01X97500Y368250D02*
X95500D01*
G02Y377750I0J4750D01*
G01X97500D01*
G02Y368250I0J-4750D01*
G37*
G36*
G01Y359250D02*
X95500D01*
G02Y366750I0J3750D01*
G01X97500D01*
G02Y359250I0J-3750D01*
G37*
G36*
G01Y348250D02*
X95500D01*
G02Y357750I0J4750D01*
G01X97500D01*
G02Y348250I0J-4750D01*
G37*
G36*
G01X187500D02*
X185500D01*
G02Y357750I0J4750D01*
G01X187500D01*
G02Y348250I0J-4750D01*
G37*
G36*
G01Y368250D02*
X185500D01*
G02Y377750I0J4750D01*
G01X187500D01*
G02Y368250I0J-4750D01*
G37*
G36*
G01X213500D02*
X211500D01*
G02Y377750I0J4750D01*
G01X213500D01*
G02Y368250I0J-4750D01*
G37*
G36*
G01Y359250D02*
X211500D01*
G02Y366750I0J3750D01*
G01X213500D01*
G02Y359250I0J-3750D01*
G37*
G36*
G01Y348250D02*
X211500D01*
G02Y357750I0J4750D01*
G01X213500D01*
G02Y348250I0J-4750D01*
G37*
G36*
G01X109750Y144750D02*
Y153250D01*
G02X111250Y154750I1500J0D01*
G01X117750D01*
G02X119250Y153250I0J-1500D01*
G01Y144750D01*
G02X117750Y143250I-1500J0D01*
G01X111250D01*
G02X109750Y144750I0J1500D01*
G37*
G36*
G01X106846Y30460D02*
X102122D01*
G02X98457Y34126I0J3666D01*
G01Y40819D01*
G02X102122Y44484I3666J0D01*
G01X106846D01*
G02X110512Y40819I0J-3666D01*
G01Y34126D01*
G02X106846Y30460I-3666J0D01*
G37*
G36*
G01X154878D02*
X150154D01*
G02X146488Y34126I0J3666D01*
G01Y40819D01*
G02X150154Y44484I3666J0D01*
G01X154878D01*
G02X158543Y40819I0J-3666D01*
G01Y34126D01*
G02X154878Y30460I-3666J0D01*
G37*
G36*
G01X37098Y427892D02*
G02X35598Y426392I-1500J1D01*
G01X29397Y426396D01*
G02X27898Y427896I1J1500D01*
G01Y427897D01*
X27902Y434097D01*
G02X29402Y435596I1500J-1D01*
G01X35603Y435593D01*
G02X37102Y434092I-1J-1500D01*
G01X37098Y427892D01*
G37*
G36*
G01X38316Y124819D02*
G03X37684I-316J-246D01*
G02X36500Y124240I-1184J921D01*
G02Y127240I0J1500D01*
G02X37684Y126661I0J-1500D01*
G03X38316I316J246D01*
G02X39500Y127240I1184J-921D01*
G02Y124240I0J-1500D01*
G02X38316Y124819I0J1500D01*
G37*
G36*
G01X318184Y137921D02*
G03X318816I316J246D01*
G02X321184I1184J-921D01*
G03X321816I316J246D01*
G02X323000Y138500I1184J-921D01*
G02Y135500I0J-1500D01*
G02X321816Y136079I0J1500D01*
G03X321184I-316J-246D01*
G02X318816I-1184J921D01*
G03X318184I-316J-246D01*
G02X315816I-1184J921D01*
G03X315184I-316J-246D01*
G02X312816I-1184J921D01*
G03X312184I-316J-246D01*
G02X311000Y135500I-1184J921D01*
G02Y138500I0J1500D01*
G02X312184Y137921I0J-1500D01*
G03X312816I316J246D01*
G02X315184I1184J-921D01*
G03X315816I316J246D01*
G02X318184I1184J-921D01*
G37*
G36*
G01X108487Y167130D02*
G03X109013I263J301D01*
G02X110000Y167500I987J-1130D01*
G02X111184Y166921I0J-1500D01*
G03X111816I316J246D01*
G02X113000Y167500I1184J-921D01*
G02Y164500I0J-1500D01*
G02X111816Y165079I0J1500D01*
G03X111184I-316J-246D01*
G02X110000Y164500I-1184J921D01*
G02X109013Y164870I0J1500D01*
G03X108487I-263J-301D01*
G02X107500Y164500I-987J1130D01*
G02X106316Y165079I0J1500D01*
G03X105684I-316J-246D01*
G02X103316I-1184J921D01*
G03X102684I-316J-246D01*
G02X101500Y164500I-1184J921D01*
G02Y167500I0J1500D01*
G02X102684Y166921I0J-1500D01*
G03X103316I316J246D01*
G02X105684I1184J-921D01*
G03X106316I316J246D01*
G02X107500Y167500I1184J-921D01*
G02X108487Y167130I0J-1500D01*
G37*
G36*
G01X143515Y202846D02*
G03X143094Y203302I-396J57D01*
G02X143000Y203299I-93J1497D01*
G02X144500Y204799I0J1500D01*
G02X144485Y204587I-1500J0D01*
G03X144906Y204131I396J-57D01*
G02X145000Y204134I93J-1497D01*
G02X146500Y202634I0J-1500D01*
G02X146499Y202578I-1500J-1D01*
G03X146920Y202163I400J-15D01*
G02X147000Y202166I79J-1498D01*
G02X145500Y200665I0J-1500D01*
G02X145501Y200722I1500J1D01*
G03X145080Y201136I-400J15D01*
G02X145000Y201134I-79J1498D01*
G02X143500Y202634I0J1500D01*
G02X143515Y202846I1500J0D01*
G37*
G36*
G01X194581Y204498D02*
G03X195002Y204919I22J399D01*
G02X195000Y205000I1498J81D01*
G02X196500Y203500I1500J0D01*
G02X196419Y203502I0J1500D01*
G03X195998Y203081I-22J-399D01*
G02X196000Y203000I-1498J-81D01*
G02X194500Y201500I-1500J0D01*
G02X194459Y201500I1J1500D01*
G03X194048Y201079I-11J-400D01*
G02X194050Y201000I-1498J-79D01*
G02X192550Y202500I-1500J0D01*
G02X192591Y202500I-1J-1500D01*
G03X193002Y202921I11J400D01*
G02X193000Y203000I1498J79D01*
G02X194500Y204500I1500J0D01*
G02X194581Y204498I0J-1500D01*
G37*
G36*
G01X251583Y216492D02*
G03X251267Y217018I-378J131D01*
G02X250000Y218500I233J1482D01*
G02X253000I1500J0D01*
G02X252917Y218008I-1500J0D01*
G03X253233Y217482I378J-131D01*
G02X254500Y216000I-233J-1482D01*
G02X251500I-1500J0D01*
G02X251583Y216492I1500J0D01*
G37*
G36*
G01X221870Y230487D02*
G03Y231013I-301J263D01*
G02X221500Y232000I1130J987D01*
G02X224500I1500J0D01*
G02X224130Y231013I-1500J0D01*
G03Y230487I301J-263D01*
G02X224500Y229500I-1130J-987D01*
G02X221500I-1500J0D01*
G02X221870Y230487I1500J0D01*
G37*
G36*
G01X222370Y250487D02*
G03Y251013I-301J263D01*
G02X222000Y252000I1130J987D01*
G02X225000I1500J0D01*
G02X224630Y251013I-1500J0D01*
G03Y250487I301J-263D01*
G02Y248513I-1130J-987D01*
G03Y247987I301J-263D01*
G02X225000Y247000I-1130J-987D01*
G02X222000I-1500J0D01*
G02X222370Y247987I1500J0D01*
G03Y248513I-301J263D01*
G02Y250487I1130J987D01*
G37*
G36*
G01X235316Y256579D02*
G03X234684I-316J-246D01*
G02X233500Y256000I-1184J921D01*
G02Y259000I0J1500D01*
G02X234684Y258421I0J-1500D01*
G03X235316I316J246D01*
G02X236500Y259000I1184J-921D01*
G02Y256000I0J-1500D01*
G02X235316Y256579I0J1500D01*
G37*
G36*
G01X187581Y304998D02*
G03X188002Y305419I22J399D01*
G02X188000Y305500I1498J81D01*
G02X189500Y304000I1500J0D01*
G02X189419Y304002I0J1500D01*
G03X188998Y303581I-22J-399D01*
G02X189000Y303500I-1498J-81D01*
G02X187500Y302000I-1500J0D01*
G02X187419Y302002I0J1500D01*
G03X186998Y301581I-22J-399D01*
G02X187000Y301500I-1498J-81D01*
G02X185500Y300000I-1500J0D01*
G02X185419Y300002I0J1500D01*
G03X184998Y299581I-22J-399D01*
G02X185000Y299500I-1498J-81D01*
G02X183500Y301000I-1500J0D01*
G02X183581Y300998I0J-1500D01*
G03X184002Y301419I22J399D01*
G02X184000Y301500I1498J81D01*
G02X185500Y303000I1500J0D01*
G02X185581Y302998I0J-1500D01*
G03X186002Y303419I22J399D01*
G02X186000Y303500I1498J81D01*
G02X187500Y305000I1500J0D01*
G02X187581Y304998I0J-1500D01*
G37*
G36*
G01X71536Y123149D02*
G02X74000Y124298I964J1149D01*
G02X73194Y122968I-1500J0D01*
G03X73122Y122307I185J-355D01*
G02X73658Y121158I-964J-1149D01*
G02X70657I-1500J0D01*
G02X71464Y122488I1500J0D01*
G03X71536Y123149I-185J355D01*
G37*
G36*
G01X321184Y143921D02*
G03X321816I316J246D01*
G02X323000Y144500I1184J-921D01*
G02Y141500I0J-1500D01*
G02X321816Y142079I0J1500D01*
G03X321184I-316J-246D01*
G02X318816I-1184J921D01*
G03X318184I-316J-246D01*
G02X315816I-1184J921D01*
G03X315184I-316J-246D01*
G02X314000Y141500I-1184J921D01*
G02X312964Y141915I0J1500D01*
G03X312332Y141810I-276J-289D01*
G02X311000Y141000I-1332J690D01*
G02X310508Y141083I0J1500D01*
G03X309982Y140767I-131J-378D01*
G02X308500Y139500I-1482J233D01*
G02X308018Y139579I0J1500D01*
G03X307492Y139158I-129J-379D01*
G02X307500Y139000I-1492J-159D01*
G02X306000Y140500I-1500J0D01*
G02X306482Y140421I0J-1500D01*
G03X307008Y140842I129J379D01*
G02X307000Y141000I1492J159D01*
G02X308500Y142500I1500J0D01*
G02X308992Y142417I0J-1500D01*
G03X309518Y142733I131J378D01*
G02X311000Y144000I1482J-233D01*
G02X312036Y143585I0J-1500D01*
G03X312668Y143690I276J289D01*
G02X314000Y144500I1332J-690D01*
G02X315184Y143921I0J-1500D01*
G03X315816I316J246D01*
G02X318184I1184J-921D01*
G03X318816I316J246D01*
G02X321184I1184J-921D01*
G37*
G36*
G01X253310Y165168D02*
G02X255500Y166500I690J1332D01*
G02X255085Y165464I-1500J0D01*
G03X255190Y164832I289J-276D01*
G02X256000Y163500I-690J-1332D01*
G02X253000I-1500J0D01*
G02X253415Y164536I1500J0D01*
G03X253310Y165168I-289J276D01*
G37*
G36*
G01X190008Y188342D02*
G02X193000Y188500I1492J158D01*
G02X192992Y188342I-1500J0D01*
G03X193518Y187921I398J-42D01*
G02X194000Y188000I482J-1421D01*
G02X195500Y186500I0J-1500D01*
G02X195223Y185631I-1500J0D01*
G03X195539Y185000I326J-232D01*
G02X197000Y183500I-39J-1500D01*
G02X194000I-1500J0D01*
G02X194277Y184369I1500J0D01*
G03X193961Y185000I-326J232D01*
G02X192500Y186500I39J1500D01*
G02X192508Y186658I1500J0D01*
G03X191982Y187079I-398J42D01*
G02X191018I-482J1421D01*
G03X190492Y186658I-129J-379D01*
G02X190500Y186500I-1492J-159D01*
G02X189000Y188000I-1500J0D01*
G02X189482Y187921I0J-1500D01*
G03X190008Y188342I129J379D01*
G37*
G36*
G01X86224Y233632D02*
G02X85000Y236000I-1224J868D01*
G02X86342Y235170I0J-1500D01*
G03X87026Y235118I358J179D01*
G02X88250Y235750I1224J-868D01*
G02X89750Y234250I0J-1500D01*
G02X89750Y234210I-1500J-1D01*
G03X90328Y233842I400J-11D01*
G02X91000Y234000I672J-1341D01*
G02X89500Y232500I0J-1500D01*
G02X89500Y232540I1500J1D01*
G03X88922Y232908I-400J11D01*
G02X88250Y232750I-672J1341D01*
G02X86908Y233580I0J1500D01*
G03X86224Y233632I-358J-179D01*
G37*
G36*
G01X299369Y237277D02*
G02X298500Y240000I-869J1223D01*
G02X300000Y238539I0J-1500D01*
G03X300631Y238223I400J10D01*
G02X301500Y238500I869J-1223D01*
G02X303000Y237039I0J-1500D01*
G03X303631Y236723I400J10D01*
G02X304500Y237000I869J-1223D01*
G02X306000Y235539I0J-1500D01*
G03X306631Y235223I400J10D01*
G02X307500Y235500I869J-1223D01*
G02Y232500I0J-1500D01*
G02X306000Y233961I0J1500D01*
G03X305369Y234277I-400J-10D01*
G02X304500Y234000I-869J1223D01*
G02X303000Y235461I0J1500D01*
G03X302369Y235777I-400J-10D01*
G02X301500Y235500I-869J1223D01*
G02X300000Y236961I0J1500D01*
G03X299369Y237277I-400J-10D01*
G37*
G36*
G01X300000Y253539D02*
G02X301500Y252000I1500J-39D01*
G02X300631Y252277I0J1500D01*
G03X300000Y251961I-232J-326D01*
G02X298500Y250500I-1500J39D01*
G02Y253500I0J1500D01*
G02X299369Y253223I0J-1500D01*
G03X300000Y253539I232J326D01*
G37*
G36*
G01X208447Y254105D02*
G02X207000Y256000I-1447J395D01*
G02X207921Y255684I0J-1500D01*
G03X208553Y255895I246J316D01*
G02X210000Y257000I1447J-395D01*
G02Y254000I0J-1500D01*
G02X209079Y254316I0J1500D01*
G03X208447Y254105I-246J-316D01*
G37*
G36*
G01X109079Y298518D02*
G02X110500Y297500I1421J482D01*
G02X110342Y297508I0J1500D01*
G03X109921Y296982I-42J-398D01*
G02X110000Y296500I-1421J-482D01*
G02X108500Y298000I-1500J0D01*
G02X108658Y297992I0J-1500D01*
G03X109079Y298518I42J398D01*
G37*
G36*
G01X115079Y303518D02*
G02X116500Y302500I1421J482D01*
G02X116342Y302508I0J1500D01*
G03X115921Y301982I-42J-398D01*
G02X116000Y301500I-1421J-482D01*
G02X114500Y303000I-1500J0D01*
G02X114658Y302992I0J-1500D01*
G03X115079Y303518I42J398D01*
G37*
G36*
G01X97079Y308018D02*
G02X98500Y307000I1421J482D01*
G02X98342Y307008I0J1500D01*
G03X97921Y306482I-42J-398D01*
G02X98000Y306000I-1421J-482D01*
G02X96500Y307500I-1500J0D01*
G02X96658Y307492I0J-1500D01*
G03X97079Y308018I42J398D01*
G37*
G36*
G01X103079Y313018D02*
G02X104500Y312000I1421J482D01*
G02X104342Y312008I0J1500D01*
G03X103921Y311482I-42J-398D01*
G02X104000Y311000I-1421J-482D01*
G02X102500Y312500I-1500J0D01*
G02X102658Y312492I0J-1500D01*
G03X103079Y313018I42J398D01*
G37*
G36*
G01X217083Y317508D02*
G02X220000Y318000I1417J492D01*
G02X218733Y316518I-1500J0D01*
G03X218417Y315992I62J-395D01*
G02X218500Y315500I-1417J-492D01*
G02X217000Y314000I-1500J0D01*
G02X216842Y314008I0J1500D01*
G03X216421Y313482I-42J-398D01*
G02X216500Y313000I-1421J-482D01*
G02X215000Y311500I-1500J0D01*
G02X214842Y311508I0J1500D01*
G03X214421Y310982I-42J-398D01*
G02X214500Y310500I-1421J-482D01*
G02X213000Y312000I-1500J0D01*
G02X213158Y311992I0J-1500D01*
G03X213579Y312518I42J398D01*
G02X213500Y313000I1421J482D01*
G02X215000Y314500I1500J0D01*
G02X215158Y314492I0J-1500D01*
G03X215579Y315018I42J398D01*
G02X215500Y315500I1421J482D01*
G02X216767Y316982I1500J0D01*
G03X217083Y317508I-62J395D01*
G37*
G36*
G01X225421Y204816D02*
G02X224500Y207500I-921J1184D01*
G02X225947Y206395I0J-1500D01*
G03X226579Y206184I386J105D01*
G02X227500Y206500I921J-1184D01*
G02X228947Y205395I0J-1500D01*
G03X229579Y205184I386J105D01*
G02X230500Y205500I921J-1184D01*
G02X231947Y204395I0J-1500D01*
G03X232579Y204184I386J105D01*
G02X233500Y204500I921J-1184D01*
G02X235000Y203000I0J-1500D01*
G02X234992Y202842I-1500J0D01*
G03X235518Y202421I398J-42D01*
G02X236000Y202500I482J-1421D01*
G02X234500Y201000I0J-1500D01*
G02X234508Y201158I1500J0D01*
G03X233982Y201579I-398J42D01*
G02X233500Y201500I-482J1421D01*
G02X232053Y202605I0J1500D01*
G03X231421Y202816I-386J-105D01*
G02X230500Y202500I-921J1184D01*
G02X229053Y203605I0J1500D01*
G03X228421Y203816I-386J-105D01*
G02X227500Y203500I-921J1184D01*
G02X226053Y204605I0J1500D01*
G03X225421Y204816I-386J-105D01*
G37*
G36*
G01X493008Y164842D02*
G02X494500Y163500I1492J158D01*
G02X494018Y163579I0J1500D01*
G03X493492Y163158I-129J-379D01*
G02X493500Y163000I-1492J-159D01*
G02X492000Y164500I-1500J0D01*
G02X492482Y164421I0J-1500D01*
G03X493008Y164842I129J379D01*
G37*
G36*
G01X236750Y122750D02*
Y129250D01*
G02X238250Y130750I1500J0D01*
G01X246750D01*
G02X248250Y129250I0J-1500D01*
G01Y122750D01*
G02X246750Y121250I-1500J0D01*
G01X238250D01*
G02X236750Y122750I0J1500D01*
G37*
G36*
G01X243500Y131250D02*
X241500D01*
G02Y140750I0J4750D01*
G01X243500D01*
G02Y131250I0J-4750D01*
G37*
G36*
G01X421750Y86750D02*
Y95250D01*
G02X423250Y96750I1500J0D01*
G01X429750D01*
G02X431250Y95250I0J-1500D01*
G01Y86750D01*
G02X429750Y85250I-1500J0D01*
G01X423250D01*
G02X421750Y86750I0J1500D01*
G37*
G36*
G01Y107750D02*
Y116250D01*
G02X423250Y117750I1500J0D01*
G01X429750D01*
G02X431250Y116250I0J-1500D01*
G01Y107750D01*
G02X429750Y106250I-1500J0D01*
G01X423250D01*
G02X421750Y107750I0J1500D01*
G37*
G36*
G01X531900Y13900D02*
Y20100D01*
G02X533400Y21600I1500J0D01*
G01X539600D01*
G02X541100Y20100I0J-1500D01*
G01Y13900D01*
G02X539600Y12400I-1500J0D01*
G01X533400D01*
G02X531900Y13900I0J1500D01*
G37*
G36*
G01Y65900D02*
Y72100D01*
G02X533400Y73600I1500J0D01*
G01X539600D01*
G02X541100Y72100I0J-1500D01*
G01Y65900D01*
G02X539600Y64400I-1500J0D01*
G01X533400D01*
G02X531900Y65900I0J1500D01*
G37*
G36*
G01Y121900D02*
Y128100D01*
G02X533400Y129600I1500J0D01*
G01X539600D01*
G02X541100Y128100I0J-1500D01*
G01Y121900D01*
G02X539600Y120400I-1500J0D01*
G01X533400D01*
G02X531900Y121900I0J1500D01*
G37*
G36*
G01Y182900D02*
Y189100D01*
G02X533400Y190600I1500J0D01*
G01X539600D01*
G02X541100Y189100I0J-1500D01*
G01Y182900D01*
G02X539600Y181400I-1500J0D01*
G01X533400D01*
G02X531900Y182900I0J1500D01*
G37*
G36*
G01Y242900D02*
Y249100D01*
G02X533400Y250600I1500J0D01*
G01X539600D01*
G02X541100Y249100I0J-1500D01*
G01Y242900D01*
G02X539600Y241400I-1500J0D01*
G01X533400D01*
G02X531900Y242900I0J1500D01*
G37*
G36*
G01Y303900D02*
Y310100D01*
G02X533400Y311600I1500J0D01*
G01X539600D01*
G02X541100Y310100I0J-1500D01*
G01Y303900D01*
G02X539600Y302400I-1500J0D01*
G01X533400D01*
G02X531900Y303900I0J1500D01*
G37*
G36*
G01X303500Y348250D02*
X301500D01*
G02Y357750I0J4750D01*
G01X303500D01*
G02Y348250I0J-4750D01*
G37*
G36*
G01X392079Y270684D02*
G03Y271316I-246J316D01*
G02X391500Y272500I921J1184D01*
G02X394500I1500J0D01*
G02X393921Y271316I-1500J0D01*
G03Y270684I246J-316D01*
G02X394500Y269500I-921J-1184D01*
G02X391500I-1500J0D01*
G02X392079Y270684I1500J0D01*
G37*
G36*
G01X352079Y275684D02*
G03Y276316I-246J316D01*
G02X351500Y277500I921J1184D01*
G02X354500I1500J0D01*
G02X353921Y276316I-1500J0D01*
G03Y275684I246J-316D01*
G02X354500Y274500I-921J-1184D01*
G02X351500I-1500J0D01*
G02X352079Y275684I1500J0D01*
G37*
G36*
G01X355579D02*
G03Y276316I-246J316D01*
G02X355000Y277500I921J1184D01*
G02X358000I1500J0D01*
G02X357421Y276316I-1500J0D01*
G03Y275684I246J-316D01*
G02X358000Y274500I-921J-1184D01*
G02X355000I-1500J0D01*
G02X355579Y275684I1500J0D01*
G37*
G36*
G01X359079D02*
G03Y276316I-246J316D01*
G02X358500Y277500I921J1184D01*
G02X361500I1500J0D01*
G02X360921Y276316I-1500J0D01*
G03Y275684I246J-316D01*
G02X361500Y274500I-921J-1184D01*
G02X358500I-1500J0D01*
G02X359079Y275684I1500J0D01*
G37*
G36*
G01X352079Y294684D02*
G03Y295316I-246J316D01*
G02X351500Y296500I921J1184D01*
G02X354500I1500J0D01*
G02X353921Y295316I-1500J0D01*
G03Y294684I246J-316D01*
G02X354500Y293500I-921J-1184D01*
G02X351500I-1500J0D01*
G02X352079Y294684I1500J0D01*
G37*
G36*
G01X355579D02*
G03Y295316I-246J316D01*
G02X355000Y296500I921J1184D01*
G02X358000I1500J0D01*
G02X357421Y295316I-1500J0D01*
G03Y294684I246J-316D01*
G02X358000Y293500I-921J-1184D01*
G02X355000I-1500J0D01*
G02X355579Y294684I1500J0D01*
G37*
G36*
G01X359079D02*
G03Y295316I-246J316D01*
G02X358500Y296500I921J1184D01*
G02X361500I1500J0D01*
G02X360921Y295316I-1500J0D01*
G03Y294684I246J-316D01*
G02X361500Y293500I-921J-1184D01*
G02X358500I-1500J0D01*
G02X359079Y294684I1500J0D01*
G37*
G36*
G01X339079Y310684D02*
G03Y311316I-246J316D01*
G02X338500Y312500I921J1184D01*
G02X341500I1500J0D01*
G02X340921Y311316I-1500J0D01*
G03Y310684I246J-316D01*
G02X341500Y309500I-921J-1184D01*
G02X338500I-1500J0D01*
G02X339079Y310684I1500J0D01*
G37*
G36*
G01X342579D02*
G03Y311316I-246J316D01*
G02X342000Y312500I921J1184D01*
G02X345000I1500J0D01*
G02X344421Y311316I-1500J0D01*
G03Y310684I246J-316D01*
G02X345000Y309500I-921J-1184D01*
G02X342000I-1500J0D01*
G02X342579Y310684I1500J0D01*
G37*
G36*
G01X346079D02*
G03Y311316I-246J316D01*
G02X345500Y312500I921J1184D01*
G02X348500I1500J0D01*
G02X347921Y311316I-1500J0D01*
G03Y310684I246J-316D01*
G02X348500Y309500I-921J-1184D01*
G02X345500I-1500J0D01*
G02X346079Y310684I1500J0D01*
G37*
G36*
G01X389513Y318870D02*
G03X388987I-263J-301D01*
G02X388000Y318500I-987J1130D01*
G02Y321500I0J1500D01*
G02X388987Y321130I0J-1500D01*
G03X389513I263J301D01*
G02X390500Y321500I987J-1130D01*
G02Y318500I0J-1500D01*
G02X389513Y318870I0J1500D01*
G37*
G36*
G01X339079Y329684D02*
G03Y330316I-246J316D01*
G02X338500Y331500I921J1184D01*
G02X341500I1500J0D01*
G02X340921Y330316I-1500J0D01*
G03Y329684I246J-316D01*
G02X341500Y328500I-921J-1184D01*
G02X338500I-1500J0D01*
G02X339079Y329684I1500J0D01*
G37*
G36*
G01X342579D02*
G03Y330316I-246J316D01*
G02X342000Y331500I921J1184D01*
G02X345000I1500J0D01*
G02X344421Y330316I-1500J0D01*
G03Y329684I246J-316D01*
G02X345000Y328500I-921J-1184D01*
G02X342000I-1500J0D01*
G02X342579Y329684I1500J0D01*
G37*
G36*
G01X346079D02*
G03Y330316I-246J316D01*
G02X345500Y331500I921J1184D01*
G02X348500I1500J0D01*
G02X347921Y330316I-1500J0D01*
G03Y329684I246J-316D01*
G02X348500Y328500I-921J-1184D01*
G02X345500I-1500J0D01*
G02X346079Y329684I1500J0D01*
G37*
G36*
G01X322579Y342184D02*
G03Y342816I-246J316D01*
G02X322000Y344000I921J1184D01*
G02X325000I1500J0D01*
G02X324421Y342816I-1500J0D01*
G03Y342184I246J-316D01*
G02X325000Y341000I-921J-1184D01*
G02X322000I-1500J0D01*
G02X322579Y342184I1500J0D01*
G37*
G36*
G01X331816Y347079D02*
G03X331184I-316J-246D01*
G02X330000Y346500I-1184J921D01*
G02Y349500I0J1500D01*
G02X331184Y348921I0J-1500D01*
G03X331816I316J246D01*
G02X333000Y349500I1184J-921D01*
G02Y346500I0J-1500D01*
G02X331816Y347079I0J1500D01*
G37*
G36*
G01X331212Y374769D02*
G03X331106Y375295I-344J205D01*
G02X330500Y376500I894J1205D01*
G02X333500I1500J0D01*
G02X333288Y375731I-1500J0D01*
G03X333394Y375205I344J-205D01*
G02X334000Y374000I-894J-1205D01*
G02X331000I-1500J0D01*
G02X331212Y374769I1500J0D01*
G37*
G54D38*
X410185Y426000D03*
G54D37*
X344185D03*
X324500D03*
G54D32*
X134500Y149000D03*
X144500D03*
X436500Y91000D03*
Y112000D03*
G54D30*
X72937Y392063D03*
X69500Y387000D03*
X12063Y394937D03*
X23355Y419355D03*
X46500Y61402D03*
X37000Y40500D03*
X12500Y206000D03*
X49500Y174740D03*
X58000Y149000D03*
Y123000D03*
Y129000D03*
X56980Y213980D03*
X50020Y98020D03*
X50000Y84815D03*
X44000Y86000D03*
X47500Y90000D03*
X53750Y164750D03*
X49500Y164500D03*
X53563Y81563D03*
X39000Y74000D03*
X37740Y174740D03*
X24250Y170750D03*
X24500Y122500D03*
X39500Y109500D03*
Y147500D03*
X55161Y139661D03*
X12500Y275000D03*
Y252000D03*
Y229000D03*
X10500Y330000D03*
Y316000D03*
Y302000D03*
Y288000D03*
X22520Y343500D03*
X30500Y343000D03*
X44020Y293500D03*
X42020Y363020D03*
X56980Y259980D03*
X41500Y321500D03*
X54000Y342000D03*
X47500Y289500D03*
X32500Y329000D03*
X36500Y322000D03*
X40000Y308000D03*
X34500Y364500D03*
X10500D03*
X44500Y441000D03*
X63555Y58055D03*
X63653Y45654D03*
X63500Y17898D03*
X93000Y35000D03*
X91980Y46020D03*
Y24020D03*
X174411Y16020D03*
X91000Y27760D03*
X90000Y42280D03*
X93000Y57000D03*
X106000Y20280D03*
X157500Y20500D03*
X64000Y123000D03*
X61000Y126000D03*
X64000Y129000D03*
X103500Y103500D03*
X89500Y102500D03*
X121500Y129000D03*
X150500D03*
X60000Y75000D03*
X171000Y198000D03*
X97177Y189000D03*
X101902D03*
X106626D03*
X111350D03*
X106626Y182874D03*
X111350Y182850D03*
X152000Y168128D03*
X130480Y176480D03*
X98068Y165932D03*
X106000Y91000D03*
X203240Y199000D03*
X189067Y199500D03*
X131000Y185951D03*
X151000Y209000D03*
X141000Y208000D03*
X98000Y75000D03*
X75500Y140000D03*
X95500Y85000D03*
X73000Y136000D03*
X154500Y211000D03*
X141000Y185000D03*
X143500Y198500D03*
X141000Y188500D03*
Y192000D03*
X166500Y195000D03*
X154500Y190000D03*
X180000Y181000D03*
X90000Y204000D03*
X90500Y170000D03*
X117500Y166500D03*
X90500Y173500D03*
X73000Y132000D03*
X93000Y92000D03*
X68500Y137000D03*
X151000Y213026D03*
X93000Y189000D03*
X196000Y180000D03*
X195500Y217500D03*
X201500D03*
X74500Y115500D03*
X106500Y135000D03*
Y144500D03*
X74562Y154562D03*
X192000Y216500D03*
X103500Y129000D03*
Y142500D03*
X72500Y151500D03*
X70500Y148500D03*
X100500Y133000D03*
Y140500D03*
X77500Y111000D03*
X122500Y201000D03*
X77500Y131000D03*
X79500Y85000D03*
X120750Y178750D03*
X90500Y177000D03*
X58500Y165500D03*
X177474Y183974D03*
X171000Y184000D03*
X159000Y195500D03*
X138500Y262480D03*
X186500Y267500D03*
X148000Y223500D03*
X71000Y329500D03*
X81000Y348480D03*
X106626Y281000D03*
X101902D03*
X97177D03*
X111350D03*
X106626Y274874D03*
X111350Y274850D03*
X200000Y289500D03*
X159500Y370240D03*
X129500Y367500D03*
X132500Y359500D03*
X100563Y259563D03*
X67000Y271000D03*
X106000Y352000D03*
X177000D03*
X179854Y221354D03*
X129000Y219000D03*
Y224000D03*
X203000Y292500D03*
X203500Y245500D03*
X132000Y289000D03*
X194500Y362500D03*
X149768Y339000D03*
X207250Y245750D03*
X153500Y284000D03*
X172500Y267000D03*
X135500Y284000D03*
X128000Y261000D03*
X84000Y318500D03*
X123000Y256500D03*
X82000Y311500D03*
X70500Y315000D03*
X203500Y220500D03*
X72500Y256240D03*
X76000Y252500D03*
X78727Y258000D03*
X198000Y292500D03*
X207500Y268500D03*
X194000Y306500D03*
X155000Y302500D03*
X153500Y287500D03*
X203500Y330000D03*
X199500Y364500D03*
X78000Y323500D03*
X76000Y357000D03*
X82500Y332500D03*
X73000Y325500D03*
X180000Y230803D03*
X181500Y225000D03*
X147500Y268000D03*
X76000Y365000D03*
X198000Y220500D03*
X165500Y271000D03*
X93500Y268000D03*
X189500Y219000D03*
X186000D03*
X169000Y223500D03*
X187500Y310000D03*
X183750Y307750D03*
X184000Y312500D03*
X202500Y257500D03*
X157500Y287500D03*
Y326000D03*
X201665Y268000D03*
X161000Y287500D03*
Y325500D03*
X183000Y316000D03*
X179500Y315500D03*
X183000Y319500D03*
X190900Y256900D03*
X139000Y286268D03*
X180500Y234500D03*
X142500Y282000D03*
X186500Y257500D03*
X209500Y292500D03*
X152000Y268500D03*
X74600Y377100D03*
X160000Y399240D03*
X130000Y396500D03*
X133000Y388500D03*
X120500Y406000D03*
X88500Y373000D03*
X162500Y421500D03*
X166000D03*
X132000Y410500D03*
X131500Y381500D03*
X310000Y146500D03*
X339000Y140000D03*
X328000Y159500D03*
X302500Y178500D03*
X285000Y160442D03*
X278020Y189000D03*
X291000Y214500D03*
X293500Y136000D03*
X289000Y131500D03*
X293500D03*
X298000D03*
X289000Y136000D03*
X298000D03*
X289000Y140500D03*
X293500D03*
X298000D03*
X222000Y169500D03*
X264500Y196500D03*
X278480Y195520D03*
X362000Y206000D03*
X278500Y213520D03*
X256000Y159000D03*
X247500Y200000D03*
X211500Y204500D03*
X215500Y202000D03*
X219000Y199500D03*
X218514Y188486D03*
X309000Y158000D03*
X327000Y140000D03*
X236000Y205606D03*
X347500Y201500D03*
X250500Y195500D03*
X245500D03*
X240000Y198000D03*
X212000Y176500D03*
X257500Y186000D03*
X242500Y180000D03*
X265000Y183500D03*
X309000Y216000D03*
X264500Y188500D03*
X268000Y189000D03*
X259500Y193000D03*
X257500Y190000D03*
X239500Y183000D03*
X211114Y198886D03*
X301250Y188750D03*
X322000Y209500D03*
X318000D03*
X307000Y182000D03*
X315000Y194000D03*
X311000Y183000D03*
Y178000D03*
X252773Y200500D03*
X251000Y189500D03*
X229000Y158000D03*
X212000Y173000D03*
X362000Y249500D03*
X318500Y275000D03*
X335500Y272000D03*
X283500Y241500D03*
X279500D03*
X277000Y282500D03*
X348500Y223000D03*
X325589Y249980D03*
X333980Y235980D03*
X325480Y221980D03*
X244500Y292500D03*
X214500Y289000D03*
X337020Y265980D03*
X211500Y325500D03*
X277500Y369740D03*
X254000Y363500D03*
X212500Y258000D03*
X222000Y352500D03*
X258500Y271500D03*
X265500Y264500D03*
X243500Y327500D03*
X251500Y326000D03*
Y249701D03*
X242000Y331000D03*
X251500Y246000D03*
X254000Y310500D03*
X249500Y322500D03*
X247949Y246551D03*
X238024Y244976D03*
X247000Y325000D03*
X220000Y220500D03*
X291500Y269000D03*
X247752Y240252D03*
X291500Y272500D03*
X235500Y242500D03*
X291500Y226000D03*
Y221000D03*
X239281Y266522D03*
X257500Y288000D03*
X242000Y264000D03*
X257500Y284000D03*
X262500Y285000D03*
X244500Y261500D03*
X229000Y270000D03*
X338220Y225720D03*
X308500Y224000D03*
X338000Y218500D03*
X334500Y239720D03*
Y232240D03*
X332500Y258500D03*
X334760Y246240D03*
X306000Y253500D03*
X282000Y290500D03*
X218500D03*
X235500Y305000D03*
X217000Y303500D03*
X233500Y308000D03*
X283000Y294000D03*
X216500Y307000D03*
X235500Y311000D03*
X285500Y287500D03*
X232000Y244500D03*
X296250Y249250D03*
X246500Y349500D03*
X249500Y356000D03*
X226500Y325500D03*
X227750Y256000D03*
X229500Y303000D03*
X218988Y257512D03*
X213000Y292500D03*
X215839Y256000D03*
X277000Y399240D03*
X252670Y393000D03*
X281500Y430000D03*
X286375Y430125D03*
X249500Y410500D03*
X250500Y381000D03*
X366000Y206000D03*
X370000D03*
Y249500D03*
X366000D03*
X34437Y394937D03*
X30500Y398500D03*
X61355Y419355D03*
X50063Y392063D03*
X532500Y352000D03*
X538500Y106000D03*
X470000Y316000D03*
X492000Y314000D03*
Y347000D03*
Y224000D03*
X470500Y255000D03*
X492000Y253000D03*
Y285000D03*
X448500Y291500D03*
X485000Y341500D03*
X481240Y319500D03*
X487740Y304740D03*
X490500Y292000D03*
X496000Y302980D03*
X481240Y258000D03*
X487500Y243740D03*
X490500Y231000D03*
X496500Y241980D03*
X459000Y280500D03*
Y219500D03*
X453000Y307500D03*
Y246500D03*
X471000Y194000D03*
X492000Y192000D03*
X500000Y105000D03*
Y81000D03*
X469500Y78000D03*
X372500Y106500D03*
X386500Y109500D03*
X452500Y200500D03*
X453000Y84500D03*
X470000Y134000D03*
X492000Y132000D03*
X481240Y197000D03*
X489000Y184000D03*
X496000Y180980D03*
X481240Y137500D03*
X487500Y122740D03*
X490500Y110000D03*
X496500Y120980D03*
X481240Y81740D03*
X487000Y66740D03*
X495500Y70980D03*
X458500Y159500D03*
X458000Y103500D03*
X453000Y185500D03*
Y125500D03*
X452000Y69500D03*
X386000Y130500D03*
X385000Y101500D03*
X420000Y81000D03*
Y102000D03*
X381500Y116260D03*
X378500Y107500D03*
Y131500D03*
X443480Y68000D03*
X401000Y53500D03*
X500000Y53000D03*
Y29000D03*
X468500Y26000D03*
X454500Y32500D03*
X431500Y65500D03*
X408500Y56500D03*
X419240Y50500D03*
X489500Y60000D03*
X458000Y51500D03*
X452000Y17500D03*
X480000Y29500D03*
X488000Y15000D03*
X489500Y10000D03*
X495000Y20980D03*
X268000Y105000D03*
X250000D03*
X236000Y99500D03*
X311000Y95500D03*
X291000D03*
X323500Y91000D03*
X324595Y107000D03*
X361476Y129476D03*
X362000Y109000D03*
X269500Y94500D03*
X248000D03*
X274500Y119000D03*
X255500Y126500D03*
X279000Y113000D03*
X341500Y91000D03*
X349000Y96500D03*
X357000Y91000D03*
X207000Y137500D03*
X456500Y268000D03*
X337000Y361000D03*
X349000Y343000D03*
X343000Y339500D03*
Y345500D03*
X340500Y348000D03*
X334000Y344000D03*
X330500D03*
X326500Y348000D03*
X323000Y348500D03*
X320500Y351000D03*
X319500Y354500D03*
X345500Y343000D03*
X336500Y348000D03*
X327000Y344000D03*
X320000Y345500D03*
X315500Y354500D03*
Y351000D03*
X317500Y348000D03*
X337500Y344000D03*
X340500Y342000D03*
X346500Y339000D03*
X350000D03*
X315500Y358000D03*
X319500D03*
X361000Y311000D03*
X343500Y325000D03*
Y321000D03*
X347000D03*
Y316500D03*
X343500D03*
X340000D03*
X347000Y325000D03*
X340000Y321000D03*
Y325000D03*
X322500Y307000D03*
X317500Y341000D03*
X353000Y285500D03*
X360000D03*
X356500D03*
X353000Y281500D03*
X360000D03*
X356500D03*
X353000Y290000D03*
X360000D03*
X356500D03*
X339000Y303000D03*
X328000D03*
X293000Y352000D03*
X321500Y362500D03*
X324000Y381500D03*
Y386500D03*
X400000Y184000D03*
X406500Y355500D03*
X409500Y352000D03*
X413500Y342000D03*
X414000Y338000D03*
X398500Y334000D03*
X394500D03*
X398500Y330500D03*
X394500D03*
X398500Y327000D03*
X394500D03*
X398500Y323500D03*
X394500D03*
X398500Y320000D03*
X394500D03*
X398500Y316500D03*
X394500D03*
X398500Y313000D03*
X394500D03*
Y309500D03*
X380500Y272500D03*
X402000Y220500D03*
X438500Y367000D03*
X458000Y354500D03*
X392000Y338500D03*
G54D36*
X165500Y302000D03*
X419500Y19000D03*
G54D33*
X56500Y431000D03*
X12500Y431006D03*
X22500Y431000D03*
X66500D03*
X536500Y317000D03*
Y327000D03*
Y256000D03*
Y266000D03*
Y196000D03*
Y206000D03*
Y135000D03*
Y145000D03*
Y79000D03*
Y89000D03*
Y27000D03*
Y37000D03*
G54D35*
X165500Y317748D03*
X429500Y39000D03*
X439500Y19000D03*
G54D34*
X138342Y67000D03*
X128500D03*
X118658D03*
G54D31*
X124500Y149000D03*
X426500Y172000D03*
Y152000D03*
Y132000D03*
%LPD*%
G75*
G54D10*
X63500Y-12000D03*
X-11500Y225500D03*
X63500Y463000D03*
X175500Y138000D03*
X268500Y320000D03*
X277500Y463000D03*
X491500Y-12000D03*
Y463000D03*
X567500Y225500D03*
G54D20*
X165500Y317748D03*
Y302000D03*
X439500Y19000D03*
X429500Y39000D03*
X419500Y19000D03*
G54D11*
X13500Y5000D03*
X5500Y15000D03*
Y25000D03*
Y35000D03*
Y45000D03*
Y55000D03*
X53500Y5000D03*
X43500D03*
X33500D03*
X23500D03*
X46500Y61402D03*
X37000Y40500D03*
X5500Y206000D03*
Y196000D03*
Y107000D03*
Y97000D03*
Y87000D03*
Y77000D03*
Y67000D03*
X12500Y206000D03*
X39500Y125740D03*
X49500Y174740D03*
X50020Y98020D03*
X5500Y146000D03*
Y136000D03*
Y126000D03*
Y116000D03*
Y156000D03*
Y186000D03*
Y176000D03*
Y166000D03*
X50000Y84815D03*
X44000Y86000D03*
X47500Y90000D03*
X10000Y98000D03*
X56500Y97500D03*
X49500Y70000D03*
X39500Y199500D03*
X13000Y152000D03*
X53750Y164750D03*
X49500Y164500D03*
X53563Y81563D03*
X39000Y74000D03*
X37740Y174740D03*
X24250Y170750D03*
X36500Y125740D03*
X24500Y122500D03*
X39500Y109500D03*
Y147500D03*
X55161Y139661D03*
X5500Y216000D03*
Y366000D03*
Y356000D03*
Y346000D03*
Y336000D03*
Y326000D03*
Y316000D03*
Y306000D03*
Y296000D03*
Y286000D03*
Y276000D03*
Y266000D03*
Y256000D03*
Y246000D03*
Y236000D03*
Y226000D03*
X12500Y275000D03*
Y252000D03*
Y229000D03*
X10500Y330000D03*
Y316000D03*
Y302000D03*
Y288000D03*
X22520Y343500D03*
X30500Y343000D03*
X44020Y293500D03*
X42020Y363020D03*
X49500Y268500D03*
X52000Y293500D03*
X49500Y245500D03*
X39500Y222500D03*
X50000Y362500D03*
X41500Y321500D03*
X54000Y342000D03*
X47500Y289500D03*
X32500Y329000D03*
X36500Y322000D03*
X40000Y308000D03*
X34500Y364500D03*
X10500D03*
X5500Y446000D03*
X25500D03*
X5500Y436000D03*
Y426000D03*
Y416000D03*
Y406000D03*
Y386000D03*
Y376000D03*
X15500Y446000D03*
X35500D03*
X45500D03*
X55500D03*
X44500Y441000D03*
X5500Y396000D03*
X23355Y419355D03*
X30500Y398500D03*
X50063Y392063D03*
X34437Y394937D03*
X12063D03*
X113500Y5000D03*
X93500D03*
X181500D03*
X83500D03*
X73500D03*
X63500D03*
X123500D03*
X163500D03*
X173500D03*
X153500D03*
X133500D03*
X143500D03*
X103500D03*
X63555Y58055D03*
X63653Y45654D03*
X63500Y17898D03*
X93000Y35000D03*
X91980Y46020D03*
Y24020D03*
X174411Y16020D03*
X91000Y27760D03*
X90000Y42280D03*
X77000Y36000D03*
X167500Y27000D03*
X93000Y57000D03*
X106000Y20280D03*
X157500Y20500D03*
X58000Y149000D03*
X64000Y123000D03*
X58000D03*
X61000Y126000D03*
X64000Y129000D03*
X58000D03*
X56980Y213980D03*
X128480Y86480D03*
X136500Y91000D03*
X103500Y103500D03*
X132500D03*
X89500Y102500D03*
X121500Y129000D03*
X150500D03*
X60000Y75000D03*
X171000Y198000D03*
X200020Y161500D03*
X97177Y189000D03*
X101902D03*
X106626D03*
X111350D03*
X106626Y182874D03*
X111350Y182850D03*
X152000Y168128D03*
X130480Y176480D03*
X98068Y165932D03*
X106000Y91000D03*
X207000Y137500D03*
X192980Y167000D03*
X203240Y199000D03*
X189067Y199500D03*
X131000Y185951D03*
X101500Y166000D03*
X143000Y204799D03*
X196500Y205000D03*
X151000Y209000D03*
X141000Y208000D03*
X145000Y202634D03*
X194500Y203000D03*
X98000Y75000D03*
X75500Y140000D03*
X147000Y200665D03*
X192550Y201000D03*
X95500Y85000D03*
X73000Y136000D03*
X154500Y211000D03*
X141000Y185000D03*
X143500Y198500D03*
X189000Y186500D03*
X141000Y188500D03*
Y192000D03*
X59500Y97500D03*
X73500Y111000D03*
X89500Y96000D03*
X98500Y162000D03*
X94500Y180000D03*
X166500Y195000D03*
X154500Y190000D03*
X103500Y118500D03*
X134500Y84000D03*
X122500D03*
X127500Y114000D03*
X187000Y167000D03*
X184000D03*
X180000Y181000D03*
X90000Y204000D03*
X113000Y166000D03*
X90500Y170000D03*
X117500Y166500D03*
X90500Y173500D03*
X175000Y154500D03*
X110000Y166000D03*
X107500D03*
X169500Y159500D03*
X104500Y166000D03*
X166500Y157000D03*
X73000Y132000D03*
X93000Y92000D03*
X68500Y137000D03*
X205000Y159500D03*
X151000Y213026D03*
X93000Y189000D03*
X194000Y186500D03*
X195500Y183500D03*
X196000Y180000D03*
X74500Y115500D03*
X106500Y135000D03*
Y144500D03*
X74562Y154562D03*
X103500Y129000D03*
Y142500D03*
X72500Y151500D03*
X70500Y148500D03*
X100500Y133000D03*
Y140500D03*
X77500Y111000D03*
X122500Y201000D03*
X77500Y131000D03*
X79500Y85000D03*
X120750Y178750D03*
X90500Y177000D03*
X58500Y165500D03*
X171000Y95500D03*
X177474Y183974D03*
X171000Y184000D03*
X159000Y195500D03*
X72500Y124298D03*
X72158Y121158D03*
X191500Y188500D03*
X178250Y174750D03*
X207000Y154500D03*
X56980Y259980D03*
X138500Y262480D03*
X186500Y267500D03*
X148000Y223500D03*
X71000Y329500D03*
X81000Y348480D03*
X106626Y281000D03*
X101902D03*
X97177D03*
X111350D03*
X106626Y274874D03*
X111350Y274850D03*
X200000Y289500D03*
X129500Y367500D03*
X132500Y359500D03*
X100563Y259563D03*
X67000Y271000D03*
X106000Y352000D03*
X177000D03*
X179854Y221354D03*
X129000Y219000D03*
Y224000D03*
X203000Y292500D03*
X147500Y217000D03*
X138500Y255000D03*
X206500Y290000D03*
X64500Y329500D03*
X191500Y317500D03*
X194000Y320000D03*
X94500Y272000D03*
X203500Y245500D03*
X132000Y289000D03*
X194500Y362500D03*
X149768Y339000D03*
X207250Y245750D03*
X153500Y284000D03*
X172500Y267000D03*
X135500Y284000D03*
X147500Y359500D03*
X116500Y304000D03*
X114500Y301500D03*
X110500Y299000D03*
X108500Y296500D03*
X104500Y313500D03*
X189500Y305500D03*
X187500Y303500D03*
X102500Y311000D03*
X98500Y308500D03*
X185500Y301500D03*
X183500Y299500D03*
X96500Y306000D03*
X128000Y261000D03*
X84000Y318500D03*
X123000Y256500D03*
X82000Y311500D03*
X70500Y315000D03*
X203500Y220500D03*
X72500Y256240D03*
X76000Y252500D03*
X78727Y258000D03*
X198000Y292500D03*
X207500Y268500D03*
X194000Y306500D03*
X155000Y302500D03*
X207000Y254500D03*
X153500Y287500D03*
X203500Y330000D03*
X199500Y364500D03*
X78000Y323500D03*
X76000Y357000D03*
X82500Y332500D03*
X88250Y234250D03*
X73000Y325500D03*
X85000Y234500D03*
X180000Y230803D03*
X181500Y225000D03*
X147500Y268000D03*
X76000Y365000D03*
X195500Y217500D03*
X198000Y220500D03*
X201500Y217500D03*
X165500Y271000D03*
X93500Y268000D03*
X91000Y232500D03*
X192000Y216500D03*
X189500Y219000D03*
X186000D03*
X169000Y223500D03*
X187500Y310000D03*
X183750Y307750D03*
X184000Y312500D03*
X202500Y257500D03*
X157500Y287500D03*
Y326000D03*
X201665Y268000D03*
X161000Y287500D03*
Y325500D03*
X183000Y316000D03*
X179500Y315500D03*
X183000Y319500D03*
X190900Y256900D03*
X139000Y286268D03*
X180500Y234500D03*
X142500Y282000D03*
X186500Y257500D03*
X152000Y268500D03*
X159500Y370240D03*
X65500Y446000D03*
X75500D03*
X85500D03*
X95500D03*
X105500D03*
X115500D03*
X125500D03*
X135500D03*
X145500D03*
X155500D03*
X165500D03*
X175500D03*
X185500D03*
X195500D03*
X205500D03*
X74600Y377100D03*
X160000Y399240D03*
X130000Y396500D03*
X133000Y388500D03*
X61355Y419355D03*
X69500Y387000D03*
X120500Y406000D03*
X148000Y388500D03*
X88500Y373000D03*
X162500Y421500D03*
X166000D03*
X72937Y392063D03*
X132000Y410500D03*
X131500Y381500D03*
X350000Y21000D03*
Y17500D03*
X322000Y21000D03*
Y17500D03*
X258000Y21000D03*
Y17500D03*
X308000Y21000D03*
Y17500D03*
X272000D03*
Y21000D03*
X274000Y30500D03*
X335500Y126000D03*
X310000Y146500D03*
X339000Y140000D03*
X328000Y159500D03*
X302500Y178500D03*
X285000Y160442D03*
X278020Y189000D03*
X291000Y214500D03*
X293500Y136000D03*
X289000Y131500D03*
X293500D03*
X298000D03*
X289000Y136000D03*
X298000D03*
X289000Y140500D03*
X293500D03*
X298000D03*
X222000Y169500D03*
X264500Y196500D03*
X278480Y195520D03*
X278500Y213520D03*
X306000Y139000D03*
X308500Y141000D03*
X311000Y142500D03*
X314000Y143000D03*
X317000D03*
X320000D03*
X323000D03*
X311000Y137000D03*
X314000D03*
X317000D03*
X320000D03*
X323000D03*
X357000Y91000D03*
X349000Y96500D03*
X341500Y91000D03*
X279000Y113000D03*
X255500Y126500D03*
X274500Y119000D03*
X248000Y94500D03*
X269500D03*
X256000Y159000D03*
X247500Y200000D03*
X227500Y205000D03*
X224500Y206000D03*
X230500Y204000D03*
X228500Y169000D03*
X213000Y168000D03*
Y164000D03*
X277500Y160000D03*
X339500Y161000D03*
X335500Y134500D03*
Y131000D03*
X321500Y160000D03*
X261000Y207000D03*
X348500Y214000D03*
X301500Y212000D03*
Y208500D03*
X349000Y119000D03*
X250000Y138000D03*
Y141500D03*
X211500Y204500D03*
X215500Y202000D03*
X219000Y199500D03*
X218514Y188486D03*
X309000Y158000D03*
X327000Y140000D03*
X236000Y201000D03*
Y205606D03*
X324595Y107000D03*
X323500Y91000D03*
X347500Y201500D03*
X250500Y195500D03*
X245500D03*
X240000Y198000D03*
X212000Y176500D03*
X233500Y203000D03*
X257500Y186000D03*
X242500Y180000D03*
X254000Y166500D03*
X265000Y183500D03*
X264500Y188500D03*
X268000Y189000D03*
X254500Y163500D03*
X259500Y193000D03*
X257500Y190000D03*
X239500Y183000D03*
X211114Y198886D03*
X291000Y95500D03*
X301250Y188750D03*
X311000Y95500D03*
X322000Y209500D03*
X318000D03*
X307000Y182000D03*
X315000Y194000D03*
X311000Y183000D03*
Y178000D03*
X236000Y99500D03*
X250000Y105000D03*
X268000D03*
X252773Y200500D03*
X251000Y189500D03*
X229000Y158000D03*
X209500Y152000D03*
X212000Y173000D03*
X337000Y361000D03*
X349000Y343000D03*
X343000Y339500D03*
Y345500D03*
X340500Y348000D03*
X334000Y344000D03*
X330500D03*
X330000Y348000D03*
X326500D03*
X323000Y348500D03*
X320500Y351000D03*
X319500Y354500D03*
X345500Y343000D03*
X336500Y348000D03*
X333000D03*
X327000Y344000D03*
X323500D03*
X320000Y345500D03*
X315500Y354500D03*
Y351000D03*
X317500Y348000D03*
X337500Y344000D03*
X340500Y342000D03*
X346500Y339000D03*
X350000D03*
X315500Y358000D03*
X319500D03*
X361000Y311000D03*
X340000Y331500D03*
X343500D03*
X347000D03*
X340000Y328500D03*
X343500D03*
X347000D03*
X340000Y309500D03*
X343500D03*
X347000D03*
X340000Y312500D03*
X343500D03*
X347000D03*
X343500Y325000D03*
Y321000D03*
X347000D03*
Y316500D03*
X343500D03*
X340000D03*
X347000Y325000D03*
X340000Y321000D03*
Y325000D03*
X308500Y305500D03*
X322500Y307000D03*
X323500Y341000D03*
X317500D03*
X353000Y285500D03*
X360000D03*
X356500D03*
X353000Y281500D03*
X360000D03*
X356500D03*
X353000Y290000D03*
X360000D03*
X356500D03*
X353000Y274500D03*
X356500D03*
X360000D03*
Y277500D03*
X356500D03*
X353000D03*
Y293500D03*
X356500D03*
X360000D03*
Y296500D03*
X356500D03*
X353000D03*
X339000Y303000D03*
X328000D03*
X318500Y275000D03*
X335500Y272000D03*
X283500Y241500D03*
X279500D03*
X277000Y282500D03*
X348500Y223000D03*
X325589Y249980D03*
X333980Y235980D03*
X325480Y221980D03*
X244500Y292500D03*
X214500Y289000D03*
X337020Y265980D03*
X211500Y325500D03*
X254000Y363500D03*
X212500Y258000D03*
X222000Y352500D03*
X293000Y352000D03*
X258500Y271500D03*
X265500Y264500D03*
X210000Y255500D03*
X230000Y298500D03*
X233000D03*
X350000Y262000D03*
X306000Y269000D03*
Y276000D03*
Y228000D03*
Y221000D03*
X279500Y222500D03*
Y219500D03*
X293000Y330500D03*
X297000D03*
X301000D03*
Y326500D03*
X297000D03*
X293000D03*
X301000Y314500D03*
X297000D03*
X293000D03*
X301000Y310500D03*
X297000D03*
X293000D03*
X305000Y330500D03*
Y326500D03*
X301000Y306500D03*
X297000D03*
X293000D03*
X350000Y258500D03*
X243500Y327500D03*
X236500Y257500D03*
X251500Y326000D03*
Y249701D03*
X242000Y331000D03*
X233500Y257500D03*
X251500Y246000D03*
X254000Y310500D03*
X249500Y322500D03*
X247949Y246551D03*
X238024Y244976D03*
X247000Y325000D03*
X314000Y299500D03*
X308000D03*
X302000D03*
X314000Y294500D03*
X308000D03*
X302000D03*
X314000Y289500D03*
X308000D03*
X302000D03*
X314000Y284500D03*
X308000D03*
X266000Y359000D03*
X303500Y285500D03*
X218500Y318000D03*
X217000Y315500D03*
X215000Y313000D03*
X213000Y310500D03*
X220000Y220500D03*
X291500Y269000D03*
X247752Y240252D03*
X291500Y272500D03*
X235500Y242500D03*
X251500Y218500D03*
X291500Y226000D03*
X253000Y216000D03*
X291500Y221000D03*
X223500Y252000D03*
X239281Y266522D03*
X257500Y288000D03*
X223500Y249500D03*
X242000Y264000D03*
X257500Y284000D03*
X262500Y285000D03*
X223500Y247000D03*
X244500Y261500D03*
X229000Y270000D03*
X223000Y229500D03*
X338220Y225720D03*
X308500Y224000D03*
X338000Y218500D03*
X309000Y216000D03*
X334500Y239720D03*
X304500Y235500D03*
X334500Y232240D03*
X307500Y234000D03*
X298500Y238500D03*
X332500Y258500D03*
X301500Y237000D03*
X334760Y246240D03*
X306000Y253500D03*
X282000Y290500D03*
X218500D03*
X235500Y305000D03*
X217000Y303500D03*
X233500Y308000D03*
X283000Y294000D03*
X216500Y307000D03*
X235500Y311000D03*
X285500Y287500D03*
X232000Y244500D03*
X301500Y253500D03*
X296250Y249250D03*
X298500Y252000D03*
X246500Y349500D03*
X249500Y356000D03*
X226500Y325500D03*
X227750Y256000D03*
X229500Y303000D03*
X218988Y257512D03*
X213000Y292500D03*
X209500D03*
X215839Y256000D03*
X223000Y232000D03*
X321500Y362500D03*
X277500Y369740D03*
X215500Y446000D03*
X225500D03*
X235500D03*
X245500D03*
X255500D03*
X265500D03*
X275500D03*
X285500D03*
X295500D03*
X305500D03*
X315500D03*
X325500D03*
X335500D03*
X345500D03*
X355500D03*
X324000Y381500D03*
Y386500D03*
X332500Y374000D03*
X332000Y376500D03*
X277000Y399240D03*
X252670Y393000D03*
X265500Y388500D03*
X281500Y430000D03*
X286375Y430125D03*
X249500Y410500D03*
X250500Y381000D03*
X364000Y21000D03*
Y17500D03*
X369500Y5000D03*
X379500D03*
X389500D03*
X399500D03*
X439500D03*
X449500D03*
X462000D03*
X479500D03*
X489500D03*
X499500D03*
X419500D03*
X429500D03*
X409500D03*
X469500D03*
X509500D03*
X495000Y20980D03*
X489500Y10000D03*
X488000Y15000D03*
X480000Y29500D03*
X452000Y17500D03*
X458000Y51500D03*
X489500Y60000D03*
X419240Y50500D03*
X408500Y56500D03*
X454500Y32500D03*
X455000Y59000D03*
X458500D03*
X457500Y45000D03*
X452000Y12500D03*
Y10000D03*
X468500Y26000D03*
X500000Y29000D03*
Y53000D03*
X401000Y53500D03*
X431500Y65500D03*
X362000Y206000D03*
X366000D03*
X370000D03*
X362000Y109000D03*
X400000Y184000D03*
X399500Y165500D03*
X400000Y144000D03*
X438500Y182000D03*
Y162000D03*
X439000Y144000D03*
X443480Y68000D03*
X378500Y131500D03*
Y107500D03*
X379500Y87260D03*
X381500Y116260D03*
X420000Y102000D03*
Y81000D03*
X385000Y101500D03*
X386000Y130500D03*
X452000Y69500D03*
X453000Y125500D03*
Y185500D03*
X458000Y103500D03*
X458500Y159500D03*
X495500Y70980D03*
X487000Y66740D03*
X481240Y81740D03*
X496500Y120980D03*
X490500Y110000D03*
X487500Y122740D03*
X481240Y137500D03*
X496000Y180980D03*
X494500Y165000D03*
X489000Y184000D03*
X481240Y197000D03*
X371500Y153000D03*
Y172000D03*
X376000Y187760D03*
X492000Y163000D03*
Y132000D03*
X470000Y134000D03*
X453000Y84500D03*
X382500Y154500D03*
Y171500D03*
Y188500D03*
X396000Y105000D03*
X378500Y117000D03*
X397000Y134000D03*
X378500Y93000D03*
X457500Y97000D03*
X456000Y175000D03*
X459500D03*
X457500Y153000D03*
X456000Y115000D03*
X459500D03*
X403500Y67000D03*
X457500Y213000D03*
X452500Y200500D03*
X452000Y140500D03*
X386500Y109500D03*
X385500Y80500D03*
X361476Y129476D03*
X372500Y106500D03*
X469500Y78000D03*
X500000Y81000D03*
Y105000D03*
X492000Y192000D03*
X471000Y194000D03*
X370000Y249500D03*
X366000D03*
X362000D03*
X390500Y320000D03*
X388000D03*
X406500Y355500D03*
X409500Y352000D03*
X413500Y342000D03*
X414000Y338000D03*
X398500Y334000D03*
X394500D03*
X398500Y330500D03*
X394500D03*
X398500Y327000D03*
X394500D03*
X398500Y323500D03*
X394500D03*
X398500Y320000D03*
X394500D03*
X398500Y316500D03*
X394500D03*
X398500Y313000D03*
X394500D03*
Y309500D03*
X380500Y272500D03*
X393000Y269500D03*
Y272500D03*
X453000Y246500D03*
Y307500D03*
X459000Y219500D03*
Y280500D03*
Y341500D03*
X496500Y241980D03*
X490500Y231000D03*
X487500Y243740D03*
X481240Y258000D03*
X496000Y302980D03*
X490500Y292000D03*
X487740Y304740D03*
X481240Y319500D03*
X485000Y341500D03*
X402000Y220500D03*
X458000Y366000D03*
X455500Y363500D03*
X458000Y361000D03*
X455500Y358500D03*
X438500Y354500D03*
X449000Y362000D03*
X440500Y348500D03*
X456000Y297000D03*
X459500D03*
X457500Y274000D03*
X456000Y236000D03*
X459500D03*
X457500Y335000D03*
X474000Y347500D03*
Y351000D03*
Y354500D03*
X475500Y342000D03*
X479000D03*
X448500Y291500D03*
X456500Y268000D03*
X492000Y285000D03*
Y253000D03*
X470500Y255000D03*
X492000Y224000D03*
X438500Y367000D03*
X458000Y354500D03*
X492000Y347000D03*
Y314000D03*
X470000Y316000D03*
X460500Y350500D03*
X392000Y338500D03*
X365500Y446000D03*
X375500D03*
X385500D03*
X395500D03*
X405500D03*
X415500D03*
X425500D03*
X435500D03*
X445500D03*
X455500D03*
X465500D03*
X475500D03*
X485500D03*
X495500D03*
X505500D03*
X408000Y386000D03*
X412500D03*
Y394000D03*
X408000D03*
X473520Y414089D03*
X433500Y420000D03*
X498500D03*
X497500Y390500D03*
Y386000D03*
X501500Y388500D03*
X505000Y386000D03*
Y390500D03*
X432500D03*
Y386000D03*
X440000Y390500D03*
X448500Y418500D03*
X440000Y386000D03*
X436500Y388500D03*
X428000Y386000D03*
Y390500D03*
X444500Y386000D03*
Y390500D03*
X449500Y386000D03*
Y390500D03*
X459500Y386000D03*
Y390500D03*
X454500Y386000D03*
Y390500D03*
X493000Y386000D03*
Y390500D03*
X488000Y386000D03*
Y390500D03*
X483000Y386000D03*
Y390500D03*
X478000Y386000D03*
Y390500D03*
X509500Y385500D03*
Y390000D03*
X406000D03*
X419000D03*
X417000Y394000D03*
Y386000D03*
X469780Y414280D03*
X477260Y414240D03*
X459000Y404000D03*
Y400500D03*
Y397000D03*
X455000D03*
Y400500D03*
Y404000D03*
X451000Y397000D03*
Y400500D03*
Y404000D03*
X447000Y397000D03*
Y400500D03*
Y404000D03*
X512000Y397000D03*
Y400500D03*
Y404000D03*
X438500Y370500D03*
X433500D03*
X503500D03*
X498500D03*
X508500D03*
X550500Y10000D03*
X529500Y5000D03*
X550500Y20000D03*
X519500Y5000D03*
X539500D03*
X549500D03*
X550500Y30000D03*
Y40000D03*
Y50000D03*
Y60000D03*
X517500Y28500D03*
X520500D03*
X550500Y80000D03*
Y90000D03*
Y100000D03*
Y110000D03*
Y120000D03*
Y180000D03*
Y190000D03*
Y200000D03*
Y150000D03*
Y160000D03*
Y170000D03*
Y210000D03*
Y130000D03*
Y140000D03*
Y70000D03*
X538500Y106000D03*
X518500Y128500D03*
X521500D03*
X517500Y78500D03*
X520500D03*
X518500Y188500D03*
X521500D03*
X550500Y361000D03*
Y351000D03*
X545500Y357000D03*
X550500Y341000D03*
Y250000D03*
Y260000D03*
Y270000D03*
Y280000D03*
Y320000D03*
Y220000D03*
Y230000D03*
Y240000D03*
Y290000D03*
Y300000D03*
Y310000D03*
Y328500D03*
X518500Y249500D03*
X521500D03*
X518500Y310500D03*
X521500D03*
X532500Y352000D03*
X550500Y371000D03*
X518500Y414500D03*
X514500Y385500D03*
Y390000D03*
X519500Y385500D03*
Y390000D03*
X524500Y385500D03*
Y390000D03*
X550500Y381000D03*
Y431000D03*
Y421000D03*
Y401000D03*
Y391000D03*
Y441000D03*
Y411000D03*
X515500Y446000D03*
X525500D03*
X535500D03*
X545500D03*
X538520Y413980D03*
X544000Y397000D03*
X546500Y381500D03*
X531000Y419500D03*
X542260Y414240D03*
X516000Y400500D03*
Y397000D03*
Y404000D03*
X524000Y400500D03*
Y397000D03*
X520000D03*
Y400500D03*
Y404000D03*
X524000D03*
G54D21*
X212500Y423000D03*
X186500D03*
X96500D03*
X339000Y201000D03*
X322000D03*
X242500Y126000D03*
X302500Y423000D03*
G54D12*
X56500Y431000D03*
X12500Y431006D03*
X22500Y431000D03*
X66500D03*
X536500Y37000D03*
Y27000D03*
Y89000D03*
Y79000D03*
Y145000D03*
Y135000D03*
Y206000D03*
Y196000D03*
Y266000D03*
Y256000D03*
Y327000D03*
Y317000D03*
G54D22*
X76500Y431000D03*
X536500Y17000D03*
Y69000D03*
Y125000D03*
Y186000D03*
Y246000D03*
Y307000D03*
G54D13*
X32500Y430994D03*
G54D23*
X344185Y426000D03*
X324500D03*
X410185D03*
X390500D03*
G54D14*
X152516Y37472D03*
X104484D03*
G54D15*
X118658Y9913D03*
X138342D03*
Y67000D03*
X128500D03*
X118658D03*
G54D24*
X378500Y20000D03*
X388500D03*
G54D16*
X208500Y52559D03*
Y25000D03*
X300500Y52559D03*
Y25000D03*
X342500Y52559D03*
Y25000D03*
X250500Y52559D03*
Y25000D03*
G54D25*
X426500Y228000D03*
G54D26*
G01X124500Y144050D02*
Y149000D01*
G01D02*
Y153950D01*
G01X120550Y149000D02*
X124500D01*
G01D02*
X128450D01*
G01X165500Y299134D02*
Y302000D01*
G01D02*
Y304866D01*
G01X162634Y302000D02*
X165500D01*
G01D02*
X168366D01*
G01X96500Y359050D02*
Y363000D01*
G01D02*
Y366950D01*
G01X91550Y363000D02*
X96500D01*
G01D02*
X101450D01*
G01X207550D02*
X212500D01*
G01Y359050D02*
Y363000D01*
G01D02*
Y366950D01*
G01Y363000D02*
X217450D01*
G01X419500Y16134D02*
Y19000D01*
G01D02*
Y21866D01*
G01X416634Y19000D02*
X419500D01*
G01D02*
X422366D01*
G01X426500Y167050D02*
Y172000D01*
G01D02*
Y176950D01*
G01X422550Y172000D02*
X426500D01*
G01D02*
X430450D01*
G01X426500Y147050D02*
Y152000D01*
G01X422550D02*
X426500D01*
G01D02*
X430450D01*
G01X426500Y127050D02*
Y132000D01*
G01D02*
Y136950D01*
G01X422550Y132000D02*
X426500D01*
G01D02*
X430450D01*
G01X546500Y381500D02*
Y401000D01*
X520000Y427500D01*
X510000D01*
G01X410185Y420650D02*
Y426000D01*
G01D02*
Y431350D01*
G01X404835Y426000D02*
X410185D01*
G01D02*
X415535D01*
G01X406202Y422017D02*
X410185Y426000D01*
G01D02*
X414168Y429983D01*
G01X406202D02*
X410185Y426000D01*
G01D02*
X414168Y422017D01*
G54D17*
X154500Y149000D03*
X144500D03*
X134500D03*
X124500D03*
X372500Y68000D03*
X382500D03*
X436500Y132000D03*
X426500D03*
X436500Y152000D03*
X426500D03*
X436500Y172000D03*
X426500D03*
X436500Y91000D03*
Y112000D03*
X513500Y438000D03*
X503500D03*
X478500D03*
X468500D03*
X458500D03*
X448500D03*
X438500D03*
X543500D03*
X533500D03*
X523500D03*
G54D27*
G01X367807Y439620D02*
X368037Y439258D01*
X368343Y439052D01*
X368688Y439000D01*
X368995Y439052D01*
X369302Y439310D01*
X369493Y439620D01*
X369532Y439930D01*
X369455Y440292D01*
X369187Y440550D01*
X368918Y440653D01*
X368573D01*
G01X368918D02*
X369148Y440808D01*
X369340Y441067D01*
X369417Y441377D01*
X369340Y441687D01*
X369148Y441945D01*
X368803Y442100D01*
X368458Y442048D01*
X368113Y441842D01*
G54D18*
X114500Y149000D03*
X392500Y68000D03*
X416500Y132000D03*
Y152000D03*
Y172000D03*
X426500Y91000D03*
Y112000D03*
X493500Y438000D03*
X428500D03*
G54D28*
G01X122500Y84000D02*
Y109000D01*
X127500Y114000D01*
G01D02*
Y118500D01*
X143500Y134500D01*
X154500D01*
X161500Y141500D01*
Y158682D01*
X174318Y171500D01*
X197000D01*
X216000Y152500D01*
X257000D01*
X291000Y118500D01*
X333500D01*
X356000Y141000D01*
X377000D01*
X382500Y146500D01*
Y154500D01*
G01X103500Y118500D02*
X112000D01*
X116500Y114000D01*
X127500D01*
G01X134500Y84000D02*
Y86250D01*
X133000Y87750D01*
Y97000D01*
X127500Y102500D01*
Y114000D01*
G54D19*
X212500Y353000D03*
Y363000D03*
X186500D03*
Y353000D03*
X96500D03*
Y363000D03*
X212500Y373000D03*
Y383000D03*
Y393000D03*
Y403000D03*
Y413000D03*
X186500D03*
Y403000D03*
Y393000D03*
Y383000D03*
Y373000D03*
X96500D03*
Y383000D03*
Y393000D03*
Y403000D03*
Y413000D03*
X339000Y181000D03*
Y191000D03*
X322000Y181000D03*
Y191000D03*
X242500Y146000D03*
Y136000D03*
X302500Y363000D03*
Y353000D03*
Y413000D03*
Y403000D03*
Y393000D03*
Y383000D03*
Y373000D03*
G54D29*
G01X148000Y388500D02*
Y363250D01*
X147500Y362750D01*
Y359500D01*
G01X186500Y363000D02*
X151000D01*
X147500Y359500D01*
G01X266000Y359000D02*
X246500Y339500D01*
X159500D01*
X147500Y351500D01*
Y359500D01*
G01X302500Y363000D02*
X309000D01*
X315000Y369000D01*
Y392500D01*
X326000Y403500D01*
X344500D01*
X379000Y438000D01*
X415000D01*
X425500Y427500D01*
X452500D01*
G01X302500Y363000D02*
X291500D01*
X287500Y359000D01*
G01X265500Y388500D02*
Y362750D01*
X266000Y362250D01*
Y359000D01*
G01X287500D02*
X266000D01*
G01X314000Y300000D02*
Y313000D01*
X306500Y320500D01*
X289500D01*
X285000Y325000D01*
Y356500D01*
X287500Y359000D01*
G01X317000Y291750D02*
X324750D01*
X349500Y267000D01*
X369000D01*
X382500Y253500D01*
Y188500D01*
G01Y171500D02*
Y188500D01*
G01Y154500D02*
Y171500D01*
G01X426500Y152000D02*
Y158000D01*
G01D02*
X423000Y161500D01*
G01D02*
X392500D01*
X382500Y171500D01*
G01X513500Y438000D02*
Y431000D01*
X510000Y427500D01*
G01X452500D02*
X448500Y431500D01*
Y438000D01*
G01X510000Y427500D02*
X452500D01*
M02*
