G04 ================== begin FILE IDENTIFICATION RECORD ==================*
G04 Layout Name:  daughter_card-v1_00-0a.brd*
G04 Film Name:    Daughter_card-v1_00-0a-Silkscreen_top*
G04 File Format:  Gerber RS274X*
G04 File Origin:  Cadence Allegro 17.4-S014*
G04 Origin Date:  Mon Feb 22 20:41:36 2021*
G04 *
G04 Layer:  REF DES/SILKSCREEN_TOP*
G04 Layer:  PACKAGE GEOMETRY/SILKSCREEN_TOP*
G04 Layer:  BOARD GEOMETRY/SILKSCREEN_TOP*
G04 *
G04 Offset:    (0.0000 0.0000)*
G04 Mirror:    No*
G04 Mode:      Positive*
G04 Rotation:  0*
G04 FullContactRelief:  No*
G04 UndefLineWidth:     0.2540*
G04 ================== end FILE IDENTIFICATION RECORD ====================*
%FSLAX25Y25*MOMM*%
%IR0*IPPOS*OFA0.00000B0.00000*MIA0B0*SFA1.00000B1.00000*%
%ADD10C,.2032*%
%ADD11C,.254*%
%ADD12C,.2083*%
G75*
%LPD*%
G75*
G36*
G01X22809200Y11353800D02*
G03I-25400J0D01*
G37*
G54D10*
G01X21945600Y11490540D02*
X21866860D01*
Y11513900D01*
X21870800Y11521690D01*
X21879980Y11527540D01*
X21890480Y11529480D01*
X21900980Y11527540D01*
X21908860Y11522670D01*
X21912790Y11513900D01*
Y11490540D01*
G01X21945600Y11606280D02*
X21893110D01*
G01X21902290D02*
X21897040Y11602380D01*
X21894420Y11596540D01*
X21893110Y11589720D01*
X21895730Y11582910D01*
X21900980Y11577070D01*
X21908860Y11573170D01*
X21919350Y11571220D01*
X21929850Y11573170D01*
X21937730Y11577070D01*
X21942980Y11582910D01*
X21945600Y11589720D01*
X21944290Y11596540D01*
X21940350Y11602380D01*
X21935100Y11606280D01*
G01X21945600Y11653860D02*
X21893110D01*
G01X21903600D02*
X21898360Y11658730D01*
X21894420Y11663600D01*
X21893110Y11670410D01*
X21894420Y11675280D01*
X21898360Y11681120D01*
G01X21945600Y11763760D02*
X21893110D01*
G01X21902290D02*
X21897040Y11759860D01*
X21894420Y11754020D01*
X21893110Y11747200D01*
X21895730Y11740390D01*
X21900980Y11734550D01*
X21908860Y11730650D01*
X21919350Y11728700D01*
X21929850Y11730650D01*
X21937730Y11734550D01*
X21942980Y11740390D01*
X21945600Y11747200D01*
X21944290Y11754020D01*
X21940350Y11759860D01*
X21935100Y11763760D01*
G01X21945600Y11824970D02*
X21866860D01*
G01X21945600Y11903710D02*
X21866860D01*
G01X21910170Y11967850D02*
Y11999000D01*
X21900980Y11996080D01*
X21895730Y11991210D01*
X21893110Y11984400D01*
X21894420Y11977580D01*
X21898360Y11971740D01*
X21907540Y11967850D01*
X21915420Y11965900D01*
X21923290D01*
X21931170Y11967850D01*
X21939040Y11972710D01*
X21944290Y11978560D01*
X21945600Y11985370D01*
X21942980Y11992190D01*
X21935100Y11999000D01*
G01X21945600Y12061190D02*
X21866860D01*
G01Y12236200D02*
X21945600D01*
G01X21933790D02*
X21940350Y12232300D01*
X21944290Y12226460D01*
X21945600Y12219640D01*
X21942980Y12211850D01*
X21936420Y12206010D01*
X21928540Y12202120D01*
X21919350Y12201140D01*
X21910170Y12202120D01*
X21902290Y12206010D01*
X21895730Y12211850D01*
X21893110Y12219640D01*
X21894420Y12226460D01*
X21897040Y12231330D01*
X21902290Y12236200D01*
G01X21945600Y12314940D02*
X21893110D01*
G01X21902290D02*
X21897040Y12311040D01*
X21894420Y12305200D01*
X21893110Y12298380D01*
X21895730Y12291570D01*
X21900980Y12285730D01*
X21908860Y12281830D01*
X21919350Y12279880D01*
X21929850Y12281830D01*
X21937730Y12285730D01*
X21942980Y12291570D01*
X21945600Y12298380D01*
X21944290Y12305200D01*
X21940350Y12311040D01*
X21935100Y12314940D01*
G01X21893110Y12359600D02*
X21929850D01*
X21939040Y12363490D01*
X21944290Y12369330D01*
X21945600Y12376150D01*
X21944290Y12382970D01*
X21939040Y12388810D01*
X21929850Y12392700D01*
G01X21945600D02*
X21893110D01*
G01X21965290Y12441260D02*
X21970530Y12448070D01*
X21971850Y12455860D01*
X21970530Y12462680D01*
X21963970Y12468520D01*
X21954790Y12472420D01*
X21893110D01*
G01X21903600D02*
X21898360Y12468520D01*
X21894420Y12462680D01*
X21893110Y12455860D01*
X21895730Y12448070D01*
X21900980Y12443210D01*
X21910170Y12439310D01*
X21919350Y12437360D01*
X21927230Y12438340D01*
X21936420Y12442230D01*
X21942980Y12448070D01*
X21945600Y12455860D01*
X21944290Y12461710D01*
X21939040Y12468520D01*
X21933790Y12472420D01*
G01X21945600Y12517080D02*
X21866860D01*
G01X21904920D02*
X21898360Y12521950D01*
X21894420Y12526810D01*
X21893110Y12534600D01*
X21894420Y12540450D01*
X21899670Y12547260D01*
X21907540Y12550180D01*
X21945600D01*
G01X21866860Y12612370D02*
X21945600D01*
G01X21893110Y12598740D02*
Y12626000D01*
G01X21910170Y12676510D02*
Y12707660D01*
X21900980Y12704740D01*
X21895730Y12699870D01*
X21893110Y12693060D01*
X21894420Y12686240D01*
X21898360Y12680400D01*
X21907540Y12676510D01*
X21915420Y12674560D01*
X21923290D01*
X21931170Y12676510D01*
X21939040Y12681370D01*
X21944290Y12687220D01*
X21945600Y12694030D01*
X21942980Y12700850D01*
X21935100Y12707660D01*
G01X21945600Y12756220D02*
X21893110D01*
G01X21903600D02*
X21898360Y12761090D01*
X21894420Y12765960D01*
X21893110Y12772770D01*
X21894420Y12777640D01*
X21898360Y12783480D01*
G01X21899670Y12942910D02*
X21894420Y12936090D01*
X21893110Y12930250D01*
X21895730Y12922460D01*
X21900980Y12916620D01*
X21910170Y12912730D01*
X21919350Y12911750D01*
X21928540Y12912730D01*
X21936420Y12916620D01*
X21942980Y12922460D01*
X21945600Y12930250D01*
X21942980Y12937070D01*
X21937730Y12942910D01*
G01X21945600Y13023600D02*
X21893110D01*
G01X21902290D02*
X21897040Y13019700D01*
X21894420Y13013860D01*
X21893110Y13007040D01*
X21895730Y13000230D01*
X21900980Y12994390D01*
X21908860Y12990490D01*
X21919350Y12988540D01*
X21929850Y12990490D01*
X21937730Y12994390D01*
X21942980Y13000230D01*
X21945600Y13007040D01*
X21944290Y13013860D01*
X21940350Y13019700D01*
X21935100Y13023600D01*
G01X21945600Y13071180D02*
X21893110D01*
G01X21903600D02*
X21898360Y13076050D01*
X21894420Y13080920D01*
X21893110Y13087730D01*
X21894420Y13092600D01*
X21898360Y13098440D01*
G01X21866860Y13181080D02*
X21945600D01*
G01X21933790D02*
X21940350Y13177180D01*
X21944290Y13171340D01*
X21945600Y13164520D01*
X21942980Y13156730D01*
X21936420Y13150890D01*
X21928540Y13147000D01*
X21919350Y13146020D01*
X21910170Y13147000D01*
X21902290Y13150890D01*
X21895730Y13156730D01*
X21893110Y13164520D01*
X21894420Y13171340D01*
X21897040Y13176210D01*
X21902290Y13181080D01*
G01X22062100Y11768960D02*
X22068660Y11776750D01*
X22072600Y11785520D01*
Y11793300D01*
X22068660Y11801090D01*
X22062100Y11806940D01*
X22052910Y11809860D01*
X22043730Y11807910D01*
X22035860Y11803040D01*
X22030600Y11794280D01*
X22027980Y11782590D01*
X22022730Y11775780D01*
X22013550Y11772860D01*
X22004360Y11774810D01*
X21997800Y11779670D01*
X21993860Y11786490D01*
Y11793300D01*
X21996480Y11800120D01*
X22003050Y11805960D01*
G01X22072600Y11848680D02*
X21993860D01*
Y11873020D01*
X21997800Y11880810D01*
X22003050Y11885680D01*
X22013550Y11887620D01*
X22024040Y11885680D01*
X22030600Y11879830D01*
X22034540Y11873020D01*
Y11848680D01*
G01Y11873020D02*
X22072600Y11887620D01*
G01Y11922550D02*
X21993860Y11946890D01*
X22072600Y11971230D01*
G01X22045040Y11962470D02*
Y11931310D01*
G01X22072600Y12000310D02*
X21993860D01*
X22059480Y12025630D01*
X21993860Y12050950D01*
X22072600D01*
G01X22075220Y12165580D02*
X21993860Y12200640D01*
G01X22072600Y12321120D02*
X21993860D01*
Y12345460D01*
X21997800Y12353250D01*
X22003050Y12358120D01*
X22013550Y12360060D01*
X22024040Y12358120D01*
X22030600Y12352270D01*
X22034540Y12345460D01*
Y12321120D01*
G01Y12345460D02*
X22072600Y12360060D01*
G01X22033230Y12425170D02*
Y12444650D01*
X22056850D01*
X22064730Y12438800D01*
X22069980Y12431990D01*
X22072600Y12422250D01*
X22069980Y12412510D01*
X22064730Y12405700D01*
X22056850Y12399860D01*
X22047670Y12395960D01*
X22037170Y12394010D01*
X22027980D01*
X22020110Y12395960D01*
X22010920Y12399860D01*
X22003050Y12405700D01*
X21997800Y12411540D01*
X21993860Y12419330D01*
Y12426150D01*
X21996480Y12433930D01*
X22001730Y12439780D01*
G01X22030600Y12505860D02*
X22026670Y12509750D01*
X22020110Y12512670D01*
X22010920Y12514620D01*
X22003050Y12512670D01*
X21997800Y12508780D01*
X21993860Y12501960D01*
Y12475680D01*
X22072600D01*
Y12507810D01*
X22067350Y12514620D01*
X22059480Y12518520D01*
X22050290Y12520460D01*
X22041110Y12518520D01*
X22033230Y12512670D01*
X22030600Y12505860D01*
Y12475680D01*
G01X21993860Y12655550D02*
X22072600D01*
G01X21993860Y12633160D02*
Y12677940D01*
G01X22072600Y12715790D02*
X21993860D01*
Y12752790D01*
G01X22031920Y12739160D02*
Y12715790D01*
G01X21993860Y12813030D02*
X22072600D01*
G01X21993860Y12790640D02*
Y12835420D01*
G01X22199600Y11769940D02*
X22120860D01*
Y11794280D01*
X22124800Y11802070D01*
X22130050Y11806940D01*
X22140550Y11808880D01*
X22151040Y11806940D01*
X22157600Y11801090D01*
X22161540Y11794280D01*
Y11769940D01*
G01Y11794280D02*
X22199600Y11808880D01*
G01X22164170Y11853550D02*
Y11884700D01*
X22154980Y11881780D01*
X22149730Y11876910D01*
X22147110Y11870100D01*
X22148420Y11863280D01*
X22152360Y11857440D01*
X22161540Y11853550D01*
X22169420Y11851600D01*
X22177290D01*
X22185170Y11853550D01*
X22193040Y11858410D01*
X22198290Y11864260D01*
X22199600Y11871070D01*
X22196980Y11877890D01*
X22189100Y11884700D01*
G01X22147110Y11929360D02*
X22199600Y11946890D01*
X22147110Y11964420D01*
G01X22185170Y12091710D02*
Y12117030D01*
G01X22161540D02*
Y12091710D01*
G01X22147110Y12244320D02*
X22199600Y12261850D01*
X22147110Y12279380D01*
G01X22199600Y12340590D02*
X22120860D01*
X22136610Y12328910D01*
G01X22199600D02*
Y12352270D01*
G01X22225850Y12390120D02*
Y12448540D01*
G01X22120860Y12498070D02*
X22123480Y12490280D01*
X22130050Y12484440D01*
X22137920Y12480540D01*
X22148420Y12477620D01*
X22160230Y12476650D01*
X22172040Y12477620D01*
X22182540Y12480540D01*
X22190420Y12484440D01*
X22196980Y12490280D01*
X22199600Y12498070D01*
X22196980Y12505860D01*
X22190420Y12511700D01*
X22182540Y12515600D01*
X22172040Y12518520D01*
X22160230Y12519490D01*
X22148420Y12518520D01*
X22137920Y12515600D01*
X22130050Y12511700D01*
X22123480Y12505860D01*
X22120860Y12498070D01*
G01Y12576810D02*
X22123480Y12569020D01*
X22130050Y12563180D01*
X22137920Y12559280D01*
X22148420Y12556360D01*
X22160230Y12555390D01*
X22172040Y12556360D01*
X22182540Y12559280D01*
X22190420Y12563180D01*
X22196980Y12569020D01*
X22199600Y12576810D01*
X22196980Y12584600D01*
X22190420Y12590440D01*
X22182540Y12594340D01*
X22172040Y12597260D01*
X22160230Y12598230D01*
X22148420Y12597260D01*
X22137920Y12594340D01*
X22130050Y12590440D01*
X22123480Y12584600D01*
X22120860Y12576810D01*
G01X22173350Y12642890D02*
Y12668210D01*
G01X22120860Y12734290D02*
X22123480Y12726500D01*
X22130050Y12720660D01*
X22137920Y12716760D01*
X22148420Y12713840D01*
X22160230Y12712870D01*
X22172040Y12713840D01*
X22182540Y12716760D01*
X22190420Y12720660D01*
X22196980Y12726500D01*
X22199600Y12734290D01*
X22196980Y12742080D01*
X22190420Y12747920D01*
X22182540Y12751820D01*
X22172040Y12754740D01*
X22160230Y12755710D01*
X22148420Y12754740D01*
X22137920Y12751820D01*
X22130050Y12747920D01*
X22123480Y12742080D01*
X22120860Y12734290D01*
G01X22199600Y12830560D02*
X22147110D01*
G01X22156290D02*
X22151040Y12826660D01*
X22148420Y12820820D01*
X22147110Y12814000D01*
X22149730Y12807190D01*
X22154980Y12801350D01*
X22162860Y12797450D01*
X22173350Y12795500D01*
X22183850Y12797450D01*
X22191730Y12801350D01*
X22196980Y12807190D01*
X22199600Y12814000D01*
X22198290Y12820820D01*
X22194350Y12826660D01*
X22189100Y12830560D01*
G01X22286380Y12075710D02*
X22278510Y12081550D01*
X22274570Y12088370D01*
X22273260Y12096160D01*
X22275880Y12105890D01*
X22282450Y12112710D01*
X22290320Y12114660D01*
X22298200Y12113680D01*
X22304760Y12109790D01*
X22317880Y12090320D01*
X22327070Y12081550D01*
X22340190Y12075710D01*
X22352000Y12073760D01*
Y12114660D01*
G01X22273260Y12172950D02*
X22275880Y12165160D01*
X22282450Y12159320D01*
X22290320Y12155420D01*
X22300820Y12152500D01*
X22312630Y12151530D01*
X22324440Y12152500D01*
X22334940Y12155420D01*
X22342820Y12159320D01*
X22349380Y12165160D01*
X22352000Y12172950D01*
X22349380Y12180740D01*
X22342820Y12186580D01*
X22334940Y12190480D01*
X22324440Y12193400D01*
X22312630Y12194370D01*
X22300820Y12193400D01*
X22290320Y12190480D01*
X22282450Y12186580D01*
X22275880Y12180740D01*
X22273260Y12172950D01*
G01X22286380Y12233190D02*
X22278510Y12239030D01*
X22274570Y12245850D01*
X22273260Y12253640D01*
X22275880Y12263370D01*
X22282450Y12270190D01*
X22290320Y12272140D01*
X22298200Y12271160D01*
X22304760Y12267270D01*
X22317880Y12247800D01*
X22327070Y12239030D01*
X22340190Y12233190D01*
X22352000Y12231240D01*
Y12272140D01*
G01Y12330430D02*
X22273260D01*
X22289010Y12318750D01*
G01X22352000D02*
Y12342110D01*
G01X22325750Y12396510D02*
Y12421830D01*
G01X22273260Y12487910D02*
X22275880Y12480120D01*
X22282450Y12474280D01*
X22290320Y12470380D01*
X22300820Y12467460D01*
X22312630Y12466490D01*
X22324440Y12467460D01*
X22334940Y12470380D01*
X22342820Y12474280D01*
X22349380Y12480120D01*
X22352000Y12487910D01*
X22349380Y12495700D01*
X22342820Y12501540D01*
X22334940Y12505440D01*
X22324440Y12508360D01*
X22312630Y12509330D01*
X22300820Y12508360D01*
X22290320Y12505440D01*
X22282450Y12501540D01*
X22275880Y12495700D01*
X22273260Y12487910D01*
G01X22286380Y12548150D02*
X22278510Y12553990D01*
X22274570Y12560810D01*
X22273260Y12568600D01*
X22275880Y12578330D01*
X22282450Y12585150D01*
X22290320Y12587100D01*
X22298200Y12586120D01*
X22304760Y12582230D01*
X22317880Y12562760D01*
X22327070Y12553990D01*
X22340190Y12548150D01*
X22352000Y12546200D01*
Y12587100D01*
G01X23596600Y11628290D02*
X23517860D01*
Y11647760D01*
X23521800Y11655550D01*
X23527050Y11661390D01*
X23534920Y11666260D01*
X23544110Y11670160D01*
X23557230Y11671130D01*
X23570350Y11670160D01*
X23579540Y11666260D01*
X23587420Y11661390D01*
X23592660Y11655550D01*
X23596600Y11647760D01*
Y11628290D01*
G01X23561170Y11713850D02*
Y11745000D01*
X23551980Y11742080D01*
X23546730Y11737210D01*
X23544110Y11730400D01*
X23545420Y11723580D01*
X23549360Y11717740D01*
X23558540Y11713850D01*
X23566420Y11711900D01*
X23574290D01*
X23582170Y11713850D01*
X23590040Y11718710D01*
X23595290Y11724560D01*
X23596600Y11731370D01*
X23593980Y11738190D01*
X23586100Y11745000D01*
G01X23587420Y11792590D02*
X23592660Y11797450D01*
X23596600Y11804270D01*
Y11810110D01*
X23593980Y11815950D01*
X23590040Y11819850D01*
X23584790Y11821790D01*
X23576910Y11820820D01*
X23572980Y11816930D01*
X23565110Y11799400D01*
X23555920Y11795510D01*
X23549360Y11797450D01*
X23545420Y11801350D01*
X23544110Y11807190D01*
X23545420Y11813030D01*
X23549360Y11818870D01*
G01X23544110Y11885930D02*
X23596600D01*
G01X23523110D02*
X23521800Y11883980D01*
X23519170D01*
X23517860Y11885930D01*
X23519170Y11887880D01*
X23521800D01*
X23523110Y11885930D01*
G01X23616290Y11951040D02*
X23621530Y11957850D01*
X23622850Y11965640D01*
X23621530Y11972460D01*
X23614970Y11978300D01*
X23605790Y11982200D01*
X23544110D01*
G01X23554600D02*
X23549360Y11978300D01*
X23545420Y11972460D01*
X23544110Y11965640D01*
X23546730Y11957850D01*
X23551980Y11952990D01*
X23561170Y11949090D01*
X23570350Y11947140D01*
X23578230Y11948120D01*
X23587420Y11952010D01*
X23593980Y11957850D01*
X23596600Y11965640D01*
X23595290Y11971490D01*
X23590040Y11978300D01*
X23584790Y11982200D01*
G01X23596600Y12026860D02*
X23544110D01*
G01X23557230D02*
X23550670Y12030750D01*
X23545420Y12036590D01*
X23544110Y12044380D01*
X23545420Y12051200D01*
X23550670Y12057040D01*
X23559860Y12059960D01*
X23596600D01*
G01X23561170Y12107550D02*
Y12138700D01*
X23551980Y12135780D01*
X23546730Y12130910D01*
X23544110Y12124100D01*
X23545420Y12117280D01*
X23549360Y12111440D01*
X23558540Y12107550D01*
X23566420Y12105600D01*
X23574290D01*
X23582170Y12107550D01*
X23590040Y12112410D01*
X23595290Y12118260D01*
X23596600Y12125070D01*
X23593980Y12131890D01*
X23586100Y12138700D01*
G01X23517860Y12218420D02*
X23596600D01*
G01X23584790D02*
X23591350Y12214520D01*
X23595290Y12208680D01*
X23596600Y12201860D01*
X23593980Y12194070D01*
X23587420Y12188230D01*
X23579540Y12184340D01*
X23570350Y12183360D01*
X23561170Y12184340D01*
X23553290Y12188230D01*
X23546730Y12194070D01*
X23544110Y12201860D01*
X23545420Y12208680D01*
X23548040Y12213550D01*
X23553290Y12218420D01*
G01X23596600Y12352530D02*
X23529670D01*
X23523110Y12354480D01*
X23519170Y12358370D01*
X23517860Y12364210D01*
X23520480Y12370050D01*
X23527050Y12372970D01*
G01X23549360Y12361290D02*
Y12341820D01*
G01X23596600Y12437110D02*
X23595290Y12431270D01*
X23590040Y12425430D01*
X23580850Y12421530D01*
X23570350Y12419580D01*
X23559860Y12421530D01*
X23550670Y12425430D01*
X23545420Y12431270D01*
X23544110Y12437110D01*
X23545420Y12442950D01*
X23550670Y12448790D01*
X23559860Y12452690D01*
X23570350Y12453660D01*
X23580850Y12452690D01*
X23590040Y12448790D01*
X23595290Y12442950D01*
X23596600Y12437110D01*
G01Y12502220D02*
X23544110D01*
G01X23554600D02*
X23549360Y12507090D01*
X23545420Y12511960D01*
X23544110Y12518770D01*
X23545420Y12523640D01*
X23549360Y12529480D01*
G01X23517860Y12690860D02*
X23596600D01*
G01X23584790D02*
X23591350Y12686960D01*
X23595290Y12681120D01*
X23596600Y12674300D01*
X23593980Y12666510D01*
X23587420Y12660670D01*
X23579540Y12656780D01*
X23570350Y12655800D01*
X23561170Y12656780D01*
X23553290Y12660670D01*
X23546730Y12666510D01*
X23544110Y12674300D01*
X23545420Y12681120D01*
X23548040Y12685990D01*
X23553290Y12690860D01*
G01X23587420Y12737470D02*
X23592660Y12742330D01*
X23596600Y12749150D01*
Y12754990D01*
X23593980Y12760830D01*
X23590040Y12764730D01*
X23584790Y12766670D01*
X23576910Y12765700D01*
X23572980Y12761810D01*
X23565110Y12744280D01*
X23555920Y12740390D01*
X23549360Y12742330D01*
X23545420Y12746230D01*
X23544110Y12752070D01*
X23545420Y12757910D01*
X23549360Y12763750D01*
G01X23596600Y12811340D02*
X23517860D01*
Y12834700D01*
X23521800Y12842490D01*
X23530980Y12848340D01*
X23541480Y12850280D01*
X23551980Y12848340D01*
X23559860Y12843470D01*
X23563790Y12834700D01*
Y12811340D01*
G01X23561170Y12894950D02*
Y12926100D01*
X23551980Y12923180D01*
X23546730Y12918310D01*
X23544110Y12911500D01*
X23545420Y12904680D01*
X23549360Y12898840D01*
X23558540Y12894950D01*
X23566420Y12893000D01*
X23574290D01*
X23582170Y12894950D01*
X23590040Y12899810D01*
X23595290Y12905660D01*
X23596600Y12912470D01*
X23593980Y12919290D01*
X23586100Y12926100D01*
G01X23596600Y13005820D02*
X23544110D01*
G01X23553290D02*
X23548040Y13001920D01*
X23545420Y12996080D01*
X23544110Y12989260D01*
X23546730Y12982450D01*
X23551980Y12976610D01*
X23559860Y12972710D01*
X23570350Y12970760D01*
X23580850Y12972710D01*
X23588730Y12976610D01*
X23593980Y12982450D01*
X23596600Y12989260D01*
X23595290Y12996080D01*
X23591350Y13001920D01*
X23586100Y13005820D01*
G01X23596600Y13050480D02*
X23517860D01*
G01X23544110Y13081630D02*
X23574290Y13050480D01*
G01X23562480Y13063140D02*
X23596600Y13083580D01*
G01X23723600Y11628290D02*
X23644860D01*
Y11647760D01*
X23648800Y11655550D01*
X23654050Y11661390D01*
X23661920Y11666260D01*
X23671110Y11670160D01*
X23684230Y11671130D01*
X23697350Y11670160D01*
X23706540Y11666260D01*
X23714420Y11661390D01*
X23719660Y11655550D01*
X23723600Y11647760D01*
Y11628290D01*
G01X23688170Y11713850D02*
Y11745000D01*
X23678980Y11742080D01*
X23673730Y11737210D01*
X23671110Y11730400D01*
X23672420Y11723580D01*
X23676360Y11717740D01*
X23685540Y11713850D01*
X23693420Y11711900D01*
X23701290D01*
X23709170Y11713850D01*
X23717040Y11718710D01*
X23722290Y11724560D01*
X23723600Y11731370D01*
X23720980Y11738190D01*
X23713100Y11745000D01*
G01X23714420Y11792590D02*
X23719660Y11797450D01*
X23723600Y11804270D01*
Y11810110D01*
X23720980Y11815950D01*
X23717040Y11819850D01*
X23711790Y11821790D01*
X23703910Y11820820D01*
X23699980Y11816930D01*
X23692110Y11799400D01*
X23682920Y11795510D01*
X23676360Y11797450D01*
X23672420Y11801350D01*
X23671110Y11807190D01*
X23672420Y11813030D01*
X23676360Y11818870D01*
G01X23671110Y11885930D02*
X23723600D01*
G01X23650110D02*
X23648800Y11883980D01*
X23646170D01*
X23644860Y11885930D01*
X23646170Y11887880D01*
X23648800D01*
X23650110Y11885930D01*
G01X23743290Y11951040D02*
X23748530Y11957850D01*
X23749850Y11965640D01*
X23748530Y11972460D01*
X23741970Y11978300D01*
X23732790Y11982200D01*
X23671110D01*
G01X23681600D02*
X23676360Y11978300D01*
X23672420Y11972460D01*
X23671110Y11965640D01*
X23673730Y11957850D01*
X23678980Y11952990D01*
X23688170Y11949090D01*
X23697350Y11947140D01*
X23705230Y11948120D01*
X23714420Y11952010D01*
X23720980Y11957850D01*
X23723600Y11965640D01*
X23722290Y11971490D01*
X23717040Y11978300D01*
X23711790Y11982200D01*
G01X23723600Y12026860D02*
X23671110D01*
G01X23684230D02*
X23677670Y12030750D01*
X23672420Y12036590D01*
X23671110Y12044380D01*
X23672420Y12051200D01*
X23677670Y12057040D01*
X23686860Y12059960D01*
X23723600D01*
G01X23688170Y12107550D02*
Y12138700D01*
X23678980Y12135780D01*
X23673730Y12130910D01*
X23671110Y12124100D01*
X23672420Y12117280D01*
X23676360Y12111440D01*
X23685540Y12107550D01*
X23693420Y12105600D01*
X23701290D01*
X23709170Y12107550D01*
X23717040Y12112410D01*
X23722290Y12118260D01*
X23723600Y12125070D01*
X23720980Y12131890D01*
X23713100Y12138700D01*
G01X23644860Y12218420D02*
X23723600D01*
G01X23711790D02*
X23718350Y12214520D01*
X23722290Y12208680D01*
X23723600Y12201860D01*
X23720980Y12194070D01*
X23714420Y12188230D01*
X23706540Y12184340D01*
X23697350Y12183360D01*
X23688170Y12184340D01*
X23680290Y12188230D01*
X23673730Y12194070D01*
X23671110Y12201860D01*
X23672420Y12208680D01*
X23675040Y12213550D01*
X23680290Y12218420D01*
G01X23723600Y12340840D02*
X23644860D01*
G01X23684230D02*
X23676360Y12345710D01*
X23672420Y12351550D01*
X23671110Y12357400D01*
X23673730Y12366160D01*
X23678980Y12372000D01*
X23688170Y12375900D01*
X23698670D01*
X23709170Y12373950D01*
X23717040Y12370050D01*
X23722290Y12363240D01*
X23723600Y12357400D01*
X23722290Y12351550D01*
X23718350Y12345710D01*
X23711790Y12340840D01*
G01X23747220Y12416660D02*
X23749850Y12422510D01*
X23747220Y12430290D01*
X23741970Y12435160D01*
X23735410Y12439060D01*
X23714420Y12444900D01*
X23671110Y12457560D01*
G01Y12426400D02*
X23714420Y12444900D01*
G01X23726220Y12594590D02*
X23724910Y12592640D01*
X23722290D01*
X23720980Y12594590D01*
X23722290Y12596540D01*
X23724910D01*
X23726220Y12594590D01*
G01X23690790D02*
X23689480Y12592640D01*
X23686860D01*
X23685540Y12594590D01*
X23686860Y12596540D01*
X23689480D01*
X23690790Y12594590D01*
G01X23707850Y12732600D02*
X23715730Y12737470D01*
X23720980Y12743310D01*
X23723600Y12750120D01*
X23720980Y12757910D01*
X23715730Y12763750D01*
X23707850Y12769600D01*
X23697350Y12771540D01*
X23644860D01*
G01X23697350Y12818150D02*
Y12843470D01*
G01X23723600Y12891050D02*
X23644860D01*
Y12928050D01*
G01X23682920Y12914420D02*
Y12891050D01*
G01X23726220Y12988290D02*
X23724910Y12986340D01*
X23722290D01*
X23720980Y12988290D01*
X23722290Y12990240D01*
X23724910D01*
X23726220Y12988290D01*
G01X23681600Y13074820D02*
X23677670Y13078710D01*
X23671110Y13081630D01*
X23661920Y13083580D01*
X23654050Y13081630D01*
X23648800Y13077740D01*
X23644860Y13070920D01*
Y13044640D01*
X23723600D01*
Y13076770D01*
X23718350Y13083580D01*
X23710480Y13087480D01*
X23701290Y13089420D01*
X23692110Y13087480D01*
X23684230Y13081630D01*
X23681600Y13074820D01*
Y13044640D01*
G54D11*
G01X21756370Y11028680D02*
Y13703810D01*
G01X23681440Y11028680D02*
X21756370D01*
G01Y13703810D02*
X23681440D01*
G01X22481290Y11278870D02*
Y13453870D01*
G01X22881340Y11278870D02*
X22481290D01*
G01Y13453870D02*
X22883370D01*
G01X23156420Y11553700D02*
X22881340Y11278870D01*
G01X23156420Y13178790D02*
X22881340Y13449810D01*
G01X23681440Y11553700D02*
X23156420D01*
G01Y13178790D02*
X23681440D01*
G01Y11553700D02*
Y11028680D01*
G01Y13703810D02*
Y13178790D01*
G54D12*
G01X22564940Y13503150D02*
X22569810Y13495270D01*
X22575650Y13490020D01*
X22582460Y13487400D01*
X22590250Y13490020D01*
X22596090Y13495270D01*
X22601940Y13503150D01*
X22603880Y13513650D01*
Y13566140D01*
G01X22641730Y13503150D02*
X22647570Y13493960D01*
X22655360Y13488710D01*
X22664120Y13487400D01*
X22671910Y13488710D01*
X22679700Y13495270D01*
X22684570Y13503150D01*
X22685540Y13511020D01*
X22683600Y13520210D01*
X22676780Y13526770D01*
X22669970Y13529400D01*
X22661200D01*
G01X22669970D02*
X22675810Y13533330D01*
X22680680Y13539890D01*
X22682620Y13547770D01*
X22680680Y13555640D01*
X22675810Y13562200D01*
X22667040Y13566140D01*
X22658280Y13564830D01*
X22649520Y13559580D01*
M02*
