G04 ================== begin FILE IDENTIFICATION RECORD ==================*
G04 Layout Name:  daughter_card-v1_00-0a.brd*
G04 Film Name:    Daughter_card-v1_00-0a-Soldermask_bot*
G04 File Format:  Gerber RS274X*
G04 File Origin:  Cadence Allegro 17.4-S014*
G04 Origin Date:  Mon Feb 22 20:41:36 2021*
G04 *
G04 Layer:  VIA CLASS/SOLDERMASK_BOTTOM*
G04 Layer:  PIN/SOLDERMASK_BOTTOM*
G04 *
G04 Offset:    (0.0000 0.0000)*
G04 Mirror:    No*
G04 Mode:      Positive*
G04 Rotation:  0*
G04 FullContactRelief:  No*
G04 UndefLineWidth:     0.2540*
G04 ================== end FILE IDENTIFICATION RECORD ====================*
%FSLAX25Y25*MOMM*%
%IR0*IPPOS*OFA0.00000B0.00000*MIA0B0*SFA1.00000B1.00000*%
%AMMACRO10*
4,1,44,.1752,.7087,
.1752,-.7087,
.173476,-.728982,
.168206,-.748648,
.159602,-.7671,
.147924,-.783778,
.133528,-.798174,
.11685,-.809852,
.098398,-.818456,
.078732,-.823726,
.05845,-.8255,
.0584,-.8255,
-.0584,-.8255,
-.078683,-.823734,
-.098351,-.818473,
-.116807,-.809877,
-.133489,-.798206,
-.147892,-.783816,
-.159577,-.767143,
-.168189,-.748695,
-.173467,-.729031,
-.17525,-.70875,
-.1752,-.7087,
-.1752,.7087,
-.173476,.728982,
-.168206,.748648,
-.159602,.7671,
-.147924,.783778,
-.133528,.798174,
-.11685,.809852,
-.098398,.818456,
-.078732,.823726,
-.05845,.8255,
-.0584,.8255,
.0584,.8255,
.078683,.823734,
.098351,.818473,
.116807,.809877,
.133489,.798206,
.147892,.783816,
.159577,.767143,
.168189,.748695,
.173467,.729031,
.17525,.70875,
.1752,.7087,
0.0*
%
%ADD10MACRO10*%
%AMMACRO12*
4,1,40,-.5245,-.2514,
-.5245,.2514,
-.522994,.268609,
-.518524,.285294,
-.511223,.30095,
-.501315,.3151,
-.4891,.327315,
-.47495,.337223,
-.459294,.344524,
-.442609,.348994,
-.4254,.3505,
.4254,.3505,
.442609,.348994,
.459294,.344524,
.47495,.337223,
.4891,.327315,
.501315,.3151,
.511223,.30095,
.518524,.285294,
.522994,.268609,
.5245,.2514,
.5245,-.2514,
.522994,-.268609,
.518524,-.285294,
.511223,-.30095,
.501315,-.3151,
.4891,-.327315,
.47495,-.337223,
.459294,-.344524,
.442609,-.348994,
.4254,-.3505,
-.4254,-.3505,
-.442609,-.348994,
-.459294,-.344524,
-.47495,-.337223,
-.4891,-.327315,
-.501315,-.3151,
-.511223,-.30095,
-.518524,-.285294,
-.522994,-.268609,
-.5245,-.2514,
0.0*
%
%ADD12MACRO12*%
%AMMACRO15*
4,1,40,-.2514,.5245,
.2514,.5245,
.268609,.522994,
.285294,.518524,
.30095,.511223,
.3151,.501315,
.327315,.4891,
.337223,.47495,
.344524,.459294,
.348994,.442609,
.3505,.4254,
.3505,-.4254,
.348994,-.442609,
.344524,-.459294,
.337223,-.47495,
.327315,-.4891,
.3151,-.501315,
.30095,-.511223,
.285294,-.518524,
.268609,-.522994,
.2514,-.5245,
-.2514,-.5245,
-.268609,-.522994,
-.285294,-.518524,
-.30095,-.511223,
-.3151,-.501315,
-.327315,-.4891,
-.337223,-.47495,
-.344524,-.459294,
-.348994,-.442609,
-.3505,-.4254,
-.3505,.4254,
-.348994,.442609,
-.344524,.459294,
-.337223,.47495,
-.327315,.4891,
-.3151,.501315,
-.30095,.511223,
-.285294,.518524,
-.268609,.522994,
-.2514,.5245,
0.0*
%
%ADD15MACRO15*%
%AMMACRO16*
4,1,44,.1257,-.4,
-.1257,-.4,
-.142909,-.398544,
-.159594,-.394074,
-.17525,-.386773,
-.1894,-.376865,
-.201615,-.36465,
-.211523,-.3505,
-.218824,-.334844,
-.223294,-.318159,
-.2248,-.30095,
-.2248,-.3009,
-.2248,.3009,
-.223303,.318109,
-.218841,.334797,
-.211548,.350457,
-.201647,.364612,
-.189439,.376833,
-.175293,.386748,
-.159641,.394056,
-.142958,.398536,
-.12575,.40005,
-.1257,.4,
.1257,.4,
.142909,.398544,
.159594,.394074,
.17525,.386773,
.1894,.376865,
.201615,.36465,
.211523,.3505,
.218824,.334844,
.223294,.318159,
.2248,.30095,
.2248,.3009,
.2248,-.3009,
.223303,-.318109,
.218841,-.334797,
.211548,-.350457,
.201647,-.364612,
.189439,-.376833,
.175293,-.386748,
.159641,-.394056,
.142958,-.398536,
.12575,-.40005,
.1257,-.4,
0.0*
%
%ADD16MACRO16*%
%AMMACRO17*
4,1,44,.0507,-.4,
-.0507,-.4,
-.067909,-.398553,
-.084597,-.394091,
-.100257,-.386798,
-.114412,-.376897,
-.126633,-.364689,
-.136548,-.350543,
-.143856,-.334891,
-.148336,-.318208,
-.14985,-.301,
-.1498,-.3009,
-.1498,.3009,
-.148353,.318109,
-.143891,.334797,
-.136598,.350457,
-.126697,.364612,
-.114489,.376833,
-.100343,.386748,
-.084691,.394056,
-.068008,.398536,
-.0508,.40005,
-.0507,.4,
.0507,.4,
.067909,.398553,
.084597,.394091,
.100257,.386798,
.114412,.376897,
.126633,.364689,
.136548,.350543,
.143856,.334891,
.148336,.318208,
.14985,.301,
.1498,.3009,
.1498,-.3009,
.148353,-.318109,
.143891,-.334797,
.136598,-.350457,
.126697,-.364612,
.114489,-.376833,
.100343,-.386748,
.084691,-.394056,
.068008,-.398536,
.0508,-.40005,
.0507,-.4,
0.0*
%
%ADD17MACRO17*%
%AMMACRO19*
4,1,40,-.6769,-.3276,
-.6769,.3276,
-.675394,.344809,
-.670924,.361494,
-.663623,.37715,
-.653715,.3913,
-.6415,.403515,
-.62735,.413423,
-.611694,.420724,
-.595009,.425194,
-.5778,.4267,
.5778,.4267,
.595009,.425194,
.611694,.420724,
.62735,.413423,
.6415,.403515,
.653715,.3913,
.663623,.37715,
.670924,.361494,
.675394,.344809,
.6769,.3276,
.6769,-.3276,
.675394,-.344809,
.670924,-.361494,
.663623,-.37715,
.653715,-.3913,
.6415,-.403515,
.62735,-.413423,
.611694,-.420724,
.595009,-.425194,
.5778,-.4267,
-.5778,-.4267,
-.595009,-.425194,
-.611694,-.420724,
-.62735,-.413423,
-.6415,-.403515,
-.653715,-.3913,
-.663623,-.37715,
-.670924,-.361494,
-.675394,-.344809,
-.6769,-.3276,
0.0*
%
%ADD19MACRO19*%
%AMMACRO13*
4,1,40,-.3276,.6769,
.3276,.6769,
.344809,.675394,
.361494,.670924,
.37715,.663623,
.3913,.653715,
.403515,.6415,
.413423,.62735,
.420724,.611694,
.425194,.595009,
.4267,.5778,
.4267,-.5778,
.425194,-.595009,
.420724,-.611694,
.413423,-.62735,
.403515,-.6415,
.3913,-.653715,
.37715,-.663623,
.361494,-.670924,
.344809,-.675394,
.3276,-.6769,
-.3276,-.6769,
-.344809,-.675394,
-.361494,-.670924,
-.37715,-.663623,
-.3913,-.653715,
-.403515,-.6415,
-.413423,-.62735,
-.420724,-.611694,
-.425194,-.595009,
-.4267,-.5778,
-.4267,.5778,
-.425194,.595009,
-.420724,.611694,
-.413423,.62735,
-.403515,.6415,
-.3913,.653715,
-.37715,.663623,
-.361494,.670924,
-.344809,.675394,
-.3276,.6769,
0.0*
%
%ADD13MACRO13*%
%AMMACRO11*
4,1,44,-.2552,-.9804,
-.2552,.9804,
-.252664,1.009955,
-.244986,1.038612,
-.232448,1.0655,
-.215431,1.089802,
-.194452,1.110781,
-.17015,1.127798,
-.143262,1.140336,
-.114605,1.148014,
-.08505,1.1506,
-.085,1.1506,
.085,1.1506,
.114556,1.148023,
.143215,1.140353,
.170107,1.127823,
.194414,1.110813,
.215399,1.089841,
.232423,1.065543,
.244969,1.038659,
.252656,1.010004,
.25525,.98045,
.2552,.9804,
.2552,-.9804,
.252664,-1.009955,
.244986,-1.038612,
.232448,-1.0655,
.215431,-1.089802,
.194452,-1.110781,
.17015,-1.127798,
.143262,-1.140336,
.114605,-1.148014,
.08505,-1.1506,
.085,-1.1506,
-.085,-1.1506,
-.114556,-1.148023,
-.143215,-1.140353,
-.170107,-1.127823,
-.194414,-1.110813,
-.215399,-1.089841,
-.232423,-1.065543,
-.244969,-1.038659,
-.252656,-1.010004,
-.25525,-.98045,
-.2552,-.9804,
0.0*
%
%ADD11MACRO11*%
%AMMACRO18*
4,1,40,.5245,.2514,
.5245,-.2514,
.522994,-.268609,
.518524,-.285294,
.511223,-.30095,
.501315,-.3151,
.4891,-.327315,
.47495,-.337223,
.459294,-.344524,
.442609,-.348994,
.4254,-.3505,
-.4254,-.3505,
-.442609,-.348994,
-.459294,-.344524,
-.47495,-.337223,
-.4891,-.327315,
-.501315,-.3151,
-.511223,-.30095,
-.518524,-.285294,
-.522994,-.268609,
-.5245,-.2514,
-.5245,.2514,
-.522994,.268609,
-.518524,.285294,
-.511223,.30095,
-.501315,.3151,
-.4891,.327315,
-.47495,.337223,
-.459294,.344524,
-.442609,.348994,
-.4254,.3505,
.4254,.3505,
.442609,.348994,
.459294,.344524,
.47495,.337223,
.4891,.327315,
.501315,.3151,
.511223,.30095,
.518524,.285294,
.522994,.268609,
.5245,.2514,
0.0*
%
%ADD18MACRO18*%
%AMMACRO14*
4,1,40,.2514,-.5245,
-.2514,-.5245,
-.268609,-.522994,
-.285294,-.518524,
-.30095,-.511223,
-.3151,-.501315,
-.327315,-.4891,
-.337223,-.47495,
-.344524,-.459294,
-.348994,-.442609,
-.3505,-.4254,
-.3505,.4254,
-.348994,.442609,
-.344524,.459294,
-.337223,.47495,
-.327315,.4891,
-.3151,.501315,
-.30095,.511223,
-.285294,.518524,
-.268609,.522994,
-.2514,.5245,
.2514,.5245,
.268609,.522994,
.285294,.518524,
.30095,.511223,
.3151,.501315,
.327315,.4891,
.337223,.47495,
.344524,.459294,
.348994,.442609,
.3505,.4254,
.3505,-.4254,
.348994,-.442609,
.344524,-.459294,
.337223,-.47495,
.327315,-.4891,
.3151,-.501315,
.30095,-.511223,
.285294,-.518524,
.268609,-.522994,
.2514,-.5245,
0.0*
%
%ADD14MACRO14*%
%LPD*%
G75*
G54D10*
X21716240Y10896600D03*
X21781260D03*
X21846290D03*
Y11456670D03*
X21781260D03*
X21716240D03*
X21911310Y10896600D03*
X21976080D03*
X22041100D03*
X22106130D03*
X22171150D03*
X22236180D03*
Y11456670D03*
X22171150D03*
X22106130D03*
X22041100D03*
X21976080D03*
X21911310D03*
X22301200Y10896600D03*
Y11456670D03*
X23125940Y10896600D03*
X23190960D03*
X23255990D03*
X23321010D03*
Y11456670D03*
X23255990D03*
X23190960D03*
X23125940D03*
X23385780Y10896600D03*
X23450800D03*
X23515830D03*
X23580850D03*
X23645880D03*
X23710900D03*
Y11456670D03*
X23645880D03*
X23580850D03*
X23515830D03*
X23450800D03*
X23385780D03*
G54D11*
X21767800Y11861800D03*
X21847810D03*
Y13055600D03*
X21767800D03*
X21927820Y11861800D03*
X22007830D03*
X22087840D03*
X22167850D03*
X22247860D03*
Y13055600D03*
X22167850D03*
X22087840D03*
X22007830D03*
X21927820D03*
X22327870Y11861800D03*
X22407880D03*
X22487890D03*
X22567900D03*
Y13055600D03*
X22487890D03*
X22407880D03*
X22327870D03*
X22647910Y11861800D03*
X22727920D03*
X22807680D03*
X22887690D03*
X22967700D03*
Y13055600D03*
X22887690D03*
X22807680D03*
X22727920D03*
X22647910D03*
X23047710Y11861800D03*
X23127720D03*
X23207730D03*
X23287740D03*
X23367750D03*
Y13055600D03*
X23287740D03*
X23207730D03*
X23127720D03*
X23047710D03*
X23447760Y11861800D03*
Y13055600D03*
G54D12*
X21742400Y13474700D03*
Y13639800D03*
X23190200Y13347700D03*
Y13512800D03*
X23672800Y12128500D03*
Y12293600D03*
G54D13*
X21908010Y13385800D03*
X22003000D03*
X22098000D03*
Y13670790D03*
X21908010D03*
G54D14*
X22225000Y13868400D03*
X22593300Y11531600D03*
X22428200D03*
X22580600Y13258800D03*
X22390100Y13868400D03*
X22898100Y11645900D03*
X22733000D03*
X22745700Y13258800D03*
G54D15*
X21907500Y13868400D03*
X22072600D03*
X22263100Y13258800D03*
X22428200D03*
X22898100Y13868400D03*
X23063200D03*
G54D16*
X22456390Y11330940D03*
Y11059920D03*
Y13396720D03*
Y13667740D03*
X22991320Y11330940D03*
Y11059920D03*
Y13396720D03*
Y13667740D03*
G54D17*
X22503890Y11059920D03*
Y11330940D03*
X22543770Y11059920D03*
Y11330940D03*
X22583900Y11059920D03*
Y11330940D03*
X22503890Y13396720D03*
X22543770D03*
X22583900D03*
X22503890Y13667740D03*
X22543770D03*
X22583900D03*
X22623780Y11059920D03*
Y11330940D03*
X22663910Y11059920D03*
Y11330940D03*
X22703790Y11059920D03*
Y11330940D03*
X22743920Y11059920D03*
Y11330940D03*
X22783800Y11059920D03*
Y11330940D03*
X22823930Y11059920D03*
Y11330940D03*
X22863810Y11059920D03*
Y11330940D03*
X22903940Y11059920D03*
Y11330940D03*
X22943820Y11059920D03*
Y11330940D03*
X22623780Y13396720D03*
X22663910D03*
X22703790D03*
X22743920D03*
X22783800D03*
X22823930D03*
X22863810D03*
X22903940D03*
X22943820D03*
X22623780Y13667740D03*
X22663910D03*
X22703790D03*
X22743920D03*
X22783800D03*
X22823930D03*
X22863810D03*
X22903940D03*
X22943820D03*
G54D18*
X22275800Y13576300D03*
Y13411200D03*
X23672800Y11684000D03*
Y11849100D03*
G54D19*
X23387810Y13487400D03*
Y13297410D03*
X23260810Y13868400D03*
Y13678410D03*
X23672800Y13297410D03*
Y13392400D03*
Y13487400D03*
X23545800Y13678410D03*
Y13773400D03*
Y13868400D03*
M02*
