M48
METRIC,TZ
T01C.254
;LEADER: 12 
;HEADER: 
;CODE  : ASCII 
;FILE  : daughter_card-v1_00-0a-1-4-1-4.drl for  ... layers TOP and BOTTOM
;DESIGN: daughter_card-v1_00-0a.brd
;T01 Holesize 1. = 0.254000 Tolerance = +0.010000/-0.010000 PLATED MM Quantity = 120
%
G90
T01
X23672800Y12039600
X22973990Y11455400
X22237700Y11036300
X23050500Y11099800
X22364700Y10871200
X22072600Y12295320
X22491700Y12263880
X22136100Y12090400
X22703790Y10985500
X23645880Y11341100
X22999700Y10960100
X23558500Y11087100
X23329900Y11315700
X22390100Y11391900
X21780500Y10795000
X23645880Y10796520
X22453600Y11442700
X23075900Y11582400
X23037800Y11404600
X22807610Y11442270
X22041100Y11036300
X22783800Y11252200
X23385780Y11012170
X22783800Y12496800
X22758400Y12753850
X23321010Y11012170
X22847300Y11201400
X22106130Y11036300
X22868990Y11458570
X22831040Y12683740
X22847300Y12446000
X22908010Y12496800
X22908010Y12613890
X22917260Y11417300
X23255990Y11012170
X22923500Y11150600
X22171150Y11036300
X23672800Y12382500
X22801070Y11645900
X22301200Y11328400
X23109170Y13576300
X23075900Y13779500
X22352000Y13411200
X21908010Y13486890
X22517100Y10960100
X23749000Y11684000
X22496270Y13258800
X22491700Y11252200
X21666200Y10896600
X23063200Y11671300
X22479000Y12014200
X22987000Y13474700
X22606000Y13474700
X23164800Y13195300
X22275800Y13512800
X22003000Y13481300
X23660100Y13678410
X23672800Y13208000
X23672800Y11938000
X23228300Y13271500
X23125940Y11010140
X22796500Y13868400
X22707600Y13804900
X22322030Y13868400
X22627780Y13759550
X22453600Y13754100
X22834600Y13246100
X22186900Y13258800
X21818600Y13474700
X22863810Y10951210
X23287740Y13203940
X22869520Y13535020
X23368000Y13208000
X22948900Y13538200
X23367750Y12598400
X22783800Y13474700
X23253700Y12179300
X22847300Y13322300
X22903940Y13271500
X23177500Y12115800
X23101300Y12065000
X22974300Y13220700
X22529800Y13754100
X21767800Y12382500
X22580600Y13817600
X21767800Y12280900
X22663150Y13868400
X21767800Y12179300
X21767800Y13208000
X22364700Y13665200
X21847810Y13204190
X22758400Y13754100
X21927820Y13203680
X22821900Y13754100
X22910800Y13779500
X22007830Y13206730
X22087840Y13205460
X22491700Y12333730
X22987000Y13779500
X21976080Y11328400
X22199600Y12026900
X22041100Y11328400
X22199600Y12090400
X22106130Y11328400
X22199600Y12153900
X22171150Y11328400
X22199600Y12230100
X22167850Y12484100
X22821900Y10833100
X22453600Y12403840
X22288500Y12403840
X22758400Y10922000
X23710900Y11012170
X23749000Y13690600
X21767800Y11239500
X22707600Y10871200
X22087840Y12014200
X22236180Y11329920
X22148800Y13868400
X22339300Y13258800
M30
