G04 ================== begin FILE IDENTIFICATION RECORD ==================*
G04 Layout Name:  daughter_card-v1_00-0a.brd*
G04 Film Name:    Daughter_card-v1_00-0a-BOTTOM*
G04 File Format:  Gerber RS274X*
G04 File Origin:  Cadence Allegro 17.4-S014*
G04 Origin Date:  Mon Feb 22 20:41:36 2021*
G04 *
G04 Layer:  ETCH/BOTTOM*
G04 Layer:  PIN/BOTTOM*
G04 Layer:  VIA CLASS/BOTTOM*
G04 *
G04 Offset:    (0.0000 0.0000)*
G04 Mirror:    No*
G04 Mode:      Positive*
G04 Rotation:  0*
G04 FullContactRelief:  No*
G04 UndefLineWidth:     0.2540*
G04 ================== end FILE IDENTIFICATION RECORD ====================*
%FSLAX25Y25*MOMM*%
%IR0*IPPOS*OFA0.00000B0.00000*MIA0B0*SFA1.00000B1.00000*%
%AMMACRO13*
4,1,40,-.475,-.2006,
-.475,.2006,
-.473494,.217809,
-.469024,.234494,
-.461723,.25015,
-.451815,.2643,
-.4396,.276515,
-.42545,.286423,
-.409794,.293724,
-.393109,.298194,
-.3759,.2997,
.3759,.2997,
.393109,.298194,
.409794,.293724,
.42545,.286423,
.4396,.276515,
.451815,.2643,
.461723,.25015,
.469024,.234494,
.473494,.217809,
.475,.2006,
.475,-.2006,
.473494,-.217809,
.469024,-.234494,
.461723,-.25015,
.451815,-.2643,
.4396,-.276515,
.42545,-.286423,
.409794,-.293724,
.393109,-.298194,
.3759,-.2997,
-.3759,-.2997,
-.393109,-.298194,
-.409794,-.293724,
-.42545,-.286423,
-.4396,-.276515,
-.451815,-.2643,
-.461723,-.25015,
-.469024,-.234494,
-.473494,-.217809,
-.475,-.2006,
0.0*
%
%ADD13MACRO13*%
%AMMACRO10*
4,1,44,.1244,.6909,
.1244,-.6909,
.123177,-.705452,
.119396,-.719561,
.113223,-.7328,
.104845,-.744766,
.094516,-.755095,
.08255,-.763473,
.069311,-.769646,
.055202,-.773427,
.04065,-.7747,
.0406,-.7747,
-.0406,-.7747,
-.055152,-.773436,
-.069264,-.769663,
-.082507,-.763498,
-.094477,-.755127,
-.104812,-.744804,
-.113198,-.732843,
-.119379,-.719608,
-.123168,-.705501,
-.12445,-.69095,
-.1244,-.6909,
-.1244,.6909,
-.123177,.705452,
-.119396,.719561,
-.113223,.7328,
-.104845,.744766,
-.094516,.755095,
-.08255,.763473,
-.069311,.769646,
-.055202,.773427,
-.04065,.7747,
-.0406,.7747,
.0406,.7747,
.055152,.773436,
.069264,.769663,
.082507,.763498,
.094477,.755127,
.104812,.744804,
.113198,.732843,
.119379,.719608,
.123168,.705501,
.12445,.69095,
.1244,.6909,
0.0*
%
%ADD10MACRO10*%
%AMMACRO16*
4,1,40,-.2006,.475,
.2006,.475,
.217809,.473494,
.234494,.469024,
.25015,.461723,
.2643,.451815,
.276515,.4396,
.286423,.42545,
.293724,.409794,
.298194,.393109,
.2997,.3759,
.2997,-.3759,
.298194,-.393109,
.293724,-.409794,
.286423,-.42545,
.276515,-.4396,
.2643,-.451815,
.25015,-.461723,
.234494,-.469024,
.217809,-.473494,
.2006,-.475,
-.2006,-.475,
-.217809,-.473494,
-.234494,-.469024,
-.25015,-.461723,
-.2643,-.451815,
-.276515,-.4396,
-.286423,-.42545,
-.293724,-.409794,
-.298194,-.393109,
-.2997,-.3759,
-.2997,.3759,
-.298194,.393109,
-.293724,.409794,
-.286423,.42545,
-.276515,.4396,
-.2643,.451815,
-.25015,.461723,
-.234494,.469024,
-.217809,.473494,
-.2006,.475,
0.0*
%
%ADD16MACRO16*%
%AMMACRO18*
4,1,44,.0343,-.3505,
-.0343,-.3505,
-.045762,-.349506,
-.056876,-.346537,
-.067307,-.341683,
-.076736,-.335091,
-.084877,-.326962,
-.091483,-.317543,
-.096353,-.30712,
-.099339,-.29601,
-.10035,-.28455,
-.1003,-.2845,
-.1003,.2845,
-.099347,.295961,
-.09637,.307073,
-.091508,.3175,
-.084909,.326924,
-.076774,.335059,
-.06735,.341658,
-.056923,.34652,
-.045811,.349497,
-.03435,.3505,
-.0343,.3505,
.0343,.3505,
.045762,.349506,
.056876,.346537,
.067307,.341683,
.076736,.335091,
.084877,.326962,
.091483,.317543,
.096353,.30712,
.099339,.29601,
.10035,.28455,
.1003,.2845,
.1003,-.2845,
.099347,-.295961,
.09637,-.307073,
.091508,-.3175,
.084909,-.326924,
.076774,-.335059,
.06735,-.341658,
.056923,-.34652,
.045811,-.349497,
.03435,-.3505,
.0343,-.3505,
0.0*
%
%ADD18MACRO18*%
%AMMACRO17*
4,1,44,.1092,-.3505,
-.1092,-.3505,
-.120662,-.349506,
-.131776,-.346537,
-.142207,-.341683,
-.151636,-.335091,
-.159777,-.326962,
-.166383,-.317543,
-.171253,-.30712,
-.174239,-.29601,
-.17525,-.28455,
-.1752,-.2845,
-.1752,.2845,
-.174247,.295961,
-.17127,.307073,
-.166408,.3175,
-.159809,.326924,
-.151674,.335059,
-.14225,.341658,
-.131823,.34652,
-.120711,.349497,
-.10925,.3505,
-.1092,.3505,
.1092,.3505,
.120662,.349506,
.131776,.346537,
.142207,.341683,
.151636,.335091,
.159777,.326962,
.166383,.317543,
.171253,.30712,
.174239,.29601,
.17525,.28455,
.1752,.2845,
.1752,-.2845,
.174247,-.295961,
.17127,-.307073,
.166408,-.3175,
.159809,-.326924,
.151674,-.335059,
.14225,-.341658,
.131823,-.34652,
.120711,-.349497,
.10925,-.3505,
.1092,-.3505,
0.0*
%
%ADD17MACRO17*%
%ADD11C,.508*%
%AMMACRO19*
4,1,40,.475,.2006,
.475,-.2006,
.473494,-.217809,
.469024,-.234494,
.461723,-.25015,
.451815,-.2643,
.4396,-.276515,
.42545,-.286423,
.409794,-.293724,
.393109,-.298194,
.3759,-.2997,
-.3759,-.2997,
-.393109,-.298194,
-.409794,-.293724,
-.42545,-.286423,
-.4396,-.276515,
-.451815,-.2643,
-.461723,-.25015,
-.469024,-.234494,
-.473494,-.217809,
-.475,-.2006,
-.475,.2006,
-.473494,.217809,
-.469024,.234494,
-.461723,.25015,
-.451815,.2643,
-.4396,.276515,
-.42545,.286423,
-.409794,.293724,
-.393109,.298194,
-.3759,.2997,
.3759,.2997,
.393109,.298194,
.409794,.293724,
.42545,.286423,
.4396,.276515,
.451815,.2643,
.461723,.25015,
.469024,.234494,
.473494,.217809,
.475,.2006,
0.0*
%
%ADD19MACRO19*%
%AMMACRO15*
4,1,40,.2006,-.475,
-.2006,-.475,
-.217809,-.473494,
-.234494,-.469024,
-.25015,-.461723,
-.2643,-.451815,
-.276515,-.4396,
-.286423,-.42545,
-.293724,-.409794,
-.298194,-.393109,
-.2997,-.3759,
-.2997,.3759,
-.298194,.393109,
-.293724,.409794,
-.286423,.42545,
-.276515,.4396,
-.2643,.451815,
-.25015,.461723,
-.234494,.469024,
-.217809,.473494,
-.2006,.475,
.2006,.475,
.217809,.473494,
.234494,.469024,
.25015,.461723,
.2643,.451815,
.276515,.4396,
.286423,.42545,
.293724,.409794,
.298194,.393109,
.2997,.3759,
.2997,-.3759,
.298194,-.393109,
.293724,-.409794,
.286423,-.42545,
.276515,-.4396,
.2643,-.451815,
.25015,-.461723,
.234494,-.469024,
.217809,-.473494,
.2006,-.475,
0.0*
%
%ADD15MACRO15*%
%AMMACRO20*
4,1,40,-.5499,-.2006,
-.5499,.2006,
-.548394,.217809,
-.543924,.234494,
-.536623,.25015,
-.526715,.2643,
-.5145,.276515,
-.50035,.286423,
-.484694,.293724,
-.468009,.298194,
-.4508,.2997,
.4508,.2997,
.468009,.298194,
.484694,.293724,
.50035,.286423,
.5145,.276515,
.526715,.2643,
.536623,.25015,
.543924,.234494,
.548394,.217809,
.5499,.2006,
.5499,-.2006,
.548394,-.217809,
.543924,-.234494,
.536623,-.25015,
.526715,-.2643,
.5145,-.276515,
.50035,-.286423,
.484694,-.293724,
.468009,-.298194,
.4508,-.2997,
-.4508,-.2997,
-.468009,-.298194,
-.484694,-.293724,
-.50035,-.286423,
-.5145,-.276515,
-.526715,-.2643,
-.536623,-.25015,
-.543924,-.234494,
-.548394,-.217809,
-.5499,-.2006,
0.0*
%
%ADD20MACRO20*%
%AMMACRO14*
4,1,40,-.2006,.5499,
.2006,.5499,
.217809,.548394,
.234494,.543924,
.25015,.536623,
.2643,.526715,
.276515,.5145,
.286423,.50035,
.293724,.484694,
.298194,.468009,
.2997,.4508,
.2997,-.4508,
.298194,-.468009,
.293724,-.484694,
.286423,-.50035,
.276515,-.5145,
.2643,-.526715,
.25015,-.536623,
.234494,-.543924,
.217809,-.548394,
.2006,-.5499,
-.2006,-.5499,
-.217809,-.548394,
-.234494,-.543924,
-.25015,-.536623,
-.2643,-.526715,
-.276515,-.5145,
-.286423,-.50035,
-.293724,-.484694,
-.298194,-.468009,
-.2997,-.4508,
-.2997,.4508,
-.298194,.468009,
-.293724,.484694,
-.286423,.50035,
-.276515,.5145,
-.2643,.526715,
-.25015,.536623,
-.234494,.543924,
-.217809,.548394,
-.2006,.5499,
0.0*
%
%ADD14MACRO14*%
%AMMACRO12*
4,1,44,-.2044,-.9626,
-.2044,.9626,
-.202366,.986425,
-.196176,1.009525,
-.186069,1.0312,
-.172351,1.05079,
-.15544,1.067701,
-.13585,1.081419,
-.114175,1.091526,
-.091075,1.097716,
-.06725,1.0998,
-.0672,1.0998,
.0672,1.0998,
.091025,1.097724,
.114128,1.091543,
.135807,1.081444,
.155402,1.067733,
.172319,1.050829,
.186044,1.031243,
.196159,1.009572,
.202357,.986474,
.20445,.96265,
.2044,.9626,
.2044,-.9626,
.202366,-.986425,
.196176,-1.009525,
.186069,-1.0312,
.172351,-1.05079,
.15544,-1.067701,
.13585,-1.081419,
.114175,-1.091526,
.091075,-1.097716,
.06725,-1.0998,
.0672,-1.0998,
-.0672,-1.0998,
-.091025,-1.097724,
-.114128,-1.091543,
-.135807,-1.081444,
-.155402,-1.067733,
-.172319,-1.050829,
-.186044,-1.031243,
-.196159,-1.009572,
-.202357,-.986474,
-.20445,-.96265,
-.2044,-.9626,
0.0*
%
%ADD12MACRO12*%
%ADD21C,.127*%
%ADD22C,.254*%
G75*
%LPD*%
G75*
G54D10*
X21716240Y10896600D03*
X21781260D03*
X21846290D03*
Y11456670D03*
X21781260D03*
X21716240D03*
X21911310Y10896600D03*
X21976080D03*
X22041100D03*
X22106130D03*
X22171150D03*
X22236180D03*
Y11456670D03*
X22171150D03*
X22106130D03*
X22041100D03*
X21976080D03*
X21911310D03*
X22301200Y10896600D03*
Y11456670D03*
X23125940Y10896600D03*
X23190960D03*
X23255990D03*
X23321010D03*
Y11456670D03*
X23255990D03*
X23190960D03*
X23125940D03*
X23385780Y10896600D03*
X23450800D03*
X23515830D03*
X23580850D03*
X23645880D03*
X23710900D03*
Y11456670D03*
X23645880D03*
X23580850D03*
X23515830D03*
X23450800D03*
X23385780D03*
G54D20*
X23387810Y13487400D03*
Y13297410D03*
X23260810Y13868400D03*
Y13678410D03*
X23672800Y13297410D03*
Y13392400D03*
Y13487400D03*
X23545800Y13678410D03*
Y13773400D03*
Y13868400D03*
G54D11*
X21666200Y10896600D03*
X21780500Y10795000D03*
X21767800Y11239500D03*
Y12179300D03*
Y12280900D03*
Y12382500D03*
X21847810Y13204190D03*
X21767800Y13208000D03*
X21818600Y13474700D03*
X22171150Y11036300D03*
X22106130D03*
X22041100D03*
X22237700D03*
X22236180Y11329920D03*
X22171150Y11328400D03*
X22106130D03*
X22041100D03*
X21976080D03*
X22087840Y12014200D03*
X22199600Y12026900D03*
Y12230100D03*
Y12153900D03*
Y12090400D03*
X22136100D03*
X22072600Y12295320D03*
X22167850Y12484100D03*
X22087840Y13205460D03*
X22007830Y13206730D03*
X21927820Y13203680D03*
X22186900Y13258800D03*
X22003000Y13481300D03*
X21908010Y13486890D03*
X22148800Y13868400D03*
X22364700Y10871200D03*
X22491700Y11252200D03*
X22517100Y10960100D03*
X22301200Y11328400D03*
X22453600Y11442700D03*
X22390100Y11391900D03*
X22479000Y12014200D03*
X22288500Y12403840D03*
X22453600D03*
X22491700Y12333730D03*
Y12263880D03*
X22339300Y13258800D03*
X22275800Y13512800D03*
X22606000Y13474700D03*
X22496270Y13258800D03*
X22352000Y13411200D03*
X22364700Y13665200D03*
X22580600Y13817600D03*
X22529800Y13754100D03*
X22453600D03*
X22322030Y13868400D03*
X22707600Y10871200D03*
X22758400Y10922000D03*
X22821900Y10833100D03*
X22863810Y10951210D03*
X22923500Y11150600D03*
X22847300Y11201400D03*
X22783800Y11252200D03*
X22999700Y10960100D03*
X22703790Y10985500D03*
X22801070Y11645900D03*
X22917260Y11417300D03*
X22868990Y11458570D03*
X22807610Y11442270D03*
X22973990Y11455400D03*
X22847300Y12446000D03*
X22908010Y12613890D03*
Y12496800D03*
X22831040Y12683740D03*
X22758400Y12753850D03*
X22783800Y12496800D03*
X22974300Y13220700D03*
X22903940Y13271500D03*
X22847300Y13322300D03*
X22783800Y13474700D03*
X22948900Y13538200D03*
X22869520Y13535020D03*
X22834600Y13246100D03*
X22987000Y13474700D03*
Y13779500D03*
X22910800D03*
X22821900Y13754100D03*
X22758400D03*
X22663150Y13868400D03*
X22627780Y13759550D03*
X22707600Y13804900D03*
X22796500Y13868400D03*
X23125940Y11010140D03*
X23255990Y11012170D03*
X23321010D03*
X23329900Y11315700D03*
X23050500Y11099800D03*
X23063200Y11671300D03*
X23037800Y11404600D03*
X23075900Y11582400D03*
X23101300Y12065000D03*
X23177500Y12115800D03*
X23253700Y12179300D03*
X23367750Y12598400D03*
X23368000Y13208000D03*
X23287740Y13203940D03*
X23164800Y13195300D03*
X23228300Y13271500D03*
X23109170Y13576300D03*
X23075900Y13779500D03*
X23645880Y10796520D03*
X23710900Y11012170D03*
X23385780D03*
X23558500Y11087100D03*
X23749000Y11684000D03*
X23645880Y11341100D03*
X23672800Y11938000D03*
Y12039600D03*
Y12382500D03*
Y13208000D03*
X23749000Y13690600D03*
X23660100Y13678410D03*
G54D21*
G01X21716240Y10896600D02*
X21666200D01*
G01X23580850D02*
Y10831580D01*
X23531570Y10782300D01*
X21895570D01*
X21846290Y10831580D01*
Y10896600D01*
G01D02*
Y11063990D01*
X21983700Y11201400D01*
X22529800D01*
X22583900Y11255500D01*
Y11330940D01*
G01X21780500Y10795000D02*
Y10895840D01*
X21781260Y10896600D01*
G01X22390100Y11391900D02*
Y11328400D01*
X22301200Y11239500D01*
X21958300D01*
X21781260Y11062460D01*
Y10896600D01*
G01X21767800Y11239500D02*
X21678900Y11328400D01*
Y11569700D01*
X21831300Y11722100D01*
X21957660D01*
X22007830Y11772270D01*
Y11861800D01*
G01X21846290Y11456670D02*
Y11553200D01*
X21900890Y11607800D01*
X22301200D01*
X22407880Y11714480D01*
Y11861800D01*
G01X22327870D02*
Y11723370D01*
X22250400Y11645900D01*
X21869400D01*
X21781260Y11557760D01*
Y11456670D01*
G01X21716240D02*
Y11553200D01*
X21847040Y11684000D01*
X22199600D01*
X22247860Y11732260D01*
Y11861800D01*
G01X21767800D02*
Y12179300D01*
G01Y12280900D02*
X21847810Y12200890D01*
Y11861800D01*
G01X22087840Y12014200D02*
Y12164060D01*
X21691600Y12560300D01*
Y13220700D01*
X21767800Y13296900D01*
X22148800D01*
X22199600Y13347700D01*
X22377400D01*
X22402800Y13373100D01*
Y13462000D01*
X22466300Y13525500D01*
X22656800D01*
X22733000Y13601700D01*
X22974300D01*
X23164800Y13411200D01*
X23329900D01*
X23387810Y13353290D01*
Y13297410D01*
G01X21767800Y12382500D02*
X21927820Y12222480D01*
Y11861800D01*
G01X21847810Y13055600D02*
Y13204190D01*
G01X21767800Y13208000D02*
Y13055600D01*
G01X21742400Y13474700D02*
X21818600D01*
G01X22171150Y10896600D02*
Y11036300D01*
G01X22106130Y10896600D02*
Y11036300D01*
G01X22041100D02*
Y10896600D01*
G01X21976080D02*
Y11066780D01*
X22034500Y11125200D01*
X22593300D01*
X22703790Y11235690D01*
Y11330940D01*
G01X21911310Y10896600D02*
Y11065510D01*
X22009100Y11163300D01*
X22567900D01*
X22663910Y11259310D01*
Y11330940D01*
G01X22171150Y11456670D02*
Y11328400D01*
G01X22106130Y11456670D02*
Y11328400D01*
G01X22041100Y11456670D02*
Y11328400D01*
G01X21976080Y11456670D02*
Y11328400D01*
G01X21911310Y11456670D02*
Y11553200D01*
X21927810Y11569700D01*
X22352000D01*
X22487890Y11705590D01*
Y11861800D01*
G01X22087840D02*
Y12014200D01*
G01X22199600Y12026900D02*
X22244060D01*
X22282160Y12065000D01*
X22656800D01*
X22727920Y11993880D01*
Y11861800D01*
G01X22167850D02*
Y11990840D01*
X22136100Y12022590D01*
Y12090400D01*
G01X22199600Y12230100D02*
X22390100D01*
X22421540Y12198660D01*
X22777140D01*
X22967700Y12008100D01*
Y11861800D01*
G01X22199600Y12153900D02*
X22733000D01*
X22887690Y11999210D01*
Y11861800D01*
G01X22199600Y12090400D02*
X22244060D01*
X22256760Y12103100D01*
X22695420D01*
X22807680Y11990840D01*
Y11861800D01*
G01X22087840Y13055600D02*
Y12468860D01*
X22222970Y12333730D01*
X22491700D01*
G01X22072600Y12295320D02*
X22223290D01*
X22254730Y12263880D01*
X22491700D01*
G01X22167850Y13055600D02*
Y12484100D01*
G01X22087840Y13055600D02*
Y13205460D01*
G01X22007830Y13055600D02*
Y13206730D01*
G01X21927820Y13055600D02*
Y13203680D01*
G01X22263100Y13258800D02*
X22186900D01*
G01X22003000Y13385800D02*
Y13481300D01*
G01X21908010Y13385800D02*
Y13486890D01*
G01X22301200Y10896600D02*
Y10831580D01*
X22318990Y10813790D01*
X22573990D01*
X22682200Y10922000D01*
X22758400D01*
G01X22364700Y10871200D02*
X22529800D01*
X22663910Y11005310D01*
Y11059920D01*
G01X22237700Y11036300D02*
Y10898120D01*
X22236180Y10896600D01*
G01X22503890Y11330940D02*
Y11264390D01*
X22491700Y11252200D01*
G01X22236180Y11456670D02*
Y11329920D01*
G01X22593300Y11531600D02*
Y11604500D01*
X22567900Y11629900D01*
Y11861800D01*
G01X22623780Y11330940D02*
Y11434560D01*
X22593300Y11465040D01*
Y11531600D01*
G01X22453600Y11442700D02*
X22555200D01*
X22583900Y11414000D01*
Y11330940D01*
G01X22543770D02*
Y11368390D01*
X22520300Y11391900D01*
X22390100D01*
G01X22479000Y12014200D02*
X22544540D01*
X22567900Y11990840D01*
Y11861800D01*
G01X22288500Y12403840D02*
X22453600D01*
G01X23125940Y11456670D02*
Y11697460D01*
X23088220Y11735180D01*
Y12014590D01*
X22821910Y12280900D01*
X22694900D01*
X22247860Y12727940D01*
Y13055600D01*
G01X23190960Y11456670D02*
Y11568940D01*
X23167230Y11592670D01*
Y12062570D01*
X22910800Y12319000D01*
X22720300D01*
X22327870Y12711430D01*
Y13055600D01*
G01X22407880D02*
Y12694950D01*
X22745520Y12357100D01*
X23012400D01*
X23247230Y12122270D01*
Y11576170D01*
X23255990Y11567410D01*
Y11456670D01*
G01X23321010D02*
Y11573520D01*
X23327240Y11579750D01*
Y11958050D01*
X23327250Y11971630D01*
Y12169250D01*
X23101300Y12395200D01*
X22771100D01*
X22487890Y12678410D01*
Y13055600D01*
G01X22275800Y13576300D02*
Y13512800D01*
G01X22623780Y13396720D02*
Y13456920D01*
X22606000Y13474700D01*
G01X22275800Y13411200D02*
X22352000D01*
G01X22364700Y13665200D02*
X22428200Y13601700D01*
X22679160D01*
X22703790Y13626330D01*
Y13667740D01*
G01X22580600Y13817600D02*
Y13743860D01*
X22583900Y13740560D01*
Y13667740D01*
G01X22543770D02*
Y13740130D01*
X22529800Y13754100D01*
G01X22503890Y13667740D02*
Y13703810D01*
X22453600Y13754100D01*
G01X22322030Y13868400D02*
X22390100D01*
G01X22707600Y10871200D02*
X22771100D01*
X22809200Y10909300D01*
Y10959470D01*
X22823930Y10974200D01*
Y11059920D01*
G01X22758400Y10922000D02*
Y10966460D01*
X22783800Y10991860D01*
Y11059920D01*
G01X22821900Y10833100D02*
X22866360D01*
X22923500Y10890240D01*
Y10986250D01*
X22903940Y11005810D01*
Y11059920D01*
G01X22743920Y11114030D02*
Y11115800D01*
X22733150Y11126570D01*
G01X22743920Y11114030D02*
Y11059920D01*
G01Y11114030D02*
X22755090Y11125200D01*
X22852640D01*
G01X22863810Y11059920D02*
Y10951210D01*
G01X22852640Y11125200D02*
X22863810Y11114030D01*
Y11059920D01*
G01X22852640Y11125200D02*
Y11142610D01*
X22891750Y11181720D01*
Y11245850D01*
X22863810Y11273790D01*
Y11330940D01*
G01X22733150Y11126570D02*
X22632770D01*
X22623780Y11117580D01*
Y11059920D01*
G01X22733150Y11126570D02*
X22733000Y11126720D01*
Y11264900D01*
X22743920Y11275820D01*
Y11330940D01*
G01X22923500Y11150600D02*
Y11252200D01*
X22903940Y11271760D01*
Y11330940D01*
G01X22847300Y11201400D02*
Y11252200D01*
X22823930Y11275570D01*
Y11330940D01*
G01X22783800Y11252200D02*
Y11330940D01*
G01X22999700Y10960100D02*
X22943820Y11015980D01*
Y11059920D01*
G01X22703790D02*
Y10985500D01*
G01X23050500Y11099800D02*
X22974300Y11176000D01*
Y11246350D01*
X22943820Y11276830D01*
Y11330940D01*
G01X23063200Y11671300D02*
X23006040D01*
X22980640Y11645900D01*
X22898100D01*
G01X22903940Y11330940D02*
Y11404600D01*
X22916640Y11417300D01*
X22917260D01*
G01X22823930Y11330940D02*
Y11381230D01*
X22868990Y11426290D01*
Y11458570D01*
G01X22783800Y11330940D02*
Y11417300D01*
X22807610Y11441110D01*
Y11442270D01*
G01X22703790Y11330940D02*
Y11426190D01*
X22783800Y11506200D01*
X23005730D01*
X23037800Y11474130D01*
Y11404600D01*
G01X22663910Y11330940D02*
Y11449810D01*
X22758400Y11544300D01*
X22948900D01*
X22987000Y11582400D01*
X23075900D01*
G01X22943820Y11330940D02*
Y11380990D01*
X22961710Y11398880D01*
X22961930D01*
X22973990Y11410940D01*
Y11455400D01*
G01X22727920Y13055600D02*
Y12895580D01*
X22948900Y12674600D01*
X23368000D01*
X23456900Y12585700D01*
Y12065000D01*
X23406100Y12014200D01*
Y11972790D01*
X23407250Y11971640D01*
Y11697850D01*
X23385780Y11676380D01*
Y11456670D01*
G01X22807680Y13055600D02*
Y12892020D01*
X22974300Y12725400D01*
X23406100D01*
X23495000Y12636500D01*
Y11607800D01*
X23450800Y11563600D01*
Y11456670D01*
G01X22887690Y13055600D02*
Y12900910D01*
X23012400Y12776200D01*
X23431500D01*
X23533100Y12674600D01*
Y11582400D01*
X23515830Y11565130D01*
Y11456670D01*
G01X22908010Y12613890D02*
Y12496800D01*
G01X22847300Y12446000D02*
Y12560300D01*
X22831040Y12576560D01*
Y12683740D01*
G01X22783800Y12496800D02*
Y12560300D01*
X22758400Y12585700D01*
Y12753850D01*
G01X22967700Y13055600D02*
Y12897100D01*
X23037800Y12827000D01*
X23456900D01*
X23571200Y12712700D01*
Y11607800D01*
X23580850Y11598150D01*
Y11456670D01*
G01X22745700Y13258800D02*
X22696670D01*
X22647910Y13210040D01*
Y13055600D01*
G01X22974300Y13220700D02*
Y13321980D01*
X22943820Y13352460D01*
Y13396720D01*
G01X22903940D02*
Y13271500D01*
G01X22847300Y13322300D02*
Y13335000D01*
X22823930Y13358370D01*
Y13396720D01*
G01X22783800Y13474700D02*
Y13396720D01*
G01X22948900Y13538200D02*
X22898100Y13487400D01*
X22847290D01*
X22809190Y13525500D01*
X22758400D01*
X22703790Y13470890D01*
Y13396720D01*
G01X22869520Y13535020D02*
X22838080Y13566460D01*
X22748560D01*
X22663910Y13481810D01*
Y13396720D01*
G01X22745700Y13258800D02*
X22821900D01*
X22834600Y13246100D01*
G01X22743920Y13396720D02*
Y13327140D01*
X22745700Y13325360D01*
Y13258800D01*
G01X22987000Y13474700D02*
X22942540D01*
X22929840Y13462000D01*
X22874980D01*
X22863810Y13450830D01*
Y13396720D01*
G01X22987000Y13779500D02*
X22943820Y13736320D01*
Y13667740D01*
G01X22910800Y13779500D02*
Y13729720D01*
X22903940Y13722860D01*
Y13667740D01*
G01X22823930D02*
Y13752070D01*
X22821900Y13754100D01*
G01X22783800Y13667740D02*
Y13728700D01*
X22758400Y13754100D01*
G01X22663150Y13868400D02*
Y13786480D01*
X22675850Y13773780D01*
Y13722980D01*
X22663910Y13711040D01*
Y13667740D01*
G01X22627780Y13759550D02*
Y13725080D01*
X22623780Y13721080D01*
Y13667740D01*
G01X22707600Y13804900D02*
Y13741400D01*
X22743920Y13705080D01*
Y13667740D01*
G01X22898100Y13868400D02*
X22796500D01*
G01X22863810Y13667740D02*
Y13733140D01*
X22866350Y13735680D01*
Y13772520D01*
X22863810Y13775060D01*
Y13816580D01*
X22898100Y13850870D01*
Y13868400D01*
G01X23125940Y10896600D02*
Y11010140D01*
G01X23255990Y10896600D02*
Y11012170D01*
G01X23321010Y10896600D02*
Y11012170D01*
G01X23050500Y11099800D02*
X23120360D01*
X23190960Y11029200D01*
Y10896600D01*
G01X23450800D02*
Y11042400D01*
X23342600Y11150600D01*
X23228300D01*
X23037490Y11341410D01*
Y11359830D01*
X23037800Y11360140D01*
Y11404600D01*
G01X23515830Y10896600D02*
Y11047220D01*
X23374350Y11188700D01*
X23241000D01*
X23088600Y11341100D01*
Y11491900D01*
X23075900Y11504600D01*
Y11582400D01*
G01X23329900Y11315700D02*
X23558500Y11087100D01*
G01X23127720Y11861800D02*
Y12038580D01*
X23101300Y12065000D01*
G01X23207730Y11861800D02*
Y12085570D01*
X23177500Y12115800D01*
G01X23287740Y11861800D02*
Y12145260D01*
X23253700Y12179300D01*
G01X23047710Y13055600D02*
Y12931390D01*
X23101300Y12877800D01*
X23469600D01*
X23507700Y12915900D01*
Y13538200D01*
X23367490Y13678410D01*
X23260810D01*
G01X23287740Y13055600D02*
Y13203940D01*
G01X23164800Y13195300D02*
Y13182600D01*
G01D02*
X23127720Y13145520D01*
Y13055600D01*
G01X23164800Y13182600D02*
X23207730Y13139670D01*
Y13055600D01*
G01X23190200Y13347700D02*
Y13298670D01*
X23217370Y13271500D01*
X23228300D01*
G01X23710900Y10896600D02*
Y11012170D01*
G01X23385780D02*
Y10896600D01*
G01X23645880D02*
Y10796520D01*
G01Y11341100D02*
Y11456670D01*
G01D02*
Y11571220D01*
X23606250Y11610850D01*
Y11744450D01*
X23634700Y11772900D01*
X23723600D01*
X23761700Y11811000D01*
Y13377550D01*
X23746850Y13392400D01*
X23672800D01*
G01X23367750Y12598400D02*
Y11861800D01*
G01X23672800Y11849100D02*
Y11938000D01*
G01Y12128500D02*
Y12039600D01*
G01X23368000Y13208000D02*
Y13055850D01*
X23367750Y13055600D01*
G01X23672800Y13297410D02*
Y13208000D01*
G01X23545800Y13773400D02*
X23666200D01*
X23749000Y13690600D01*
G01X23545800Y13678410D02*
X23660100D01*
G54D12*
X21767800Y11861800D03*
X21847810D03*
Y13055600D03*
X21767800D03*
X21927820Y11861800D03*
X22007830D03*
X22087840D03*
X22167850D03*
X22247860D03*
Y13055600D03*
X22167850D03*
X22087840D03*
X22007830D03*
X21927820D03*
X22327870Y11861800D03*
X22407880D03*
X22487890D03*
X22567900D03*
Y13055600D03*
X22487890D03*
X22407880D03*
X22327870D03*
X22647910Y11861800D03*
X22727920D03*
X22807680D03*
X22887690D03*
X22967700D03*
Y13055600D03*
X22887690D03*
X22807680D03*
X22727920D03*
X22647910D03*
X23047710Y11861800D03*
X23127720D03*
X23207730D03*
X23287740D03*
X23367750D03*
Y13055600D03*
X23287740D03*
X23207730D03*
X23127720D03*
X23047710D03*
X23447760Y11861800D03*
Y13055600D03*
G54D22*
G01X21742400Y13639800D02*
X21821650D01*
X21852640Y13670790D01*
X21908010D01*
G01X22098000Y13385800D02*
X22177500D01*
X22202900Y13411200D01*
X22275800D01*
G01X21907500Y13868400D02*
Y13751690D01*
X21908010Y13751180D01*
Y13670790D01*
G01X22148800Y13868400D02*
X22072600D01*
G01X22148800D02*
X22225000D01*
G01X22072600D02*
Y13779500D01*
X22098000Y13754100D01*
Y13670790D01*
G01X22543770Y11059920D02*
X22503890D01*
G01X22583900D02*
X22543770D01*
G01D02*
Y10986770D01*
X22517100Y10960100D01*
G01X22301200Y11456670D02*
X22370800D01*
X22428200Y11514070D01*
Y11531600D01*
G01X22301200Y11456670D02*
Y11328400D01*
G01X22567900Y13055600D02*
Y13246100D01*
X22580600Y13258800D01*
G01X22543770Y13396720D02*
X22583900D01*
G01X22503890D02*
X22543770D01*
G01X22428200Y13258800D02*
X22496270D01*
G01X22580600D02*
X22496270D01*
G01X22543770Y13396720D02*
Y13329560D01*
X22496270Y13282060D01*
Y13258800D01*
G01X22733000Y11645900D02*
X22677630D01*
X22647910Y11675620D01*
Y11861800D01*
G01X22733000Y11645900D02*
X22801070D01*
G01X23190200Y13512800D02*
X23282020D01*
X23307420Y13487400D01*
X23387810D01*
G01X23190200Y13512800D02*
X23172670D01*
X23109170Y13576300D01*
G01X23063200Y13868400D02*
X23260810D01*
G01X23063200D02*
Y13792200D01*
X23075900Y13779500D01*
G01X23710900Y11456670D02*
Y11590530D01*
X23672800Y11628630D01*
Y11684000D01*
G01D02*
X23749000D01*
G01X23672800Y12293600D02*
Y12382500D01*
G54D13*
X21742400Y13474700D03*
Y13639800D03*
X23190200Y13347700D03*
Y13512800D03*
X23672800Y12128500D03*
Y12293600D03*
G54D14*
X21908010Y13385800D03*
X22003000D03*
X22098000D03*
Y13670790D03*
X21908010D03*
G54D15*
X22225000Y13868400D03*
X22593300Y11531600D03*
X22428200D03*
X22580600Y13258800D03*
X22390100Y13868400D03*
X22898100Y11645900D03*
X22733000D03*
X22745700Y13258800D03*
G54D16*
X21907500Y13868400D03*
X22072600D03*
X22263100Y13258800D03*
X22428200D03*
X22898100Y13868400D03*
X23063200D03*
G54D17*
X22456390Y11330940D03*
Y11059920D03*
Y13396720D03*
Y13667740D03*
X22991320Y11330940D03*
Y11059920D03*
Y13396720D03*
Y13667740D03*
G54D18*
X22503890Y11059920D03*
Y11330940D03*
X22543770Y11059920D03*
Y11330940D03*
X22583900Y11059920D03*
Y11330940D03*
X22503890Y13396720D03*
X22543770D03*
X22583900D03*
X22503890Y13667740D03*
X22543770D03*
X22583900D03*
X22623780Y11059920D03*
Y11330940D03*
X22663910Y11059920D03*
Y11330940D03*
X22703790Y11059920D03*
Y11330940D03*
X22743920Y11059920D03*
Y11330940D03*
X22783800Y11059920D03*
Y11330940D03*
X22823930Y11059920D03*
Y11330940D03*
X22863810Y11059920D03*
Y11330940D03*
X22903940Y11059920D03*
Y11330940D03*
X22943820Y11059920D03*
Y11330940D03*
X22623780Y13396720D03*
X22663910D03*
X22703790D03*
X22743920D03*
X22783800D03*
X22823930D03*
X22863810D03*
X22903940D03*
X22943820D03*
X22623780Y13667740D03*
X22663910D03*
X22703790D03*
X22743920D03*
X22783800D03*
X22823930D03*
X22863810D03*
X22903940D03*
X22943820D03*
G54D19*
X22275800Y13576300D03*
Y13411200D03*
X23672800Y11684000D03*
Y11849100D03*
M02*
