G04 ================== begin FILE IDENTIFICATION RECORD ==================*
G04 Layout Name:  daughter_card-v1_00-0a.brd*
G04 Film Name:    Daughter_card-v1_00-0a-TOP*
G04 File Format:  Gerber RS274X*
G04 File Origin:  Cadence Allegro 17.4-S014*
G04 Origin Date:  Mon Feb 22 20:41:36 2021*
G04 *
G04 Layer:  ETCH/TOP*
G04 Layer:  PIN/TOP*
G04 Layer:  VIA CLASS/TOP*
G04 *
G04 Offset:    (0.0000 0.0000)*
G04 Mirror:    No*
G04 Mode:      Positive*
G04 Rotation:  0*
G04 FullContactRelief:  No*
G04 UndefLineWidth:     0.2540*
G04 ================== end FILE IDENTIFICATION RECORD ====================*
%FSLAX25Y25*MOMM*%
%IR0*IPPOS*OFA0.00000B0.00000*MIA0B0*SFA1.00000B1.00000*%
%ADD10C,.508*%
%AMMACRO11*
4,1,40,-.9995,.0673,
-.9995,-.0673,
-.997493,-.090239,
-.991533,-.112481,
-.981802,-.13335,
-.968594,-.152212,
-.952312,-.168494,
-.93345,-.181702,
-.912581,-.191433,
-.890339,-.197393,
-.8674,-.1994,
.8674,-.1994,
.890339,-.197393,
.912581,-.191433,
.93345,-.181702,
.952312,-.168494,
.968594,-.152212,
.981802,-.13335,
.991533,-.112481,
.997493,-.090239,
.9995,-.0673,
.9995,.0673,
.997493,.090239,
.991533,.112481,
.981802,.13335,
.968594,.152212,
.952312,.168494,
.93345,.181702,
.912581,.191433,
.890339,.197393,
.8674,.1994,
-.8674,.1994,
-.890339,.197393,
-.912581,.191433,
-.93345,.181702,
-.952312,.168494,
-.968594,.152212,
-.981802,.13335,
-.991533,.112481,
-.997493,.090239,
-.9995,.0673,
0.0*
%
%ADD11MACRO11*%
%ADD12C,.127*%
%ADD13C,.254*%
G75*
%LPD*%
G75*
G54D10*
X21666200Y10896600D03*
X21780500Y10795000D03*
X21767800Y11239500D03*
Y12179300D03*
Y12280900D03*
Y12382500D03*
X21847810Y13204190D03*
X21767800Y13208000D03*
X21818600Y13474700D03*
X22171150Y11036300D03*
X22106130D03*
X22041100D03*
X22237700D03*
X22236180Y11329920D03*
X22171150Y11328400D03*
X22106130D03*
X22041100D03*
X21976080D03*
X22087840Y12014200D03*
X22199600Y12026900D03*
Y12230100D03*
Y12153900D03*
Y12090400D03*
X22136100D03*
X22072600Y12295320D03*
X22167850Y12484100D03*
X22087840Y13205460D03*
X22007830Y13206730D03*
X21927820Y13203680D03*
X22186900Y13258800D03*
X22003000Y13481300D03*
X21908010Y13486890D03*
X22148800Y13868400D03*
X22364700Y10871200D03*
X22491700Y11252200D03*
X22517100Y10960100D03*
X22301200Y11328400D03*
X22453600Y11442700D03*
X22390100Y11391900D03*
X22479000Y12014200D03*
X22288500Y12403840D03*
X22453600D03*
X22491700Y12333730D03*
Y12263880D03*
X22339300Y13258800D03*
X22275800Y13512800D03*
X22606000Y13474700D03*
X22496270Y13258800D03*
X22352000Y13411200D03*
X22364700Y13665200D03*
X22580600Y13817600D03*
X22529800Y13754100D03*
X22453600D03*
X22322030Y13868400D03*
X22707600Y10871200D03*
X22758400Y10922000D03*
X22821900Y10833100D03*
X22863810Y10951210D03*
X22923500Y11150600D03*
X22847300Y11201400D03*
X22783800Y11252200D03*
X22999700Y10960100D03*
X22703790Y10985500D03*
X22801070Y11645900D03*
X22917260Y11417300D03*
X22868990Y11458570D03*
X22807610Y11442270D03*
X22973990Y11455400D03*
X22847300Y12446000D03*
X22908010Y12613890D03*
Y12496800D03*
X22831040Y12683740D03*
X22758400Y12753850D03*
X22783800Y12496800D03*
X22974300Y13220700D03*
X22903940Y13271500D03*
X22847300Y13322300D03*
X22783800Y13474700D03*
X22948900Y13538200D03*
X22869520Y13535020D03*
X22834600Y13246100D03*
X22987000Y13474700D03*
Y13779500D03*
X22910800D03*
X22821900Y13754100D03*
X22758400D03*
X22663150Y13868400D03*
X22627780Y13759550D03*
X22707600Y13804900D03*
X22796500Y13868400D03*
X23125940Y11010140D03*
X23255990Y11012170D03*
X23321010D03*
X23329900Y11315700D03*
X23050500Y11099800D03*
X23063200Y11671300D03*
X23037800Y11404600D03*
X23075900Y11582400D03*
X23101300Y12065000D03*
X23177500Y12115800D03*
X23253700Y12179300D03*
X23367750Y12598400D03*
X23368000Y13208000D03*
X23287740Y13203940D03*
X23164800Y13195300D03*
X23228300Y13271500D03*
X23109170Y13576300D03*
X23075900Y13779500D03*
X23645880Y10796520D03*
X23710900Y11012170D03*
X23385780D03*
X23558500Y11087100D03*
X23749000Y11684000D03*
X23645880Y11341100D03*
X23672800Y11938000D03*
Y12039600D03*
Y12382500D03*
Y13208000D03*
X23749000Y13690600D03*
X23660100Y13678410D03*
G54D11*
X22631400Y11633710D03*
Y11563860D03*
Y11493750D03*
Y11423900D03*
Y11353800D03*
Y12053820D03*
Y11983720D03*
Y11913870D03*
Y11843770D03*
Y11773920D03*
Y11703810D03*
Y12403840D03*
Y12333730D03*
Y12263880D03*
Y12193780D03*
Y12123670D03*
Y12823700D03*
Y12753850D03*
Y12683740D03*
Y12613890D03*
Y12543790D03*
Y12473690D03*
Y13173710D03*
Y13103860D03*
Y13033760D03*
Y12963910D03*
Y12893800D03*
Y13383770D03*
Y13313920D03*
Y13243810D03*
G54D12*
G01X22167850Y12484100D02*
X21666200Y11982450D01*
Y11036300D01*
X21882100Y10820400D01*
X22764740D01*
X22777440Y10833100D01*
X22821900D01*
G01X21780500Y10795000D02*
X21824960D01*
X21837660Y10782300D01*
X23587200D01*
X23601420Y10796520D01*
X23645880D01*
G01X22707600Y10871200D02*
X22453600D01*
X22402800Y10922000D01*
X21932900D01*
X21767800Y11087100D01*
Y11239500D01*
G01X22288500Y12403840D02*
X21818600Y11933940D01*
Y11112500D01*
X21983700Y10947400D01*
X22428200D01*
X22466300Y10909300D01*
X22644100D01*
X22656800Y10922000D01*
X22758400D01*
G01X22072600Y12295320D02*
X21704300Y11927020D01*
Y11074400D01*
X21907500Y10871200D01*
X22364700D01*
G01X21767800Y12179300D02*
X21647150Y12299950D01*
Y13608040D01*
X21831310Y13792200D01*
X22339290D01*
X22415490Y13868400D01*
X22663150D01*
G01X21767800Y12280900D02*
X21678900Y12369800D01*
Y13576300D01*
X21856700Y13754100D01*
X22352000D01*
X22415500Y13817600D01*
X22580600D01*
G01X21767800Y12382500D02*
X21717000Y12433300D01*
Y13550900D01*
X21875750Y13709650D01*
X22485350D01*
X22529800Y13754100D01*
G01X21847810Y13204190D02*
Y13249910D01*
X22212300Y13614400D01*
X22618700D01*
X22758400Y13754100D01*
G01X21767800Y13208000D02*
Y13538200D01*
X21894800Y13665200D01*
X22364700D01*
G01X22087840Y12014200D02*
X21920200Y11846560D01*
Y11315700D01*
X21958300Y11277600D01*
X22183860D01*
X22236180Y11329920D01*
G01X22171150Y11036300D02*
X22221950Y11087100D01*
X22860000D01*
X22923500Y11150600D01*
G01X22106130Y11036300D02*
X22195030Y11125200D01*
X22771100D01*
X22847300Y11201400D01*
G01X22041100Y11036300D02*
X22168100Y11163300D01*
X22694900D01*
X22783800Y11252200D01*
G01X22136100Y12090400D02*
X22072600D01*
X21869400Y11887200D01*
Y11137900D01*
X22021800Y10985500D01*
X22288510D01*
X22326610Y11023600D01*
X22555210D01*
X22593310Y10985500D01*
X22703790D01*
G01X22171150Y11328400D02*
Y11731760D01*
X22313900Y11874510D01*
Y12115800D01*
X22199600Y12230100D01*
G01X22106130Y11328400D02*
Y11755640D01*
X22275800Y11925310D01*
Y12077700D01*
X22199600Y12153900D01*
G01X22041100Y11328400D02*
Y11779500D01*
X22250400Y11988800D01*
Y12039600D01*
X22199600Y12090400D01*
G01X21976080Y11328400D02*
Y11803380D01*
X22199600Y12026900D01*
G01X22087840Y13205460D02*
Y13249920D01*
X22172920Y13335000D01*
X22352000D01*
X22555200Y13538200D01*
X22745700D01*
X22987000Y13779500D01*
G01X22007830Y13206730D02*
Y13257530D01*
X22186900Y13436600D01*
X22301200D01*
X22428200Y13563600D01*
X22694900D01*
X22910800Y13779500D01*
G01X22821900Y13754100D02*
X22656800Y13589000D01*
X22263100D01*
X21927820Y13253720D01*
Y13203680D01*
G01X23050500Y11099800D02*
X22999700Y11049000D01*
X22294860D01*
X22282160Y11036300D01*
X22237700D01*
G01X22631400Y12123670D02*
X22461470D01*
X22428200Y12090400D01*
Y11544290D01*
X22504400Y11468090D01*
Y11328400D01*
X22529800Y11303000D01*
X23215600D01*
X23279100Y11239500D01*
X23393400D01*
X23507700Y11353800D01*
Y11874500D01*
X23672800Y12039600D01*
G01X22453600Y11442700D02*
X22390100Y11506200D01*
Y12884920D01*
X22469090Y12963910D01*
X22631400D01*
G01X22390100Y11391900D02*
X22352000Y11430000D01*
Y12941300D01*
X22444460Y13033760D01*
X22631400D01*
G01Y11843770D02*
X22512390D01*
X22479000Y11877160D01*
Y12014200D01*
G01D02*
Y12041120D01*
X22491700Y12053820D01*
X22631400D01*
G01X22516460Y12403840D02*
X22631400D01*
G01X22453600D02*
X22516460D01*
G01X22631400Y12473690D02*
X22517100D01*
X22504400Y12460990D01*
Y12415900D01*
X22516460Y12403840D01*
G01X22631400Y12333730D02*
X22491700D01*
G01X22631400Y12263880D02*
X22491700D01*
G01X22606000Y13474700D02*
Y13462000D01*
X22631400Y13436600D01*
Y13383770D01*
G01X23710900Y11012170D02*
X23679460Y10980730D01*
X23668040D01*
X23533110Y10845800D01*
X22906350D01*
X22830150Y10922000D01*
X22758400D01*
G01X22703790Y10985500D02*
X22741890Y11023600D01*
X22860000D01*
X22999700Y10883900D01*
X23495000D01*
X23645880Y11034780D01*
Y11341100D01*
G01X22923500Y11150600D02*
X23164790D01*
X23255990Y11059400D01*
Y11012170D01*
G01X22847300Y11201400D02*
X23177500D01*
X23321010Y11057890D01*
Y11012170D01*
G01X22783800Y11252200D02*
X23190210D01*
X23385780Y11056630D01*
Y11012170D01*
G01X22917260Y11417300D02*
Y11487260D01*
X22936200Y11506200D01*
Y12424150D01*
X22908010Y12452340D01*
Y12496800D01*
G01X22847300Y12446000D02*
Y12395200D01*
X22910800Y12331700D01*
Y11544840D01*
X22868990Y11503030D01*
Y11458570D01*
G01X22783800Y12496800D02*
Y12407910D01*
X22885400Y12306310D01*
Y11564520D01*
X22807610Y11486730D01*
Y11442270D01*
G01X22631400Y12193780D02*
X22794720D01*
X22860000Y12128500D01*
Y11607800D01*
X22758400Y11506200D01*
Y11404600D01*
X22821900Y11341100D01*
X23260040D01*
X23285440Y11315700D01*
X23329900D01*
G01X22973990Y11455400D02*
Y12493690D01*
X22923890Y12543790D01*
X22631400D01*
G01Y12613890D02*
X22908010D01*
G01X22631400Y12683740D02*
X22831040D01*
G01X22631400Y12753850D02*
X22758400D01*
G01X23037800Y11404600D02*
Y11531610D01*
X23012400Y11557010D01*
Y12687300D01*
X22876000Y12823700D01*
X22631400D01*
G01X23075900Y11582400D02*
X23114000Y11620500D01*
Y11950710D01*
X23050500Y12014210D01*
Y12738100D01*
X22894800Y12893800D01*
X22631400D01*
G01X23101300Y12065000D02*
Y12890500D01*
X22974300Y13017500D01*
Y13220700D01*
G01X23177500Y12115800D02*
Y12903200D01*
X23050500Y13030200D01*
Y13220700D01*
X22999700Y13271500D01*
X22903940D01*
G01X23253700Y12179300D02*
Y12903200D01*
X23114000Y13042900D01*
Y13233400D01*
X23025100Y13322300D01*
X22847300D01*
G01X23367750Y12598400D02*
Y13061060D01*
X23055710Y13373100D01*
X22885400D01*
X22783800Y13474700D01*
G01X23368000Y13208000D02*
Y13360400D01*
X23253700Y13474700D01*
X23126700D01*
X23063200Y13538200D01*
X22948900D01*
G01X22869520Y13535020D02*
Y13465180D01*
X22923500Y13411200D01*
X23190200D01*
X23287740Y13313660D01*
Y13203940D01*
G01X22999700Y10960100D02*
X23031140Y10928660D01*
X23463560D01*
X23558500Y11023600D01*
Y11087100D01*
G01X23710900Y11012170D02*
Y11556990D01*
X23660100Y11607790D01*
Y11823700D01*
X23749000Y11912600D01*
Y13690600D01*
G54D13*
G01X22631400Y13313920D02*
X22394420D01*
X22339300Y13258800D01*
G01X22631400Y13243810D02*
X22519390D01*
X22504400Y13258800D01*
X22496270D01*
G01X22801070Y11645900D02*
Y11869920D01*
X22757120Y11913870D01*
X22631400D01*
M02*
