G04 ================== begin FILE IDENTIFICATION RECORD ==================*
G04 Layout Name:  daughter_card-v1_00-0a.brd*
G04 Film Name:    Daughter_card-v1_00-0a-Silkscreen_bot*
G04 File Format:  Gerber RS274X*
G04 File Origin:  Cadence Allegro 17.4-S014*
G04 Origin Date:  Tue Feb 23 11:44:45 2021*
G04 *
G04 Layer:  REF DES/SILKSCREEN_BOTTOM*
G04 Layer:  PACKAGE GEOMETRY/SILKSCREEN_BOTTOM*
G04 Layer:  BOARD GEOMETRY/SILKSCREEN_BOTTOM*
G04 *
G04 Offset:    (0.0000 0.0000)*
G04 Mirror:    No*
G04 Mode:      Positive*
G04 Rotation:  0*
G04 FullContactRelief:  No*
G04 UndefLineWidth:     0.2540*
G04 ================== end FILE IDENTIFICATION RECORD ====================*
%FSLAX25Y25*MOMM*%
%IR0*IPPOS*OFA0.00000B0.00000*MIA0B0*SFA1.00000B1.00000*%
%ADD10C,.2032*%
%ADD11C,.2007*%
%ADD12C,.254*%
G75*
%LPD*%
G75*
G36*
G01X21725890Y13055600D02*
G03I-28090J0D01*
G37*
G36*
G01X22376640Y10896600D02*
G03I-28140J0D01*
G37*
G36*
G01X22966170Y11401040D02*
G03I-22350J-100D01*
G37*
G36*
G01Y13737840D02*
G03I-22350J-100D01*
G37*
G36*
G01X23786340Y10896600D02*
G03I-28140J0D01*
G37*
G54D10*
G01X21767800Y13376060D02*
X21689060D01*
Y13351720D01*
X21693000Y13343930D01*
X21698250Y13339060D01*
X21708750Y13337120D01*
X21719240Y13339060D01*
X21725800Y13344910D01*
X21729740Y13351720D01*
Y13376060D01*
G01Y13351720D02*
X21767800Y13337120D01*
G01X21752050Y13299270D02*
X21761240Y13293430D01*
X21766490Y13285640D01*
X21767800Y13276880D01*
X21766490Y13269090D01*
X21759930Y13261300D01*
X21752050Y13256430D01*
X21744180Y13255460D01*
X21734990Y13257400D01*
X21728430Y13264220D01*
X21725800Y13271030D01*
Y13279800D01*
G01Y13271030D02*
X21721870Y13265190D01*
X21715310Y13260320D01*
X21707430Y13258380D01*
X21699560Y13260320D01*
X21693000Y13265190D01*
X21689060Y13273960D01*
X21690370Y13282720D01*
X21695620Y13291480D01*
G01X21808860Y13843000D02*
Y13921740D01*
X21784520D01*
X21776730Y13917800D01*
X21771860Y13912550D01*
X21769920Y13902050D01*
X21771860Y13891560D01*
X21777710Y13885000D01*
X21784520Y13881060D01*
X21808860D01*
G01X21784520D02*
X21769920Y13843000D01*
G01X21729150Y13908620D02*
X21723310Y13916490D01*
X21716490Y13920430D01*
X21708700Y13921740D01*
X21698970Y13919120D01*
X21692150Y13912550D01*
X21690200Y13904680D01*
X21691180Y13896800D01*
X21695070Y13890240D01*
X21714540Y13877120D01*
X21723310Y13867930D01*
X21729150Y13854810D01*
X21731100Y13843000D01*
X21690200D01*
G01X21963210Y13261340D02*
Y13204910D01*
X21959320Y13193100D01*
X21951530Y13185220D01*
X21941790Y13182600D01*
X21932050Y13185220D01*
X21924260Y13193100D01*
X21920370Y13204910D01*
Y13261340D01*
G01X21884470Y13198350D02*
X21878630Y13189160D01*
X21870840Y13183910D01*
X21862080Y13182600D01*
X21854290Y13183910D01*
X21846500Y13190470D01*
X21841630Y13198350D01*
X21840660Y13206220D01*
X21842600Y13215410D01*
X21849420Y13221970D01*
X21856230Y13224600D01*
X21865000D01*
G01X21856230D02*
X21850390Y13228530D01*
X21845520Y13235090D01*
X21843580Y13242970D01*
X21845520Y13250840D01*
X21850390Y13257400D01*
X21859160Y13261340D01*
X21867920Y13260030D01*
X21876680Y13254780D01*
G01X22123570D02*
X22129410Y13258720D01*
X22136230Y13261340D01*
X22144020D01*
X22152780Y13257400D01*
X22159590Y13250840D01*
X22164460Y13242970D01*
X22168360Y13229840D01*
X22169330Y13218030D01*
X22167380Y13206220D01*
X22164460Y13198350D01*
X22158620Y13190470D01*
X22151810Y13185220D01*
X22144990Y13182600D01*
X22138170D01*
X22131360Y13185220D01*
X22125520Y13189160D01*
X22120650Y13194410D01*
G01X22084750Y13248220D02*
X22078910Y13256090D01*
X22072090Y13260030D01*
X22064300Y13261340D01*
X22054570Y13258720D01*
X22047750Y13252150D01*
X22045800Y13244280D01*
X22046780Y13236400D01*
X22050670Y13229840D01*
X22070140Y13216720D01*
X22078910Y13207530D01*
X22084750Y13194410D01*
X22086700Y13182600D01*
X22045800D01*
G01X22529970Y11705380D02*
X22535810Y11709320D01*
X22542630Y11711940D01*
X22550420D01*
X22559180Y11708000D01*
X22565990Y11701440D01*
X22570860Y11693570D01*
X22574760Y11680440D01*
X22575730Y11668630D01*
X22573780Y11656820D01*
X22570860Y11648950D01*
X22565020Y11641070D01*
X22558210Y11635820D01*
X22551390Y11633200D01*
X22544570D01*
X22537760Y11635820D01*
X22531920Y11639760D01*
X22527050Y11645010D01*
G01X22491150Y11666010D02*
X22484330Y11675200D01*
X22478490Y11680440D01*
X22470700Y11683070D01*
X22463890Y11680440D01*
X22459020Y11675200D01*
X22455120Y11667320D01*
X22454150Y11658130D01*
X22455120Y11650260D01*
X22459020Y11642380D01*
X22464860Y11635820D01*
X22471680Y11633200D01*
X22479470Y11635820D01*
X22486280Y11643700D01*
X22490180Y11655510D01*
X22491150Y11668630D01*
X22489200Y11685690D01*
X22486280Y11694880D01*
X22481410Y11704070D01*
X22474600Y11710630D01*
X22467780Y11711940D01*
X22460970Y11709320D01*
X22456100Y11702750D01*
G01X22275970Y13737380D02*
X22281810Y13741320D01*
X22288630Y13743940D01*
X22296420D01*
X22305180Y13740000D01*
X22311990Y13733440D01*
X22316860Y13725570D01*
X22320760Y13712440D01*
X22321730Y13700630D01*
X22319780Y13688820D01*
X22316860Y13680950D01*
X22311020Y13673070D01*
X22304210Y13667820D01*
X22297390Y13665200D01*
X22290570D01*
X22283760Y13667820D01*
X22277920Y13671760D01*
X22273050Y13677010D01*
G01X22240070Y13680950D02*
X22234230Y13671760D01*
X22226440Y13666510D01*
X22217680Y13665200D01*
X22209890Y13666510D01*
X22202100Y13673070D01*
X22197230Y13680950D01*
X22196260Y13688820D01*
X22198200Y13698010D01*
X22205020Y13704570D01*
X22211830Y13707200D01*
X22220600D01*
G01X22211830D02*
X22205990Y13711130D01*
X22201120Y13717690D01*
X22199180Y13725570D01*
X22201120Y13733440D01*
X22205990Y13740000D01*
X22214760Y13743940D01*
X22223520Y13742630D01*
X22232280Y13737380D01*
G01X22483020Y13893970D02*
X22479080Y13899810D01*
X22476460Y13906630D01*
Y13914420D01*
X22480400Y13923180D01*
X22486960Y13929990D01*
X22494830Y13934860D01*
X22507960Y13938760D01*
X22519770Y13939730D01*
X22531580Y13937780D01*
X22539450Y13934860D01*
X22547330Y13929020D01*
X22552580Y13922210D01*
X22555200Y13915390D01*
Y13908570D01*
X22552580Y13901760D01*
X22548640Y13895920D01*
X22543390Y13891050D01*
G01X22555200Y13824970D02*
X22476460D01*
X22532890Y13860990D01*
Y13812310D01*
G01X22834770Y11540280D02*
X22840610Y11544220D01*
X22847430Y11546840D01*
X22855220D01*
X22863980Y11542900D01*
X22870790Y11536340D01*
X22875660Y11528470D01*
X22879560Y11515340D01*
X22880530Y11503530D01*
X22878580Y11491720D01*
X22875660Y11483850D01*
X22869820Y11475970D01*
X22863010Y11470720D01*
X22856190Y11468100D01*
X22849370D01*
X22842560Y11470720D01*
X22836720Y11474660D01*
X22831850Y11479910D01*
G01X22779400Y11468100D02*
X22777450Y11485160D01*
X22774530Y11499590D01*
X22770630Y11512720D01*
X22765770Y11527150D01*
X22757980Y11546840D01*
X22796920D01*
G01X22910970Y13280180D02*
X22916810Y13284120D01*
X22923630Y13286740D01*
X22931420D01*
X22940180Y13282800D01*
X22946990Y13276240D01*
X22951860Y13268370D01*
X22955760Y13255240D01*
X22956730Y13243430D01*
X22954780Y13231620D01*
X22951860Y13223750D01*
X22946020Y13215870D01*
X22939210Y13210620D01*
X22932390Y13208000D01*
X22925570D01*
X22918760Y13210620D01*
X22912920Y13214560D01*
X22908050Y13219810D01*
G01X22853650Y13208000D02*
X22846830Y13209310D01*
X22839050Y13213250D01*
X22834180Y13219810D01*
X22832230Y13229000D01*
X22834180Y13238180D01*
X22840020Y13246060D01*
X22848780Y13250000D01*
X22858520D01*
X22864360Y13252620D01*
X22869230Y13259180D01*
X22871180Y13268370D01*
X22868250Y13277550D01*
X22861440Y13284120D01*
X22853650Y13286740D01*
X22845860Y13284120D01*
X22839050Y13277550D01*
X22836120Y13268370D01*
X22838070Y13259180D01*
X22842940Y13252620D01*
X22848780Y13250000D01*
X22858520D01*
X22867280Y13246060D01*
X22873120Y13238180D01*
X22875070Y13229000D01*
X22873120Y13219810D01*
X22868250Y13213250D01*
X22860470Y13209310D01*
X22853650Y13208000D01*
G01X22697860Y13782550D02*
X22692990Y13774670D01*
X22687150Y13769420D01*
X22680340Y13766800D01*
X22672550Y13769420D01*
X22666710Y13774670D01*
X22660860Y13782550D01*
X22658920Y13793050D01*
Y13845540D01*
G01X22587970Y13766800D02*
Y13845540D01*
X22623990Y13789110D01*
X22575310D01*
G01X22737020Y13893970D02*
X22733080Y13899810D01*
X22730460Y13906630D01*
Y13914420D01*
X22734400Y13923180D01*
X22740960Y13929990D01*
X22748830Y13934860D01*
X22761960Y13938760D01*
X22773770Y13939730D01*
X22785580Y13937780D01*
X22793450Y13934860D01*
X22801330Y13929020D01*
X22806580Y13922210D01*
X22809200Y13915390D01*
Y13908570D01*
X22806580Y13901760D01*
X22802640Y13895920D01*
X22797390Y13891050D01*
G01X22800020Y13853200D02*
X22806580Y13846390D01*
X22809200Y13838600D01*
X22806580Y13830810D01*
X22798700Y13823990D01*
X22786890Y13819120D01*
X22775080Y13817180D01*
X22760640D01*
X22748830Y13819120D01*
X22738330Y13823990D01*
X22733080Y13829830D01*
X22730460Y13836650D01*
X22733080Y13844440D01*
X22738330Y13850280D01*
X22746210Y13854180D01*
X22756710Y13856120D01*
X22765890Y13854180D01*
X22775080Y13849310D01*
X22780330Y13843470D01*
X22781640Y13836650D01*
X22779020Y13828860D01*
X22772460Y13823020D01*
X22760640Y13817180D01*
G01X23078860Y11471150D02*
X23073990Y11463270D01*
X23068150Y11458020D01*
X23061340Y11455400D01*
X23053550Y11458020D01*
X23047710Y11463270D01*
X23041860Y11471150D01*
X23039920Y11481650D01*
Y11534140D01*
G01X23002070Y11467210D02*
X22996230Y11460650D01*
X22989410Y11456710D01*
X22980650Y11455400D01*
X22971890Y11458020D01*
X22965070Y11463270D01*
X22960200Y11472460D01*
X22959230Y11482960D01*
X22961180Y11493460D01*
X22966050Y11500020D01*
X22972860Y11505270D01*
X22979680Y11506580D01*
X22986490Y11505270D01*
X22995250Y11500020D01*
X22992330Y11534140D01*
X22966050D01*
G01X23215770Y13254780D02*
X23221610Y13258720D01*
X23228430Y13261340D01*
X23236220D01*
X23244980Y13257400D01*
X23251790Y13250840D01*
X23256660Y13242970D01*
X23260560Y13229840D01*
X23261530Y13218030D01*
X23259580Y13206220D01*
X23256660Y13198350D01*
X23250820Y13190470D01*
X23244010Y13185220D01*
X23237190Y13182600D01*
X23230370D01*
X23223560Y13185220D01*
X23217720Y13189160D01*
X23212850Y13194410D01*
G01X23158450Y13182600D02*
Y13261340D01*
X23170130Y13245590D01*
G01Y13182600D02*
X23146770D01*
G01X23079710Y13261340D02*
X23087500Y13258720D01*
X23093340Y13252150D01*
X23097240Y13244280D01*
X23100160Y13233780D01*
X23101130Y13221970D01*
X23100160Y13210160D01*
X23097240Y13199660D01*
X23093340Y13191780D01*
X23087500Y13185220D01*
X23079710Y13182600D01*
X23071920Y13185220D01*
X23066080Y13191780D01*
X23062180Y13199660D01*
X23059260Y13210160D01*
X23058290Y13221970D01*
X23059260Y13233780D01*
X23062180Y13244280D01*
X23066080Y13252150D01*
X23071920Y13258720D01*
X23079710Y13261340D01*
G01X23499020Y11785770D02*
X23495080Y11791610D01*
X23492460Y11798430D01*
Y11806220D01*
X23496400Y11814980D01*
X23502960Y11821790D01*
X23510830Y11826660D01*
X23523960Y11830560D01*
X23535770Y11831530D01*
X23547580Y11829580D01*
X23555450Y11826660D01*
X23563330Y11820820D01*
X23568580Y11814010D01*
X23571200Y11807190D01*
Y11800370D01*
X23568580Y11793560D01*
X23564640Y11787720D01*
X23559390Y11782850D01*
G01Y11749870D02*
X23565950Y11744030D01*
X23569890Y11737210D01*
X23571200Y11728450D01*
X23568580Y11719690D01*
X23563330Y11712870D01*
X23554140Y11708000D01*
X23543640Y11707030D01*
X23533140Y11708980D01*
X23526580Y11713850D01*
X23521330Y11720660D01*
X23520020Y11727480D01*
X23521330Y11734290D01*
X23526580Y11743050D01*
X23492460Y11740130D01*
Y11713850D01*
G01X23698200Y12487060D02*
X23619460D01*
Y12462720D01*
X23623400Y12454930D01*
X23628650Y12450060D01*
X23639150Y12448120D01*
X23649640Y12450060D01*
X23656200Y12455910D01*
X23660140Y12462720D01*
Y12487060D01*
G01Y12462720D02*
X23698200Y12448120D01*
G01Y12388850D02*
X23619460D01*
X23635210Y12400530D01*
G01X23698200D02*
Y12377170D01*
G01X23741210Y13185140D02*
Y13128710D01*
X23737320Y13116900D01*
X23729530Y13109020D01*
X23719790Y13106400D01*
X23710050Y13109020D01*
X23702260Y13116900D01*
X23698370Y13128710D01*
Y13185140D01*
G01X23662470Y13118210D02*
X23656630Y13111650D01*
X23649810Y13107710D01*
X23641050Y13106400D01*
X23632290Y13109020D01*
X23625470Y13114270D01*
X23620600Y13123460D01*
X23619630Y13133960D01*
X23621580Y13144460D01*
X23626450Y13151020D01*
X23633260Y13156270D01*
X23640080Y13157580D01*
X23646890Y13156270D01*
X23655650Y13151020D01*
X23652730Y13185140D01*
X23626450D01*
G01X23670260Y13835210D02*
X23726690D01*
X23738500Y13831320D01*
X23746380Y13823530D01*
X23749000Y13813790D01*
X23746380Y13804050D01*
X23738500Y13796260D01*
X23726690Y13792370D01*
X23670260D01*
G01X23716190Y13753550D02*
X23707000Y13746730D01*
X23701760Y13740890D01*
X23699130Y13733100D01*
X23701760Y13726290D01*
X23707000Y13721420D01*
X23714880Y13717520D01*
X23724070Y13716550D01*
X23731940Y13717520D01*
X23739820Y13721420D01*
X23746380Y13727260D01*
X23749000Y13734080D01*
X23746380Y13741870D01*
X23738500Y13748680D01*
X23726690Y13752580D01*
X23713570Y13753550D01*
X23696510Y13751600D01*
X23687320Y13748680D01*
X23678130Y13743810D01*
X23671570Y13737000D01*
X23670260Y13730180D01*
X23672880Y13723370D01*
X23679450Y13718500D01*
G54D11*
G01X21810810Y11648440D02*
Y11592010D01*
X21806920Y11580200D01*
X21799130Y11572320D01*
X21789390Y11569700D01*
X21779650Y11572320D01*
X21771860Y11580200D01*
X21767970Y11592010D01*
Y11648440D01*
G01X21729150Y11635320D02*
X21723310Y11643190D01*
X21716490Y11647130D01*
X21708700Y11648440D01*
X21698970Y11645820D01*
X21692150Y11639250D01*
X21690200Y11631380D01*
X21691180Y11623500D01*
X21695070Y11616940D01*
X21714540Y11603820D01*
X21723310Y11594630D01*
X21729150Y11581510D01*
X21731100Y11569700D01*
X21690200D01*
G01X23207810Y11648440D02*
Y11592010D01*
X23203920Y11580200D01*
X23196130Y11572320D01*
X23186390Y11569700D01*
X23176650Y11572320D01*
X23168860Y11580200D01*
X23164970Y11592010D01*
Y11648440D01*
G01X23107650Y11569700D02*
Y11648440D01*
X23119330Y11632690D01*
G01Y11569700D02*
X23095970D01*
G01X23594060Y12692210D02*
X23650490D01*
X23662300Y12688320D01*
X23670180Y12680530D01*
X23672800Y12670790D01*
X23670180Y12661050D01*
X23662300Y12653260D01*
X23650490Y12649370D01*
X23594060D01*
G01X23672800Y12580370D02*
X23594060D01*
X23650490Y12616390D01*
Y12567710D01*
G54D12*
G01X21691090Y10966700D02*
Y11386570D01*
G01X21667720Y11955530D02*
X21727920D01*
G01X21667720Y12965680D02*
Y11955530D01*
G01X21727920Y12965680D02*
X21667720D01*
G01X21673820Y13423900D02*
X21810980D01*
G01X21673820Y13690600D02*
Y13423900D01*
G01X21810980Y13690600D02*
X21673820D01*
G01X21837900Y13765780D02*
Y13295880D01*
G01D02*
X22168100D01*
G01X21810980Y13423900D02*
Y13690600D01*
G01X22168100Y13765780D02*
X21837900D01*
G01X21856700Y13799820D02*
X22123400D01*
G01D02*
Y13936980D01*
G01X21856700D02*
Y13799820D01*
G01X22123400Y13936980D02*
X21856700D01*
G01X22413720Y11300970D02*
X22383750D01*
Y11090910D01*
X22413720D01*
G01X22331170Y11386570D02*
Y10966700D01*
G01X22644100Y11600180D02*
X22377400D01*
G01D02*
Y11463020D01*
G01D02*
X22644100D01*
G01X22413720Y13637770D02*
X22383750D01*
Y13427710D01*
X22413720D01*
G01X22168100Y13295880D02*
Y13765780D01*
G01X22212300Y13190220D02*
X22479000D01*
G01D02*
Y13327380D01*
G01X22212300D02*
Y13190220D01*
G01X22479000Y13327380D02*
X22212300D01*
G01X22207220Y13627100D02*
Y13360400D01*
G01D02*
X22344380D01*
G01D02*
Y13627100D01*
G01D02*
X22207220D01*
G01X22174200Y13936980D02*
Y13799820D01*
G01X22440900D02*
Y13936980D01*
G01X22174200Y13799820D02*
X22440900D01*
G01Y13936980D02*
X22174200D01*
G01X22644100Y11463020D02*
Y11600180D01*
G01X22682200Y11714480D02*
Y11577320D01*
G01D02*
X22948900D01*
G01Y11714480D02*
X22682200D01*
G01X22796500Y13327380D02*
X22529800D01*
G01D02*
Y13190220D01*
G01X22796500D02*
Y13327380D01*
G01X22529800Y13190220D02*
X22796500D01*
G01X22847300Y13799820D02*
X23114000D01*
G01X22847300Y13936980D02*
Y13799820D01*
G01X23114000Y13936980D02*
X22847300D01*
G01X23033740Y11090910D02*
X23053800D01*
Y11300970D01*
X23033740D01*
G01X23100790Y10966700D02*
Y11386570D01*
G01X22948900Y11577320D02*
Y11714480D01*
G01X23033740Y13427710D02*
X23053800D01*
Y13637770D01*
X23033740D01*
G01X23258780Y13296900D02*
Y13563600D01*
G01X23121620Y13296900D02*
X23258780D01*
G01X23121620Y13563600D02*
Y13296900D01*
G01X23165820Y13608300D02*
X23635720D01*
G01X23165820Y13938500D02*
Y13608300D01*
G01X23114000Y13799820D02*
Y13936980D01*
G01X23258780Y13563600D02*
X23121620D01*
G01X23635720Y13938500D02*
X23165820D01*
G01X23604220Y11899900D02*
Y11633200D01*
G01D02*
X23741380D01*
G01X23547830Y11955530D02*
X23487890D01*
G01X23547830Y12965680D02*
Y11955530D01*
G01X23741380Y11899900D02*
X23604220D01*
G01X23741380Y12344400D02*
X23604220D01*
G01Y12077700D02*
X23741380D01*
G01X23604220Y12344400D02*
Y12077700D01*
G01X23487890Y12965680D02*
X23547830D01*
G01X23292820Y13227300D02*
X23762720D01*
G01X23292820Y13557500D02*
Y13227300D01*
G01X23762720Y13557500D02*
X23292820D01*
G01X23740870Y11386570D02*
Y10966700D01*
G01X23741380Y11633200D02*
Y11899900D01*
G01Y12077700D02*
Y12344400D01*
G01X23762720Y13227300D02*
Y13557500D01*
G01X23635720Y13608300D02*
Y13938500D01*
M02*
